<svg width="48" height="48" viewBox="0 0 48 48" fill="none" xmlns="http://www.w3.org/2000/svg">
<g clip-path="url(#clip0_2065_28100)">
<path d="M32.4283 17.6439C33.7915 19.5006 34.526 21.7458 34.5244 24.0509C34.5244 26.8366 33.4202 29.5081 31.4547 31.4779C29.4893 33.4476 26.8236 34.5542 24.044 34.5542H21.9479V30.3529L12.5156 38.1043L21.9479 46.1078V41.9065H24.044C28.7524 41.852 33.2525 39.9532 36.5821 36.6164C39.9116 33.2796 41.8062 28.7696 41.8606 24.0509C41.7652 20.2068 40.447 16.4937 38.0982 13.4531" stroke="url(#paint0_linear_2065_28100)" stroke-width="1.8" stroke-linejoin="round"/>
<path d="M32.4283 17.6439C33.7915 19.5006 34.526 21.7458 34.5244 24.0509C34.5244 26.8366 33.4202 29.5081 31.4547 31.4779C29.4893 33.4476 26.8236 34.5542 24.044 34.5542H21.9479V30.3529L12.5156 38.1043L21.9479 46.1078V41.9065H24.044C28.7524 41.852 33.2525 39.9532 36.5821 36.6164C39.9116 33.2796 41.8062 28.7696 41.8606 24.0509C41.7652 20.2068 40.447 16.4937 38.0982 13.4531" stroke="#666DFF" stroke-width="1.8" stroke-linejoin="round"/>
<path d="M15.5729 30.3557C14.4051 28.7953 13.694 26.9397 13.5192 24.997C13.3444 23.0543 13.7129 21.1012 14.5833 19.3566C15.4537 17.6119 16.7917 16.1446 18.4474 15.1191C20.103 14.0937 22.0109 13.5505 23.9572 13.5505H26.0533V17.6573L35.4856 9.89534L26.0533 1.90234V6.19819H23.9572C19.2514 6.26073 14.7558 8.16202 11.428 11.4971C8.10017 14.8322 6.20303 19.3376 6.14062 24.0538C6.23172 27.8699 7.55151 31.5542 9.90307 34.5571" stroke="url(#paint1_linear_2065_28100)" stroke-width="1.8" stroke-linejoin="round"/>
<path d="M15.5729 30.3557C14.4051 28.7953 13.694 26.9397 13.5192 24.997C13.3444 23.0543 13.7129 21.1012 14.5833 19.3566C15.4537 17.6119 16.7917 16.1446 18.4474 15.1191C20.103 14.0937 22.0109 13.5505 23.9572 13.5505H26.0533V17.6573L35.4856 9.89534L26.0533 1.90234V6.19819H23.9572C19.2514 6.26073 14.7558 8.16202 11.428 11.4971C8.10017 14.8322 6.20303 19.3376 6.14062 24.0538C6.23172 27.8699 7.55151 31.5542 9.90307 34.5571" stroke="#666DFF" stroke-width="1.8" stroke-linejoin="round"/>
<path d="M12.4819 44.1138C8.21966 41.661 4.84828 37.9106 2.85714 33.4072C0.866011 28.9037 0.358756 23.8815 1.40901 19.0695C2.45926 14.2575 5.01236 9.9062 8.69772 6.64711C12.3831 3.38802 17.0089 1.39079 21.9038 0.945312" stroke="url(#paint2_linear_2065_28100)" stroke-width="1.8" stroke-linejoin="round"/>
<path d="M12.4819 44.1138C8.21966 41.661 4.84828 37.9106 2.85714 33.4072C0.866011 28.9037 0.358756 23.8815 1.40901 19.0695C2.45926 14.2575 5.01236 9.9062 8.69772 6.64711C12.3831 3.38802 17.0089 1.39079 21.9038 0.945312" stroke="#666DFF" stroke-width="1.8" stroke-linejoin="round"/>
<path d="M35.5183 3.9375C39.7632 6.39853 43.1174 10.1486 45.0959 14.6456C47.0744 19.1427 47.5749 24.1538 46.5249 28.9546C45.4749 33.7554 42.9288 38.0973 39.2547 41.3526C35.5807 44.6079 30.9689 46.6081 26.0859 47.064" stroke="url(#paint3_linear_2065_28100)" stroke-width="1.8" stroke-linejoin="round"/>
<path d="M35.5183 3.9375C39.7632 6.39853 43.1174 10.1486 45.0959 14.6456C47.0744 19.1427 47.5749 24.1538 46.5249 28.9546C45.4749 33.7554 42.9288 38.0973 39.2547 41.3526C35.5807 44.6079 30.9689 46.6081 26.0859 47.064" stroke="#666DFF" stroke-width="1.8" stroke-linejoin="round"/>
</g>
<defs>
<linearGradient id="paint0_linear_2065_28100" x1="34.878" y1="16.637" x2="34.878" y2="47.4957" gradientUnits="userSpaceOnUse">
<stop stop-color="#666DFF"/>
<stop offset="0.115449" stop-color="#666DFF"/>
<stop offset="0.961359" stop-color="#5735EE"/>
</linearGradient>
<linearGradient id="paint1_linear_2065_28100" x1="28.503" y1="5.08618" x2="28.503" y2="35.9449" gradientUnits="userSpaceOnUse">
<stop stop-color="#666DFF"/>
<stop offset="0.115449" stop-color="#666DFF"/>
<stop offset="0.961359" stop-color="#5735EE"/>
</linearGradient>
<linearGradient id="paint2_linear_2065_28100" x1="16.9" y1="5.15424" x2="16.9" y2="45.9485" gradientUnits="userSpaceOnUse">
<stop stop-color="#666DFF"/>
<stop offset="0.115449" stop-color="#666DFF"/>
<stop offset="0.961359" stop-color="#5735EE"/>
</linearGradient>
<linearGradient id="paint3_linear_2065_28100" x1="42.07" y1="8.14233" x2="42.07" y2="48.8969" gradientUnits="userSpaceOnUse">
<stop stop-color="#666DFF"/>
<stop offset="0.115449" stop-color="#666DFF"/>
<stop offset="0.961359" stop-color="#5735EE"/>
</linearGradient>
<clipPath id="clip0_2065_28100">
<rect width="48" height="48" fill="white"/>
</clipPath>
</defs>
</svg>
