<svg width="240" height="100" viewBox="0 0 240 100" fill="none" xmlns="http://www.w3.org/2000/svg">
<mask id="mask0_1439_3009" style="mask-type:alpha" maskUnits="userSpaceOnUse" x="35" y="17" width="58" height="66">
<path d="M35.4885 33.5351C44.9739 27.9922 54.486 22.4928 64.0048 17C71.0211 21.1162 78.0875 25.159 85.1305 29.2351C87.5495 30.7119 90.1355 31.9581 92.4442 33.5919C86.8445 36.7526 81.3183 40.0402 75.7086 43.1808C71.7929 40.9623 67.8771 38.7438 63.9948 36.4652C60.1458 38.6837 56.2969 40.9055 52.4479 43.1207C52.1205 43.565 52.3043 44.1564 52.2575 44.6676C52.2842 48.6068 52.2408 52.5493 52.2742 56.4917C52.3477 56.9094 52.8355 57.013 53.1362 57.2301C56.768 59.2983 60.3029 61.5401 63.9847 63.5147C67.8671 61.186 71.8463 59.021 75.7253 56.6889C75.7654 56.0741 75.7454 55.4593 75.7554 54.8479C71.8163 54.7811 67.8771 54.7978 63.9413 54.8379C63.9279 52.9402 63.9981 51.0391 63.9146 49.1447C64.7966 48.834 65.7422 48.981 66.6576 48.9609C71.6091 48.9643 76.564 48.9743 81.5188 48.9576C81.5589 52.6495 81.4887 56.3447 81.5522 60.0366C75.7354 63.4847 69.8383 66.7957 64.0148 70.2237C58.1512 66.9327 52.3878 63.4646 46.5509 60.1335C42.7888 62.0847 39.2506 64.4903 35.4785 66.4349C35.5153 55.4694 35.5019 44.5006 35.4885 33.5351ZM41.6595 36.6523C41.1216 36.8561 41.3822 37.5344 41.3154 37.962C41.3655 44.1163 41.262 50.274 41.3655 56.4249C43.1096 55.5262 44.74 54.4303 46.4741 53.5148C46.4707 48.9676 46.5075 44.417 46.4574 39.8698C52.3043 36.4786 58.1412 33.0606 64.0115 29.7095C67.9874 32.0349 71.9566 34.377 75.986 36.6022C77.603 35.5097 79.3438 34.6076 81.0277 33.622C75.3846 30.2875 69.688 27.0433 64.0349 23.7256C56.5207 27.9354 49.1269 32.359 41.6595 36.6523Z" fill="#C4C4C4"/>
<path d="M86.8212 45.837C88.769 44.8781 90.5699 43.6519 92.5211 42.6964C92.4977 50.6214 92.511 58.5465 92.5144 66.4682C83.0524 72.0445 73.4835 77.4438 64.0115 83C57.0687 79.0575 50.2228 74.9446 43.2733 71.0188C44.9338 69.9998 46.6445 69.0643 48.3284 68.082C48.6792 67.9183 49.1002 67.5575 49.4878 67.8548C54.329 70.6446 59.1602 73.4578 63.9981 76.251C71.5156 71.834 79.0665 67.4706 86.6407 63.1472C86.7376 58.5465 86.6541 53.9458 86.6842 49.3451C86.7176 48.1758 86.5906 46.993 86.8212 45.837Z" fill="#C4C4C4"/>
</mask>
<g mask="url(#mask0_1439_3009)">
<mask id="mask1_1439_3009" style="mask-type:alpha" maskUnits="userSpaceOnUse" x="30" y="13" width="71" height="78">
<path d="M100.535 64.9834V38.8205C100.535 34.46 98.2672 30.3072 94.3501 28.0231L71.6721 14.9416C67.755 12.6576 63.2194 12.6576 59.3023 14.9416L36.6244 28.0231C32.7072 30.3072 30.4395 34.46 30.4395 38.8205V64.9834C30.4395 69.3439 32.7072 73.4968 36.6244 75.7809L59.3023 88.8623C63.2194 91.1464 67.755 91.1464 71.6721 88.8623L94.3501 75.7809C98.061 73.4968 100.535 69.5516 100.535 64.9834V64.9834Z" fill="#FFDFDF"/>
</mask>
<g mask="url(#mask1_1439_3009)">
<g clip-path="url(#clip0_1439_3009)">
<rect width="123.755" height="77.3468" transform="translate(3.60938 13.2286)" fill="#1F0659"/>
<g filter="url(#filter0_f_1439_3009)">
<ellipse cx="54.6581" cy="45.1986" rx="46.9237" ry="63.4244" fill="#2C00D9"/>
</g>
<g filter="url(#filter1_f_1439_3009)">
<ellipse cx="-2.82373" cy="48.6668" rx="76.1276" ry="30.6966" transform="rotate(9.05178 -2.82373 48.6668)" fill="#FF0099"/>
</g>
<g filter="url(#filter2_f_1439_3009)">
<ellipse cx="38.9606" cy="43.8917" rx="30.6693" ry="20.2138" transform="rotate(27.7951 38.9606 43.8917)" fill="#00FFFF"/>
</g>
<g filter="url(#filter3_f_1439_3009)">
<ellipse cx="-11.1938" cy="57.5323" rx="49.0234" ry="20.1143" transform="rotate(-2.20285 -11.1938 57.5323)" fill="#FFF4F5"/>
</g>
</g>
</g>
</g>
<path d="M113.76 56.69C112.569 56.69 111.549 56.4937 110.701 56.101C109.865 55.6957 109.212 55.113 108.744 54.353C108.288 53.5803 108.041 52.6493 108.003 51.56C107.99 51.0153 107.984 50.4327 107.984 49.812C107.984 49.1913 107.99 48.6023 108.003 48.045C108.041 46.981 108.288 46.0753 108.744 45.328C109.212 44.5807 109.871 44.0107 110.72 43.618C111.581 43.2127 112.594 43.01 113.76 43.01C114.697 43.01 115.52 43.1303 116.23 43.371C116.939 43.6117 117.534 43.9283 118.016 44.321C118.497 44.701 118.864 45.119 119.118 45.575C119.371 46.031 119.504 46.468 119.517 46.886C119.517 47 119.479 47.1013 119.403 47.19C119.327 47.266 119.225 47.304 119.099 47.304H116.743C116.616 47.304 116.515 47.2787 116.439 47.228C116.375 47.1773 116.318 47.1013 116.268 47C116.179 46.772 116.033 46.544 115.831 46.316C115.641 46.0753 115.381 45.8727 115.052 45.708C114.722 45.5433 114.292 45.461 113.76 45.461C112.962 45.461 112.328 45.67 111.86 46.088C111.404 46.506 111.157 47.19 111.119 48.14C111.081 49.2293 111.081 50.3377 111.119 51.465C111.157 52.453 111.41 53.1623 111.879 53.593C112.36 54.0237 113 54.239 113.798 54.239C114.317 54.239 114.779 54.1503 115.185 53.973C115.603 53.783 115.932 53.4917 116.173 53.099C116.413 52.7063 116.534 52.206 116.534 51.598V51.123H114.463C114.336 51.123 114.228 51.0787 114.14 50.99C114.051 50.8887 114.007 50.7747 114.007 50.648V49.432C114.007 49.2927 114.051 49.1787 114.14 49.09C114.228 49.0013 114.336 48.957 114.463 48.957H119.118C119.257 48.957 119.371 49.0013 119.46 49.09C119.548 49.1787 119.593 49.2927 119.593 49.432V51.503C119.593 52.5923 119.352 53.5233 118.871 54.296C118.402 55.0687 117.724 55.664 116.838 56.082C115.964 56.4873 114.938 56.69 113.76 56.69ZM124.385 56.5C124.246 56.5 124.132 56.4557 124.043 56.367C123.954 56.2783 123.91 56.1643 123.91 56.025V43.675C123.91 43.5357 123.954 43.4217 124.043 43.333C124.132 43.2443 124.246 43.2 124.385 43.2H129.42C131.003 43.2 132.251 43.5673 133.163 44.302C134.075 45.024 134.531 46.069 134.531 47.437C134.531 48.3617 134.309 49.1343 133.866 49.755C133.423 50.3757 132.827 50.838 132.08 51.142L134.759 55.892C134.797 55.968 134.816 56.0377 134.816 56.101C134.816 56.2023 134.778 56.2973 134.702 56.386C134.626 56.462 134.531 56.5 134.417 56.5H132.308C132.08 56.5 131.909 56.443 131.795 56.329C131.681 56.2023 131.599 56.0883 131.548 55.987L129.23 51.636H126.931V56.025C126.931 56.1643 126.887 56.2783 126.798 56.367C126.709 56.4557 126.595 56.5 126.456 56.5H124.385ZM126.931 49.223H129.363C130.06 49.223 130.573 49.0647 130.902 48.748C131.244 48.4313 131.415 47.988 131.415 47.418C131.415 46.848 131.25 46.3983 130.921 46.069C130.592 45.7397 130.072 45.575 129.363 45.575H126.931V49.223ZM139.336 56.5C139.197 56.5 139.083 56.4557 138.994 56.367C138.905 56.2783 138.861 56.1643 138.861 56.025V43.675C138.861 43.5357 138.905 43.4217 138.994 43.333C139.083 43.2443 139.197 43.2 139.336 43.2H141.483C141.622 43.2 141.736 43.2443 141.825 43.333C141.914 43.4217 141.958 43.5357 141.958 43.675V56.025C141.958 56.1643 141.914 56.2783 141.825 56.367C141.736 56.4557 141.622 56.5 141.483 56.5H139.336ZM147.236 56.5C147.097 56.5 146.983 56.4557 146.894 56.367C146.806 56.2783 146.761 56.1643 146.761 56.025V43.675C146.761 43.5357 146.806 43.4217 146.894 43.333C146.983 43.2443 147.097 43.2 147.236 43.2H152.423C153.449 43.2 154.336 43.3583 155.083 43.675C155.843 43.9917 156.432 44.473 156.85 45.119C157.281 45.7523 157.496 46.544 157.496 47.494C157.496 48.4567 157.281 49.2547 156.85 49.888C156.432 50.5087 155.843 50.971 155.083 51.275C154.336 51.579 153.449 51.731 152.423 51.731H149.877V56.025C149.877 56.1643 149.833 56.2783 149.744 56.367C149.656 56.4557 149.542 56.5 149.402 56.5H147.236ZM149.82 49.375H152.328C152.974 49.375 153.475 49.2167 153.829 48.9C154.197 48.5833 154.38 48.1083 154.38 47.475C154.38 46.9177 154.216 46.4617 153.886 46.107C153.57 45.7523 153.05 45.575 152.328 45.575H149.82V49.375Z" fill="#323B4B"/>
<path opacity="0.8" d="M168.932 56.69C167.805 56.69 166.848 56.5127 166.063 56.158C165.29 55.8033 164.708 55.36 164.315 54.828C163.935 54.2833 163.732 53.726 163.707 53.156C163.707 53.042 163.745 52.947 163.821 52.871C163.897 52.795 163.992 52.757 164.106 52.757H165.854C166.133 52.757 166.323 52.8837 166.424 53.137C166.703 54.0363 167.539 54.486 168.932 54.486C169.705 54.486 170.306 54.3087 170.737 53.954C171.18 53.5993 171.402 53.0927 171.402 52.434C171.402 51.7753 171.199 51.3003 170.794 51.009C170.401 50.705 169.819 50.553 169.046 50.553H167.089C166.962 50.553 166.855 50.5087 166.766 50.42C166.677 50.3313 166.633 50.2237 166.633 50.097V49.28C166.633 49.0393 166.715 48.8493 166.88 48.71L170.262 45.404H164.847C164.708 45.404 164.594 45.3597 164.505 45.271C164.416 45.1823 164.372 45.0747 164.372 44.948V43.675C164.372 43.5357 164.416 43.4217 164.505 43.333C164.594 43.2443 164.708 43.2 164.847 43.2H173.017C173.156 43.2 173.27 43.2443 173.359 43.333C173.448 43.4217 173.492 43.5357 173.492 43.675V44.834C173.492 45.0493 173.41 45.2267 173.245 45.366L169.977 48.729L170.205 48.748C171.421 48.8493 172.384 49.2167 173.093 49.85C173.815 50.4833 174.176 51.389 174.176 52.567C174.176 53.403 173.948 54.1313 173.492 54.752C173.049 55.3727 172.428 55.854 171.63 56.196C170.845 56.5253 169.945 56.69 168.932 56.69ZM183.241 56.69C181.544 56.69 180.277 56.2213 179.441 55.284C178.618 54.3467 178.168 53.118 178.092 51.598C178.08 51.256 178.073 50.6733 178.073 49.85C178.073 49.014 178.08 48.4187 178.092 48.064C178.156 46.5693 178.612 45.3533 179.46 44.416C180.309 43.4787 181.569 43.01 183.241 43.01C184.913 43.01 186.174 43.4787 187.022 44.416C187.871 45.3533 188.327 46.5693 188.39 48.064C188.416 48.7733 188.428 49.3687 188.428 49.85C188.428 50.3313 188.416 50.914 188.39 51.598C188.314 53.118 187.858 54.3467 187.022 55.284C186.199 56.2213 184.939 56.69 183.241 56.69ZM183.241 54.467C184.027 54.467 184.616 54.2137 185.008 53.707C185.401 53.1877 185.61 52.453 185.635 51.503C185.648 51.1357 185.654 50.572 185.654 49.812C185.654 49.052 185.648 48.501 185.635 48.159C185.61 47.2343 185.401 46.5123 185.008 45.993C184.616 45.4737 184.027 45.2077 183.241 45.195C182.456 45.2077 181.867 45.4737 181.474 45.993C181.082 46.5123 180.873 47.2343 180.847 48.159C180.835 48.501 180.828 49.052 180.828 49.812C180.828 50.572 180.835 51.1357 180.847 51.503C180.873 52.453 181.082 53.1877 181.474 53.707C181.867 54.2137 182.456 54.467 183.241 54.467ZM197.766 56.69C196.068 56.69 194.802 56.2213 193.966 55.284C193.142 54.3467 192.693 53.118 192.617 51.598C192.604 51.256 192.598 50.6733 192.598 49.85C192.598 49.014 192.604 48.4187 192.617 48.064C192.68 46.5693 193.136 45.3533 193.985 44.416C194.833 43.4787 196.094 43.01 197.766 43.01C199.438 43.01 200.698 43.4787 201.547 44.416C202.395 45.3533 202.851 46.5693 202.915 48.064C202.94 48.7733 202.953 49.3687 202.953 49.85C202.953 50.3313 202.94 50.914 202.915 51.598C202.839 53.118 202.383 54.3467 201.547 55.284C200.723 56.2213 199.463 56.69 197.766 56.69ZM197.766 54.467C198.551 54.467 199.14 54.2137 199.533 53.707C199.925 53.1877 200.134 52.453 200.16 51.503C200.172 51.1357 200.179 50.572 200.179 49.812C200.179 49.052 200.172 48.501 200.16 48.159C200.134 47.2343 199.925 46.5123 199.533 45.993C199.14 45.4737 198.551 45.2077 197.766 45.195C196.98 45.2077 196.391 45.4737 195.999 45.993C195.606 46.5123 195.397 47.2343 195.372 48.159C195.359 48.501 195.353 49.052 195.353 49.812C195.353 50.572 195.359 51.1357 195.372 51.503C195.397 52.453 195.606 53.1877 195.999 53.707C196.391 54.2137 196.98 54.467 197.766 54.467Z" fill="#323B4B"/>
<defs>
<filter id="filter0_f_1439_3009" x="-25.7894" y="-51.7496" width="160.895" height="193.896" filterUnits="userSpaceOnUse" color-interpolation-filters="sRGB">
<feFlood flood-opacity="0" result="BackgroundImageFix"/>
<feBlend mode="normal" in="SourceGraphic" in2="BackgroundImageFix" result="shape"/>
<feGaussianBlur stdDeviation="16.7619" result="effect1_foregroundBlur_1439_3009"/>
</filter>
<filter id="filter1_f_1439_3009" x="-103.304" y="-9.07931" width="200.961" height="115.492" filterUnits="userSpaceOnUse" color-interpolation-filters="sRGB">
<feFlood flood-opacity="0" result="BackgroundImageFix"/>
<feBlend mode="normal" in="SourceGraphic" in2="BackgroundImageFix" result="shape"/>
<feGaussianBlur stdDeviation="12.5714" result="effect1_foregroundBlur_1439_3009"/>
</filter>
<filter id="filter2_f_1439_3009" x="-14.9114" y="-4.14921" width="107.744" height="96.0818" filterUnits="userSpaceOnUse" color-interpolation-filters="sRGB">
<feFlood flood-opacity="0" result="BackgroundImageFix"/>
<feBlend mode="normal" in="SourceGraphic" in2="BackgroundImageFix" result="shape"/>
<feGaussianBlur stdDeviation="12.5714" result="effect1_foregroundBlur_1439_3009"/>
</filter>
<filter id="filter3_f_1439_3009" x="-72.7589" y="24.772" width="123.13" height="65.5206" filterUnits="userSpaceOnUse" color-interpolation-filters="sRGB">
<feFlood flood-opacity="0" result="BackgroundImageFix"/>
<feBlend mode="normal" in="SourceGraphic" in2="BackgroundImageFix" result="shape"/>
<feGaussianBlur stdDeviation="6.28571" result="effect1_foregroundBlur_1439_3009"/>
</filter>
<clipPath id="clip0_1439_3009">
<rect width="123.755" height="77.3468" fill="white" transform="translate(3.60938 13.2286)"/>
</clipPath>
</defs>
</svg>
