<svg width="226" height="66" viewBox="0 0 226 66" fill="none" xmlns="http://www.w3.org/2000/svg">
<mask id="mask0_1430_3456" style="mask-type:alpha" maskUnits="userSpaceOnUse" x="29" y="0" width="58" height="66">
<path d="M29.4885 16.5351C38.9739 10.9922 48.486 5.49276 58.0048 0C65.0211 4.11623 72.0875 8.15895 79.1305 12.2351C81.5495 13.7119 84.1355 14.9581 86.4442 16.5919C80.8445 19.7526 75.3183 23.0402 69.7086 26.1808C65.7929 23.9623 61.8771 21.7438 57.9948 19.4652C54.1458 21.6837 50.2969 23.9055 46.4479 26.1207C46.1205 26.565 46.3043 27.1564 46.2575 27.6676C46.2842 31.6068 46.2408 35.5493 46.2742 39.4917C46.3477 39.9094 46.8355 40.013 47.1362 40.2301C50.768 42.2983 54.3029 44.5401 57.9847 46.5147C61.8671 44.186 65.8463 42.021 69.7253 39.6889C69.7654 39.0741 69.7454 38.4593 69.7554 37.8479C65.8163 37.7811 61.8771 37.7978 57.9413 37.8379C57.9279 35.9402 57.9981 34.0391 57.9146 32.1447C58.7966 31.834 59.7422 31.981 60.6576 31.9609C65.6091 31.9643 70.564 31.9743 75.5188 31.9576C75.5589 35.6495 75.4887 39.3447 75.5522 43.0366C69.7354 46.4847 63.8383 49.7957 58.0148 53.2237C52.1512 49.9327 46.3878 46.4646 40.5509 43.1335C36.7888 45.0847 33.2506 47.4903 29.4785 49.4349C29.5153 38.4694 29.5019 27.5006 29.4885 16.5351ZM35.6595 19.6523C35.1216 19.8561 35.3822 20.5344 35.3154 20.962C35.3655 27.1163 35.262 33.274 35.3655 39.4249C37.1096 38.5262 38.74 37.4303 40.4741 36.5148C40.4707 31.9676 40.5075 27.417 40.4574 22.8698C46.3043 19.4786 52.1412 16.0606 58.0115 12.7095C61.9874 15.0349 65.9566 17.377 69.986 19.6022C71.603 18.5097 73.3438 17.6076 75.0277 16.622C69.3846 13.2875 63.688 10.0433 58.0349 6.72562C50.5207 10.9354 43.1269 15.359 35.6595 19.6523Z" fill="#C4C4C4"/>
<path d="M80.8212 28.837C82.769 27.8781 84.5699 26.6519 86.5211 25.6964C86.4977 33.6214 86.511 41.5465 86.5144 49.4682C77.0524 55.0445 67.4835 60.4438 58.0115 66C51.0687 62.0575 44.2228 57.9446 37.2733 54.0188C38.9338 52.9998 40.6445 52.0643 42.3284 51.082C42.6792 50.9183 43.1002 50.5575 43.4878 50.8548C48.329 53.6446 53.1602 56.4578 57.9981 59.251C65.5156 54.834 73.0665 50.4706 80.6407 46.1472C80.7376 41.5465 80.6541 36.9458 80.6842 32.3451C80.7176 31.1758 80.5906 29.993 80.8212 28.837Z" fill="#C4C4C4"/>
</mask>
<g mask="url(#mask0_1430_3456)">
<mask id="mask1_1430_3456" style="mask-type:alpha" maskUnits="userSpaceOnUse" x="24" y="-4" width="71" height="78">
<path d="M94.535 47.9834V21.8205C94.535 17.46 92.2672 13.3072 88.3501 11.0231L65.6721 -2.05837C61.755 -4.34244 57.2194 -4.34244 53.3023 -2.05837L30.6244 11.0231C26.7072 13.3072 24.4395 17.46 24.4395 21.8205V47.9834C24.4395 52.3439 26.7072 56.4968 30.6244 58.7809L53.3023 71.8623C57.2194 74.1464 61.755 74.1464 65.6721 71.8623L88.3501 58.7809C92.061 56.4968 94.535 52.5516 94.535 47.9834V47.9834Z" fill="#FFDFDF"/>
</mask>
<g mask="url(#mask1_1430_3456)">
<g clip-path="url(#clip0_1430_3456)">
<rect width="123.755" height="77.3468" transform="translate(-2.39062 -3.77142)" fill="#1F0659"/>
<g filter="url(#filter0_f_1430_3456)">
<ellipse cx="48.6581" cy="28.1986" rx="46.9237" ry="63.4244" fill="#2C00D9"/>
</g>
<g filter="url(#filter1_f_1430_3456)">
<ellipse cx="-8.82373" cy="31.6669" rx="76.1276" ry="30.6966" transform="rotate(9.05178 -8.82373 31.6669)" fill="#FF0099"/>
</g>
<g filter="url(#filter2_f_1430_3456)">
<ellipse cx="32.9606" cy="26.8917" rx="30.6693" ry="20.2138" transform="rotate(27.7951 32.9606 26.8917)" fill="#00FFFF"/>
</g>
<g filter="url(#filter3_f_1430_3456)">
<ellipse cx="-17.1938" cy="40.5323" rx="49.0234" ry="20.1143" transform="rotate(-2.20285 -17.1938 40.5323)" fill="#FFF4F5"/>
</g>
</g>
</g>
</g>
<path d="M104.061 35.74V28.46C104.061 26.2867 105.147 25.2 107.321 25.2H113.181L114.361 26.12V27.42H107.381C106.794 27.42 106.501 27.7067 106.501 28.28V35.92C106.501 36.4933 106.794 36.78 107.381 36.78H112.321V32.96H109.401V30.74H114.761V39H107.321C105.147 39 104.061 37.9133 104.061 35.74ZM119.757 39V25.2H126.397C128.57 25.2 129.657 26.2867 129.657 28.46V30.72C129.657 32.4 128.99 33.42 127.657 33.78L130.057 38.48L129.757 39H127.677L125.117 33.96H122.197V39H119.757ZM122.197 31.74H126.337C126.923 31.74 127.217 31.4467 127.217 30.86V28.28C127.217 27.7067 126.923 27.42 126.337 27.42H122.197V31.74ZM134.647 39V25.2H137.087V39H134.647ZM142.487 39V25.2H149.127C151.3 25.2 152.387 26.2867 152.387 28.46V31.12C152.387 33.28 151.3 34.36 149.127 34.36H144.927V39H142.487ZM144.927 32.14H149.067C149.654 32.14 149.947 31.8467 149.947 31.26V28.28C149.947 27.7067 149.654 27.42 149.067 27.42H144.927V32.14Z" fill="#323B4B"/>
<path opacity="0.75" d="M159.078 38.2V37.16H164.858C165.618 37.16 165.998 36.7867 165.998 36.04V33.86C165.998 33.1 165.618 32.72 164.858 32.72H160.558V30.88H164.858C165.618 30.88 165.998 30.5 165.998 29.74V28.16C165.998 27.4133 165.618 27.04 164.858 27.04H159.278V26L160.318 25.2H164.878C166.984 25.2 168.038 26.2533 168.038 28.36V29.76C168.038 30.2933 167.871 30.7267 167.538 31.06L166.838 31.76L167.538 32.46C167.871 32.7933 168.038 33.2267 168.038 33.76V35.84C168.038 37.9467 166.984 39 164.878 39H160.118L159.078 38.2ZM172.44 35.84V28.36C172.44 26.2533 173.494 25.2 175.6 25.2H178.44C180.547 25.2 181.6 26.2533 181.6 28.36V35.84C181.6 37.9467 180.547 39 178.44 39H175.6C173.494 39 172.44 37.9467 172.44 35.84ZM174.48 36.04C174.48 36.7867 174.86 37.16 175.62 37.16H178.42C179.18 37.16 179.56 36.7867 179.56 36.04V28.16C179.56 27.4133 179.18 27.04 178.42 27.04H175.62C174.86 27.04 174.48 27.4133 174.48 28.16V36.04ZM186.003 35.84V28.36C186.003 26.2533 187.056 25.2 189.163 25.2H192.003C194.109 25.2 195.163 26.2533 195.163 28.36V35.84C195.163 37.9467 194.109 39 192.003 39H189.163C187.056 39 186.003 37.9467 186.003 35.84ZM188.043 36.04C188.043 36.7867 188.423 37.16 189.183 37.16H191.983C192.743 37.16 193.123 36.7867 193.123 36.04V28.16C193.123 27.4133 192.743 27.04 191.983 27.04H189.183C188.423 27.04 188.043 27.4133 188.043 28.16V36.04Z" fill="#323B4B"/>
<defs>
<filter id="filter0_f_1430_3456" x="-31.7894" y="-68.7496" width="160.895" height="193.896" filterUnits="userSpaceOnUse" color-interpolation-filters="sRGB">
<feFlood flood-opacity="0" result="BackgroundImageFix"/>
<feBlend mode="normal" in="SourceGraphic" in2="BackgroundImageFix" result="shape"/>
<feGaussianBlur stdDeviation="16.7619" result="effect1_foregroundBlur_1430_3456"/>
</filter>
<filter id="filter1_f_1430_3456" x="-109.304" y="-26.0793" width="200.961" height="115.492" filterUnits="userSpaceOnUse" color-interpolation-filters="sRGB">
<feFlood flood-opacity="0" result="BackgroundImageFix"/>
<feBlend mode="normal" in="SourceGraphic" in2="BackgroundImageFix" result="shape"/>
<feGaussianBlur stdDeviation="12.5714" result="effect1_foregroundBlur_1430_3456"/>
</filter>
<filter id="filter2_f_1430_3456" x="-20.9114" y="-21.1492" width="107.744" height="96.0818" filterUnits="userSpaceOnUse" color-interpolation-filters="sRGB">
<feFlood flood-opacity="0" result="BackgroundImageFix"/>
<feBlend mode="normal" in="SourceGraphic" in2="BackgroundImageFix" result="shape"/>
<feGaussianBlur stdDeviation="12.5714" result="effect1_foregroundBlur_1430_3456"/>
</filter>
<filter id="filter3_f_1430_3456" x="-78.7589" y="7.77199" width="123.13" height="65.5207" filterUnits="userSpaceOnUse" color-interpolation-filters="sRGB">
<feFlood flood-opacity="0" result="BackgroundImageFix"/>
<feBlend mode="normal" in="SourceGraphic" in2="BackgroundImageFix" result="shape"/>
<feGaussianBlur stdDeviation="6.28571" result="effect1_foregroundBlur_1430_3456"/>
</filter>
<clipPath id="clip0_1430_3456">
<rect width="123.755" height="77.3468" fill="white" transform="translate(-2.39062 -3.77142)"/>
</clipPath>
</defs>
</svg>
