<svg width="50" height="50" viewBox="0 0 50 50" fill="none" xmlns="http://www.w3.org/2000/svg">
<path d="M16.6522 7.26087L25 13.5217M16.6522 7.26087L25 1L33.3478 7.26087M16.6522 7.26087V13.5217M25 13.5217L33.3478 7.26087M25 13.5217V21.8696M16.6522 34.3913L25 28.1304L33.3478 34.3913M16.6522 34.3913V42.7391L25 49M16.6522 34.3913L25 40.6522M33.3478 34.3913V42.7391L25 49M33.3478 34.3913L25 40.6522M25 49V40.6522M13.5217 28.1304L19.2609 32.4296M13.5217 32.3043L9.34783 35.4348M9.34783 35.4348L1 29.1739V20.8261M9.34783 35.4348V27.087M1 20.8261L9.34783 14.5652L17.6957 20.8261M1 20.8261L9.34783 27.087M17.6957 20.8261V27.087M17.6957 20.8261L9.34783 27.087M15.087 18.8748L20.8261 14.5652M29.1739 18.7391L25 21.8696M25 21.8696L20.8261 18.7391M33.3478 13.5217V7.26087M36.4783 28.1304L30.7391 32.4296M36.4783 32.3043L40.6522 35.4348M40.6522 35.4348L49 29.1739V20.8261M40.6522 35.4348V27.087M49 20.8261L40.6522 14.5652L32.3043 20.8261M49 20.8261L40.6522 27.087M32.3043 20.8261V27.087M32.3043 20.8261L40.6522 27.087M34.913 18.8748L29.1739 14.5652" stroke="url(#paint0_linear_1676_37803)" stroke-width="2" stroke-linecap="round" stroke-linejoin="round"/>
<defs>
<linearGradient id="paint0_linear_1676_37803" x1="25" y1="1" x2="25" y2="49" gradientUnits="userSpaceOnUse">
<stop stop-color="#666DFF"/>
<stop offset="1" stop-color="#4C53E0"/>
</linearGradient>
</defs>
</svg>
