<svg width="48" height="48" viewBox="0 0 48 48" fill="none" xmlns="http://www.w3.org/2000/svg">
<mask id="path-1-inside-1_1676_37785" fill="white">
<path d="M12.1752 23.2219H4.99318V24.7182H12.1752V23.2219Z"/>
<path d="M2.87277 26.8386C2.30531 26.8386 1.75056 26.6705 1.27851 26.3556C0.806453 26.0407 0.438236 25.593 0.220306 25.0691C0.00237556 24.5451 -0.0555056 23.9684 0.0539639 23.4116C0.163433 22.8548 0.435349 22.3429 0.835411 21.9404C1.23547 21.538 1.74576 21.263 2.3019 21.1503C2.85804 21.0375 3.43512 21.092 3.96035 21.3068C4.48558 21.5216 4.93542 21.8871 5.25314 22.3573C5.57086 22.8275 5.74221 23.3812 5.74559 23.9487C5.74784 24.3274 5.6752 24.7028 5.53183 25.0533C5.38847 25.4038 5.17722 25.7226 4.91023 25.9911C4.64324 26.2597 4.32578 26.4729 3.97611 26.6183C3.62645 26.7637 3.25148 26.8386 2.87277 26.8386ZM2.87277 22.5636C2.60492 22.572 2.34543 22.6589 2.12652 22.8134C1.90762 22.968 1.73893 23.1835 1.64141 23.4331C1.5439 23.6827 1.52184 23.9555 1.57798 24.2175C1.63413 24.4796 1.766 24.7193 1.95722 24.9071C2.14845 25.0948 2.3906 25.2223 2.65363 25.2736C2.91665 25.3249 3.18895 25.2979 3.43674 25.1958C3.68452 25.0937 3.89686 24.9211 4.0474 24.6994C4.19794 24.4777 4.28005 24.2167 4.28353 23.9487C4.28134 23.7668 4.24292 23.5872 4.1705 23.4204C4.09808 23.2536 3.99312 23.1028 3.86176 22.9771C3.7304 22.8513 3.57528 22.7529 3.40546 22.6878C3.23565 22.6227 3.05455 22.5921 2.87277 22.5978V22.5636Z"/>
<path d="M7.866 37.2953C7.29987 37.2936 6.74694 37.1242 6.27703 36.8085C5.80713 36.4927 5.44135 36.0448 5.22587 35.5213C5.01039 34.9977 4.95488 34.4221 5.06637 33.867C5.17785 33.312 5.45131 32.8024 5.85223 32.4027C6.25314 32.003 6.76352 31.731 7.3189 31.6212C7.87428 31.5114 8.44975 31.5686 8.97262 31.7857C9.4955 32.0027 9.94234 32.3698 10.2567 32.8407C10.571 33.3115 10.7388 33.8649 10.7388 34.4311C10.7366 35.1915 10.4329 35.92 9.89437 36.4569C9.35586 36.9938 8.62644 37.2953 7.866 37.2953ZM7.866 33.0203C7.5958 33.022 7.33216 33.1037 7.10832 33.255C6.88448 33.4063 6.71047 33.6206 6.60824 33.8707C6.50601 34.1208 6.48013 34.3956 6.53388 34.6604C6.58763 34.9252 6.71859 35.1682 6.91024 35.3586C7.1019 35.5491 7.34566 35.6785 7.61079 35.7306C7.87593 35.7827 8.15055 35.7551 8.40002 35.6513C8.64949 35.5476 8.86265 35.3722 9.01259 35.1474C9.16253 34.9227 9.24255 34.6585 9.24256 34.3883C9.23141 34.0315 9.0812 33.6931 8.82401 33.4455C8.56681 33.1979 8.22301 33.0606 7.866 33.0631V33.0203Z"/>
<path d="M8.61841 32.3106H7.12215V28.694C7.12101 28.5956 7.13942 28.4979 7.1763 28.4067C7.21317 28.3154 7.26778 28.2324 7.33697 28.1625C7.40616 28.0925 7.48854 28.0369 7.57935 27.999C7.67016 27.9611 7.76759 27.9416 7.866 27.9416H12.141V29.4378H8.61841V32.3106Z"/>
<path d="M7.866 16.3733C7.29745 16.3733 6.74168 16.2046 6.26906 15.8886C5.79645 15.5725 5.42824 15.1234 5.21105 14.5979C4.99387 14.0725 4.93748 13.4944 5.04902 12.9369C5.16057 12.3794 5.43503 11.8675 5.83765 11.4661C6.24028 11.0647 6.75297 10.7918 7.3108 10.6819C7.86864 10.572 8.44653 10.6301 8.97132 10.8488C9.49611 11.0676 9.94419 11.4371 10.2588 11.9107C10.5735 12.3843 10.7405 12.9405 10.7388 13.5091C10.7366 14.2695 10.4329 14.998 9.89437 15.5349C9.35586 16.0718 8.62644 16.3733 7.866 16.3733ZM7.866 12.0983C7.5958 12.1 7.33216 12.1817 7.10832 12.333C6.88448 12.4844 6.71047 12.6986 6.60824 12.9487C6.50601 13.1988 6.48013 13.4736 6.53388 13.7384C6.58763 14.0032 6.71859 14.2462 6.91024 14.4366C7.1019 14.6271 7.34566 14.7565 7.61079 14.8086C7.87593 14.8607 8.15055 14.8331 8.40002 14.7294C8.64949 14.6256 8.86265 14.4502 9.01259 14.2255C9.16253 14.0007 9.24255 13.7365 9.24256 13.4663C9.23141 13.1095 9.0812 12.7711 8.82401 12.5235C8.56681 12.2759 8.22301 12.1387 7.866 12.1411V12.0983Z"/>
<path d="M12.1752 19.9986H7.9002C7.70214 19.9963 7.51295 19.9161 7.37369 19.7752C7.23443 19.6343 7.15633 19.4442 7.15635 19.2462V15.6209H8.65261V18.4938H12.2094L12.1752 19.9986Z"/>
<path d="M24.7182 35.8333H23.2219V43.0153H24.7182V35.8333Z"/>
<path d="M23.9487 48C23.3801 48 22.8243 47.8313 22.3517 47.5152C21.8791 47.1992 21.5109 46.75 21.2937 46.2246C21.0765 45.6991 21.0201 45.1211 21.1317 44.5636C21.2432 44.0061 21.5177 43.4942 21.9203 43.0928C22.3229 42.6913 22.8356 42.4184 23.3935 42.3085C23.9513 42.1986 24.5292 42.2568 25.054 42.4755C25.5788 42.6943 26.0268 43.0638 26.3415 43.5374C26.6561 44.0109 26.8232 44.5672 26.8215 45.1357C26.8192 45.8962 26.5155 46.6247 25.977 47.1616C25.4385 47.6985 24.7091 48 23.9487 48ZM23.9487 43.725C23.6781 43.725 23.4136 43.8052 23.1886 43.9555C22.9637 44.1058 22.7883 44.3195 22.6848 44.5695C22.5812 44.8194 22.5541 45.0945 22.6069 45.3599C22.6597 45.6252 22.79 45.869 22.9813 46.0603C23.1726 46.2516 23.4164 46.3819 23.6818 46.4347C23.9471 46.4875 24.2222 46.4604 24.4722 46.3569C24.7221 46.2533 24.9358 46.078 25.0861 45.853C25.2364 45.628 25.3167 45.3635 25.3167 45.093C25.3056 44.7376 25.1565 44.4005 24.9012 44.1532C24.6458 43.9058 24.3042 43.7675 23.9487 43.7677V43.725Z"/>
<path d="M34.431 43.0068C33.8625 43.0085 33.3062 42.8414 32.8326 42.5268C32.3591 42.2121 31.9895 41.7641 31.7708 41.2393C31.552 40.7145 31.4939 40.1366 31.6038 39.5787C31.7137 39.0209 31.9866 38.5082 32.3881 38.1056C32.7895 37.703 33.3014 37.4285 33.8589 37.317C34.4164 37.2054 34.9944 37.2618 35.5199 37.479C36.0453 37.6962 36.4945 38.0644 36.8105 38.537C37.1266 39.0096 37.2953 39.5654 37.2953 40.1339C37.2953 40.8944 36.9938 41.6238 36.4569 42.1623C35.92 42.7008 35.1915 43.0045 34.431 43.0068ZM34.431 38.7317C34.158 38.73 33.8907 38.8096 33.663 38.9602C33.4354 39.1108 33.2576 39.3257 33.1524 39.5775C33.0471 39.8294 33.0191 40.1069 33.072 40.3747C33.1248 40.6426 33.2561 40.8886 33.4491 41.0816C33.6422 41.2747 33.8882 41.406 34.156 41.4588C34.4239 41.5116 34.7013 41.4837 34.9532 41.3784C35.2051 41.2732 35.42 41.0954 35.5706 40.8677C35.7212 40.64 35.8007 40.3727 35.799 40.0997C35.7901 39.7429 35.642 39.4037 35.3865 39.1545C35.1309 38.9053 34.788 38.7658 34.431 38.7659V38.7317Z"/>
<path d="M32.3106 40.8864H28.6939C28.5948 40.8875 28.4965 40.8688 28.4047 40.8314C28.3128 40.794 28.2294 40.7386 28.1593 40.6685C28.0893 40.5984 28.0339 40.515 27.9965 40.4232C27.9591 40.3314 27.9404 40.2331 27.9415 40.1339V35.8589H29.4378V39.4157H32.3106V40.8864Z"/>
<path d="M13.509 43.0068C12.9405 43.0085 12.3842 42.8414 11.9107 42.5268C11.4371 42.2121 11.0676 41.7641 10.8488 41.2393C10.6301 40.7145 10.5719 40.1366 10.6818 39.5787C10.7917 39.0209 11.0646 38.5082 11.4661 38.1056C11.8675 37.703 12.3794 37.4285 12.9369 37.317C13.4944 37.2054 14.0724 37.2618 14.5979 37.479C15.1233 37.6962 15.5725 38.0644 15.8885 38.537C16.2046 39.0096 16.3733 39.5654 16.3733 40.1339C16.3711 40.8937 16.0688 41.6218 15.5324 42.1598C14.996 42.6979 14.2688 43.0023 13.509 43.0068ZM13.509 38.7317C13.2361 38.73 12.9687 38.8096 12.7411 38.9602C12.5134 39.1108 12.3356 39.3257 12.2304 39.5775C12.1251 39.8294 12.0971 40.1069 12.15 40.3747C12.2028 40.6426 12.3341 40.8886 12.5271 41.0816C12.7202 41.2747 12.9662 41.406 13.2341 41.4588C13.5019 41.5116 13.7794 41.4837 14.0312 41.3784C14.2831 41.2732 14.498 41.0954 14.6486 40.8677C14.7992 40.64 14.8787 40.3727 14.877 40.0997C14.8681 39.7429 14.7201 39.4037 14.4645 39.1545C14.2089 38.9053 13.866 38.7658 13.509 38.7659V38.7317Z"/>
<path d="M19.2461 40.8864H15.6209V39.3901H18.4937V35.8333H19.99V40.1083C19.9946 40.2088 19.9788 40.3092 19.9435 40.4035C19.9082 40.4977 19.8541 40.5838 19.7846 40.6565C19.715 40.7293 19.6315 40.7871 19.5389 40.8266C19.4464 40.8661 19.3468 40.8865 19.2461 40.8864Z"/>
<path d="M43.0153 23.2903H35.8332V24.7866H43.0153V23.2903Z"/>
<path d="M45.1357 26.907C44.5668 26.9087 44.0102 26.7414 43.5364 26.4264C43.0627 26.1114 42.6931 25.6628 42.4747 25.1375C42.2562 24.6122 42.1985 24.0339 42.3091 23.4758C42.4197 22.9178 42.6935 22.4051 43.0958 22.0028C43.498 21.6005 44.0107 21.3267 44.5688 21.2162C45.1269 21.1056 45.7052 21.1632 46.2305 21.3817C46.7558 21.6002 47.2043 21.9697 47.5194 22.4435C47.8344 22.9172 48.0017 23.4738 48 24.0427C47.9977 24.8017 47.6952 25.5289 47.1585 26.0656C46.6219 26.6023 45.8946 26.9048 45.1357 26.907ZM45.1357 22.6747C44.8651 22.6747 44.6006 22.755 44.3757 22.9053C44.1507 23.0556 43.9754 23.2693 43.8718 23.5192C43.7683 23.7692 43.7412 24.0443 43.794 24.3096C43.8468 24.575 43.977 24.8188 44.1684 25.0101C44.3597 25.2014 44.6034 25.3317 44.8688 25.3845C45.1342 25.4373 45.4092 25.4102 45.6592 25.3066C45.9092 25.2031 46.1228 25.0277 46.2731 24.8028C46.4235 24.5778 46.5037 24.3133 46.5037 24.0427C46.5037 23.6799 46.3596 23.332 46.103 23.0754C45.8465 22.8189 45.4985 22.6747 45.1357 22.6747Z"/>
<path d="M40.1339 16.4417C39.5678 16.4401 39.0148 16.2706 38.5449 15.9549C38.075 15.6391 37.7093 15.1912 37.4938 14.6677C37.2783 14.1441 37.2228 13.5685 37.3343 13.0135C37.4458 12.4584 37.7192 11.9488 38.1201 11.5491C38.521 11.1494 39.0314 10.8775 39.5868 10.7676C40.1422 10.6578 40.7177 10.715 41.2405 10.9321C41.7634 11.1491 42.2102 11.5162 42.5246 11.9871C42.8389 12.4579 43.0067 13.0113 43.0067 13.5775C43.0045 14.3379 42.7008 15.0664 42.1623 15.6033C41.6238 16.1403 40.8943 16.4417 40.1339 16.4417ZM40.1339 12.2095C39.8637 12.2112 39.6001 12.2928 39.3762 12.4442C39.1524 12.5955 38.9784 12.8097 38.8761 13.0599C38.7739 13.31 38.748 13.5848 38.8018 13.8496C38.8555 14.1144 38.9865 14.3573 39.1781 14.5478C39.3698 14.7383 39.6136 14.8677 39.8787 14.9198C40.1438 14.9719 40.4185 14.9443 40.6679 14.8405C40.9174 14.7367 41.1306 14.5614 41.2805 14.3366C41.4304 14.1118 41.5105 13.8477 41.5105 13.5775C41.5105 13.3971 41.4748 13.2185 41.4055 13.052C41.3362 12.8854 41.2347 12.7343 41.1068 12.6071C40.9788 12.48 40.827 12.3794 40.66 12.3111C40.4931 12.2429 40.3143 12.2083 40.1339 12.2095Z"/>
<path d="M40.1339 20.067H35.8589V18.5707H39.4157V15.6979H40.912V19.3146C40.9132 19.4159 40.8938 19.5164 40.8548 19.61C40.8158 19.7036 40.7581 19.7882 40.6853 19.8586C40.6124 19.9291 40.5259 19.9839 40.4311 20.0197C40.3363 20.0556 40.2352 20.0716 40.1339 20.067Z"/>
<path d="M40.1339 37.3637C39.5678 37.362 39.0148 37.1926 38.5449 36.8769C38.075 36.5611 37.7093 36.1132 37.4938 35.5897C37.2783 35.0661 37.2228 34.4905 37.3343 33.9354C37.4458 33.3804 37.7192 32.8708 38.1201 32.4711C38.521 32.0714 39.0314 31.7994 39.5868 31.6896C40.1422 31.5798 40.7177 31.637 41.2405 31.854C41.7634 32.0711 42.2102 32.4382 42.5246 32.9091C42.8389 33.3799 43.0067 33.9333 43.0067 34.4995C43.0045 35.2599 42.7008 35.9884 42.1623 36.5253C41.6238 37.0622 40.8943 37.3637 40.1339 37.3637ZM40.1339 33.1315C39.8637 33.1331 39.6001 33.2148 39.3762 33.3661C39.1524 33.5175 38.9784 33.7317 38.8761 33.9818C38.7739 34.232 38.748 34.5067 38.8018 34.7715C38.8555 35.0364 38.9865 35.2793 39.1781 35.4698C39.3698 35.6602 39.6136 35.7897 39.8787 35.8418C40.1438 35.8939 40.4185 35.8663 40.6679 35.7625C40.9174 35.6587 41.1306 35.4834 41.2805 35.2586C41.4304 35.0338 41.5105 34.7697 41.5105 34.4995C41.5105 34.3191 41.4748 34.1405 41.4055 33.974C41.3362 33.8074 41.2347 33.6562 41.1068 33.5291C40.9788 33.402 40.827 33.3014 40.66 33.2331C40.4931 33.1649 40.3143 33.1303 40.1339 33.1315Z"/>
<path d="M40.8863 32.379H39.3901V29.5148H35.8332V28.01H40.1083C40.2071 28.01 40.3049 28.0294 40.3962 28.0672C40.4875 28.1051 40.5704 28.1605 40.6403 28.2303C40.7102 28.3002 40.7656 28.3832 40.8034 28.4744C40.8412 28.5657 40.8607 28.6636 40.8607 28.7624L40.8863 32.379Z"/>
<path d="M24.7866 4.99322H23.2903V12.1753H24.7866V4.99322Z"/>
<path d="M24.0427 5.74563C23.4742 5.74732 22.9179 5.58027 22.4443 5.26563C21.9708 4.95099 21.6012 4.50291 21.3825 3.97812C21.1637 3.45334 21.1056 2.87544 21.2155 2.31761C21.3254 1.75977 21.5983 1.24709 21.9997 0.84446C22.4012 0.441833 22.913 0.167374 23.4705 0.0558305C24.028 -0.0557126 24.6061 0.00067734 25.1315 0.217861C25.657 0.435044 26.1062 0.803253 26.4222 1.27587C26.7383 1.74849 26.907 2.30425 26.907 2.87281C26.9047 3.63256 26.6025 4.36068 26.0661 4.8987C25.5297 5.43673 24.8024 5.74112 24.0427 5.74563ZM24.0427 1.4706C23.7721 1.4706 23.5076 1.55083 23.2827 1.70115C23.0577 1.85147 22.8824 2.06512 22.7788 2.31509C22.6753 2.56506 22.6482 2.84012 22.701 3.10549C22.7538 3.37086 22.8841 3.61462 23.0754 3.80594C23.2667 3.99725 23.5105 4.12754 23.7758 4.18033C24.0412 4.23311 24.3162 4.20602 24.5662 4.10248C24.8162 3.99894 25.0298 3.8236 25.1802 3.59863C25.3305 3.37366 25.4107 3.10917 25.4107 2.83861C25.4018 2.48175 25.2537 2.14251 24.9981 1.89331C24.7425 1.64411 24.3997 1.50469 24.0427 1.5048V1.4706Z"/>
<path d="M13.5774 10.7389C13.0089 10.7405 12.4526 10.5735 11.9791 10.2589C11.5055 9.94422 11.136 9.49614 10.9172 8.97136C10.6985 8.44657 10.6404 7.86867 10.7502 7.31084C10.8601 6.753 11.133 6.24032 11.5345 5.83769C11.9359 5.43507 12.4478 5.16061 13.0053 5.04906C13.5628 4.93752 14.1408 4.99391 14.6663 5.21109C15.1917 5.42828 15.6409 5.79649 15.9569 6.2691C16.273 6.74172 16.4417 7.29748 16.4417 7.86604C16.4417 8.62648 16.1402 9.3559 15.6033 9.89441C15.0664 10.4329 14.3379 10.7366 13.5774 10.7389ZM13.5774 6.46383C13.3045 6.46214 13.0371 6.54165 12.8095 6.69226C12.5818 6.84286 12.404 7.05776 12.2988 7.30964C12.1935 7.56152 12.1655 7.839 12.2184 8.10682C12.2712 8.37465 12.4025 8.62071 12.5955 8.81374C12.7886 9.00676 13.0346 9.13804 13.3025 9.19089C13.5703 9.24373 13.8478 9.21575 14.0996 9.1105C14.3515 9.00525 14.5664 8.82749 14.717 8.59981C14.8676 8.37213 14.9471 8.10482 14.9454 7.83184C14.9365 7.47498 14.7885 7.13574 14.5329 6.88654C14.2773 6.63734 13.9344 6.49792 13.5774 6.49803V6.46383Z"/>
<path d="M20.0669 12.1753H18.5707V8.61844H15.6979V7.12218H19.3145C19.4129 7.12105 19.5106 7.13946 19.6018 7.17633C19.693 7.21321 19.7761 7.26782 19.846 7.33701C19.916 7.4062 19.9716 7.48858 20.0095 7.57939C20.0474 7.6702 20.0669 7.76763 20.0669 7.86604V12.1753Z"/>
<path d="M34.4994 10.7389C33.9309 10.7405 33.3746 10.5735 32.901 10.2589C32.4275 9.94422 32.0579 9.49614 31.8392 8.97136C31.6204 8.44657 31.5623 7.86867 31.6722 7.31084C31.7821 6.753 32.055 6.24032 32.4565 5.83769C32.8579 5.43507 33.3698 5.16061 33.9273 5.04906C34.4848 4.93752 35.0628 4.99391 35.5883 5.21109C36.1137 5.42828 36.5629 5.79649 36.8789 6.2691C37.195 6.74172 37.3637 7.29748 37.3637 7.86604C37.3637 8.62648 37.0622 9.3559 36.5253 9.89441C35.9884 10.4329 35.2599 10.7366 34.4994 10.7389ZM34.4994 6.46383C34.2264 6.46214 33.9591 6.54165 33.7314 6.69226C33.5038 6.84286 33.326 7.05776 33.2208 7.30964C33.1155 7.56152 33.0875 7.839 33.1404 8.10682C33.1932 8.37465 33.3245 8.62071 33.5175 8.81374C33.7106 9.00676 33.9566 9.13804 34.2244 9.19089C34.4923 9.24373 34.7697 9.21575 35.0216 9.1105C35.2735 9.00525 35.4884 8.82749 35.639 8.59981C35.7896 8.37213 35.8691 8.10482 35.8674 7.83184C35.8585 7.47498 35.7104 7.13574 35.4549 6.88654C35.1993 6.63734 34.8564 6.49792 34.4994 6.49803V6.46383Z"/>
<path d="M29.5147 12.1753H28.0099V7.90024C28.0122 7.70217 28.0924 7.51299 28.2333 7.37373C28.3742 7.23447 28.5643 7.15637 28.7623 7.15638H32.379V8.65264H29.5147V12.1753Z"/>
<path d="M22.5122 27.0695L20.0413 24.5985L21.1015 23.5383L22.5122 24.949L26.907 20.5543L27.9672 21.6145L22.5122 27.0695Z"/>
<path d="M24 34.7645C23.871 34.768 23.7437 34.7354 23.6323 34.6705C13.8767 29.0787 14.9112 16.7752 14.9198 16.6555C14.9342 16.4855 15.0066 16.3255 15.1249 16.2026C15.2432 16.0796 15.4002 16.001 15.5696 15.98C15.6209 15.98 20.6398 15.3217 23.581 13.3039C23.7057 13.2147 23.8552 13.1668 24.0085 13.1668C24.1618 13.1668 24.3113 13.2147 24.436 13.3039C27.3772 15.3302 32.3961 15.9715 32.4474 15.98C32.6162 16.0025 32.7723 16.0815 32.8903 16.2042C33.0084 16.3269 33.0813 16.486 33.0972 16.6555C33.0972 16.7752 34.1403 29.0787 24.3847 34.6705C24.2682 34.7381 24.1346 34.7708 24 34.7645ZM16.3819 17.3737C16.322 19.725 16.6213 28.6341 24 33.1486C31.3958 28.6256 31.695 19.725 31.6266 17.3737C28.9528 16.9761 26.3706 16.1077 24 14.8087C21.6311 16.1047 19.0522 16.973 16.3819 17.3737Z"/>
</mask>
<path d="M12.1752 23.2219H4.99318V24.7182H12.1752V23.2219Z" fill="url(#paint0_linear_1676_37785)"/>
<path d="M2.87277 26.8386C2.30531 26.8386 1.75056 26.6705 1.27851 26.3556C0.806453 26.0407 0.438236 25.593 0.220306 25.0691C0.00237556 24.5451 -0.0555056 23.9684 0.0539639 23.4116C0.163433 22.8548 0.435349 22.3429 0.835411 21.9404C1.23547 21.538 1.74576 21.263 2.3019 21.1503C2.85804 21.0375 3.43512 21.092 3.96035 21.3068C4.48558 21.5216 4.93542 21.8871 5.25314 22.3573C5.57086 22.8275 5.74221 23.3812 5.74559 23.9487C5.74784 24.3274 5.6752 24.7028 5.53183 25.0533C5.38847 25.4038 5.17722 25.7226 4.91023 25.9911C4.64324 26.2597 4.32578 26.4729 3.97611 26.6183C3.62645 26.7637 3.25148 26.8386 2.87277 26.8386ZM2.87277 22.5636C2.60492 22.572 2.34543 22.6589 2.12652 22.8134C1.90762 22.968 1.73893 23.1835 1.64141 23.4331C1.5439 23.6827 1.52184 23.9555 1.57798 24.2175C1.63413 24.4796 1.766 24.7193 1.95722 24.9071C2.14845 25.0948 2.3906 25.2223 2.65363 25.2736C2.91665 25.3249 3.18895 25.2979 3.43674 25.1958C3.68452 25.0937 3.89686 24.9211 4.0474 24.6994C4.19794 24.4777 4.28005 24.2167 4.28353 23.9487C4.28134 23.7668 4.24292 23.5872 4.1705 23.4204C4.09808 23.2536 3.99312 23.1028 3.86176 22.9771C3.7304 22.8513 3.57528 22.7529 3.40546 22.6878C3.23565 22.6227 3.05455 22.5921 2.87277 22.5978V22.5636Z" fill="url(#paint1_linear_1676_37785)"/>
<path d="M7.866 37.2953C7.29987 37.2936 6.74694 37.1242 6.27703 36.8085C5.80713 36.4927 5.44135 36.0448 5.22587 35.5213C5.01039 34.9977 4.95488 34.4221 5.06637 33.867C5.17785 33.312 5.45131 32.8024 5.85223 32.4027C6.25314 32.003 6.76352 31.731 7.3189 31.6212C7.87428 31.5114 8.44975 31.5686 8.97262 31.7857C9.4955 32.0027 9.94234 32.3698 10.2567 32.8407C10.571 33.3115 10.7388 33.8649 10.7388 34.4311C10.7366 35.1915 10.4329 35.92 9.89437 36.4569C9.35586 36.9938 8.62644 37.2953 7.866 37.2953ZM7.866 33.0203C7.5958 33.022 7.33216 33.1037 7.10832 33.255C6.88448 33.4063 6.71047 33.6206 6.60824 33.8707C6.50601 34.1208 6.48013 34.3956 6.53388 34.6604C6.58763 34.9252 6.71859 35.1682 6.91024 35.3586C7.1019 35.5491 7.34566 35.6785 7.61079 35.7306C7.87593 35.7827 8.15055 35.7551 8.40002 35.6513C8.64949 35.5476 8.86265 35.3722 9.01259 35.1474C9.16253 34.9227 9.24255 34.6585 9.24256 34.3883C9.23141 34.0315 9.0812 33.6931 8.82401 33.4455C8.56681 33.1979 8.22301 33.0606 7.866 33.0631V33.0203Z" fill="url(#paint2_linear_1676_37785)"/>
<path d="M8.61841 32.3106H7.12215V28.694C7.12101 28.5956 7.13942 28.4979 7.1763 28.4067C7.21317 28.3154 7.26778 28.2324 7.33697 28.1625C7.40616 28.0925 7.48854 28.0369 7.57935 27.999C7.67016 27.9611 7.76759 27.9416 7.866 27.9416H12.141V29.4378H8.61841V32.3106Z" fill="url(#paint3_linear_1676_37785)"/>
<path d="M7.866 16.3733C7.29745 16.3733 6.74168 16.2046 6.26906 15.8886C5.79645 15.5725 5.42824 15.1234 5.21105 14.5979C4.99387 14.0725 4.93748 13.4944 5.04902 12.9369C5.16057 12.3794 5.43503 11.8675 5.83765 11.4661C6.24028 11.0647 6.75297 10.7918 7.3108 10.6819C7.86864 10.572 8.44653 10.6301 8.97132 10.8488C9.49611 11.0676 9.94419 11.4371 10.2588 11.9107C10.5735 12.3843 10.7405 12.9405 10.7388 13.5091C10.7366 14.2695 10.4329 14.998 9.89437 15.5349C9.35586 16.0718 8.62644 16.3733 7.866 16.3733ZM7.866 12.0983C7.5958 12.1 7.33216 12.1817 7.10832 12.333C6.88448 12.4844 6.71047 12.6986 6.60824 12.9487C6.50601 13.1988 6.48013 13.4736 6.53388 13.7384C6.58763 14.0032 6.71859 14.2462 6.91024 14.4366C7.1019 14.6271 7.34566 14.7565 7.61079 14.8086C7.87593 14.8607 8.15055 14.8331 8.40002 14.7294C8.64949 14.6256 8.86265 14.4502 9.01259 14.2255C9.16253 14.0007 9.24255 13.7365 9.24256 13.4663C9.23141 13.1095 9.0812 12.7711 8.82401 12.5235C8.56681 12.2759 8.22301 12.1387 7.866 12.1411V12.0983Z" fill="url(#paint4_linear_1676_37785)"/>
<path d="M12.1752 19.9986H7.9002C7.70214 19.9963 7.51295 19.9161 7.37369 19.7752C7.23443 19.6343 7.15633 19.4442 7.15635 19.2462V15.6209H8.65261V18.4938H12.2094L12.1752 19.9986Z" fill="url(#paint5_linear_1676_37785)"/>
<path d="M24.7182 35.8333H23.2219V43.0153H24.7182V35.8333Z" fill="url(#paint6_linear_1676_37785)"/>
<path d="M23.9487 48C23.3801 48 22.8243 47.8313 22.3517 47.5152C21.8791 47.1992 21.5109 46.75 21.2937 46.2246C21.0765 45.6991 21.0201 45.1211 21.1317 44.5636C21.2432 44.0061 21.5177 43.4942 21.9203 43.0928C22.3229 42.6913 22.8356 42.4184 23.3935 42.3085C23.9513 42.1986 24.5292 42.2568 25.054 42.4755C25.5788 42.6943 26.0268 43.0638 26.3415 43.5374C26.6561 44.0109 26.8232 44.5672 26.8215 45.1357C26.8192 45.8962 26.5155 46.6247 25.977 47.1616C25.4385 47.6985 24.7091 48 23.9487 48ZM23.9487 43.725C23.6781 43.725 23.4136 43.8052 23.1886 43.9555C22.9637 44.1058 22.7883 44.3195 22.6848 44.5695C22.5812 44.8194 22.5541 45.0945 22.6069 45.3599C22.6597 45.6252 22.79 45.869 22.9813 46.0603C23.1726 46.2516 23.4164 46.3819 23.6818 46.4347C23.9471 46.4875 24.2222 46.4604 24.4722 46.3569C24.7221 46.2533 24.9358 46.078 25.0861 45.853C25.2364 45.628 25.3167 45.3635 25.3167 45.093C25.3056 44.7376 25.1565 44.4005 24.9012 44.1532C24.6458 43.9058 24.3042 43.7675 23.9487 43.7677V43.725Z" fill="url(#paint7_linear_1676_37785)"/>
<path d="M34.431 43.0068C33.8625 43.0085 33.3062 42.8414 32.8326 42.5268C32.3591 42.2121 31.9895 41.7641 31.7708 41.2393C31.552 40.7145 31.4939 40.1366 31.6038 39.5787C31.7137 39.0209 31.9866 38.5082 32.3881 38.1056C32.7895 37.703 33.3014 37.4285 33.8589 37.317C34.4164 37.2054 34.9944 37.2618 35.5199 37.479C36.0453 37.6962 36.4945 38.0644 36.8105 38.537C37.1266 39.0096 37.2953 39.5654 37.2953 40.1339C37.2953 40.8944 36.9938 41.6238 36.4569 42.1623C35.92 42.7008 35.1915 43.0045 34.431 43.0068ZM34.431 38.7317C34.158 38.73 33.8907 38.8096 33.663 38.9602C33.4354 39.1108 33.2576 39.3257 33.1524 39.5775C33.0471 39.8294 33.0191 40.1069 33.072 40.3747C33.1248 40.6426 33.2561 40.8886 33.4491 41.0816C33.6422 41.2747 33.8882 41.406 34.156 41.4588C34.4239 41.5116 34.7013 41.4837 34.9532 41.3784C35.2051 41.2732 35.42 41.0954 35.5706 40.8677C35.7212 40.64 35.8007 40.3727 35.799 40.0997C35.7901 39.7429 35.642 39.4037 35.3865 39.1545C35.1309 38.9053 34.788 38.7658 34.431 38.7659V38.7317Z" fill="url(#paint8_linear_1676_37785)"/>
<path d="M32.3106 40.8864H28.6939C28.5948 40.8875 28.4965 40.8688 28.4047 40.8314C28.3128 40.794 28.2294 40.7386 28.1593 40.6685C28.0893 40.5984 28.0339 40.515 27.9965 40.4232C27.9591 40.3314 27.9404 40.2331 27.9415 40.1339V35.8589H29.4378V39.4157H32.3106V40.8864Z" fill="url(#paint9_linear_1676_37785)"/>
<path d="M13.509 43.0068C12.9405 43.0085 12.3842 42.8414 11.9107 42.5268C11.4371 42.2121 11.0676 41.7641 10.8488 41.2393C10.6301 40.7145 10.5719 40.1366 10.6818 39.5787C10.7917 39.0209 11.0646 38.5082 11.4661 38.1056C11.8675 37.703 12.3794 37.4285 12.9369 37.317C13.4944 37.2054 14.0724 37.2618 14.5979 37.479C15.1233 37.6962 15.5725 38.0644 15.8885 38.537C16.2046 39.0096 16.3733 39.5654 16.3733 40.1339C16.3711 40.8937 16.0688 41.6218 15.5324 42.1598C14.996 42.6979 14.2688 43.0023 13.509 43.0068ZM13.509 38.7317C13.2361 38.73 12.9687 38.8096 12.7411 38.9602C12.5134 39.1108 12.3356 39.3257 12.2304 39.5775C12.1251 39.8294 12.0971 40.1069 12.15 40.3747C12.2028 40.6426 12.3341 40.8886 12.5271 41.0816C12.7202 41.2747 12.9662 41.406 13.2341 41.4588C13.5019 41.5116 13.7794 41.4837 14.0312 41.3784C14.2831 41.2732 14.498 41.0954 14.6486 40.8677C14.7992 40.64 14.8787 40.3727 14.877 40.0997C14.8681 39.7429 14.7201 39.4037 14.4645 39.1545C14.2089 38.9053 13.866 38.7658 13.509 38.7659V38.7317Z" fill="url(#paint10_linear_1676_37785)"/>
<path d="M19.2461 40.8864H15.6209V39.3901H18.4937V35.8333H19.99V40.1083C19.9946 40.2088 19.9788 40.3092 19.9435 40.4035C19.9082 40.4977 19.8541 40.5838 19.7846 40.6565C19.715 40.7293 19.6315 40.7871 19.5389 40.8266C19.4464 40.8661 19.3468 40.8865 19.2461 40.8864Z" fill="url(#paint11_linear_1676_37785)"/>
<path d="M43.0153 23.2903H35.8332V24.7866H43.0153V23.2903Z" fill="url(#paint12_linear_1676_37785)"/>
<path d="M45.1357 26.907C44.5668 26.9087 44.0102 26.7414 43.5364 26.4264C43.0627 26.1114 42.6931 25.6628 42.4747 25.1375C42.2562 24.6122 42.1985 24.0339 42.3091 23.4758C42.4197 22.9178 42.6935 22.4051 43.0958 22.0028C43.498 21.6005 44.0107 21.3267 44.5688 21.2162C45.1269 21.1056 45.7052 21.1632 46.2305 21.3817C46.7558 21.6002 47.2043 21.9697 47.5194 22.4435C47.8344 22.9172 48.0017 23.4738 48 24.0427C47.9977 24.8017 47.6952 25.5289 47.1585 26.0656C46.6219 26.6023 45.8946 26.9048 45.1357 26.907ZM45.1357 22.6747C44.8651 22.6747 44.6006 22.755 44.3757 22.9053C44.1507 23.0556 43.9754 23.2693 43.8718 23.5192C43.7683 23.7692 43.7412 24.0443 43.794 24.3096C43.8468 24.575 43.977 24.8188 44.1684 25.0101C44.3597 25.2014 44.6034 25.3317 44.8688 25.3845C45.1342 25.4373 45.4092 25.4102 45.6592 25.3066C45.9092 25.2031 46.1228 25.0277 46.2731 24.8028C46.4235 24.5778 46.5037 24.3133 46.5037 24.0427C46.5037 23.6799 46.3596 23.332 46.103 23.0754C45.8465 22.8189 45.4985 22.6747 45.1357 22.6747Z" fill="url(#paint13_linear_1676_37785)"/>
<path d="M40.1339 16.4417C39.5678 16.4401 39.0148 16.2706 38.5449 15.9549C38.075 15.6391 37.7093 15.1912 37.4938 14.6677C37.2783 14.1441 37.2228 13.5685 37.3343 13.0135C37.4458 12.4584 37.7192 11.9488 38.1201 11.5491C38.521 11.1494 39.0314 10.8775 39.5868 10.7676C40.1422 10.6578 40.7177 10.715 41.2405 10.9321C41.7634 11.1491 42.2102 11.5162 42.5246 11.9871C42.8389 12.4579 43.0067 13.0113 43.0067 13.5775C43.0045 14.3379 42.7008 15.0664 42.1623 15.6033C41.6238 16.1403 40.8943 16.4417 40.1339 16.4417ZM40.1339 12.2095C39.8637 12.2112 39.6001 12.2928 39.3762 12.4442C39.1524 12.5955 38.9784 12.8097 38.8761 13.0599C38.7739 13.31 38.748 13.5848 38.8018 13.8496C38.8555 14.1144 38.9865 14.3573 39.1781 14.5478C39.3698 14.7383 39.6136 14.8677 39.8787 14.9198C40.1438 14.9719 40.4185 14.9443 40.6679 14.8405C40.9174 14.7367 41.1306 14.5614 41.2805 14.3366C41.4304 14.1118 41.5105 13.8477 41.5105 13.5775C41.5105 13.3971 41.4748 13.2185 41.4055 13.052C41.3362 12.8854 41.2347 12.7343 41.1068 12.6071C40.9788 12.48 40.827 12.3794 40.66 12.3111C40.4931 12.2429 40.3143 12.2083 40.1339 12.2095Z" fill="url(#paint14_linear_1676_37785)"/>
<path d="M40.1339 20.067H35.8589V18.5707H39.4157V15.6979H40.912V19.3146C40.9132 19.4159 40.8938 19.5164 40.8548 19.61C40.8158 19.7036 40.7581 19.7882 40.6853 19.8586C40.6124 19.9291 40.5259 19.9839 40.4311 20.0197C40.3363 20.0556 40.2352 20.0716 40.1339 20.067Z" fill="url(#paint15_linear_1676_37785)"/>
<path d="M40.1339 37.3637C39.5678 37.362 39.0148 37.1926 38.5449 36.8769C38.075 36.5611 37.7093 36.1132 37.4938 35.5897C37.2783 35.0661 37.2228 34.4905 37.3343 33.9354C37.4458 33.3804 37.7192 32.8708 38.1201 32.4711C38.521 32.0714 39.0314 31.7994 39.5868 31.6896C40.1422 31.5798 40.7177 31.637 41.2405 31.854C41.7634 32.0711 42.2102 32.4382 42.5246 32.9091C42.8389 33.3799 43.0067 33.9333 43.0067 34.4995C43.0045 35.2599 42.7008 35.9884 42.1623 36.5253C41.6238 37.0622 40.8943 37.3637 40.1339 37.3637ZM40.1339 33.1315C39.8637 33.1331 39.6001 33.2148 39.3762 33.3661C39.1524 33.5175 38.9784 33.7317 38.8761 33.9818C38.7739 34.232 38.748 34.5067 38.8018 34.7715C38.8555 35.0364 38.9865 35.2793 39.1781 35.4698C39.3698 35.6602 39.6136 35.7897 39.8787 35.8418C40.1438 35.8939 40.4185 35.8663 40.6679 35.7625C40.9174 35.6587 41.1306 35.4834 41.2805 35.2586C41.4304 35.0338 41.5105 34.7697 41.5105 34.4995C41.5105 34.3191 41.4748 34.1405 41.4055 33.974C41.3362 33.8074 41.2347 33.6562 41.1068 33.5291C40.9788 33.402 40.827 33.3014 40.66 33.2331C40.4931 33.1649 40.3143 33.1303 40.1339 33.1315Z" fill="url(#paint16_linear_1676_37785)"/>
<path d="M40.8863 32.379H39.3901V29.5148H35.8332V28.01H40.1083C40.2071 28.01 40.3049 28.0294 40.3962 28.0672C40.4875 28.1051 40.5704 28.1605 40.6403 28.2303C40.7102 28.3002 40.7656 28.3832 40.8034 28.4744C40.8412 28.5657 40.8607 28.6636 40.8607 28.7624L40.8863 32.379Z" fill="url(#paint17_linear_1676_37785)"/>
<path d="M24.7866 4.99322H23.2903V12.1753H24.7866V4.99322Z" fill="url(#paint18_linear_1676_37785)"/>
<path d="M24.0427 5.74563C23.4742 5.74732 22.9179 5.58027 22.4443 5.26563C21.9708 4.95099 21.6012 4.50291 21.3825 3.97812C21.1637 3.45334 21.1056 2.87544 21.2155 2.31761C21.3254 1.75977 21.5983 1.24709 21.9997 0.84446C22.4012 0.441833 22.913 0.167374 23.4705 0.0558305C24.028 -0.0557126 24.6061 0.00067734 25.1315 0.217861C25.657 0.435044 26.1062 0.803253 26.4222 1.27587C26.7383 1.74849 26.907 2.30425 26.907 2.87281C26.9047 3.63256 26.6025 4.36068 26.0661 4.8987C25.5297 5.43673 24.8024 5.74112 24.0427 5.74563ZM24.0427 1.4706C23.7721 1.4706 23.5076 1.55083 23.2827 1.70115C23.0577 1.85147 22.8824 2.06512 22.7788 2.31509C22.6753 2.56506 22.6482 2.84012 22.701 3.10549C22.7538 3.37086 22.8841 3.61462 23.0754 3.80594C23.2667 3.99725 23.5105 4.12754 23.7758 4.18033C24.0412 4.23311 24.3162 4.20602 24.5662 4.10248C24.8162 3.99894 25.0298 3.8236 25.1802 3.59863C25.3305 3.37366 25.4107 3.10917 25.4107 2.83861C25.4018 2.48175 25.2537 2.14251 24.9981 1.89331C24.7425 1.64411 24.3997 1.50469 24.0427 1.5048V1.4706Z" fill="url(#paint19_linear_1676_37785)"/>
<path d="M13.5774 10.7389C13.0089 10.7405 12.4526 10.5735 11.9791 10.2589C11.5055 9.94422 11.136 9.49614 10.9172 8.97136C10.6985 8.44657 10.6404 7.86867 10.7502 7.31084C10.8601 6.753 11.133 6.24032 11.5345 5.83769C11.9359 5.43507 12.4478 5.16061 13.0053 5.04906C13.5628 4.93752 14.1408 4.99391 14.6663 5.21109C15.1917 5.42828 15.6409 5.79649 15.9569 6.2691C16.273 6.74172 16.4417 7.29748 16.4417 7.86604C16.4417 8.62648 16.1402 9.3559 15.6033 9.89441C15.0664 10.4329 14.3379 10.7366 13.5774 10.7389ZM13.5774 6.46383C13.3045 6.46214 13.0371 6.54165 12.8095 6.69226C12.5818 6.84286 12.404 7.05776 12.2988 7.30964C12.1935 7.56152 12.1655 7.839 12.2184 8.10682C12.2712 8.37465 12.4025 8.62071 12.5955 8.81374C12.7886 9.00676 13.0346 9.13804 13.3025 9.19089C13.5703 9.24373 13.8478 9.21575 14.0996 9.1105C14.3515 9.00525 14.5664 8.82749 14.717 8.59981C14.8676 8.37213 14.9471 8.10482 14.9454 7.83184C14.9365 7.47498 14.7885 7.13574 14.5329 6.88654C14.2773 6.63734 13.9344 6.49792 13.5774 6.49803V6.46383Z" fill="url(#paint20_linear_1676_37785)"/>
<path d="M20.0669 12.1753H18.5707V8.61844H15.6979V7.12218H19.3145C19.4129 7.12105 19.5106 7.13946 19.6018 7.17633C19.693 7.21321 19.7761 7.26782 19.846 7.33701C19.916 7.4062 19.9716 7.48858 20.0095 7.57939C20.0474 7.6702 20.0669 7.76763 20.0669 7.86604V12.1753Z" fill="url(#paint21_linear_1676_37785)"/>
<path d="M34.4994 10.7389C33.9309 10.7405 33.3746 10.5735 32.901 10.2589C32.4275 9.94422 32.0579 9.49614 31.8392 8.97136C31.6204 8.44657 31.5623 7.86867 31.6722 7.31084C31.7821 6.753 32.055 6.24032 32.4565 5.83769C32.8579 5.43507 33.3698 5.16061 33.9273 5.04906C34.4848 4.93752 35.0628 4.99391 35.5883 5.21109C36.1137 5.42828 36.5629 5.79649 36.8789 6.2691C37.195 6.74172 37.3637 7.29748 37.3637 7.86604C37.3637 8.62648 37.0622 9.3559 36.5253 9.89441C35.9884 10.4329 35.2599 10.7366 34.4994 10.7389ZM34.4994 6.46383C34.2264 6.46214 33.9591 6.54165 33.7314 6.69226C33.5038 6.84286 33.326 7.05776 33.2208 7.30964C33.1155 7.56152 33.0875 7.839 33.1404 8.10682C33.1932 8.37465 33.3245 8.62071 33.5175 8.81374C33.7106 9.00676 33.9566 9.13804 34.2244 9.19089C34.4923 9.24373 34.7697 9.21575 35.0216 9.1105C35.2735 9.00525 35.4884 8.82749 35.639 8.59981C35.7896 8.37213 35.8691 8.10482 35.8674 7.83184C35.8585 7.47498 35.7104 7.13574 35.4549 6.88654C35.1993 6.63734 34.8564 6.49792 34.4994 6.49803V6.46383Z" fill="url(#paint22_linear_1676_37785)"/>
<path d="M29.5147 12.1753H28.0099V7.90024C28.0122 7.70217 28.0924 7.51299 28.2333 7.37373C28.3742 7.23447 28.5643 7.15637 28.7623 7.15638H32.379V8.65264H29.5147V12.1753Z" fill="url(#paint23_linear_1676_37785)"/>
<path d="M22.5122 27.0695L20.0413 24.5985L21.1015 23.5383L22.5122 24.949L26.907 20.5543L27.9672 21.6145L22.5122 27.0695Z" fill="url(#paint24_linear_1676_37785)"/>
<path d="M24 34.7645C23.871 34.768 23.7437 34.7354 23.6323 34.6705C13.8767 29.0787 14.9112 16.7752 14.9198 16.6555C14.9342 16.4855 15.0066 16.3255 15.1249 16.2026C15.2432 16.0796 15.4002 16.001 15.5696 15.98C15.6209 15.98 20.6398 15.3217 23.581 13.3039C23.7057 13.2147 23.8552 13.1668 24.0085 13.1668C24.1618 13.1668 24.3113 13.2147 24.436 13.3039C27.3772 15.3302 32.3961 15.9715 32.4474 15.98C32.6162 16.0025 32.7723 16.0815 32.8903 16.2042C33.0084 16.3269 33.0813 16.486 33.0972 16.6555C33.0972 16.7752 34.1403 29.0787 24.3847 34.6705C24.2682 34.7381 24.1346 34.7708 24 34.7645ZM16.3819 17.3737C16.322 19.725 16.6213 28.6341 24 33.1486C31.3958 28.6256 31.695 19.725 31.6266 17.3737C28.9528 16.9761 26.3706 16.1077 24 14.8087C21.6311 16.1047 19.0522 16.973 16.3819 17.3737Z" fill="url(#paint25_linear_1676_37785)"/>
<path d="M12.1752 23.2219H4.99318V24.7182H12.1752V23.2219Z" stroke="url(#paint26_linear_1676_37785)" stroke-width="2" mask="url(#path-1-inside-1_1676_37785)"/>
<path d="M2.87277 26.8386C2.30531 26.8386 1.75056 26.6705 1.27851 26.3556C0.806453 26.0407 0.438236 25.593 0.220306 25.0691C0.00237556 24.5451 -0.0555056 23.9684 0.0539639 23.4116C0.163433 22.8548 0.435349 22.3429 0.835411 21.9404C1.23547 21.538 1.74576 21.263 2.3019 21.1503C2.85804 21.0375 3.43512 21.092 3.96035 21.3068C4.48558 21.5216 4.93542 21.8871 5.25314 22.3573C5.57086 22.8275 5.74221 23.3812 5.74559 23.9487C5.74784 24.3274 5.6752 24.7028 5.53183 25.0533C5.38847 25.4038 5.17722 25.7226 4.91023 25.9911C4.64324 26.2597 4.32578 26.4729 3.97611 26.6183C3.62645 26.7637 3.25148 26.8386 2.87277 26.8386ZM2.87277 22.5636C2.60492 22.572 2.34543 22.6589 2.12652 22.8134C1.90762 22.968 1.73893 23.1835 1.64141 23.4331C1.5439 23.6827 1.52184 23.9555 1.57798 24.2175C1.63413 24.4796 1.766 24.7193 1.95722 24.9071C2.14845 25.0948 2.3906 25.2223 2.65363 25.2736C2.91665 25.3249 3.18895 25.2979 3.43674 25.1958C3.68452 25.0937 3.89686 24.9211 4.0474 24.6994C4.19794 24.4777 4.28005 24.2167 4.28353 23.9487C4.28134 23.7668 4.24292 23.5872 4.1705 23.4204C4.09808 23.2536 3.99312 23.1028 3.86176 22.9771C3.7304 22.8513 3.57528 22.7529 3.40546 22.6878C3.23565 22.6227 3.05455 22.5921 2.87277 22.5978V22.5636Z" stroke="url(#paint27_linear_1676_37785)" stroke-width="2" mask="url(#path-1-inside-1_1676_37785)"/>
<path d="M7.866 37.2953C7.29987 37.2936 6.74694 37.1242 6.27703 36.8085C5.80713 36.4927 5.44135 36.0448 5.22587 35.5213C5.01039 34.9977 4.95488 34.4221 5.06637 33.867C5.17785 33.312 5.45131 32.8024 5.85223 32.4027C6.25314 32.003 6.76352 31.731 7.3189 31.6212C7.87428 31.5114 8.44975 31.5686 8.97262 31.7857C9.4955 32.0027 9.94234 32.3698 10.2567 32.8407C10.571 33.3115 10.7388 33.8649 10.7388 34.4311C10.7366 35.1915 10.4329 35.92 9.89437 36.4569C9.35586 36.9938 8.62644 37.2953 7.866 37.2953ZM7.866 33.0203C7.5958 33.022 7.33216 33.1037 7.10832 33.255C6.88448 33.4063 6.71047 33.6206 6.60824 33.8707C6.50601 34.1208 6.48013 34.3956 6.53388 34.6604C6.58763 34.9252 6.71859 35.1682 6.91024 35.3586C7.1019 35.5491 7.34566 35.6785 7.61079 35.7306C7.87593 35.7827 8.15055 35.7551 8.40002 35.6513C8.64949 35.5476 8.86265 35.3722 9.01259 35.1474C9.16253 34.9227 9.24255 34.6585 9.24256 34.3883C9.23141 34.0315 9.0812 33.6931 8.82401 33.4455C8.56681 33.1979 8.22301 33.0606 7.866 33.0631V33.0203Z" stroke="url(#paint28_linear_1676_37785)" stroke-width="2" mask="url(#path-1-inside-1_1676_37785)"/>
<path d="M8.61841 32.3106H7.12215V28.694C7.12101 28.5956 7.13942 28.4979 7.1763 28.4067C7.21317 28.3154 7.26778 28.2324 7.33697 28.1625C7.40616 28.0925 7.48854 28.0369 7.57935 27.999C7.67016 27.9611 7.76759 27.9416 7.866 27.9416H12.141V29.4378H8.61841V32.3106Z" stroke="url(#paint29_linear_1676_37785)" stroke-width="2" mask="url(#path-1-inside-1_1676_37785)"/>
<path d="M7.866 16.3733C7.29745 16.3733 6.74168 16.2046 6.26906 15.8886C5.79645 15.5725 5.42824 15.1234 5.21105 14.5979C4.99387 14.0725 4.93748 13.4944 5.04902 12.9369C5.16057 12.3794 5.43503 11.8675 5.83765 11.4661C6.24028 11.0647 6.75297 10.7918 7.3108 10.6819C7.86864 10.572 8.44653 10.6301 8.97132 10.8488C9.49611 11.0676 9.94419 11.4371 10.2588 11.9107C10.5735 12.3843 10.7405 12.9405 10.7388 13.5091C10.7366 14.2695 10.4329 14.998 9.89437 15.5349C9.35586 16.0718 8.62644 16.3733 7.866 16.3733ZM7.866 12.0983C7.5958 12.1 7.33216 12.1817 7.10832 12.333C6.88448 12.4844 6.71047 12.6986 6.60824 12.9487C6.50601 13.1988 6.48013 13.4736 6.53388 13.7384C6.58763 14.0032 6.71859 14.2462 6.91024 14.4366C7.1019 14.6271 7.34566 14.7565 7.61079 14.8086C7.87593 14.8607 8.15055 14.8331 8.40002 14.7294C8.64949 14.6256 8.86265 14.4502 9.01259 14.2255C9.16253 14.0007 9.24255 13.7365 9.24256 13.4663C9.23141 13.1095 9.0812 12.7711 8.82401 12.5235C8.56681 12.2759 8.22301 12.1387 7.866 12.1411V12.0983Z" stroke="url(#paint30_linear_1676_37785)" stroke-width="2" mask="url(#path-1-inside-1_1676_37785)"/>
<path d="M12.1752 19.9986H7.9002C7.70214 19.9963 7.51295 19.9161 7.37369 19.7752C7.23443 19.6343 7.15633 19.4442 7.15635 19.2462V15.6209H8.65261V18.4938H12.2094L12.1752 19.9986Z" stroke="url(#paint31_linear_1676_37785)" stroke-width="2" mask="url(#path-1-inside-1_1676_37785)"/>
<path d="M24.7182 35.8333H23.2219V43.0153H24.7182V35.8333Z" stroke="url(#paint32_linear_1676_37785)" stroke-width="2" mask="url(#path-1-inside-1_1676_37785)"/>
<path d="M23.9487 48C23.3801 48 22.8243 47.8313 22.3517 47.5152C21.8791 47.1992 21.5109 46.75 21.2937 46.2246C21.0765 45.6991 21.0201 45.1211 21.1317 44.5636C21.2432 44.0061 21.5177 43.4942 21.9203 43.0928C22.3229 42.6913 22.8356 42.4184 23.3935 42.3085C23.9513 42.1986 24.5292 42.2568 25.054 42.4755C25.5788 42.6943 26.0268 43.0638 26.3415 43.5374C26.6561 44.0109 26.8232 44.5672 26.8215 45.1357C26.8192 45.8962 26.5155 46.6247 25.977 47.1616C25.4385 47.6985 24.7091 48 23.9487 48ZM23.9487 43.725C23.6781 43.725 23.4136 43.8052 23.1886 43.9555C22.9637 44.1058 22.7883 44.3195 22.6848 44.5695C22.5812 44.8194 22.5541 45.0945 22.6069 45.3599C22.6597 45.6252 22.79 45.869 22.9813 46.0603C23.1726 46.2516 23.4164 46.3819 23.6818 46.4347C23.9471 46.4875 24.2222 46.4604 24.4722 46.3569C24.7221 46.2533 24.9358 46.078 25.0861 45.853C25.2364 45.628 25.3167 45.3635 25.3167 45.093C25.3056 44.7376 25.1565 44.4005 24.9012 44.1532C24.6458 43.9058 24.3042 43.7675 23.9487 43.7677V43.725Z" stroke="url(#paint33_linear_1676_37785)" stroke-width="2" mask="url(#path-1-inside-1_1676_37785)"/>
<path d="M34.431 43.0068C33.8625 43.0085 33.3062 42.8414 32.8326 42.5268C32.3591 42.2121 31.9895 41.7641 31.7708 41.2393C31.552 40.7145 31.4939 40.1366 31.6038 39.5787C31.7137 39.0209 31.9866 38.5082 32.3881 38.1056C32.7895 37.703 33.3014 37.4285 33.8589 37.317C34.4164 37.2054 34.9944 37.2618 35.5199 37.479C36.0453 37.6962 36.4945 38.0644 36.8105 38.537C37.1266 39.0096 37.2953 39.5654 37.2953 40.1339C37.2953 40.8944 36.9938 41.6238 36.4569 42.1623C35.92 42.7008 35.1915 43.0045 34.431 43.0068ZM34.431 38.7317C34.158 38.73 33.8907 38.8096 33.663 38.9602C33.4354 39.1108 33.2576 39.3257 33.1524 39.5775C33.0471 39.8294 33.0191 40.1069 33.072 40.3747C33.1248 40.6426 33.2561 40.8886 33.4491 41.0816C33.6422 41.2747 33.8882 41.406 34.156 41.4588C34.4239 41.5116 34.7013 41.4837 34.9532 41.3784C35.2051 41.2732 35.42 41.0954 35.5706 40.8677C35.7212 40.64 35.8007 40.3727 35.799 40.0997C35.7901 39.7429 35.642 39.4037 35.3865 39.1545C35.1309 38.9053 34.788 38.7658 34.431 38.7659V38.7317Z" stroke="url(#paint34_linear_1676_37785)" stroke-width="2" mask="url(#path-1-inside-1_1676_37785)"/>
<path d="M32.3106 40.8864H28.6939C28.5948 40.8875 28.4965 40.8688 28.4047 40.8314C28.3128 40.794 28.2294 40.7386 28.1593 40.6685C28.0893 40.5984 28.0339 40.515 27.9965 40.4232C27.9591 40.3314 27.9404 40.2331 27.9415 40.1339V35.8589H29.4378V39.4157H32.3106V40.8864Z" stroke="url(#paint35_linear_1676_37785)" stroke-width="2" mask="url(#path-1-inside-1_1676_37785)"/>
<path d="M13.509 43.0068C12.9405 43.0085 12.3842 42.8414 11.9107 42.5268C11.4371 42.2121 11.0676 41.7641 10.8488 41.2393C10.6301 40.7145 10.5719 40.1366 10.6818 39.5787C10.7917 39.0209 11.0646 38.5082 11.4661 38.1056C11.8675 37.703 12.3794 37.4285 12.9369 37.317C13.4944 37.2054 14.0724 37.2618 14.5979 37.479C15.1233 37.6962 15.5725 38.0644 15.8885 38.537C16.2046 39.0096 16.3733 39.5654 16.3733 40.1339C16.3711 40.8937 16.0688 41.6218 15.5324 42.1598C14.996 42.6979 14.2688 43.0023 13.509 43.0068ZM13.509 38.7317C13.2361 38.73 12.9687 38.8096 12.7411 38.9602C12.5134 39.1108 12.3356 39.3257 12.2304 39.5775C12.1251 39.8294 12.0971 40.1069 12.15 40.3747C12.2028 40.6426 12.3341 40.8886 12.5271 41.0816C12.7202 41.2747 12.9662 41.406 13.2341 41.4588C13.5019 41.5116 13.7794 41.4837 14.0312 41.3784C14.2831 41.2732 14.498 41.0954 14.6486 40.8677C14.7992 40.64 14.8787 40.3727 14.877 40.0997C14.8681 39.7429 14.7201 39.4037 14.4645 39.1545C14.2089 38.9053 13.866 38.7658 13.509 38.7659V38.7317Z" stroke="url(#paint36_linear_1676_37785)" stroke-width="2" mask="url(#path-1-inside-1_1676_37785)"/>
<path d="M19.2461 40.8864H15.6209V39.3901H18.4937V35.8333H19.99V40.1083C19.9946 40.2088 19.9788 40.3092 19.9435 40.4035C19.9082 40.4977 19.8541 40.5838 19.7846 40.6565C19.715 40.7293 19.6315 40.7871 19.5389 40.8266C19.4464 40.8661 19.3468 40.8865 19.2461 40.8864Z" stroke="url(#paint37_linear_1676_37785)" stroke-width="2" mask="url(#path-1-inside-1_1676_37785)"/>
<path d="M43.0153 23.2903H35.8332V24.7866H43.0153V23.2903Z" stroke="url(#paint38_linear_1676_37785)" stroke-width="2" mask="url(#path-1-inside-1_1676_37785)"/>
<path d="M45.1357 26.907C44.5668 26.9087 44.0102 26.7414 43.5364 26.4264C43.0627 26.1114 42.6931 25.6628 42.4747 25.1375C42.2562 24.6122 42.1985 24.0339 42.3091 23.4758C42.4197 22.9178 42.6935 22.4051 43.0958 22.0028C43.498 21.6005 44.0107 21.3267 44.5688 21.2162C45.1269 21.1056 45.7052 21.1632 46.2305 21.3817C46.7558 21.6002 47.2043 21.9697 47.5194 22.4435C47.8344 22.9172 48.0017 23.4738 48 24.0427C47.9977 24.8017 47.6952 25.5289 47.1585 26.0656C46.6219 26.6023 45.8946 26.9048 45.1357 26.907ZM45.1357 22.6747C44.8651 22.6747 44.6006 22.755 44.3757 22.9053C44.1507 23.0556 43.9754 23.2693 43.8718 23.5192C43.7683 23.7692 43.7412 24.0443 43.794 24.3096C43.8468 24.575 43.977 24.8188 44.1684 25.0101C44.3597 25.2014 44.6034 25.3317 44.8688 25.3845C45.1342 25.4373 45.4092 25.4102 45.6592 25.3066C45.9092 25.2031 46.1228 25.0277 46.2731 24.8028C46.4235 24.5778 46.5037 24.3133 46.5037 24.0427C46.5037 23.6799 46.3596 23.332 46.103 23.0754C45.8465 22.8189 45.4985 22.6747 45.1357 22.6747Z" stroke="url(#paint39_linear_1676_37785)" stroke-width="2" mask="url(#path-1-inside-1_1676_37785)"/>
<path d="M40.1339 16.4417C39.5678 16.4401 39.0148 16.2706 38.5449 15.9549C38.075 15.6391 37.7093 15.1912 37.4938 14.6677C37.2783 14.1441 37.2228 13.5685 37.3343 13.0135C37.4458 12.4584 37.7192 11.9488 38.1201 11.5491C38.521 11.1494 39.0314 10.8775 39.5868 10.7676C40.1422 10.6578 40.7177 10.715 41.2405 10.9321C41.7634 11.1491 42.2102 11.5162 42.5246 11.9871C42.8389 12.4579 43.0067 13.0113 43.0067 13.5775C43.0045 14.3379 42.7008 15.0664 42.1623 15.6033C41.6238 16.1403 40.8943 16.4417 40.1339 16.4417ZM40.1339 12.2095C39.8637 12.2112 39.6001 12.2928 39.3762 12.4442C39.1524 12.5955 38.9784 12.8097 38.8761 13.0599C38.7739 13.31 38.748 13.5848 38.8018 13.8496C38.8555 14.1144 38.9865 14.3573 39.1781 14.5478C39.3698 14.7383 39.6136 14.8677 39.8787 14.9198C40.1438 14.9719 40.4185 14.9443 40.6679 14.8405C40.9174 14.7367 41.1306 14.5614 41.2805 14.3366C41.4304 14.1118 41.5105 13.8477 41.5105 13.5775C41.5105 13.3971 41.4748 13.2185 41.4055 13.052C41.3362 12.8854 41.2347 12.7343 41.1068 12.6071C40.9788 12.48 40.827 12.3794 40.66 12.3111C40.4931 12.2429 40.3143 12.2083 40.1339 12.2095Z" stroke="url(#paint40_linear_1676_37785)" stroke-width="2" mask="url(#path-1-inside-1_1676_37785)"/>
<path d="M40.1339 20.067H35.8589V18.5707H39.4157V15.6979H40.912V19.3146C40.9132 19.4159 40.8938 19.5164 40.8548 19.61C40.8158 19.7036 40.7581 19.7882 40.6853 19.8586C40.6124 19.9291 40.5259 19.9839 40.4311 20.0197C40.3363 20.0556 40.2352 20.0716 40.1339 20.067Z" stroke="url(#paint41_linear_1676_37785)" stroke-width="2" mask="url(#path-1-inside-1_1676_37785)"/>
<path d="M40.1339 37.3637C39.5678 37.362 39.0148 37.1926 38.5449 36.8769C38.075 36.5611 37.7093 36.1132 37.4938 35.5897C37.2783 35.0661 37.2228 34.4905 37.3343 33.9354C37.4458 33.3804 37.7192 32.8708 38.1201 32.4711C38.521 32.0714 39.0314 31.7994 39.5868 31.6896C40.1422 31.5798 40.7177 31.637 41.2405 31.854C41.7634 32.0711 42.2102 32.4382 42.5246 32.9091C42.8389 33.3799 43.0067 33.9333 43.0067 34.4995C43.0045 35.2599 42.7008 35.9884 42.1623 36.5253C41.6238 37.0622 40.8943 37.3637 40.1339 37.3637ZM40.1339 33.1315C39.8637 33.1331 39.6001 33.2148 39.3762 33.3661C39.1524 33.5175 38.9784 33.7317 38.8761 33.9818C38.7739 34.232 38.748 34.5067 38.8018 34.7715C38.8555 35.0364 38.9865 35.2793 39.1781 35.4698C39.3698 35.6602 39.6136 35.7897 39.8787 35.8418C40.1438 35.8939 40.4185 35.8663 40.6679 35.7625C40.9174 35.6587 41.1306 35.4834 41.2805 35.2586C41.4304 35.0338 41.5105 34.7697 41.5105 34.4995C41.5105 34.3191 41.4748 34.1405 41.4055 33.974C41.3362 33.8074 41.2347 33.6562 41.1068 33.5291C40.9788 33.402 40.827 33.3014 40.66 33.2331C40.4931 33.1649 40.3143 33.1303 40.1339 33.1315Z" stroke="url(#paint42_linear_1676_37785)" stroke-width="2" mask="url(#path-1-inside-1_1676_37785)"/>
<path d="M40.8863 32.379H39.3901V29.5148H35.8332V28.01H40.1083C40.2071 28.01 40.3049 28.0294 40.3962 28.0672C40.4875 28.1051 40.5704 28.1605 40.6403 28.2303C40.7102 28.3002 40.7656 28.3832 40.8034 28.4744C40.8412 28.5657 40.8607 28.6636 40.8607 28.7624L40.8863 32.379Z" stroke="url(#paint43_linear_1676_37785)" stroke-width="2" mask="url(#path-1-inside-1_1676_37785)"/>
<path d="M24.7866 4.99322H23.2903V12.1753H24.7866V4.99322Z" stroke="url(#paint44_linear_1676_37785)" stroke-width="2" mask="url(#path-1-inside-1_1676_37785)"/>
<path d="M24.0427 5.74563C23.4742 5.74732 22.9179 5.58027 22.4443 5.26563C21.9708 4.95099 21.6012 4.50291 21.3825 3.97812C21.1637 3.45334 21.1056 2.87544 21.2155 2.31761C21.3254 1.75977 21.5983 1.24709 21.9997 0.84446C22.4012 0.441833 22.913 0.167374 23.4705 0.0558305C24.028 -0.0557126 24.6061 0.00067734 25.1315 0.217861C25.657 0.435044 26.1062 0.803253 26.4222 1.27587C26.7383 1.74849 26.907 2.30425 26.907 2.87281C26.9047 3.63256 26.6025 4.36068 26.0661 4.8987C25.5297 5.43673 24.8024 5.74112 24.0427 5.74563ZM24.0427 1.4706C23.7721 1.4706 23.5076 1.55083 23.2827 1.70115C23.0577 1.85147 22.8824 2.06512 22.7788 2.31509C22.6753 2.56506 22.6482 2.84012 22.701 3.10549C22.7538 3.37086 22.8841 3.61462 23.0754 3.80594C23.2667 3.99725 23.5105 4.12754 23.7758 4.18033C24.0412 4.23311 24.3162 4.20602 24.5662 4.10248C24.8162 3.99894 25.0298 3.8236 25.1802 3.59863C25.3305 3.37366 25.4107 3.10917 25.4107 2.83861C25.4018 2.48175 25.2537 2.14251 24.9981 1.89331C24.7425 1.64411 24.3997 1.50469 24.0427 1.5048V1.4706Z" stroke="url(#paint45_linear_1676_37785)" stroke-width="2" mask="url(#path-1-inside-1_1676_37785)"/>
<path d="M13.5774 10.7389C13.0089 10.7405 12.4526 10.5735 11.9791 10.2589C11.5055 9.94422 11.136 9.49614 10.9172 8.97136C10.6985 8.44657 10.6404 7.86867 10.7502 7.31084C10.8601 6.753 11.133 6.24032 11.5345 5.83769C11.9359 5.43507 12.4478 5.16061 13.0053 5.04906C13.5628 4.93752 14.1408 4.99391 14.6663 5.21109C15.1917 5.42828 15.6409 5.79649 15.9569 6.2691C16.273 6.74172 16.4417 7.29748 16.4417 7.86604C16.4417 8.62648 16.1402 9.3559 15.6033 9.89441C15.0664 10.4329 14.3379 10.7366 13.5774 10.7389ZM13.5774 6.46383C13.3045 6.46214 13.0371 6.54165 12.8095 6.69226C12.5818 6.84286 12.404 7.05776 12.2988 7.30964C12.1935 7.56152 12.1655 7.839 12.2184 8.10682C12.2712 8.37465 12.4025 8.62071 12.5955 8.81374C12.7886 9.00676 13.0346 9.13804 13.3025 9.19089C13.5703 9.24373 13.8478 9.21575 14.0996 9.1105C14.3515 9.00525 14.5664 8.82749 14.717 8.59981C14.8676 8.37213 14.9471 8.10482 14.9454 7.83184C14.9365 7.47498 14.7885 7.13574 14.5329 6.88654C14.2773 6.63734 13.9344 6.49792 13.5774 6.49803V6.46383Z" stroke="url(#paint46_linear_1676_37785)" stroke-width="2" mask="url(#path-1-inside-1_1676_37785)"/>
<path d="M20.0669 12.1753H18.5707V8.61844H15.6979V7.12218H19.3145C19.4129 7.12105 19.5106 7.13946 19.6018 7.17633C19.693 7.21321 19.7761 7.26782 19.846 7.33701C19.916 7.4062 19.9716 7.48858 20.0095 7.57939C20.0474 7.6702 20.0669 7.76763 20.0669 7.86604V12.1753Z" stroke="url(#paint47_linear_1676_37785)" stroke-width="2" mask="url(#path-1-inside-1_1676_37785)"/>
<path d="M34.4994 10.7389C33.9309 10.7405 33.3746 10.5735 32.901 10.2589C32.4275 9.94422 32.0579 9.49614 31.8392 8.97136C31.6204 8.44657 31.5623 7.86867 31.6722 7.31084C31.7821 6.753 32.055 6.24032 32.4565 5.83769C32.8579 5.43507 33.3698 5.16061 33.9273 5.04906C34.4848 4.93752 35.0628 4.99391 35.5883 5.21109C36.1137 5.42828 36.5629 5.79649 36.8789 6.2691C37.195 6.74172 37.3637 7.29748 37.3637 7.86604C37.3637 8.62648 37.0622 9.3559 36.5253 9.89441C35.9884 10.4329 35.2599 10.7366 34.4994 10.7389ZM34.4994 6.46383C34.2264 6.46214 33.9591 6.54165 33.7314 6.69226C33.5038 6.84286 33.326 7.05776 33.2208 7.30964C33.1155 7.56152 33.0875 7.839 33.1404 8.10682C33.1932 8.37465 33.3245 8.62071 33.5175 8.81374C33.7106 9.00676 33.9566 9.13804 34.2244 9.19089C34.4923 9.24373 34.7697 9.21575 35.0216 9.1105C35.2735 9.00525 35.4884 8.82749 35.639 8.59981C35.7896 8.37213 35.8691 8.10482 35.8674 7.83184C35.8585 7.47498 35.7104 7.13574 35.4549 6.88654C35.1993 6.63734 34.8564 6.49792 34.4994 6.49803V6.46383Z" stroke="url(#paint48_linear_1676_37785)" stroke-width="2" mask="url(#path-1-inside-1_1676_37785)"/>
<path d="M29.5147 12.1753H28.0099V7.90024C28.0122 7.70217 28.0924 7.51299 28.2333 7.37373C28.3742 7.23447 28.5643 7.15637 28.7623 7.15638H32.379V8.65264H29.5147V12.1753Z" stroke="url(#paint49_linear_1676_37785)" stroke-width="2" mask="url(#path-1-inside-1_1676_37785)"/>
<path d="M22.5122 27.0695L20.0413 24.5985L21.1015 23.5383L22.5122 24.949L26.907 20.5543L27.9672 21.6145L22.5122 27.0695Z" stroke="url(#paint50_linear_1676_37785)" stroke-width="2" mask="url(#path-1-inside-1_1676_37785)"/>
<path d="M24 34.7645C23.871 34.768 23.7437 34.7354 23.6323 34.6705C13.8767 29.0787 14.9112 16.7752 14.9198 16.6555C14.9342 16.4855 15.0066 16.3255 15.1249 16.2026C15.2432 16.0796 15.4002 16.001 15.5696 15.98C15.6209 15.98 20.6398 15.3217 23.581 13.3039C23.7057 13.2147 23.8552 13.1668 24.0085 13.1668C24.1618 13.1668 24.3113 13.2147 24.436 13.3039C27.3772 15.3302 32.3961 15.9715 32.4474 15.98C32.6162 16.0025 32.7723 16.0815 32.8903 16.2042C33.0084 16.3269 33.0813 16.486 33.0972 16.6555C33.0972 16.7752 34.1403 29.0787 24.3847 34.6705C24.2682 34.7381 24.1346 34.7708 24 34.7645ZM16.3819 17.3737C16.322 19.725 16.6213 28.6341 24 33.1486C31.3958 28.6256 31.695 19.725 31.6266 17.3737C28.9528 16.9761 26.3706 16.1077 24 14.8087C21.6311 16.1047 19.0522 16.973 16.3819 17.3737Z" stroke="url(#paint51_linear_1676_37785)" stroke-width="2" mask="url(#path-1-inside-1_1676_37785)"/>
<defs>
<linearGradient id="paint0_linear_1676_37785" x1="24" y1="0" x2="24" y2="48" gradientUnits="userSpaceOnUse">
<stop stop-color="#666DFF"/>
<stop offset="1" stop-color="#4C53E0"/>
</linearGradient>
<linearGradient id="paint1_linear_1676_37785" x1="24" y1="0" x2="24" y2="48" gradientUnits="userSpaceOnUse">
<stop stop-color="#666DFF"/>
<stop offset="1" stop-color="#4C53E0"/>
</linearGradient>
<linearGradient id="paint2_linear_1676_37785" x1="24" y1="0" x2="24" y2="48" gradientUnits="userSpaceOnUse">
<stop stop-color="#666DFF"/>
<stop offset="1" stop-color="#4C53E0"/>
</linearGradient>
<linearGradient id="paint3_linear_1676_37785" x1="24" y1="0" x2="24" y2="48" gradientUnits="userSpaceOnUse">
<stop stop-color="#666DFF"/>
<stop offset="1" stop-color="#4C53E0"/>
</linearGradient>
<linearGradient id="paint4_linear_1676_37785" x1="24" y1="0" x2="24" y2="48" gradientUnits="userSpaceOnUse">
<stop stop-color="#666DFF"/>
<stop offset="1" stop-color="#4C53E0"/>
</linearGradient>
<linearGradient id="paint5_linear_1676_37785" x1="24" y1="0" x2="24" y2="48" gradientUnits="userSpaceOnUse">
<stop stop-color="#666DFF"/>
<stop offset="1" stop-color="#4C53E0"/>
</linearGradient>
<linearGradient id="paint6_linear_1676_37785" x1="24" y1="0" x2="24" y2="48" gradientUnits="userSpaceOnUse">
<stop stop-color="#666DFF"/>
<stop offset="1" stop-color="#4C53E0"/>
</linearGradient>
<linearGradient id="paint7_linear_1676_37785" x1="24" y1="0" x2="24" y2="48" gradientUnits="userSpaceOnUse">
<stop stop-color="#666DFF"/>
<stop offset="1" stop-color="#4C53E0"/>
</linearGradient>
<linearGradient id="paint8_linear_1676_37785" x1="24" y1="0" x2="24" y2="48" gradientUnits="userSpaceOnUse">
<stop stop-color="#666DFF"/>
<stop offset="1" stop-color="#4C53E0"/>
</linearGradient>
<linearGradient id="paint9_linear_1676_37785" x1="24" y1="0" x2="24" y2="48" gradientUnits="userSpaceOnUse">
<stop stop-color="#666DFF"/>
<stop offset="1" stop-color="#4C53E0"/>
</linearGradient>
<linearGradient id="paint10_linear_1676_37785" x1="24" y1="0" x2="24" y2="48" gradientUnits="userSpaceOnUse">
<stop stop-color="#666DFF"/>
<stop offset="1" stop-color="#4C53E0"/>
</linearGradient>
<linearGradient id="paint11_linear_1676_37785" x1="24" y1="0" x2="24" y2="48" gradientUnits="userSpaceOnUse">
<stop stop-color="#666DFF"/>
<stop offset="1" stop-color="#4C53E0"/>
</linearGradient>
<linearGradient id="paint12_linear_1676_37785" x1="24" y1="0" x2="24" y2="48" gradientUnits="userSpaceOnUse">
<stop stop-color="#666DFF"/>
<stop offset="1" stop-color="#4C53E0"/>
</linearGradient>
<linearGradient id="paint13_linear_1676_37785" x1="24" y1="0" x2="24" y2="48" gradientUnits="userSpaceOnUse">
<stop stop-color="#666DFF"/>
<stop offset="1" stop-color="#4C53E0"/>
</linearGradient>
<linearGradient id="paint14_linear_1676_37785" x1="24" y1="0" x2="24" y2="48" gradientUnits="userSpaceOnUse">
<stop stop-color="#666DFF"/>
<stop offset="1" stop-color="#4C53E0"/>
</linearGradient>
<linearGradient id="paint15_linear_1676_37785" x1="24" y1="0" x2="24" y2="48" gradientUnits="userSpaceOnUse">
<stop stop-color="#666DFF"/>
<stop offset="1" stop-color="#4C53E0"/>
</linearGradient>
<linearGradient id="paint16_linear_1676_37785" x1="24" y1="0" x2="24" y2="48" gradientUnits="userSpaceOnUse">
<stop stop-color="#666DFF"/>
<stop offset="1" stop-color="#4C53E0"/>
</linearGradient>
<linearGradient id="paint17_linear_1676_37785" x1="24" y1="0" x2="24" y2="48" gradientUnits="userSpaceOnUse">
<stop stop-color="#666DFF"/>
<stop offset="1" stop-color="#4C53E0"/>
</linearGradient>
<linearGradient id="paint18_linear_1676_37785" x1="24" y1="0" x2="24" y2="48" gradientUnits="userSpaceOnUse">
<stop stop-color="#666DFF"/>
<stop offset="1" stop-color="#4C53E0"/>
</linearGradient>
<linearGradient id="paint19_linear_1676_37785" x1="24" y1="0" x2="24" y2="48" gradientUnits="userSpaceOnUse">
<stop stop-color="#666DFF"/>
<stop offset="1" stop-color="#4C53E0"/>
</linearGradient>
<linearGradient id="paint20_linear_1676_37785" x1="24" y1="0" x2="24" y2="48" gradientUnits="userSpaceOnUse">
<stop stop-color="#666DFF"/>
<stop offset="1" stop-color="#4C53E0"/>
</linearGradient>
<linearGradient id="paint21_linear_1676_37785" x1="24" y1="0" x2="24" y2="48" gradientUnits="userSpaceOnUse">
<stop stop-color="#666DFF"/>
<stop offset="1" stop-color="#4C53E0"/>
</linearGradient>
<linearGradient id="paint22_linear_1676_37785" x1="24" y1="0" x2="24" y2="48" gradientUnits="userSpaceOnUse">
<stop stop-color="#666DFF"/>
<stop offset="1" stop-color="#4C53E0"/>
</linearGradient>
<linearGradient id="paint23_linear_1676_37785" x1="24" y1="0" x2="24" y2="48" gradientUnits="userSpaceOnUse">
<stop stop-color="#666DFF"/>
<stop offset="1" stop-color="#4C53E0"/>
</linearGradient>
<linearGradient id="paint24_linear_1676_37785" x1="24" y1="0" x2="24" y2="48" gradientUnits="userSpaceOnUse">
<stop stop-color="#666DFF"/>
<stop offset="1" stop-color="#4C53E0"/>
</linearGradient>
<linearGradient id="paint25_linear_1676_37785" x1="24" y1="0" x2="24" y2="48" gradientUnits="userSpaceOnUse">
<stop stop-color="#666DFF"/>
<stop offset="1" stop-color="#4C53E0"/>
</linearGradient>
<linearGradient id="paint26_linear_1676_37785" x1="24" y1="0" x2="24" y2="48" gradientUnits="userSpaceOnUse">
<stop stop-color="#666DFF"/>
<stop offset="1" stop-color="#4C53E0"/>
</linearGradient>
<linearGradient id="paint27_linear_1676_37785" x1="24" y1="0" x2="24" y2="48" gradientUnits="userSpaceOnUse">
<stop stop-color="#666DFF"/>
<stop offset="1" stop-color="#4C53E0"/>
</linearGradient>
<linearGradient id="paint28_linear_1676_37785" x1="24" y1="0" x2="24" y2="48" gradientUnits="userSpaceOnUse">
<stop stop-color="#666DFF"/>
<stop offset="1" stop-color="#4C53E0"/>
</linearGradient>
<linearGradient id="paint29_linear_1676_37785" x1="24" y1="0" x2="24" y2="48" gradientUnits="userSpaceOnUse">
<stop stop-color="#666DFF"/>
<stop offset="1" stop-color="#4C53E0"/>
</linearGradient>
<linearGradient id="paint30_linear_1676_37785" x1="24" y1="0" x2="24" y2="48" gradientUnits="userSpaceOnUse">
<stop stop-color="#666DFF"/>
<stop offset="1" stop-color="#4C53E0"/>
</linearGradient>
<linearGradient id="paint31_linear_1676_37785" x1="24" y1="0" x2="24" y2="48" gradientUnits="userSpaceOnUse">
<stop stop-color="#666DFF"/>
<stop offset="1" stop-color="#4C53E0"/>
</linearGradient>
<linearGradient id="paint32_linear_1676_37785" x1="24" y1="0" x2="24" y2="48" gradientUnits="userSpaceOnUse">
<stop stop-color="#666DFF"/>
<stop offset="1" stop-color="#4C53E0"/>
</linearGradient>
<linearGradient id="paint33_linear_1676_37785" x1="24" y1="0" x2="24" y2="48" gradientUnits="userSpaceOnUse">
<stop stop-color="#666DFF"/>
<stop offset="1" stop-color="#4C53E0"/>
</linearGradient>
<linearGradient id="paint34_linear_1676_37785" x1="24" y1="0" x2="24" y2="48" gradientUnits="userSpaceOnUse">
<stop stop-color="#666DFF"/>
<stop offset="1" stop-color="#4C53E0"/>
</linearGradient>
<linearGradient id="paint35_linear_1676_37785" x1="24" y1="0" x2="24" y2="48" gradientUnits="userSpaceOnUse">
<stop stop-color="#666DFF"/>
<stop offset="1" stop-color="#4C53E0"/>
</linearGradient>
<linearGradient id="paint36_linear_1676_37785" x1="24" y1="0" x2="24" y2="48" gradientUnits="userSpaceOnUse">
<stop stop-color="#666DFF"/>
<stop offset="1" stop-color="#4C53E0"/>
</linearGradient>
<linearGradient id="paint37_linear_1676_37785" x1="24" y1="0" x2="24" y2="48" gradientUnits="userSpaceOnUse">
<stop stop-color="#666DFF"/>
<stop offset="1" stop-color="#4C53E0"/>
</linearGradient>
<linearGradient id="paint38_linear_1676_37785" x1="24" y1="0" x2="24" y2="48" gradientUnits="userSpaceOnUse">
<stop stop-color="#666DFF"/>
<stop offset="1" stop-color="#4C53E0"/>
</linearGradient>
<linearGradient id="paint39_linear_1676_37785" x1="24" y1="0" x2="24" y2="48" gradientUnits="userSpaceOnUse">
<stop stop-color="#666DFF"/>
<stop offset="1" stop-color="#4C53E0"/>
</linearGradient>
<linearGradient id="paint40_linear_1676_37785" x1="24" y1="0" x2="24" y2="48" gradientUnits="userSpaceOnUse">
<stop stop-color="#666DFF"/>
<stop offset="1" stop-color="#4C53E0"/>
</linearGradient>
<linearGradient id="paint41_linear_1676_37785" x1="24" y1="0" x2="24" y2="48" gradientUnits="userSpaceOnUse">
<stop stop-color="#666DFF"/>
<stop offset="1" stop-color="#4C53E0"/>
</linearGradient>
<linearGradient id="paint42_linear_1676_37785" x1="24" y1="0" x2="24" y2="48" gradientUnits="userSpaceOnUse">
<stop stop-color="#666DFF"/>
<stop offset="1" stop-color="#4C53E0"/>
</linearGradient>
<linearGradient id="paint43_linear_1676_37785" x1="24" y1="0" x2="24" y2="48" gradientUnits="userSpaceOnUse">
<stop stop-color="#666DFF"/>
<stop offset="1" stop-color="#4C53E0"/>
</linearGradient>
<linearGradient id="paint44_linear_1676_37785" x1="24" y1="0" x2="24" y2="48" gradientUnits="userSpaceOnUse">
<stop stop-color="#666DFF"/>
<stop offset="1" stop-color="#4C53E0"/>
</linearGradient>
<linearGradient id="paint45_linear_1676_37785" x1="24" y1="0" x2="24" y2="48" gradientUnits="userSpaceOnUse">
<stop stop-color="#666DFF"/>
<stop offset="1" stop-color="#4C53E0"/>
</linearGradient>
<linearGradient id="paint46_linear_1676_37785" x1="24" y1="0" x2="24" y2="48" gradientUnits="userSpaceOnUse">
<stop stop-color="#666DFF"/>
<stop offset="1" stop-color="#4C53E0"/>
</linearGradient>
<linearGradient id="paint47_linear_1676_37785" x1="24" y1="0" x2="24" y2="48" gradientUnits="userSpaceOnUse">
<stop stop-color="#666DFF"/>
<stop offset="1" stop-color="#4C53E0"/>
</linearGradient>
<linearGradient id="paint48_linear_1676_37785" x1="24" y1="0" x2="24" y2="48" gradientUnits="userSpaceOnUse">
<stop stop-color="#666DFF"/>
<stop offset="1" stop-color="#4C53E0"/>
</linearGradient>
<linearGradient id="paint49_linear_1676_37785" x1="24" y1="0" x2="24" y2="48" gradientUnits="userSpaceOnUse">
<stop stop-color="#666DFF"/>
<stop offset="1" stop-color="#4C53E0"/>
</linearGradient>
<linearGradient id="paint50_linear_1676_37785" x1="24" y1="0" x2="24" y2="48" gradientUnits="userSpaceOnUse">
<stop stop-color="#666DFF"/>
<stop offset="1" stop-color="#4C53E0"/>
</linearGradient>
<linearGradient id="paint51_linear_1676_37785" x1="24" y1="0" x2="24" y2="48" gradientUnits="userSpaceOnUse">
<stop stop-color="#666DFF"/>
<stop offset="1" stop-color="#4C53E0"/>
</linearGradient>
</defs>
</svg>
