<svg width="48" height="48" viewBox="0 0 48 48" fill="none" xmlns="http://www.w3.org/2000/svg">
<mask id="path-1-inside-1_1676_37801" fill="white">
<path d="M39.7754 45.0006C39.7698 44.2392 39.5342 43.4973 39.0994 42.8727C38.6647 42.2481 38.0513 41.77 37.34 41.5014L27.8079 37.6022V42.2312L24.1148 40.3316L20.3319 42.2412V37.5222L10.8397 41.5213C10.1352 41.7919 9.52828 42.2683 9.09755 42.8888C8.66682 43.5092 8.43222 44.245 8.4242 45.0006V48H39.7754V45.0006ZM9.92139 45.0006C9.92414 44.544 10.0662 44.0992 10.3284 43.7257C10.5906 43.3523 10.9606 43.068 11.3886 42.9111L18.8347 39.7917V44.6907L21.4797 43.361L21.849 44.9306L21.2901 46.5603H9.92139V45.0006ZM22.8971 46.5603L23.4061 45.0006L22.8571 42.6511L24.1148 42.0012L25.4123 42.6711L24.8234 45.0506L25.2826 46.5303L22.8971 46.5603ZM38.2982 46.5603H26.8496L26.3805 45.0006L26.7798 43.361L29.305 44.6707V39.8317L36.791 42.9111C37.2212 43.0672 37.5939 43.3506 37.8595 43.7238C38.1251 44.097 38.2712 44.5423 38.2782 45.0006L38.2982 46.5603Z"/>
<path d="M15.5808 28.594L16.2395 31.0035L17.6968 31.8434L18.9644 34.4128C19.4298 35.2456 20.0868 35.9551 20.8808 36.4824C21.0405 36.6124 21.2002 36.7423 21.33 36.8623C21.8621 37.3087 22.5324 37.5561 23.2264 37.5622H24.7436C25.4386 37.564 26.1126 37.3237 26.65 36.8823L26.9295 36.6524C27.7423 36.0766 28.423 35.3335 28.9258 34.4728L30.1934 31.8834L31.8802 31.0035L32.3493 28.714V28.604C32.3558 28.4059 32.3229 28.2084 32.2527 28.0231C32.1824 27.8378 32.0762 27.6682 31.9401 27.5243C31.7869 27.3687 31.6034 27.2462 31.4011 27.1643C31.4588 26.7268 31.4888 26.286 31.4909 25.8446V25.5847C31.3235 23.7117 30.4624 21.9693 29.077 20.7003C27.6917 19.4313 25.8823 18.7276 24.005 18.7276C22.1277 18.7276 20.3183 19.4313 18.9329 20.7003C17.5475 21.9693 16.6864 23.7117 16.519 25.5847V25.8446C16.5228 26.2889 16.5495 26.7328 16.5989 27.1743C16.3077 27.2805 16.0559 27.4735 15.8774 27.7273C15.699 27.9811 15.6024 28.2836 15.6007 28.594H15.5808ZM18.136 27.7042C18.0353 27.0892 17.9786 26.4677 17.9663 25.8446V25.5847C17.9663 23.9871 18.5999 22.4549 19.7277 21.3252C20.8555 20.1956 22.3851 19.5609 23.98 19.5609C25.575 19.5609 27.1046 20.1956 28.2324 21.3252C29.3602 22.4549 29.9938 23.9871 29.9938 25.5847V25.8446C29.9858 26.4618 29.9257 27.0772 29.8141 27.6842L29.6544 28.564H30.8521L30.5627 30.0037L29.0455 30.7636L27.5284 33.8729C27.097 34.4975 26.5639 35.045 25.9513 35.4926L25.6619 35.7426C25.3803 35.9695 25.0246 36.0835 24.6637 36.0625H23.1865C22.8467 36.0627 22.5178 35.9422 22.2583 35.7226L21.7692 35.3126C21.1896 34.9078 20.6861 34.4035 20.282 33.823L18.8546 30.8236L17.5172 30.0037L17.0979 28.554H18.2458L18.136 27.7042Z"/>
<path d="M23.9551 7.59841C24.7057 7.60039 25.44 7.37925 26.065 6.96299C26.6901 6.54673 27.1778 5.95407 27.4664 5.26003C27.755 4.566 27.8315 3.80179 27.6863 3.06416C27.5411 2.32652 27.1806 1.64864 26.6506 1.11631C26.1205 0.583977 25.4447 0.221143 24.7087 0.0737373C23.9727 -0.0736682 23.2095 0.000982736 22.5159 0.28824C21.8223 0.575497 21.2293 1.06244 20.8121 1.68743C20.3949 2.31243 20.1722 3.04736 20.1722 3.7992C20.1748 4.80427 20.5739 5.76758 21.2825 6.47922C21.991 7.19085 22.9517 7.59313 23.9551 7.59841ZM23.9551 1.50967C24.41 1.5077 24.8552 1.64113 25.2342 1.89305C25.6133 2.14496 25.9091 2.50399 26.0841 2.92458C26.2591 3.34517 26.3054 3.80835 26.2171 4.25534C26.1288 4.70234 25.91 5.11299 25.5883 5.43518C25.2667 5.75738 24.8567 5.97659 24.4105 6.065C23.9642 6.1534 23.5018 6.10702 23.0819 5.93174C22.662 5.75646 22.3036 5.46017 22.0521 5.08049C21.8006 4.70081 21.6674 4.25485 21.6694 3.7992C21.672 3.19279 21.9137 2.61197 22.3417 2.18317C22.7698 1.75437 23.3497 1.51231 23.9551 1.50967Z"/>
<path d="M23.2041 14.9958L23.201 16.6155L24.6982 16.6184L24.7013 14.9987L23.2041 14.9958Z"/>
<path d="M23.2141 8.52475L23.211 10.1444L24.7082 10.1473L24.7113 8.52763L23.2141 8.52475Z"/>
<path d="M23.2041 11.7703L23.201 13.3899L24.6982 13.3928L24.7013 11.7732L23.2041 11.7703Z"/>
<path d="M3.78291 22.6653C4.53349 22.6673 5.26779 22.4461 5.89283 22.0299C6.51788 21.6136 7.00558 21.0209 7.29419 20.3269C7.58279 19.6329 7.65933 18.8687 7.51411 18.131C7.36889 17.3934 7.00844 16.7155 6.4784 16.1832C5.94835 15.6508 5.27254 15.288 4.53652 15.1406C3.8005 14.9932 3.03737 15.0678 2.34373 15.3551C1.65009 15.6424 1.05713 16.1293 0.639917 16.7543C0.222706 17.3793 2.59899e-06 18.1142 0 18.8661C0.00261981 19.8711 0.4017 20.8344 1.11028 21.5461C1.81886 22.2577 2.77951 22.66 3.78291 22.6653ZM3.78291 16.5765C4.2378 16.5746 4.68302 16.708 5.06207 16.9599C5.44112 17.2118 5.73691 17.5709 5.9119 17.9914C6.08689 18.412 6.1332 18.8752 6.04493 19.3222C5.95667 19.7692 5.73783 20.1799 5.41617 20.502C5.09451 20.8242 4.68454 21.0435 4.23829 21.1319C3.79204 21.2203 3.32963 21.1739 2.90974 20.9986C2.48985 20.8233 2.13142 20.527 1.87993 20.1474C1.62843 19.7677 1.49522 19.3217 1.49719 18.8661C1.49982 18.2597 1.74148 17.6788 2.16956 17.25C2.59765 16.8212 3.17751 16.5792 3.78291 16.5765Z"/>
<path d="M3.78291 45.1306C4.53109 45.1306 5.26248 44.9084 5.88458 44.492C6.50667 44.0756 6.99154 43.4838 7.27786 42.7915C7.56418 42.0991 7.63909 41.3372 7.49313 40.6021C7.34716 39.8671 6.98687 39.1919 6.45782 38.662C5.92878 38.1321 5.25473 37.7712 4.52091 37.625C3.7871 37.4788 3.02649 37.5538 2.33525 37.8406C1.64402 38.1274 1.05321 38.6131 0.637535 39.2362C0.221864 39.8593 0 40.592 0 41.3414C0.00263465 42.3455 0.402036 43.3078 1.1109 44.0178C1.81976 44.7279 2.78043 45.128 3.78291 45.1306ZM3.78291 39.0519C4.23498 39.0519 4.6769 39.1861 5.05278 39.4377C5.42866 39.6893 5.72163 40.0469 5.89463 40.4652C6.06763 40.8836 6.1129 41.3439 6.0247 41.7881C5.93651 42.2322 5.71881 42.6401 5.39915 42.9603C5.07949 43.2805 4.67221 43.4986 4.22883 43.5869C3.78544 43.6753 3.32586 43.6299 2.9082 43.4566C2.49054 43.2833 2.13356 42.9899 1.8824 42.6134C1.63125 42.2369 1.49719 41.7942 1.49719 41.3414C1.49982 40.735 1.74148 40.1542 2.16956 39.7254C2.59765 39.2966 3.17751 39.0545 3.78291 39.0519Z"/>
<path d="M8.54355 20.8792L7.76573 22.1606L8.8915 22.8462L9.66932 21.5648L8.54355 20.8792Z"/>
<path d="M10.794 22.2596L10.0162 23.541L11.142 24.2266L11.9198 22.9452L10.794 22.2596Z"/>
<path d="M13.0583 23.6266L12.2804 24.908L13.4062 25.5936L14.184 24.3122L13.0583 23.6266Z"/>
<path d="M13.4022 35.0659L12.2761 35.7509L13.0532 37.0327L14.1794 36.3477L13.4022 35.0659Z"/>
<path d="M11.1443 36.443L10.0185 37.1286L10.7964 38.4101L11.9221 37.7244L11.1443 36.443Z"/>
<path d="M8.88475 37.812L7.75861 38.497L8.53576 39.7789L9.6619 39.0938L8.88475 37.812Z"/>
<path d="M4.5315 23.995H3.03431V25.3247H4.5315V23.995Z"/>
<path d="M4.5315 26.6544H3.03431V27.9842H4.5315V26.6544Z"/>
<path d="M4.5315 34.6528H3.03431V35.9825H4.5315V34.6528Z"/>
<path d="M4.5315 31.9833H3.03431V33.3131H4.5315V31.9833Z"/>
<path d="M4.5315 29.3239H3.03431V30.6536H4.5315V29.3239Z"/>
<path d="M44.2171 15.0769C43.4661 15.0749 42.7314 15.2963 42.1061 15.713C41.4809 16.1297 40.9932 16.7229 40.7049 17.4175C40.4165 18.1122 40.3406 18.8769 40.4866 19.6148C40.6327 20.3527 40.9941 21.0306 41.5251 21.5625C42.0562 22.0944 42.7329 22.4565 43.4696 22.6027C44.2063 22.749 44.9697 22.6729 45.6632 22.3841C46.3567 22.0954 46.9489 21.6069 47.3649 20.9805C47.7809 20.3542 48.002 19.6183 48 18.8661C48 17.8611 47.6014 16.8973 46.892 16.1867C46.1826 15.4761 45.2204 15.0769 44.2171 15.0769ZM44.2171 21.1656C43.763 21.1656 43.3192 21.0307 42.9417 20.778C42.5641 20.5254 42.2699 20.1662 42.0961 19.7461C41.9224 19.3259 41.8769 18.8635 41.9655 18.4174C42.0541 17.9714 42.2727 17.5616 42.5938 17.2401C42.9148 16.9185 43.3239 16.6995 43.7692 16.6107C44.2145 16.522 44.6761 16.5675 45.0956 16.7416C45.5151 16.9156 45.8736 17.2104 46.1259 17.5885C46.3781 17.9667 46.5128 18.4113 46.5128 18.8661C46.5141 19.1684 46.4556 19.468 46.3407 19.7476C46.2258 20.0272 46.0568 20.2812 45.8433 20.495C45.6299 20.7088 45.3763 20.8781 45.0972 20.9932C44.818 21.1083 44.5189 21.1669 44.2171 21.1656Z"/>
<path d="M44.2171 37.5522C43.4689 37.5522 42.7375 37.7744 42.1154 38.1908C41.4933 38.6071 41.0085 39.1989 40.7221 39.8913C40.4358 40.5837 40.3609 41.3456 40.5069 42.0806C40.6528 42.8157 41.0131 43.4908 41.5422 44.0208C42.0712 44.5507 42.7453 44.9116 43.4791 45.0578C44.2129 45.204 44.9735 45.129 45.6647 44.8422C46.356 44.5554 46.9468 44.0697 47.3625 43.4466C47.7781 42.8234 48 42.0908 48 41.3414C48 40.3364 47.6014 39.3726 46.892 38.662C46.1826 37.9514 45.2204 37.5522 44.2171 37.5522ZM44.2171 43.6309C43.7654 43.6289 43.3245 43.493 42.9499 43.2402C42.5754 42.9874 42.284 42.6292 42.1125 42.2106C41.941 41.7921 41.8972 41.3321 41.9865 40.8886C42.0758 40.4452 42.2943 40.0381 42.6143 39.7189C42.9344 39.3998 43.3417 39.1827 43.7848 39.0951C44.2279 39.0076 44.687 39.0535 45.1041 39.2271C45.5211 39.4007 45.8775 39.6941 46.1282 40.0704C46.379 40.4467 46.5128 40.889 46.5128 41.3414C46.5141 41.6433 46.4556 41.9424 46.3405 42.2214C46.2255 42.5005 46.0563 42.7538 45.8427 42.9668C45.6292 43.1798 45.3755 43.3482 45.0964 43.4622C44.8174 43.5762 44.5185 43.6336 44.2171 43.6309Z"/>
<path d="M39.4585 20.8821L38.3327 21.5677L39.1105 22.8492L40.2363 22.1635L39.4585 20.8821Z"/>
<path d="M37.2086 22.2551L36.0828 22.9407L36.8606 24.2221L37.9864 23.5365L37.2086 22.2551Z"/>
<path d="M34.9439 23.6371L33.8178 24.3221L34.5949 25.604L35.7211 24.9189L34.9439 23.6371Z"/>
<path d="M36.8491 36.4267L36.072 37.7086L37.1981 38.3936L37.9752 37.1118L36.8491 36.4267Z"/>
<path d="M34.5993 35.0576L33.8221 36.3394L34.9482 37.0244L35.7254 35.7426L34.5993 35.0576Z"/>
<path d="M39.1075 37.8111L38.3304 39.0929L39.4565 39.7779L40.2336 38.4961L39.1075 37.8111Z"/>
<path d="M44.9657 29.3239H43.4685V30.6536H44.9657V29.3239Z"/>
<path d="M44.9657 31.9833H43.4685V33.3131H44.9657V31.9833Z"/>
<path d="M44.9657 23.995H43.4685V25.3247H44.9657V23.995Z"/>
<path d="M44.9657 26.6544H43.4685V27.9842H44.9657V26.6544Z"/>
<path d="M44.9657 34.6528H43.4685V35.9825H44.9657V34.6528Z"/>
<path d="M8.36722 13.9137L7.28259 14.6804L8.14583 15.9057L9.23046 15.139L8.36722 13.9137Z"/>
<path d="M10.5521 12.377L9.46749 13.1437L10.3307 14.369L11.4154 13.6023L10.5521 12.377Z"/>
<path d="M12.7213 10.8421L11.6366 11.6088L12.4999 12.8341L13.5845 12.0674L12.7213 10.8421Z"/>
<path d="M19.2364 6.23149L18.1517 6.99817L19.015 8.22348L20.0996 7.4568L19.2364 6.23149Z"/>
<path d="M17.0672 7.77635L15.9826 8.54303L16.8458 9.76835L17.9304 9.00166L17.0672 7.77635Z"/>
<path d="M14.8823 9.30304L13.7977 10.0697L14.6609 11.295L15.7455 10.5284L14.8823 9.30304Z"/>
<path d="M37.8021 12.3801L36.939 13.6055L38.0238 14.372L38.8868 13.1466L37.8021 12.3801Z"/>
<path d="M39.973 13.9161L39.11 15.1416L40.1948 15.908L41.0578 14.6826L39.973 13.9161Z"/>
<path d="M35.6269 10.8359L34.7639 12.0614L35.8486 12.8279L36.7117 11.6024L35.6269 10.8359Z"/>
<path d="M31.2832 7.76964L30.4201 8.99511L31.5049 9.7616L32.3679 8.53614L31.2832 7.76964Z"/>
<path d="M33.604 9.24186L32.7356 10.4716L33.8242 11.2428L34.6925 10.0131L33.604 9.24186Z"/>
<path d="M29.108 6.22546L28.2449 7.45093L29.3297 8.21742L30.1927 6.99196L29.108 6.22546Z"/>
</mask>
<path d="M39.7754 45.0006C39.7698 44.2392 39.5342 43.4973 39.0994 42.8727C38.6647 42.2481 38.0513 41.77 37.34 41.5014L27.8079 37.6022V42.2312L24.1148 40.3316L20.3319 42.2412V37.5222L10.8397 41.5213C10.1352 41.7919 9.52828 42.2683 9.09755 42.8888C8.66682 43.5092 8.43222 44.245 8.4242 45.0006V48H39.7754V45.0006ZM9.92139 45.0006C9.92414 44.544 10.0662 44.0992 10.3284 43.7257C10.5906 43.3523 10.9606 43.068 11.3886 42.9111L18.8347 39.7917V44.6907L21.4797 43.361L21.849 44.9306L21.2901 46.5603H9.92139V45.0006ZM22.8971 46.5603L23.4061 45.0006L22.8571 42.6511L24.1148 42.0012L25.4123 42.6711L24.8234 45.0506L25.2826 46.5303L22.8971 46.5603ZM38.2982 46.5603H26.8496L26.3805 45.0006L26.7798 43.361L29.305 44.6707V39.8317L36.791 42.9111C37.2212 43.0672 37.5939 43.3506 37.8595 43.7238C38.1251 44.097 38.2712 44.5423 38.2782 45.0006L38.2982 46.5603Z" fill="url(#paint0_linear_1676_37801)"/>
<path d="M15.5808 28.594L16.2395 31.0035L17.6968 31.8434L18.9644 34.4128C19.4298 35.2456 20.0868 35.9551 20.8808 36.4824C21.0405 36.6124 21.2002 36.7423 21.33 36.8623C21.8621 37.3087 22.5324 37.5561 23.2264 37.5622H24.7436C25.4386 37.564 26.1126 37.3237 26.65 36.8823L26.9295 36.6524C27.7423 36.0766 28.423 35.3335 28.9258 34.4728L30.1934 31.8834L31.8802 31.0035L32.3493 28.714V28.604C32.3558 28.4059 32.3229 28.2084 32.2527 28.0231C32.1824 27.8378 32.0762 27.6682 31.9401 27.5243C31.7869 27.3687 31.6034 27.2462 31.4011 27.1643C31.4588 26.7268 31.4888 26.286 31.4909 25.8446V25.5847C31.3235 23.7117 30.4624 21.9693 29.077 20.7003C27.6917 19.4313 25.8823 18.7276 24.005 18.7276C22.1277 18.7276 20.3183 19.4313 18.9329 20.7003C17.5475 21.9693 16.6864 23.7117 16.519 25.5847V25.8446C16.5228 26.2889 16.5495 26.7328 16.5989 27.1743C16.3077 27.2805 16.0559 27.4735 15.8774 27.7273C15.699 27.9811 15.6024 28.2836 15.6007 28.594H15.5808ZM18.136 27.7042C18.0353 27.0892 17.9786 26.4677 17.9663 25.8446V25.5847C17.9663 23.9871 18.5999 22.4549 19.7277 21.3252C20.8555 20.1956 22.3851 19.5609 23.98 19.5609C25.575 19.5609 27.1046 20.1956 28.2324 21.3252C29.3602 22.4549 29.9938 23.9871 29.9938 25.5847V25.8446C29.9858 26.4618 29.9257 27.0772 29.8141 27.6842L29.6544 28.564H30.8521L30.5627 30.0037L29.0455 30.7636L27.5284 33.8729C27.097 34.4975 26.5639 35.045 25.9513 35.4926L25.6619 35.7426C25.3803 35.9695 25.0246 36.0835 24.6637 36.0625H23.1865C22.8467 36.0627 22.5178 35.9422 22.2583 35.7226L21.7692 35.3126C21.1896 34.9078 20.6861 34.4035 20.282 33.823L18.8546 30.8236L17.5172 30.0037L17.0979 28.554H18.2458L18.136 27.7042Z" fill="url(#paint1_linear_1676_37801)"/>
<path d="M23.9551 7.59841C24.7057 7.60039 25.44 7.37925 26.065 6.96299C26.6901 6.54673 27.1778 5.95407 27.4664 5.26003C27.755 4.566 27.8315 3.80179 27.6863 3.06416C27.5411 2.32652 27.1806 1.64864 26.6506 1.11631C26.1205 0.583977 25.4447 0.221143 24.7087 0.0737373C23.9727 -0.0736682 23.2095 0.000982736 22.5159 0.28824C21.8223 0.575497 21.2293 1.06244 20.8121 1.68743C20.3949 2.31243 20.1722 3.04736 20.1722 3.7992C20.1748 4.80427 20.5739 5.76758 21.2825 6.47922C21.991 7.19085 22.9517 7.59313 23.9551 7.59841ZM23.9551 1.50967C24.41 1.5077 24.8552 1.64113 25.2342 1.89305C25.6133 2.14496 25.9091 2.50399 26.0841 2.92458C26.2591 3.34517 26.3054 3.80835 26.2171 4.25534C26.1288 4.70234 25.91 5.11299 25.5883 5.43518C25.2667 5.75738 24.8567 5.97659 24.4105 6.065C23.9642 6.1534 23.5018 6.10702 23.0819 5.93174C22.662 5.75646 22.3036 5.46017 22.0521 5.08049C21.8006 4.70081 21.6674 4.25485 21.6694 3.7992C21.672 3.19279 21.9137 2.61197 22.3417 2.18317C22.7698 1.75437 23.3497 1.51231 23.9551 1.50967Z" fill="url(#paint2_linear_1676_37801)"/>
<path d="M23.2041 14.9958L23.201 16.6155L24.6982 16.6184L24.7013 14.9987L23.2041 14.9958Z" fill="url(#paint3_linear_1676_37801)"/>
<path d="M23.2141 8.52475L23.211 10.1444L24.7082 10.1473L24.7113 8.52763L23.2141 8.52475Z" fill="url(#paint4_linear_1676_37801)"/>
<path d="M23.2041 11.7703L23.201 13.3899L24.6982 13.3928L24.7013 11.7732L23.2041 11.7703Z" fill="url(#paint5_linear_1676_37801)"/>
<path d="M3.78291 22.6653C4.53349 22.6673 5.26779 22.4461 5.89283 22.0299C6.51788 21.6136 7.00558 21.0209 7.29419 20.3269C7.58279 19.6329 7.65933 18.8687 7.51411 18.131C7.36889 17.3934 7.00844 16.7155 6.4784 16.1832C5.94835 15.6508 5.27254 15.288 4.53652 15.1406C3.8005 14.9932 3.03737 15.0678 2.34373 15.3551C1.65009 15.6424 1.05713 16.1293 0.639917 16.7543C0.222706 17.3793 2.59899e-06 18.1142 0 18.8661C0.00261981 19.8711 0.4017 20.8344 1.11028 21.5461C1.81886 22.2577 2.77951 22.66 3.78291 22.6653ZM3.78291 16.5765C4.2378 16.5746 4.68302 16.708 5.06207 16.9599C5.44112 17.2118 5.73691 17.5709 5.9119 17.9914C6.08689 18.412 6.1332 18.8752 6.04493 19.3222C5.95667 19.7692 5.73783 20.1799 5.41617 20.502C5.09451 20.8242 4.68454 21.0435 4.23829 21.1319C3.79204 21.2203 3.32963 21.1739 2.90974 20.9986C2.48985 20.8233 2.13142 20.527 1.87993 20.1474C1.62843 19.7677 1.49522 19.3217 1.49719 18.8661C1.49982 18.2597 1.74148 17.6788 2.16956 17.25C2.59765 16.8212 3.17751 16.5792 3.78291 16.5765Z" fill="url(#paint6_linear_1676_37801)"/>
<path d="M3.78291 45.1306C4.53109 45.1306 5.26248 44.9084 5.88458 44.492C6.50667 44.0756 6.99154 43.4838 7.27786 42.7915C7.56418 42.0991 7.63909 41.3372 7.49313 40.6021C7.34716 39.8671 6.98687 39.1919 6.45782 38.662C5.92878 38.1321 5.25473 37.7712 4.52091 37.625C3.7871 37.4788 3.02649 37.5538 2.33525 37.8406C1.64402 38.1274 1.05321 38.6131 0.637535 39.2362C0.221864 39.8593 0 40.592 0 41.3414C0.00263465 42.3455 0.402036 43.3078 1.1109 44.0178C1.81976 44.7279 2.78043 45.128 3.78291 45.1306ZM3.78291 39.0519C4.23498 39.0519 4.6769 39.1861 5.05278 39.4377C5.42866 39.6893 5.72163 40.0469 5.89463 40.4652C6.06763 40.8836 6.1129 41.3439 6.0247 41.7881C5.93651 42.2322 5.71881 42.6401 5.39915 42.9603C5.07949 43.2805 4.67221 43.4986 4.22883 43.5869C3.78544 43.6753 3.32586 43.6299 2.9082 43.4566C2.49054 43.2833 2.13356 42.9899 1.8824 42.6134C1.63125 42.2369 1.49719 41.7942 1.49719 41.3414C1.49982 40.735 1.74148 40.1542 2.16956 39.7254C2.59765 39.2966 3.17751 39.0545 3.78291 39.0519Z" fill="url(#paint7_linear_1676_37801)"/>
<path d="M8.54355 20.8792L7.76573 22.1606L8.8915 22.8462L9.66932 21.5648L8.54355 20.8792Z" fill="url(#paint8_linear_1676_37801)"/>
<path d="M10.794 22.2596L10.0162 23.541L11.142 24.2266L11.9198 22.9452L10.794 22.2596Z" fill="url(#paint9_linear_1676_37801)"/>
<path d="M13.0583 23.6266L12.2804 24.908L13.4062 25.5936L14.184 24.3122L13.0583 23.6266Z" fill="url(#paint10_linear_1676_37801)"/>
<path d="M13.4022 35.0659L12.2761 35.7509L13.0532 37.0327L14.1794 36.3477L13.4022 35.0659Z" fill="url(#paint11_linear_1676_37801)"/>
<path d="M11.1443 36.443L10.0185 37.1286L10.7964 38.4101L11.9221 37.7244L11.1443 36.443Z" fill="url(#paint12_linear_1676_37801)"/>
<path d="M8.88475 37.812L7.75861 38.497L8.53576 39.7789L9.6619 39.0938L8.88475 37.812Z" fill="url(#paint13_linear_1676_37801)"/>
<path d="M4.5315 23.995H3.03431V25.3247H4.5315V23.995Z" fill="url(#paint14_linear_1676_37801)"/>
<path d="M4.5315 26.6544H3.03431V27.9842H4.5315V26.6544Z" fill="url(#paint15_linear_1676_37801)"/>
<path d="M4.5315 34.6528H3.03431V35.9825H4.5315V34.6528Z" fill="url(#paint16_linear_1676_37801)"/>
<path d="M4.5315 31.9833H3.03431V33.3131H4.5315V31.9833Z" fill="url(#paint17_linear_1676_37801)"/>
<path d="M4.5315 29.3239H3.03431V30.6536H4.5315V29.3239Z" fill="url(#paint18_linear_1676_37801)"/>
<path d="M44.2171 15.0769C43.4661 15.0749 42.7314 15.2963 42.1061 15.713C41.4809 16.1297 40.9932 16.7229 40.7049 17.4175C40.4165 18.1122 40.3406 18.8769 40.4866 19.6148C40.6327 20.3527 40.9941 21.0306 41.5251 21.5625C42.0562 22.0944 42.7329 22.4565 43.4696 22.6027C44.2063 22.749 44.9697 22.6729 45.6632 22.3841C46.3567 22.0954 46.9489 21.6069 47.3649 20.9805C47.7809 20.3542 48.002 19.6183 48 18.8661C48 17.8611 47.6014 16.8973 46.892 16.1867C46.1826 15.4761 45.2204 15.0769 44.2171 15.0769ZM44.2171 21.1656C43.763 21.1656 43.3192 21.0307 42.9417 20.778C42.5641 20.5254 42.2699 20.1662 42.0961 19.7461C41.9224 19.3259 41.8769 18.8635 41.9655 18.4174C42.0541 17.9714 42.2727 17.5616 42.5938 17.2401C42.9148 16.9185 43.3239 16.6995 43.7692 16.6107C44.2145 16.522 44.6761 16.5675 45.0956 16.7416C45.5151 16.9156 45.8736 17.2104 46.1259 17.5885C46.3781 17.9667 46.5128 18.4113 46.5128 18.8661C46.5141 19.1684 46.4556 19.468 46.3407 19.7476C46.2258 20.0272 46.0568 20.2812 45.8433 20.495C45.6299 20.7088 45.3763 20.8781 45.0972 20.9932C44.818 21.1083 44.5189 21.1669 44.2171 21.1656Z" fill="url(#paint19_linear_1676_37801)"/>
<path d="M44.2171 37.5522C43.4689 37.5522 42.7375 37.7744 42.1154 38.1908C41.4933 38.6071 41.0085 39.1989 40.7221 39.8913C40.4358 40.5837 40.3609 41.3456 40.5069 42.0806C40.6528 42.8157 41.0131 43.4908 41.5422 44.0208C42.0712 44.5507 42.7453 44.9116 43.4791 45.0578C44.2129 45.204 44.9735 45.129 45.6647 44.8422C46.356 44.5554 46.9468 44.0697 47.3625 43.4466C47.7781 42.8234 48 42.0908 48 41.3414C48 40.3364 47.6014 39.3726 46.892 38.662C46.1826 37.9514 45.2204 37.5522 44.2171 37.5522ZM44.2171 43.6309C43.7654 43.6289 43.3245 43.493 42.9499 43.2402C42.5754 42.9874 42.284 42.6292 42.1125 42.2106C41.941 41.7921 41.8972 41.3321 41.9865 40.8886C42.0758 40.4452 42.2943 40.0381 42.6143 39.7189C42.9344 39.3998 43.3417 39.1827 43.7848 39.0951C44.2279 39.0076 44.687 39.0535 45.1041 39.2271C45.5211 39.4007 45.8775 39.6941 46.1282 40.0704C46.379 40.4467 46.5128 40.889 46.5128 41.3414C46.5141 41.6433 46.4556 41.9424 46.3405 42.2214C46.2255 42.5005 46.0563 42.7538 45.8427 42.9668C45.6292 43.1798 45.3755 43.3482 45.0964 43.4622C44.8174 43.5762 44.5185 43.6336 44.2171 43.6309Z" fill="url(#paint20_linear_1676_37801)"/>
<path d="M39.4585 20.8821L38.3327 21.5677L39.1105 22.8492L40.2363 22.1635L39.4585 20.8821Z" fill="url(#paint21_linear_1676_37801)"/>
<path d="M37.2086 22.2551L36.0828 22.9407L36.8606 24.2221L37.9864 23.5365L37.2086 22.2551Z" fill="url(#paint22_linear_1676_37801)"/>
<path d="M34.9439 23.6371L33.8178 24.3221L34.5949 25.604L35.7211 24.9189L34.9439 23.6371Z" fill="url(#paint23_linear_1676_37801)"/>
<path d="M36.8491 36.4267L36.072 37.7086L37.1981 38.3936L37.9752 37.1118L36.8491 36.4267Z" fill="url(#paint24_linear_1676_37801)"/>
<path d="M34.5993 35.0576L33.8221 36.3394L34.9482 37.0244L35.7254 35.7426L34.5993 35.0576Z" fill="url(#paint25_linear_1676_37801)"/>
<path d="M39.1075 37.8111L38.3304 39.0929L39.4565 39.7779L40.2336 38.4961L39.1075 37.8111Z" fill="url(#paint26_linear_1676_37801)"/>
<path d="M44.9657 29.3239H43.4685V30.6536H44.9657V29.3239Z" fill="url(#paint27_linear_1676_37801)"/>
<path d="M44.9657 31.9833H43.4685V33.3131H44.9657V31.9833Z" fill="url(#paint28_linear_1676_37801)"/>
<path d="M44.9657 23.995H43.4685V25.3247H44.9657V23.995Z" fill="url(#paint29_linear_1676_37801)"/>
<path d="M44.9657 26.6544H43.4685V27.9842H44.9657V26.6544Z" fill="url(#paint30_linear_1676_37801)"/>
<path d="M44.9657 34.6528H43.4685V35.9825H44.9657V34.6528Z" fill="url(#paint31_linear_1676_37801)"/>
<path d="M8.36722 13.9137L7.28259 14.6804L8.14583 15.9057L9.23046 15.139L8.36722 13.9137Z" fill="url(#paint32_linear_1676_37801)"/>
<path d="M10.5521 12.377L9.46749 13.1437L10.3307 14.369L11.4154 13.6023L10.5521 12.377Z" fill="url(#paint33_linear_1676_37801)"/>
<path d="M12.7213 10.8421L11.6366 11.6088L12.4999 12.8341L13.5845 12.0674L12.7213 10.8421Z" fill="url(#paint34_linear_1676_37801)"/>
<path d="M19.2364 6.23149L18.1517 6.99817L19.015 8.22348L20.0996 7.4568L19.2364 6.23149Z" fill="url(#paint35_linear_1676_37801)"/>
<path d="M17.0672 7.77635L15.9826 8.54303L16.8458 9.76835L17.9304 9.00166L17.0672 7.77635Z" fill="url(#paint36_linear_1676_37801)"/>
<path d="M14.8823 9.30304L13.7977 10.0697L14.6609 11.295L15.7455 10.5284L14.8823 9.30304Z" fill="url(#paint37_linear_1676_37801)"/>
<path d="M37.8021 12.3801L36.939 13.6055L38.0238 14.372L38.8868 13.1466L37.8021 12.3801Z" fill="url(#paint38_linear_1676_37801)"/>
<path d="M39.973 13.9161L39.11 15.1416L40.1948 15.908L41.0578 14.6826L39.973 13.9161Z" fill="url(#paint39_linear_1676_37801)"/>
<path d="M35.6269 10.8359L34.7639 12.0614L35.8486 12.8279L36.7117 11.6024L35.6269 10.8359Z" fill="url(#paint40_linear_1676_37801)"/>
<path d="M31.2832 7.76964L30.4201 8.99511L31.5049 9.7616L32.3679 8.53614L31.2832 7.76964Z" fill="url(#paint41_linear_1676_37801)"/>
<path d="M33.604 9.24186L32.7356 10.4716L33.8242 11.2428L34.6925 10.0131L33.604 9.24186Z" fill="url(#paint42_linear_1676_37801)"/>
<path d="M29.108 6.22546L28.2449 7.45093L29.3297 8.21742L30.1927 6.99196L29.108 6.22546Z" fill="url(#paint43_linear_1676_37801)"/>
<path d="M39.7754 45.0006C39.7698 44.2392 39.5342 43.4973 39.0994 42.8727C38.6647 42.2481 38.0513 41.77 37.34 41.5014L27.8079 37.6022V42.2312L24.1148 40.3316L20.3319 42.2412V37.5222L10.8397 41.5213C10.1352 41.7919 9.52828 42.2683 9.09755 42.8888C8.66682 43.5092 8.43222 44.245 8.4242 45.0006V48H39.7754V45.0006ZM9.92139 45.0006C9.92414 44.544 10.0662 44.0992 10.3284 43.7257C10.5906 43.3523 10.9606 43.068 11.3886 42.9111L18.8347 39.7917V44.6907L21.4797 43.361L21.849 44.9306L21.2901 46.5603H9.92139V45.0006ZM22.8971 46.5603L23.4061 45.0006L22.8571 42.6511L24.1148 42.0012L25.4123 42.6711L24.8234 45.0506L25.2826 46.5303L22.8971 46.5603ZM38.2982 46.5603H26.8496L26.3805 45.0006L26.7798 43.361L29.305 44.6707V39.8317L36.791 42.9111C37.2212 43.0672 37.5939 43.3506 37.8595 43.7238C38.1251 44.097 38.2712 44.5423 38.2782 45.0006L38.2982 46.5603Z" stroke="url(#paint44_linear_1676_37801)" stroke-width="2" mask="url(#path-1-inside-1_1676_37801)"/>
<path d="M15.5808 28.594L16.2395 31.0035L17.6968 31.8434L18.9644 34.4128C19.4298 35.2456 20.0868 35.9551 20.8808 36.4824C21.0405 36.6124 21.2002 36.7423 21.33 36.8623C21.8621 37.3087 22.5324 37.5561 23.2264 37.5622H24.7436C25.4386 37.564 26.1126 37.3237 26.65 36.8823L26.9295 36.6524C27.7423 36.0766 28.423 35.3335 28.9258 34.4728L30.1934 31.8834L31.8802 31.0035L32.3493 28.714V28.604C32.3558 28.4059 32.3229 28.2084 32.2527 28.0231C32.1824 27.8378 32.0762 27.6682 31.9401 27.5243C31.7869 27.3687 31.6034 27.2462 31.4011 27.1643C31.4588 26.7268 31.4888 26.286 31.4909 25.8446V25.5847C31.3235 23.7117 30.4624 21.9693 29.077 20.7003C27.6917 19.4313 25.8823 18.7276 24.005 18.7276C22.1277 18.7276 20.3183 19.4313 18.9329 20.7003C17.5475 21.9693 16.6864 23.7117 16.519 25.5847V25.8446C16.5228 26.2889 16.5495 26.7328 16.5989 27.1743C16.3077 27.2805 16.0559 27.4735 15.8774 27.7273C15.699 27.9811 15.6024 28.2836 15.6007 28.594H15.5808ZM18.136 27.7042C18.0353 27.0892 17.9786 26.4677 17.9663 25.8446V25.5847C17.9663 23.9871 18.5999 22.4549 19.7277 21.3252C20.8555 20.1956 22.3851 19.5609 23.98 19.5609C25.575 19.5609 27.1046 20.1956 28.2324 21.3252C29.3602 22.4549 29.9938 23.9871 29.9938 25.5847V25.8446C29.9858 26.4618 29.9257 27.0772 29.8141 27.6842L29.6544 28.564H30.8521L30.5627 30.0037L29.0455 30.7636L27.5284 33.8729C27.097 34.4975 26.5639 35.045 25.9513 35.4926L25.6619 35.7426C25.3803 35.9695 25.0246 36.0835 24.6637 36.0625H23.1865C22.8467 36.0627 22.5178 35.9422 22.2583 35.7226L21.7692 35.3126C21.1896 34.9078 20.6861 34.4035 20.282 33.823L18.8546 30.8236L17.5172 30.0037L17.0979 28.554H18.2458L18.136 27.7042Z" stroke="url(#paint45_linear_1676_37801)" stroke-width="2" mask="url(#path-1-inside-1_1676_37801)"/>
<path d="M23.9551 7.59841C24.7057 7.60039 25.44 7.37925 26.065 6.96299C26.6901 6.54673 27.1778 5.95407 27.4664 5.26003C27.755 4.566 27.8315 3.80179 27.6863 3.06416C27.5411 2.32652 27.1806 1.64864 26.6506 1.11631C26.1205 0.583977 25.4447 0.221143 24.7087 0.0737373C23.9727 -0.0736682 23.2095 0.000982736 22.5159 0.28824C21.8223 0.575497 21.2293 1.06244 20.8121 1.68743C20.3949 2.31243 20.1722 3.04736 20.1722 3.7992C20.1748 4.80427 20.5739 5.76758 21.2825 6.47922C21.991 7.19085 22.9517 7.59313 23.9551 7.59841ZM23.9551 1.50967C24.41 1.5077 24.8552 1.64113 25.2342 1.89305C25.6133 2.14496 25.9091 2.50399 26.0841 2.92458C26.2591 3.34517 26.3054 3.80835 26.2171 4.25534C26.1288 4.70234 25.91 5.11299 25.5883 5.43518C25.2667 5.75738 24.8567 5.97659 24.4105 6.065C23.9642 6.1534 23.5018 6.10702 23.0819 5.93174C22.662 5.75646 22.3036 5.46017 22.0521 5.08049C21.8006 4.70081 21.6674 4.25485 21.6694 3.7992C21.672 3.19279 21.9137 2.61197 22.3417 2.18317C22.7698 1.75437 23.3497 1.51231 23.9551 1.50967Z" stroke="url(#paint46_linear_1676_37801)" stroke-width="2" mask="url(#path-1-inside-1_1676_37801)"/>
<path d="M23.2041 14.9958L23.201 16.6155L24.6982 16.6184L24.7013 14.9987L23.2041 14.9958Z" stroke="url(#paint47_linear_1676_37801)" stroke-width="2" mask="url(#path-1-inside-1_1676_37801)"/>
<path d="M23.2141 8.52475L23.211 10.1444L24.7082 10.1473L24.7113 8.52763L23.2141 8.52475Z" stroke="url(#paint48_linear_1676_37801)" stroke-width="2" mask="url(#path-1-inside-1_1676_37801)"/>
<path d="M23.2041 11.7703L23.201 13.3899L24.6982 13.3928L24.7013 11.7732L23.2041 11.7703Z" stroke="url(#paint49_linear_1676_37801)" stroke-width="2" mask="url(#path-1-inside-1_1676_37801)"/>
<path d="M3.78291 22.6653C4.53349 22.6673 5.26779 22.4461 5.89283 22.0299C6.51788 21.6136 7.00558 21.0209 7.29419 20.3269C7.58279 19.6329 7.65933 18.8687 7.51411 18.131C7.36889 17.3934 7.00844 16.7155 6.4784 16.1832C5.94835 15.6508 5.27254 15.288 4.53652 15.1406C3.8005 14.9932 3.03737 15.0678 2.34373 15.3551C1.65009 15.6424 1.05713 16.1293 0.639917 16.7543C0.222706 17.3793 2.59899e-06 18.1142 0 18.8661C0.00261981 19.8711 0.4017 20.8344 1.11028 21.5461C1.81886 22.2577 2.77951 22.66 3.78291 22.6653ZM3.78291 16.5765C4.2378 16.5746 4.68302 16.708 5.06207 16.9599C5.44112 17.2118 5.73691 17.5709 5.9119 17.9914C6.08689 18.412 6.1332 18.8752 6.04493 19.3222C5.95667 19.7692 5.73783 20.1799 5.41617 20.502C5.09451 20.8242 4.68454 21.0435 4.23829 21.1319C3.79204 21.2203 3.32963 21.1739 2.90974 20.9986C2.48985 20.8233 2.13142 20.527 1.87993 20.1474C1.62843 19.7677 1.49522 19.3217 1.49719 18.8661C1.49982 18.2597 1.74148 17.6788 2.16956 17.25C2.59765 16.8212 3.17751 16.5792 3.78291 16.5765Z" stroke="url(#paint50_linear_1676_37801)" stroke-width="2" mask="url(#path-1-inside-1_1676_37801)"/>
<path d="M3.78291 45.1306C4.53109 45.1306 5.26248 44.9084 5.88458 44.492C6.50667 44.0756 6.99154 43.4838 7.27786 42.7915C7.56418 42.0991 7.63909 41.3372 7.49313 40.6021C7.34716 39.8671 6.98687 39.1919 6.45782 38.662C5.92878 38.1321 5.25473 37.7712 4.52091 37.625C3.7871 37.4788 3.02649 37.5538 2.33525 37.8406C1.64402 38.1274 1.05321 38.6131 0.637535 39.2362C0.221864 39.8593 0 40.592 0 41.3414C0.00263465 42.3455 0.402036 43.3078 1.1109 44.0178C1.81976 44.7279 2.78043 45.128 3.78291 45.1306ZM3.78291 39.0519C4.23498 39.0519 4.6769 39.1861 5.05278 39.4377C5.42866 39.6893 5.72163 40.0469 5.89463 40.4652C6.06763 40.8836 6.1129 41.3439 6.0247 41.7881C5.93651 42.2322 5.71881 42.6401 5.39915 42.9603C5.07949 43.2805 4.67221 43.4986 4.22883 43.5869C3.78544 43.6753 3.32586 43.6299 2.9082 43.4566C2.49054 43.2833 2.13356 42.9899 1.8824 42.6134C1.63125 42.2369 1.49719 41.7942 1.49719 41.3414C1.49982 40.735 1.74148 40.1542 2.16956 39.7254C2.59765 39.2966 3.17751 39.0545 3.78291 39.0519Z" stroke="url(#paint51_linear_1676_37801)" stroke-width="2" mask="url(#path-1-inside-1_1676_37801)"/>
<path d="M8.54355 20.8792L7.76573 22.1606L8.8915 22.8462L9.66932 21.5648L8.54355 20.8792Z" stroke="url(#paint52_linear_1676_37801)" stroke-width="2" mask="url(#path-1-inside-1_1676_37801)"/>
<path d="M10.794 22.2596L10.0162 23.541L11.142 24.2266L11.9198 22.9452L10.794 22.2596Z" stroke="url(#paint53_linear_1676_37801)" stroke-width="2" mask="url(#path-1-inside-1_1676_37801)"/>
<path d="M13.0583 23.6266L12.2804 24.908L13.4062 25.5936L14.184 24.3122L13.0583 23.6266Z" stroke="url(#paint54_linear_1676_37801)" stroke-width="2" mask="url(#path-1-inside-1_1676_37801)"/>
<path d="M13.4022 35.0659L12.2761 35.7509L13.0532 37.0327L14.1794 36.3477L13.4022 35.0659Z" stroke="url(#paint55_linear_1676_37801)" stroke-width="2" mask="url(#path-1-inside-1_1676_37801)"/>
<path d="M11.1443 36.443L10.0185 37.1286L10.7964 38.4101L11.9221 37.7244L11.1443 36.443Z" stroke="url(#paint56_linear_1676_37801)" stroke-width="2" mask="url(#path-1-inside-1_1676_37801)"/>
<path d="M8.88475 37.812L7.75861 38.497L8.53576 39.7789L9.6619 39.0938L8.88475 37.812Z" stroke="url(#paint57_linear_1676_37801)" stroke-width="2" mask="url(#path-1-inside-1_1676_37801)"/>
<path d="M4.5315 23.995H3.03431V25.3247H4.5315V23.995Z" stroke="url(#paint58_linear_1676_37801)" stroke-width="2" mask="url(#path-1-inside-1_1676_37801)"/>
<path d="M4.5315 26.6544H3.03431V27.9842H4.5315V26.6544Z" stroke="url(#paint59_linear_1676_37801)" stroke-width="2" mask="url(#path-1-inside-1_1676_37801)"/>
<path d="M4.5315 34.6528H3.03431V35.9825H4.5315V34.6528Z" stroke="url(#paint60_linear_1676_37801)" stroke-width="2" mask="url(#path-1-inside-1_1676_37801)"/>
<path d="M4.5315 31.9833H3.03431V33.3131H4.5315V31.9833Z" stroke="url(#paint61_linear_1676_37801)" stroke-width="2" mask="url(#path-1-inside-1_1676_37801)"/>
<path d="M4.5315 29.3239H3.03431V30.6536H4.5315V29.3239Z" stroke="url(#paint62_linear_1676_37801)" stroke-width="2" mask="url(#path-1-inside-1_1676_37801)"/>
<path d="M44.2171 15.0769C43.4661 15.0749 42.7314 15.2963 42.1061 15.713C41.4809 16.1297 40.9932 16.7229 40.7049 17.4175C40.4165 18.1122 40.3406 18.8769 40.4866 19.6148C40.6327 20.3527 40.9941 21.0306 41.5251 21.5625C42.0562 22.0944 42.7329 22.4565 43.4696 22.6027C44.2063 22.749 44.9697 22.6729 45.6632 22.3841C46.3567 22.0954 46.9489 21.6069 47.3649 20.9805C47.7809 20.3542 48.002 19.6183 48 18.8661C48 17.8611 47.6014 16.8973 46.892 16.1867C46.1826 15.4761 45.2204 15.0769 44.2171 15.0769ZM44.2171 21.1656C43.763 21.1656 43.3192 21.0307 42.9417 20.778C42.5641 20.5254 42.2699 20.1662 42.0961 19.7461C41.9224 19.3259 41.8769 18.8635 41.9655 18.4174C42.0541 17.9714 42.2727 17.5616 42.5938 17.2401C42.9148 16.9185 43.3239 16.6995 43.7692 16.6107C44.2145 16.522 44.6761 16.5675 45.0956 16.7416C45.5151 16.9156 45.8736 17.2104 46.1259 17.5885C46.3781 17.9667 46.5128 18.4113 46.5128 18.8661C46.5141 19.1684 46.4556 19.468 46.3407 19.7476C46.2258 20.0272 46.0568 20.2812 45.8433 20.495C45.6299 20.7088 45.3763 20.8781 45.0972 20.9932C44.818 21.1083 44.5189 21.1669 44.2171 21.1656Z" stroke="url(#paint63_linear_1676_37801)" stroke-width="2" mask="url(#path-1-inside-1_1676_37801)"/>
<path d="M44.2171 37.5522C43.4689 37.5522 42.7375 37.7744 42.1154 38.1908C41.4933 38.6071 41.0085 39.1989 40.7221 39.8913C40.4358 40.5837 40.3609 41.3456 40.5069 42.0806C40.6528 42.8157 41.0131 43.4908 41.5422 44.0208C42.0712 44.5507 42.7453 44.9116 43.4791 45.0578C44.2129 45.204 44.9735 45.129 45.6647 44.8422C46.356 44.5554 46.9468 44.0697 47.3625 43.4466C47.7781 42.8234 48 42.0908 48 41.3414C48 40.3364 47.6014 39.3726 46.892 38.662C46.1826 37.9514 45.2204 37.5522 44.2171 37.5522ZM44.2171 43.6309C43.7654 43.6289 43.3245 43.493 42.9499 43.2402C42.5754 42.9874 42.284 42.6292 42.1125 42.2106C41.941 41.7921 41.8972 41.3321 41.9865 40.8886C42.0758 40.4452 42.2943 40.0381 42.6143 39.7189C42.9344 39.3998 43.3417 39.1827 43.7848 39.0951C44.2279 39.0076 44.687 39.0535 45.1041 39.2271C45.5211 39.4007 45.8775 39.6941 46.1282 40.0704C46.379 40.4467 46.5128 40.889 46.5128 41.3414C46.5141 41.6433 46.4556 41.9424 46.3405 42.2214C46.2255 42.5005 46.0563 42.7538 45.8427 42.9668C45.6292 43.1798 45.3755 43.3482 45.0964 43.4622C44.8174 43.5762 44.5185 43.6336 44.2171 43.6309Z" stroke="url(#paint64_linear_1676_37801)" stroke-width="2" mask="url(#path-1-inside-1_1676_37801)"/>
<path d="M39.4585 20.8821L38.3327 21.5677L39.1105 22.8492L40.2363 22.1635L39.4585 20.8821Z" stroke="url(#paint65_linear_1676_37801)" stroke-width="2" mask="url(#path-1-inside-1_1676_37801)"/>
<path d="M37.2086 22.2551L36.0828 22.9407L36.8606 24.2221L37.9864 23.5365L37.2086 22.2551Z" stroke="url(#paint66_linear_1676_37801)" stroke-width="2" mask="url(#path-1-inside-1_1676_37801)"/>
<path d="M34.9439 23.6371L33.8178 24.3221L34.5949 25.604L35.7211 24.9189L34.9439 23.6371Z" stroke="url(#paint67_linear_1676_37801)" stroke-width="2" mask="url(#path-1-inside-1_1676_37801)"/>
<path d="M36.8491 36.4267L36.072 37.7086L37.1981 38.3936L37.9752 37.1118L36.8491 36.4267Z" stroke="url(#paint68_linear_1676_37801)" stroke-width="2" mask="url(#path-1-inside-1_1676_37801)"/>
<path d="M34.5993 35.0576L33.8221 36.3394L34.9482 37.0244L35.7254 35.7426L34.5993 35.0576Z" stroke="url(#paint69_linear_1676_37801)" stroke-width="2" mask="url(#path-1-inside-1_1676_37801)"/>
<path d="M39.1075 37.8111L38.3304 39.0929L39.4565 39.7779L40.2336 38.4961L39.1075 37.8111Z" stroke="url(#paint70_linear_1676_37801)" stroke-width="2" mask="url(#path-1-inside-1_1676_37801)"/>
<path d="M44.9657 29.3239H43.4685V30.6536H44.9657V29.3239Z" stroke="url(#paint71_linear_1676_37801)" stroke-width="2" mask="url(#path-1-inside-1_1676_37801)"/>
<path d="M44.9657 31.9833H43.4685V33.3131H44.9657V31.9833Z" stroke="url(#paint72_linear_1676_37801)" stroke-width="2" mask="url(#path-1-inside-1_1676_37801)"/>
<path d="M44.9657 23.995H43.4685V25.3247H44.9657V23.995Z" stroke="url(#paint73_linear_1676_37801)" stroke-width="2" mask="url(#path-1-inside-1_1676_37801)"/>
<path d="M44.9657 26.6544H43.4685V27.9842H44.9657V26.6544Z" stroke="url(#paint74_linear_1676_37801)" stroke-width="2" mask="url(#path-1-inside-1_1676_37801)"/>
<path d="M44.9657 34.6528H43.4685V35.9825H44.9657V34.6528Z" stroke="url(#paint75_linear_1676_37801)" stroke-width="2" mask="url(#path-1-inside-1_1676_37801)"/>
<path d="M8.36722 13.9137L7.28259 14.6804L8.14583 15.9057L9.23046 15.139L8.36722 13.9137Z" stroke="url(#paint76_linear_1676_37801)" stroke-width="2" mask="url(#path-1-inside-1_1676_37801)"/>
<path d="M10.5521 12.377L9.46749 13.1437L10.3307 14.369L11.4154 13.6023L10.5521 12.377Z" stroke="url(#paint77_linear_1676_37801)" stroke-width="2" mask="url(#path-1-inside-1_1676_37801)"/>
<path d="M12.7213 10.8421L11.6366 11.6088L12.4999 12.8341L13.5845 12.0674L12.7213 10.8421Z" stroke="url(#paint78_linear_1676_37801)" stroke-width="2" mask="url(#path-1-inside-1_1676_37801)"/>
<path d="M19.2364 6.23149L18.1517 6.99817L19.015 8.22348L20.0996 7.4568L19.2364 6.23149Z" stroke="url(#paint79_linear_1676_37801)" stroke-width="2" mask="url(#path-1-inside-1_1676_37801)"/>
<path d="M17.0672 7.77635L15.9826 8.54303L16.8458 9.76835L17.9304 9.00166L17.0672 7.77635Z" stroke="url(#paint80_linear_1676_37801)" stroke-width="2" mask="url(#path-1-inside-1_1676_37801)"/>
<path d="M14.8823 9.30304L13.7977 10.0697L14.6609 11.295L15.7455 10.5284L14.8823 9.30304Z" stroke="url(#paint81_linear_1676_37801)" stroke-width="2" mask="url(#path-1-inside-1_1676_37801)"/>
<path d="M37.8021 12.3801L36.939 13.6055L38.0238 14.372L38.8868 13.1466L37.8021 12.3801Z" stroke="url(#paint82_linear_1676_37801)" stroke-width="2" mask="url(#path-1-inside-1_1676_37801)"/>
<path d="M39.973 13.9161L39.11 15.1416L40.1948 15.908L41.0578 14.6826L39.973 13.9161Z" stroke="url(#paint83_linear_1676_37801)" stroke-width="2" mask="url(#path-1-inside-1_1676_37801)"/>
<path d="M35.6269 10.8359L34.7639 12.0614L35.8486 12.8279L36.7117 11.6024L35.6269 10.8359Z" stroke="url(#paint84_linear_1676_37801)" stroke-width="2" mask="url(#path-1-inside-1_1676_37801)"/>
<path d="M31.2832 7.76964L30.4201 8.99511L31.5049 9.7616L32.3679 8.53614L31.2832 7.76964Z" stroke="url(#paint85_linear_1676_37801)" stroke-width="2" mask="url(#path-1-inside-1_1676_37801)"/>
<path d="M33.604 9.24186L32.7356 10.4716L33.8242 11.2428L34.6925 10.0131L33.604 9.24186Z" stroke="url(#paint86_linear_1676_37801)" stroke-width="2" mask="url(#path-1-inside-1_1676_37801)"/>
<path d="M29.108 6.22546L28.2449 7.45093L29.3297 8.21742L30.1927 6.99196L29.108 6.22546Z" stroke="url(#paint87_linear_1676_37801)" stroke-width="2" mask="url(#path-1-inside-1_1676_37801)"/>
<defs>
<linearGradient id="paint0_linear_1676_37801" x1="24" y1="0" x2="24" y2="48" gradientUnits="userSpaceOnUse">
<stop stop-color="#666DFF"/>
<stop offset="1" stop-color="#4C53E0"/>
</linearGradient>
<linearGradient id="paint1_linear_1676_37801" x1="24" y1="0" x2="24" y2="48" gradientUnits="userSpaceOnUse">
<stop stop-color="#666DFF"/>
<stop offset="1" stop-color="#4C53E0"/>
</linearGradient>
<linearGradient id="paint2_linear_1676_37801" x1="24" y1="0" x2="24" y2="48" gradientUnits="userSpaceOnUse">
<stop stop-color="#666DFF"/>
<stop offset="1" stop-color="#4C53E0"/>
</linearGradient>
<linearGradient id="paint3_linear_1676_37801" x1="24" y1="0" x2="24" y2="48" gradientUnits="userSpaceOnUse">
<stop stop-color="#666DFF"/>
<stop offset="1" stop-color="#4C53E0"/>
</linearGradient>
<linearGradient id="paint4_linear_1676_37801" x1="24" y1="0" x2="24" y2="48" gradientUnits="userSpaceOnUse">
<stop stop-color="#666DFF"/>
<stop offset="1" stop-color="#4C53E0"/>
</linearGradient>
<linearGradient id="paint5_linear_1676_37801" x1="24" y1="0" x2="24" y2="48" gradientUnits="userSpaceOnUse">
<stop stop-color="#666DFF"/>
<stop offset="1" stop-color="#4C53E0"/>
</linearGradient>
<linearGradient id="paint6_linear_1676_37801" x1="24" y1="0" x2="24" y2="48" gradientUnits="userSpaceOnUse">
<stop stop-color="#666DFF"/>
<stop offset="1" stop-color="#4C53E0"/>
</linearGradient>
<linearGradient id="paint7_linear_1676_37801" x1="24" y1="0" x2="24" y2="48" gradientUnits="userSpaceOnUse">
<stop stop-color="#666DFF"/>
<stop offset="1" stop-color="#4C53E0"/>
</linearGradient>
<linearGradient id="paint8_linear_1676_37801" x1="24" y1="0" x2="24" y2="48" gradientUnits="userSpaceOnUse">
<stop stop-color="#666DFF"/>
<stop offset="1" stop-color="#4C53E0"/>
</linearGradient>
<linearGradient id="paint9_linear_1676_37801" x1="24" y1="0" x2="24" y2="48" gradientUnits="userSpaceOnUse">
<stop stop-color="#666DFF"/>
<stop offset="1" stop-color="#4C53E0"/>
</linearGradient>
<linearGradient id="paint10_linear_1676_37801" x1="24" y1="0" x2="24" y2="48" gradientUnits="userSpaceOnUse">
<stop stop-color="#666DFF"/>
<stop offset="1" stop-color="#4C53E0"/>
</linearGradient>
<linearGradient id="paint11_linear_1676_37801" x1="24" y1="0" x2="24" y2="48" gradientUnits="userSpaceOnUse">
<stop stop-color="#666DFF"/>
<stop offset="1" stop-color="#4C53E0"/>
</linearGradient>
<linearGradient id="paint12_linear_1676_37801" x1="24" y1="0" x2="24" y2="48" gradientUnits="userSpaceOnUse">
<stop stop-color="#666DFF"/>
<stop offset="1" stop-color="#4C53E0"/>
</linearGradient>
<linearGradient id="paint13_linear_1676_37801" x1="24" y1="0" x2="24" y2="48" gradientUnits="userSpaceOnUse">
<stop stop-color="#666DFF"/>
<stop offset="1" stop-color="#4C53E0"/>
</linearGradient>
<linearGradient id="paint14_linear_1676_37801" x1="24" y1="0" x2="24" y2="48" gradientUnits="userSpaceOnUse">
<stop stop-color="#666DFF"/>
<stop offset="1" stop-color="#4C53E0"/>
</linearGradient>
<linearGradient id="paint15_linear_1676_37801" x1="24" y1="0" x2="24" y2="48" gradientUnits="userSpaceOnUse">
<stop stop-color="#666DFF"/>
<stop offset="1" stop-color="#4C53E0"/>
</linearGradient>
<linearGradient id="paint16_linear_1676_37801" x1="24" y1="0" x2="24" y2="48" gradientUnits="userSpaceOnUse">
<stop stop-color="#666DFF"/>
<stop offset="1" stop-color="#4C53E0"/>
</linearGradient>
<linearGradient id="paint17_linear_1676_37801" x1="24" y1="0" x2="24" y2="48" gradientUnits="userSpaceOnUse">
<stop stop-color="#666DFF"/>
<stop offset="1" stop-color="#4C53E0"/>
</linearGradient>
<linearGradient id="paint18_linear_1676_37801" x1="24" y1="0" x2="24" y2="48" gradientUnits="userSpaceOnUse">
<stop stop-color="#666DFF"/>
<stop offset="1" stop-color="#4C53E0"/>
</linearGradient>
<linearGradient id="paint19_linear_1676_37801" x1="24" y1="0" x2="24" y2="48" gradientUnits="userSpaceOnUse">
<stop stop-color="#666DFF"/>
<stop offset="1" stop-color="#4C53E0"/>
</linearGradient>
<linearGradient id="paint20_linear_1676_37801" x1="24" y1="0" x2="24" y2="48" gradientUnits="userSpaceOnUse">
<stop stop-color="#666DFF"/>
<stop offset="1" stop-color="#4C53E0"/>
</linearGradient>
<linearGradient id="paint21_linear_1676_37801" x1="24" y1="0" x2="24" y2="48" gradientUnits="userSpaceOnUse">
<stop stop-color="#666DFF"/>
<stop offset="1" stop-color="#4C53E0"/>
</linearGradient>
<linearGradient id="paint22_linear_1676_37801" x1="24" y1="0" x2="24" y2="48" gradientUnits="userSpaceOnUse">
<stop stop-color="#666DFF"/>
<stop offset="1" stop-color="#4C53E0"/>
</linearGradient>
<linearGradient id="paint23_linear_1676_37801" x1="24" y1="0" x2="24" y2="48" gradientUnits="userSpaceOnUse">
<stop stop-color="#666DFF"/>
<stop offset="1" stop-color="#4C53E0"/>
</linearGradient>
<linearGradient id="paint24_linear_1676_37801" x1="24" y1="0" x2="24" y2="48" gradientUnits="userSpaceOnUse">
<stop stop-color="#666DFF"/>
<stop offset="1" stop-color="#4C53E0"/>
</linearGradient>
<linearGradient id="paint25_linear_1676_37801" x1="24" y1="0" x2="24" y2="48" gradientUnits="userSpaceOnUse">
<stop stop-color="#666DFF"/>
<stop offset="1" stop-color="#4C53E0"/>
</linearGradient>
<linearGradient id="paint26_linear_1676_37801" x1="24" y1="0" x2="24" y2="48" gradientUnits="userSpaceOnUse">
<stop stop-color="#666DFF"/>
<stop offset="1" stop-color="#4C53E0"/>
</linearGradient>
<linearGradient id="paint27_linear_1676_37801" x1="24" y1="0" x2="24" y2="48" gradientUnits="userSpaceOnUse">
<stop stop-color="#666DFF"/>
<stop offset="1" stop-color="#4C53E0"/>
</linearGradient>
<linearGradient id="paint28_linear_1676_37801" x1="24" y1="0" x2="24" y2="48" gradientUnits="userSpaceOnUse">
<stop stop-color="#666DFF"/>
<stop offset="1" stop-color="#4C53E0"/>
</linearGradient>
<linearGradient id="paint29_linear_1676_37801" x1="24" y1="0" x2="24" y2="48" gradientUnits="userSpaceOnUse">
<stop stop-color="#666DFF"/>
<stop offset="1" stop-color="#4C53E0"/>
</linearGradient>
<linearGradient id="paint30_linear_1676_37801" x1="24" y1="0" x2="24" y2="48" gradientUnits="userSpaceOnUse">
<stop stop-color="#666DFF"/>
<stop offset="1" stop-color="#4C53E0"/>
</linearGradient>
<linearGradient id="paint31_linear_1676_37801" x1="24" y1="0" x2="24" y2="48" gradientUnits="userSpaceOnUse">
<stop stop-color="#666DFF"/>
<stop offset="1" stop-color="#4C53E0"/>
</linearGradient>
<linearGradient id="paint32_linear_1676_37801" x1="24" y1="0" x2="24" y2="48" gradientUnits="userSpaceOnUse">
<stop stop-color="#666DFF"/>
<stop offset="1" stop-color="#4C53E0"/>
</linearGradient>
<linearGradient id="paint33_linear_1676_37801" x1="24" y1="0" x2="24" y2="48" gradientUnits="userSpaceOnUse">
<stop stop-color="#666DFF"/>
<stop offset="1" stop-color="#4C53E0"/>
</linearGradient>
<linearGradient id="paint34_linear_1676_37801" x1="24" y1="0" x2="24" y2="48" gradientUnits="userSpaceOnUse">
<stop stop-color="#666DFF"/>
<stop offset="1" stop-color="#4C53E0"/>
</linearGradient>
<linearGradient id="paint35_linear_1676_37801" x1="24" y1="0" x2="24" y2="48" gradientUnits="userSpaceOnUse">
<stop stop-color="#666DFF"/>
<stop offset="1" stop-color="#4C53E0"/>
</linearGradient>
<linearGradient id="paint36_linear_1676_37801" x1="24" y1="0" x2="24" y2="48" gradientUnits="userSpaceOnUse">
<stop stop-color="#666DFF"/>
<stop offset="1" stop-color="#4C53E0"/>
</linearGradient>
<linearGradient id="paint37_linear_1676_37801" x1="24" y1="0" x2="24" y2="48" gradientUnits="userSpaceOnUse">
<stop stop-color="#666DFF"/>
<stop offset="1" stop-color="#4C53E0"/>
</linearGradient>
<linearGradient id="paint38_linear_1676_37801" x1="24" y1="0" x2="24" y2="48" gradientUnits="userSpaceOnUse">
<stop stop-color="#666DFF"/>
<stop offset="1" stop-color="#4C53E0"/>
</linearGradient>
<linearGradient id="paint39_linear_1676_37801" x1="24" y1="0" x2="24" y2="48" gradientUnits="userSpaceOnUse">
<stop stop-color="#666DFF"/>
<stop offset="1" stop-color="#4C53E0"/>
</linearGradient>
<linearGradient id="paint40_linear_1676_37801" x1="24" y1="0" x2="24" y2="48" gradientUnits="userSpaceOnUse">
<stop stop-color="#666DFF"/>
<stop offset="1" stop-color="#4C53E0"/>
</linearGradient>
<linearGradient id="paint41_linear_1676_37801" x1="24" y1="0" x2="24" y2="48" gradientUnits="userSpaceOnUse">
<stop stop-color="#666DFF"/>
<stop offset="1" stop-color="#4C53E0"/>
</linearGradient>
<linearGradient id="paint42_linear_1676_37801" x1="24" y1="0" x2="24" y2="48" gradientUnits="userSpaceOnUse">
<stop stop-color="#666DFF"/>
<stop offset="1" stop-color="#4C53E0"/>
</linearGradient>
<linearGradient id="paint43_linear_1676_37801" x1="24" y1="0" x2="24" y2="48" gradientUnits="userSpaceOnUse">
<stop stop-color="#666DFF"/>
<stop offset="1" stop-color="#4C53E0"/>
</linearGradient>
<linearGradient id="paint44_linear_1676_37801" x1="24" y1="0" x2="24" y2="48" gradientUnits="userSpaceOnUse">
<stop stop-color="#666DFF"/>
<stop offset="1" stop-color="#4C53E0"/>
</linearGradient>
<linearGradient id="paint45_linear_1676_37801" x1="24" y1="0" x2="24" y2="48" gradientUnits="userSpaceOnUse">
<stop stop-color="#666DFF"/>
<stop offset="1" stop-color="#4C53E0"/>
</linearGradient>
<linearGradient id="paint46_linear_1676_37801" x1="24" y1="0" x2="24" y2="48" gradientUnits="userSpaceOnUse">
<stop stop-color="#666DFF"/>
<stop offset="1" stop-color="#4C53E0"/>
</linearGradient>
<linearGradient id="paint47_linear_1676_37801" x1="24" y1="0" x2="24" y2="48" gradientUnits="userSpaceOnUse">
<stop stop-color="#666DFF"/>
<stop offset="1" stop-color="#4C53E0"/>
</linearGradient>
<linearGradient id="paint48_linear_1676_37801" x1="24" y1="0" x2="24" y2="48" gradientUnits="userSpaceOnUse">
<stop stop-color="#666DFF"/>
<stop offset="1" stop-color="#4C53E0"/>
</linearGradient>
<linearGradient id="paint49_linear_1676_37801" x1="24" y1="0" x2="24" y2="48" gradientUnits="userSpaceOnUse">
<stop stop-color="#666DFF"/>
<stop offset="1" stop-color="#4C53E0"/>
</linearGradient>
<linearGradient id="paint50_linear_1676_37801" x1="24" y1="0" x2="24" y2="48" gradientUnits="userSpaceOnUse">
<stop stop-color="#666DFF"/>
<stop offset="1" stop-color="#4C53E0"/>
</linearGradient>
<linearGradient id="paint51_linear_1676_37801" x1="24" y1="0" x2="24" y2="48" gradientUnits="userSpaceOnUse">
<stop stop-color="#666DFF"/>
<stop offset="1" stop-color="#4C53E0"/>
</linearGradient>
<linearGradient id="paint52_linear_1676_37801" x1="24" y1="0" x2="24" y2="48" gradientUnits="userSpaceOnUse">
<stop stop-color="#666DFF"/>
<stop offset="1" stop-color="#4C53E0"/>
</linearGradient>
<linearGradient id="paint53_linear_1676_37801" x1="24" y1="0" x2="24" y2="48" gradientUnits="userSpaceOnUse">
<stop stop-color="#666DFF"/>
<stop offset="1" stop-color="#4C53E0"/>
</linearGradient>
<linearGradient id="paint54_linear_1676_37801" x1="24" y1="0" x2="24" y2="48" gradientUnits="userSpaceOnUse">
<stop stop-color="#666DFF"/>
<stop offset="1" stop-color="#4C53E0"/>
</linearGradient>
<linearGradient id="paint55_linear_1676_37801" x1="24" y1="0" x2="24" y2="48" gradientUnits="userSpaceOnUse">
<stop stop-color="#666DFF"/>
<stop offset="1" stop-color="#4C53E0"/>
</linearGradient>
<linearGradient id="paint56_linear_1676_37801" x1="24" y1="0" x2="24" y2="48" gradientUnits="userSpaceOnUse">
<stop stop-color="#666DFF"/>
<stop offset="1" stop-color="#4C53E0"/>
</linearGradient>
<linearGradient id="paint57_linear_1676_37801" x1="24" y1="0" x2="24" y2="48" gradientUnits="userSpaceOnUse">
<stop stop-color="#666DFF"/>
<stop offset="1" stop-color="#4C53E0"/>
</linearGradient>
<linearGradient id="paint58_linear_1676_37801" x1="24" y1="0" x2="24" y2="48" gradientUnits="userSpaceOnUse">
<stop stop-color="#666DFF"/>
<stop offset="1" stop-color="#4C53E0"/>
</linearGradient>
<linearGradient id="paint59_linear_1676_37801" x1="24" y1="0" x2="24" y2="48" gradientUnits="userSpaceOnUse">
<stop stop-color="#666DFF"/>
<stop offset="1" stop-color="#4C53E0"/>
</linearGradient>
<linearGradient id="paint60_linear_1676_37801" x1="24" y1="0" x2="24" y2="48" gradientUnits="userSpaceOnUse">
<stop stop-color="#666DFF"/>
<stop offset="1" stop-color="#4C53E0"/>
</linearGradient>
<linearGradient id="paint61_linear_1676_37801" x1="24" y1="0" x2="24" y2="48" gradientUnits="userSpaceOnUse">
<stop stop-color="#666DFF"/>
<stop offset="1" stop-color="#4C53E0"/>
</linearGradient>
<linearGradient id="paint62_linear_1676_37801" x1="24" y1="0" x2="24" y2="48" gradientUnits="userSpaceOnUse">
<stop stop-color="#666DFF"/>
<stop offset="1" stop-color="#4C53E0"/>
</linearGradient>
<linearGradient id="paint63_linear_1676_37801" x1="24" y1="0" x2="24" y2="48" gradientUnits="userSpaceOnUse">
<stop stop-color="#666DFF"/>
<stop offset="1" stop-color="#4C53E0"/>
</linearGradient>
<linearGradient id="paint64_linear_1676_37801" x1="24" y1="0" x2="24" y2="48" gradientUnits="userSpaceOnUse">
<stop stop-color="#666DFF"/>
<stop offset="1" stop-color="#4C53E0"/>
</linearGradient>
<linearGradient id="paint65_linear_1676_37801" x1="24" y1="0" x2="24" y2="48" gradientUnits="userSpaceOnUse">
<stop stop-color="#666DFF"/>
<stop offset="1" stop-color="#4C53E0"/>
</linearGradient>
<linearGradient id="paint66_linear_1676_37801" x1="24" y1="0" x2="24" y2="48" gradientUnits="userSpaceOnUse">
<stop stop-color="#666DFF"/>
<stop offset="1" stop-color="#4C53E0"/>
</linearGradient>
<linearGradient id="paint67_linear_1676_37801" x1="24" y1="0" x2="24" y2="48" gradientUnits="userSpaceOnUse">
<stop stop-color="#666DFF"/>
<stop offset="1" stop-color="#4C53E0"/>
</linearGradient>
<linearGradient id="paint68_linear_1676_37801" x1="24" y1="0" x2="24" y2="48" gradientUnits="userSpaceOnUse">
<stop stop-color="#666DFF"/>
<stop offset="1" stop-color="#4C53E0"/>
</linearGradient>
<linearGradient id="paint69_linear_1676_37801" x1="24" y1="0" x2="24" y2="48" gradientUnits="userSpaceOnUse">
<stop stop-color="#666DFF"/>
<stop offset="1" stop-color="#4C53E0"/>
</linearGradient>
<linearGradient id="paint70_linear_1676_37801" x1="24" y1="0" x2="24" y2="48" gradientUnits="userSpaceOnUse">
<stop stop-color="#666DFF"/>
<stop offset="1" stop-color="#4C53E0"/>
</linearGradient>
<linearGradient id="paint71_linear_1676_37801" x1="24" y1="0" x2="24" y2="48" gradientUnits="userSpaceOnUse">
<stop stop-color="#666DFF"/>
<stop offset="1" stop-color="#4C53E0"/>
</linearGradient>
<linearGradient id="paint72_linear_1676_37801" x1="24" y1="0" x2="24" y2="48" gradientUnits="userSpaceOnUse">
<stop stop-color="#666DFF"/>
<stop offset="1" stop-color="#4C53E0"/>
</linearGradient>
<linearGradient id="paint73_linear_1676_37801" x1="24" y1="0" x2="24" y2="48" gradientUnits="userSpaceOnUse">
<stop stop-color="#666DFF"/>
<stop offset="1" stop-color="#4C53E0"/>
</linearGradient>
<linearGradient id="paint74_linear_1676_37801" x1="24" y1="0" x2="24" y2="48" gradientUnits="userSpaceOnUse">
<stop stop-color="#666DFF"/>
<stop offset="1" stop-color="#4C53E0"/>
</linearGradient>
<linearGradient id="paint75_linear_1676_37801" x1="24" y1="0" x2="24" y2="48" gradientUnits="userSpaceOnUse">
<stop stop-color="#666DFF"/>
<stop offset="1" stop-color="#4C53E0"/>
</linearGradient>
<linearGradient id="paint76_linear_1676_37801" x1="24" y1="0" x2="24" y2="48" gradientUnits="userSpaceOnUse">
<stop stop-color="#666DFF"/>
<stop offset="1" stop-color="#4C53E0"/>
</linearGradient>
<linearGradient id="paint77_linear_1676_37801" x1="24" y1="0" x2="24" y2="48" gradientUnits="userSpaceOnUse">
<stop stop-color="#666DFF"/>
<stop offset="1" stop-color="#4C53E0"/>
</linearGradient>
<linearGradient id="paint78_linear_1676_37801" x1="24" y1="0" x2="24" y2="48" gradientUnits="userSpaceOnUse">
<stop stop-color="#666DFF"/>
<stop offset="1" stop-color="#4C53E0"/>
</linearGradient>
<linearGradient id="paint79_linear_1676_37801" x1="24" y1="0" x2="24" y2="48" gradientUnits="userSpaceOnUse">
<stop stop-color="#666DFF"/>
<stop offset="1" stop-color="#4C53E0"/>
</linearGradient>
<linearGradient id="paint80_linear_1676_37801" x1="24" y1="0" x2="24" y2="48" gradientUnits="userSpaceOnUse">
<stop stop-color="#666DFF"/>
<stop offset="1" stop-color="#4C53E0"/>
</linearGradient>
<linearGradient id="paint81_linear_1676_37801" x1="24" y1="0" x2="24" y2="48" gradientUnits="userSpaceOnUse">
<stop stop-color="#666DFF"/>
<stop offset="1" stop-color="#4C53E0"/>
</linearGradient>
<linearGradient id="paint82_linear_1676_37801" x1="24" y1="0" x2="24" y2="48" gradientUnits="userSpaceOnUse">
<stop stop-color="#666DFF"/>
<stop offset="1" stop-color="#4C53E0"/>
</linearGradient>
<linearGradient id="paint83_linear_1676_37801" x1="24" y1="0" x2="24" y2="48" gradientUnits="userSpaceOnUse">
<stop stop-color="#666DFF"/>
<stop offset="1" stop-color="#4C53E0"/>
</linearGradient>
<linearGradient id="paint84_linear_1676_37801" x1="24" y1="0" x2="24" y2="48" gradientUnits="userSpaceOnUse">
<stop stop-color="#666DFF"/>
<stop offset="1" stop-color="#4C53E0"/>
</linearGradient>
<linearGradient id="paint85_linear_1676_37801" x1="24" y1="0" x2="24" y2="48" gradientUnits="userSpaceOnUse">
<stop stop-color="#666DFF"/>
<stop offset="1" stop-color="#4C53E0"/>
</linearGradient>
<linearGradient id="paint86_linear_1676_37801" x1="24" y1="0" x2="24" y2="48" gradientUnits="userSpaceOnUse">
<stop stop-color="#666DFF"/>
<stop offset="1" stop-color="#4C53E0"/>
</linearGradient>
<linearGradient id="paint87_linear_1676_37801" x1="24" y1="0" x2="24" y2="48" gradientUnits="userSpaceOnUse">
<stop stop-color="#666DFF"/>
<stop offset="1" stop-color="#4C53E0"/>
</linearGradient>
</defs>
</svg>
