<svg width="50" height="55" viewBox="0 0 50 55" fill="none" xmlns="http://www.w3.org/2000/svg">
<path d="M26.1256 51.573C24.9909 52.3111 23.8059 52.9687 22.5791 53.5408C21.3562 53.2295 1 41.2448 1 33.1624V10.3937C7.08128 10.3937 20.4445 4.94614 22.5791 2C24.7025 4.94614 38.0658 10.3937 44.1471 10.3937V30.8722M28.5714 16.3861V19.9881M23.7687 25.9805H20.1777M23.7687 21.1777L21.3784 18.7874M33.3631 21.1777L35.7533 18.7874M23.7687 30.7721L21.3784 33.1624M48.2383 39.4438L29.761 25.9805V48.8047C29.761 49.494 30.3169 49.7275 30.8727 49.1938L36.0313 44.1909L41.023 53.0071C41.1462 53.1762 41.3017 53.3192 41.4806 53.4277C41.6595 53.5361 41.8581 53.608 42.065 53.639C42.2719 53.6701 42.4829 53.6597 42.6857 53.6084C42.8886 53.5572 43.0792 53.4662 43.2465 53.3407L45.3366 52.0288C45.6994 51.8282 45.9731 51.498 46.1029 51.1043C46.2328 50.7106 46.2093 50.2824 46.037 49.9053L41.212 41.5783H47.5045C47.6447 41.6265 47.793 41.6466 47.9409 41.6375C48.0888 41.6284 48.2335 41.5902 48.3667 41.5252C48.4999 41.4601 48.6189 41.3695 48.7171 41.2584C48.8152 41.1474 48.8905 41.0181 48.9387 40.8779C48.9869 40.7378 49.007 40.5895 48.9979 40.4416C48.9887 40.2936 48.9506 40.149 48.8855 40.0158C48.8205 39.8826 48.7299 39.7636 48.6188 39.6654C48.5078 39.5673 48.3785 39.492 48.2383 39.4438Z" stroke="url(#paint0_linear_1676_37799)" stroke-width="2" stroke-miterlimit="10"/>
<defs>
<linearGradient id="paint0_linear_1676_37799" x1="25" y1="2" x2="25" y2="53.6565" gradientUnits="userSpaceOnUse">
<stop stop-color="#666DFF"/>
<stop offset="1" stop-color="#4C53E0"/>
</linearGradient>
</defs>
</svg>
