<svg width="50" height="50" viewBox="0 0 50 50" fill="none" xmlns="http://www.w3.org/2000/svg">
<path d="M21.5714 27.9268V29.0976C21.5714 29.7186 21.8122 30.3141 22.2409 30.7532C22.6696 31.1923 23.2509 31.439 23.8571 31.439H26.1429C26.7491 31.439 27.3304 31.1923 27.7591 30.7532C28.1878 30.3141 28.4286 29.7186 28.4286 29.0976V28.442C28.429 27.9496 28.278 27.4697 27.9969 27.0704C27.7158 26.6711 27.319 26.3726 26.8629 26.2176L23.1371 24.9532C22.681 24.7981 22.2842 24.4997 22.0031 24.1004C21.7221 23.701 21.571 23.2211 21.5714 22.7288V22.0732C21.5714 21.4522 21.8122 20.8566 22.2409 20.4175C22.6696 19.9784 23.2509 19.7317 23.8571 19.7317H26.1429C26.7491 19.7317 27.3304 19.9784 27.7591 20.4175C28.1878 20.8566 28.4286 21.4522 28.4286 22.0732V23.2439M25 19.7317V16.2195M25 31.439V34.9512M25 9.19512C26.8935 9.19512 28.4286 7.62266 28.4286 5.68293C28.4286 3.7432 26.8935 2.17073 25 2.17073C23.1065 2.17073 21.5714 3.7432 21.5714 5.68293C21.5714 7.62266 23.1065 9.19512 25 9.19512ZM25 9.19512V12.7073M25 41.9756C23.1065 41.9756 21.5714 43.5481 21.5714 45.4878C21.5714 47.4275 23.1065 49 25 49C26.8935 49 28.4286 47.4275 28.4286 45.4878C28.4286 43.5481 26.8935 41.9756 25 41.9756ZM25 41.9756V38.4634M41 25.5854C41 27.5251 42.535 29.0976 44.4286 29.0976C46.3221 29.0976 47.8571 27.5251 47.8571 25.5854C47.8571 23.6456 46.3221 22.0732 44.4286 22.0732C42.535 22.0732 41 23.6456 41 25.5854ZM41 25.5854H37.5714M9 25.5854C9 27.5251 7.46498 29.0976 5.57143 29.0976C3.67788 29.0976 2.14286 27.5251 2.14286 25.5854C2.14286 23.6456 3.67788 22.0732 5.57143 22.0732C7.46498 22.0732 9 23.6456 9 25.5854ZM9 25.5854H12.4286M43.2857 6.85366L36.4286 13.878M36.4286 13.878H41M36.4286 13.878V9.19512M6.71429 6.85366L13.5714 13.878M13.5714 13.878H9M13.5714 13.878V9.19512M43.2857 43.1463L36.4286 36.122M36.4286 36.122H41M36.4286 36.122V40.8049M6.71429 43.1463L13.5714 36.122M13.5714 36.122H9M13.5714 36.122V40.8049M36.4286 25.5854C36.4286 32.0511 31.3118 37.2927 25 37.2927C18.6882 37.2927 13.5714 32.0511 13.5714 25.5854C13.5714 19.1196 18.6882 13.878 25 13.878C31.3118 13.878 36.4286 19.1196 36.4286 25.5854ZM45.5714 8.02439C44.8933 8.02439 44.2304 7.8184 43.6666 7.43248C43.1028 7.04655 42.6633 6.49803 42.4038 5.85626C42.1443 5.21449 42.0764 4.5083 42.2087 3.827C42.341 3.1457 42.6676 2.51989 43.1471 2.0287C43.6266 1.53751 44.2375 1.20301 44.9026 1.06749C45.5676 0.931969 46.257 1.00152 46.8835 1.26735C47.51 1.53318 48.0454 1.98335 48.4222 2.56093C48.7989 3.1385 49 3.81755 49 4.5122C49 5.44369 48.6388 6.33703 47.9958 6.99569C47.3528 7.65436 46.4807 8.02439 45.5714 8.02439ZM4.42857 8.02439C5.10668 8.02439 5.76956 7.8184 6.33338 7.43248C6.89721 7.04655 7.33666 6.49803 7.59616 5.85626C7.85566 5.21449 7.92356 4.5083 7.79126 3.827C7.65897 3.1457 7.33243 2.51989 6.85294 2.0287C6.37344 1.53751 5.76253 1.20301 5.09745 1.06749C4.43237 0.931969 3.743 1.00152 3.11651 1.26735C2.49002 1.53318 1.95455 1.98335 1.57782 2.56093C1.20108 3.1385 1 3.81755 1 4.5122C1 5.44369 1.36122 6.33703 2.00421 6.99569C2.64719 7.65436 3.51926 8.02439 4.42857 8.02439ZM45.5714 41.9756C44.8933 41.9756 44.2304 42.1816 43.6666 42.5675C43.1028 42.9534 42.6633 43.502 42.4038 44.1437C42.1443 44.7855 42.0764 45.4917 42.2087 46.173C42.341 46.8543 42.6676 47.4801 43.1471 47.9713C43.6266 48.4625 44.2375 48.797 44.9026 48.9325C45.5676 49.068 46.257 48.9985 46.8835 48.7326C47.51 48.4668 48.0454 48.0167 48.4222 47.4391C48.7989 46.8615 49 46.1824 49 45.4878C49 44.5563 48.6388 43.663 47.9958 43.0043C47.3528 42.3456 46.4807 41.9756 45.5714 41.9756ZM4.42857 41.9756C5.10668 41.9756 5.76956 42.1816 6.33338 42.5675C6.89721 42.9534 7.33666 43.502 7.59616 44.1437C7.85566 44.7855 7.92356 45.4917 7.79126 46.173C7.65897 46.8543 7.33243 47.4801 6.85294 47.9713C6.37344 48.4625 5.76253 48.797 5.09745 48.9325C4.43237 49.068 3.743 48.9985 3.11651 48.7326C2.49002 48.4668 1.95455 48.0167 1.57782 47.4391C1.20108 46.8615 1 46.1824 1 45.4878C1 44.5563 1.36122 43.663 2.00421 43.0043C2.64719 42.3456 3.51926 41.9756 4.42857 41.9756Z" stroke="url(#paint0_linear_1676_37781)" stroke-width="2" stroke-miterlimit="10"/>
<defs>
<linearGradient id="paint0_linear_1676_37781" x1="25" y1="1" x2="25" y2="49" gradientUnits="userSpaceOnUse">
<stop stop-color="#666DFF"/>
<stop offset="1" stop-color="#4C53E0"/>
</linearGradient>
</defs>
</svg>
