<svg width="51" height="50" viewBox="0 0 51 50" fill="none" xmlns="http://www.w3.org/2000/svg">
<path d="M12.4276 45.6392V43.4536C12.4276 42.2077 9.28177 40.1855 6.71378 40.1855C4.14579 40.1855 1 42.2077 1 43.4536V50M26.1449 36.9072V34.7626C26.1449 33.5268 22.9991 31.5047 20.4311 31.5047C17.8631 31.5047 14.7173 33.5472 14.7173 34.7626V39.1336M33.0036 21.6391V18.3609C33.0036 17.1149 29.8578 15.0928 27.2898 15.0928C24.7218 15.0928 21.576 17.1353 21.576 18.3609V19.4434M41.51 42.5038C44.3027 39.297 45.576 35.3549 45.576 30.3609V11.8145H49L42.58 2L36.4276 11.8145H39.8622V30.3609C39.8622 41.5949 30.0076 48.9072 19.2862 48.9072H9.00357M25.6099 42.1157C31.5591 39.3072 32.0299 33.7413 32.2332 31.6987L32.4258 29.5234M6.71378 40.1345C7.19906 40.1169 7.67553 40.0053 8.11427 39.8066C8.55302 39.6079 8.94488 39.3262 9.26609 38.9785C9.58729 38.6309 9.83113 38.2246 9.98281 37.7843C10.1345 37.3439 10.1909 36.8788 10.1485 36.417V35.1711C10.1909 34.7093 10.1345 34.2442 9.98281 33.8038C9.83113 33.3635 9.58729 32.9572 9.26609 32.6095C8.94488 32.2619 8.55302 31.9802 8.11427 31.7815C7.67553 31.5828 7.19906 31.4712 6.71378 31.4536C4.64868 31.4536 3.28979 33.1183 3.28979 35.1711V36.417C3.28979 38.4698 4.64868 40.1345 6.71378 40.1345ZM20.4311 31.4026C22.4962 31.4026 23.8551 29.7379 23.8551 27.6851V26.4391C23.8551 24.3966 22.4962 22.7217 20.4311 22.7217C19.9504 22.746 19.4798 22.8624 19.0473 23.064C18.6148 23.2657 18.2293 23.5484 17.9137 23.8953C17.5982 24.2423 17.3591 24.6463 17.2107 25.0834C17.0623 25.5204 17.0076 25.9815 17.0499 26.4391V27.6851C17.0076 28.1428 17.0623 28.6039 17.2107 29.0409C17.3591 29.4779 17.5982 29.882 17.9137 30.2289C18.2293 30.5758 18.6148 30.8586 19.0473 31.0602C19.4798 31.2618 19.9504 31.3783 20.4311 31.4026ZM27.2898 15.0417C27.7747 15.0242 28.2507 14.9126 28.6889 14.7138C29.1271 14.515 29.5184 14.2331 29.8387 13.8853C30.1591 13.5374 30.4019 13.131 30.5523 12.6907C30.7028 12.2504 30.7577 11.7855 30.7138 11.3243V10.0783C30.7746 9.61414 30.7314 9.14294 30.5869 8.69596C30.4423 8.24898 30.1999 7.83645 29.8756 7.48575C29.5512 7.13504 29.1525 6.85418 28.7058 6.66181C28.259 6.46944 27.7745 6.36995 27.2844 6.36995C26.7943 6.36995 26.3099 6.46944 25.8631 6.66181C25.4164 6.85418 25.0176 7.13504 24.6933 7.48575C24.369 7.83645 24.1265 8.24898 23.982 8.69596C23.8375 9.14294 23.7942 9.61414 23.8551 10.0783V11.3243C23.8127 11.786 23.8691 12.2512 24.0208 12.6915C24.1724 13.1318 24.4163 13.5381 24.7375 13.8858C25.0587 14.2334 25.4505 14.5152 25.8893 14.7139C26.328 14.9126 26.8045 15.0241 27.2898 15.0417Z" stroke="url(#paint0_linear_1676_37779)" stroke-width="2" stroke-miterlimit="10"/>
<defs>
<linearGradient id="paint0_linear_1676_37779" x1="25" y1="2" x2="25" y2="50" gradientUnits="userSpaceOnUse">
<stop stop-color="#666DFF"/>
<stop offset="1" stop-color="#4C53E0"/>
</linearGradient>
</defs>
</svg>
