<svg width="210" height="48" viewBox="0 0 210 48" fill="none" xmlns="http://www.w3.org/2000/svg">
<path fill-rule="evenodd" clip-rule="evenodd" d="M19.9452 1.03131C22.4731 -0.343768 25.5257 -0.343768 28.0537 1.0313L42.7091 9.00308C45.4397 10.4884 47.1395 13.348 47.1395 16.4565V31.5435C47.1395 34.652 45.4397 37.5116 42.7091 38.9969L28.0537 46.9687C25.5257 48.3437 22.4731 48.3437 19.9452 46.9687L5.28981 38.9969C2.55918 37.5116 0.859375 34.652 0.859375 31.5435V16.4565C0.859375 13.348 2.55918 10.4884 5.2898 9.00308L19.9452 1.03131Z" fill="url(#paint0_linear_3888_17640)"/>
<path d="M35.8335 24.0948C35.8335 26.2556 34.2178 27.9267 32.3119 27.9267C31.9051 27.9267 31.237 27.7551 30.3016 27.2077C29.3943 26.6764 28.4524 25.9192 27.5633 25.0801C26.348 23.933 25.289 22.6124 24.1875 21.3455C22.1055 19.178 18.9699 16.5 16.0631 16.5C12.1598 16.5 9 19.8994 9 24.0927C9 26.5942 10.1245 28.8483 11.8604 30.239C11.9966 30.1673 12.3372 29.9228 12.6096 29.5178C12.9501 29.0115 12.4053 28.1437 12.6096 27.5652C12.7731 27.1023 13.2679 26.8304 13.495 26.7523C12.9149 26.0773 12.5415 25.1534 12.5415 24.0927C12.5415 21.932 14.1573 20.2607 16.0631 20.2607C16.4699 20.2607 17.138 20.4324 18.0733 20.9798C18.9807 21.5111 19.9225 22.2683 20.8116 23.1074C22.0373 24.2641 23.0184 25.6584 24.1875 26.8756C26.2695 29.0432 29.4051 31.6875 32.3119 31.6875C36.2152 31.6875 39.3749 28.2881 39.3749 24.0948C39.3749 21.5932 38.2505 19.3392 36.5146 17.9485C36.3784 18.0202 36.0377 18.2647 35.7655 18.6697C35.425 19.1759 35.9698 20.0437 35.7655 20.6223C35.6019 21.0852 35.1071 21.3572 34.88 21.4353C35.4601 22.1101 35.8335 23.0341 35.8335 24.0948Z" fill="white"/>
<path d="M35.6455 17.588C35.7647 17.8697 35.6463 18.2007 35.3811 18.3272C35.1159 18.4538 34.8043 18.3279 34.6851 18.0462C34.5659 17.7645 34.6842 17.4335 34.9494 17.307C35.2146 17.1806 35.5262 17.3063 35.6455 17.588Z" fill="white"/>
<path d="M35.6455 17.588C35.7647 17.8697 35.6463 18.2007 35.3811 18.3272C35.1159 18.4538 34.8043 18.3279 34.6851 18.0462C34.5659 17.7645 34.6842 17.4335 34.9494 17.307C35.2146 17.1806 35.5262 17.3063 35.6455 17.588Z" fill="white"/>
<path d="M35.373 20.048C35.4922 20.3297 35.3738 20.6607 35.1086 20.7871C34.8434 20.9137 34.5318 20.7879 34.4126 20.5062C34.2934 20.2244 34.4118 19.8936 34.677 19.767C34.9422 19.6405 35.2538 19.7662 35.373 20.048Z" fill="white"/>
<path d="M35.373 20.048C35.4922 20.3297 35.3738 20.6607 35.1086 20.7871C34.8434 20.9137 34.5318 20.7879 34.4126 20.5062C34.2934 20.2244 34.4118 19.8936 34.677 19.767C34.9422 19.6405 35.2538 19.7662 35.373 20.048Z" fill="white"/>
<path d="M35.2372 18.7452C35.3563 19.0269 35.238 19.3579 34.9728 19.4844C34.7077 19.611 34.396 19.4851 34.2769 19.2034C34.1577 18.9218 34.276 18.5908 34.5412 18.4642C34.8064 18.3378 35.118 18.4635 35.2372 18.7452Z" fill="white"/>
<path d="M35.2372 18.7452C35.3563 19.0269 35.238 19.3579 34.9728 19.4844C34.7077 19.611 34.396 19.4851 34.2769 19.2034C34.1577 18.9218 34.276 18.5908 34.5412 18.4642C34.8064 18.3378 35.118 18.4635 35.2372 18.7452Z" fill="white"/>
<path d="M34.4189 17.1554C34.5381 17.4371 34.4197 17.7681 34.1545 17.8945C33.8893 18.0211 33.5777 17.8954 33.4585 17.6137C33.3393 17.3319 33.4577 17.001 33.7229 16.8744C33.9881 16.7479 34.2996 16.8738 34.4189 17.1554Z" fill="white"/>
<path d="M34.4189 17.1554C34.5381 17.4371 34.4197 17.7681 34.1545 17.8945C33.8893 18.0211 33.5777 17.8954 33.4585 17.6137C33.3393 17.3319 33.4577 17.001 33.7229 16.8744C33.9881 16.7479 34.2996 16.8738 34.4189 17.1554Z" fill="white"/>
<path d="M34.1483 19.6143C34.2675 19.8961 34.1492 20.227 33.884 20.3536C33.6188 20.4801 33.3072 20.3542 33.188 20.0726C33.0689 19.7909 33.1871 19.4599 33.4524 19.3334C33.7175 19.2069 34.0292 19.3326 34.1483 19.6143Z" fill="white"/>
<path d="M34.1483 19.6143C34.2675 19.8961 34.1492 20.227 33.884 20.3536C33.6188 20.4801 33.3072 20.3542 33.188 20.0726C33.0689 19.7909 33.1871 19.4599 33.4524 19.3334C33.7175 19.2069 34.0292 19.3326 34.1483 19.6143Z" fill="white"/>
<path d="M32.6493 19.3243C32.7685 19.6061 32.6501 19.9369 32.385 20.0635C32.1198 20.19 31.8081 20.0643 31.689 19.7825C31.5698 19.5008 31.6881 19.1698 31.9533 19.0434C32.2185 18.9168 32.5302 19.0426 32.6493 19.3243Z" fill="white"/>
<path d="M32.6493 19.3243C32.7685 19.6061 32.6501 19.9369 32.385 20.0635C32.1198 20.19 31.8081 20.0643 31.689 19.7825C31.5698 19.5008 31.6881 19.1698 31.9533 19.0434C32.2185 18.9168 32.5302 19.0426 32.6493 19.3243Z" fill="white"/>
<path d="M32.785 18.0225C32.9043 18.3043 32.7859 18.6353 32.5207 18.7617C32.2555 18.8883 31.9439 18.7625 31.8247 18.4808C31.7056 18.199 31.8238 17.8682 32.0891 17.7416C32.3542 17.6151 32.6659 17.7409 32.785 18.0225Z" fill="white"/>
<path d="M32.785 18.0225C32.9043 18.3043 32.7859 18.6353 32.5207 18.7617C32.2555 18.8883 31.9439 18.7625 31.8247 18.4808C31.7056 18.199 31.8238 17.8682 32.0891 17.7416C32.3542 17.6151 32.6659 17.7409 32.785 18.0225Z" fill="white"/>
<path d="M31.8339 17.0099C31.9531 17.2916 31.8348 17.6226 31.5696 17.7491C31.3044 17.8756 30.9927 17.7498 30.8736 17.4681C30.7543 17.1864 30.8727 16.8555 31.1379 16.7289C31.4031 16.6024 31.7148 16.7283 31.8339 17.0099Z" fill="white"/>
<path d="M31.8339 17.0099C31.9531 17.2916 31.8348 17.6226 31.5696 17.7491C31.3044 17.8756 30.9927 17.7498 30.8736 17.4681C30.7543 17.1864 30.8727 16.8555 31.1379 16.7289C31.4031 16.6024 31.7148 16.7283 31.8339 17.0099Z" fill="white"/>
<path d="M30.4483 17.317C30.5378 17.5283 30.4491 17.7765 30.2501 17.8714C30.0512 17.9663 29.8174 17.8719 29.7282 17.6606C29.6388 17.4494 29.7274 17.2012 29.9264 17.1063C30.1253 17.0113 30.359 17.1057 30.4483 17.317Z" fill="white"/>
<path d="M30.4483 17.317C30.5378 17.5283 30.4491 17.7765 30.2501 17.8714C30.0512 17.9663 29.8174 17.8719 29.7282 17.6606C29.6388 17.4494 29.7274 17.2012 29.9264 17.1063C30.1253 17.0113 30.359 17.1057 30.4483 17.317Z" fill="white"/>
<path d="M29.3596 17.8951C29.4489 18.1064 29.3601 18.3546 29.1613 18.4495C28.9625 18.5444 28.7287 18.45 28.6393 18.2388C28.5499 18.0275 28.6386 17.7793 28.8376 17.6843C29.0365 17.5895 29.2701 17.6839 29.3596 17.8951Z" fill="white"/>
<path d="M29.3596 17.8951C29.4489 18.1064 29.3601 18.3546 29.1613 18.4495C28.9625 18.5444 28.7287 18.45 28.6393 18.2388C28.5499 18.0275 28.6386 17.7793 28.8376 17.6843C29.0365 17.5895 29.2701 17.6839 29.3596 17.8951Z" fill="white"/>
<path d="M28.4065 18.6188C28.4959 18.8301 28.4071 19.0783 28.2082 19.1732C28.0092 19.2681 27.7755 19.1737 27.6862 18.9625C27.5967 18.7512 27.6855 18.503 27.8844 18.408C28.0834 18.3131 28.3171 18.4075 28.4065 18.6188Z" fill="white"/>
<path d="M28.4065 18.6188C28.4959 18.8301 28.4071 19.0783 28.2082 19.1732C28.0092 19.2681 27.7755 19.1737 27.6862 18.9625C27.5967 18.7512 27.6855 18.503 27.8844 18.408C28.0834 18.3131 28.3171 18.4075 28.4065 18.6188Z" fill="white"/>
<path d="M30.1741 20.4986C30.2635 20.7099 30.1747 20.958 29.9757 21.0531C29.7769 21.1479 29.5431 21.0535 29.4538 20.8423C29.3643 20.631 29.453 20.3828 29.652 20.2879C29.8509 20.193 30.0847 20.2874 30.1741 20.4986Z" fill="white"/>
<path d="M30.1741 20.4986C30.2635 20.7099 30.1747 20.958 29.9757 21.0531C29.7769 21.1479 29.5431 21.0535 29.4538 20.8423C29.3643 20.631 29.453 20.3828 29.652 20.2879C29.8509 20.193 30.0847 20.2874 30.1741 20.4986Z" fill="white"/>
<path d="M30.3117 18.9078C30.4012 19.1191 30.3124 19.3672 30.1134 19.4622C29.9145 19.5571 29.6808 19.4627 29.5915 19.2514C29.502 19.0402 29.5907 18.7919 29.7897 18.697C29.9886 18.6022 30.2224 18.6965 30.3117 18.9078Z" fill="white"/>
<path d="M30.3117 18.9078C30.4012 19.1191 30.3124 19.3672 30.1134 19.4622C29.9145 19.5571 29.6808 19.4627 29.5915 19.2514C29.502 19.0402 29.5907 18.7919 29.7897 18.697C29.9886 18.6022 30.2224 18.6965 30.3117 18.9078Z" fill="white"/>
<path d="M29.3596 19.4869C29.4489 19.6981 29.3601 19.9464 29.1613 20.0412C28.9625 20.1361 28.7287 20.0419 28.6393 19.8306C28.5499 19.6193 28.6386 19.3711 28.8376 19.2762C29.0365 19.1813 29.2701 19.2756 29.3596 19.4869Z" fill="white"/>
<path d="M29.3596 19.4869C29.4489 19.6981 29.3601 19.9464 29.1613 20.0412C28.9625 20.1361 28.7287 20.0419 28.6393 19.8306C28.5499 19.6193 28.6386 19.3711 28.8376 19.2762C29.0365 19.1813 29.2701 19.2756 29.3596 19.4869Z" fill="white"/>
<path d="M28.1127 20.9502C28.1723 21.091 28.1132 21.2565 27.9805 21.3198C27.848 21.3831 27.6922 21.3201 27.6325 21.1793C27.573 21.0384 27.6322 20.8731 27.7647 20.8098C27.8973 20.7465 28.0532 20.8093 28.1127 20.9502Z" fill="white"/>
<path d="M28.1127 20.9502C28.1723 21.091 28.1132 21.2565 27.9805 21.3198C27.848 21.3831 27.6922 21.3201 27.6325 21.1793C27.573 21.0384 27.6322 20.8731 27.7647 20.8098C27.8973 20.7465 28.0532 20.8093 28.1127 20.9502Z" fill="white"/>
<path d="M28.7925 21.5283C28.852 21.6691 28.7928 21.8347 28.6603 21.898C28.5276 21.9613 28.3718 21.8983 28.3123 21.7575C28.2527 21.6166 28.3118 21.4512 28.4445 21.3879C28.577 21.3246 28.7329 21.3875 28.7925 21.5283Z" fill="white"/>
<path d="M28.7925 21.5283C28.852 21.6691 28.7928 21.8347 28.6603 21.898C28.5276 21.9613 28.3718 21.8983 28.3123 21.7575C28.2527 21.6166 28.3118 21.4512 28.4445 21.3879C28.577 21.3246 28.7329 21.3875 28.7925 21.5283Z" fill="white"/>
<path d="M28.1127 19.6485C28.1723 19.7894 28.1132 19.9548 27.9805 20.0181C27.848 20.0814 27.6922 20.0184 27.6325 19.8776C27.573 19.7368 27.6322 19.5713 27.7647 19.508C27.8973 19.4447 28.0532 19.5077 28.1127 19.6485Z" fill="white"/>
<path d="M28.1127 19.6485C28.1723 19.7894 28.1132 19.9548 27.9805 20.0181C27.848 20.0814 27.6922 20.0184 27.6325 19.8776C27.573 19.7368 27.6322 19.5713 27.7647 19.508C27.8973 19.4447 28.0532 19.5077 28.1127 19.6485Z" fill="white"/>
<path d="M28.7923 20.3712C28.852 20.512 28.7928 20.6775 28.6602 20.7408C28.5276 20.804 28.3718 20.7412 28.3122 20.6004C28.2527 20.4594 28.3119 20.2939 28.4443 20.2307C28.577 20.1674 28.7329 20.2303 28.7923 20.3712Z" fill="white"/>
<path d="M28.7923 20.3712C28.852 20.512 28.7928 20.6775 28.6602 20.7408C28.5276 20.804 28.3718 20.7412 28.3122 20.6004C28.2527 20.4594 28.3119 20.2939 28.4443 20.2307C28.577 20.1674 28.7329 20.2303 28.7923 20.3712Z" fill="white"/>
<path d="M29.4732 21.0947C29.5327 21.2356 29.4736 21.401 29.3409 21.4643C29.2084 21.5276 29.0526 21.4648 28.9929 21.3239C28.9333 21.1831 28.9926 21.0175 29.1252 20.9543C29.2577 20.891 29.4136 20.9539 29.4732 21.0947Z" fill="white"/>
<path d="M29.4732 21.0947C29.5327 21.2356 29.4736 21.401 29.3409 21.4643C29.2084 21.5276 29.0526 21.4648 28.9929 21.3239C28.9333 21.1831 28.9926 21.0175 29.1252 20.9543C29.2577 20.891 29.4136 20.9539 29.4732 21.0947Z" fill="white"/>
<path d="M27.4291 19.0693C27.4887 19.2102 27.4295 19.3757 27.297 19.4389C27.1643 19.5022 27.0085 19.4393 26.949 19.2984C26.8894 19.1576 26.9486 18.9922 27.0811 18.9289C27.2137 18.8657 27.3696 18.9285 27.4291 19.0693Z" fill="white"/>
<path d="M27.4291 19.0693C27.4887 19.2102 27.4295 19.3757 27.297 19.4389C27.1643 19.5022 27.0085 19.4393 26.949 19.2984C26.8894 19.1576 26.9486 18.9922 27.0811 18.9289C27.2137 18.8657 27.3696 18.9285 27.4291 19.0693Z" fill="white"/>
<path d="M26.7505 19.6485C26.8101 19.7894 26.7509 19.9548 26.6183 20.0181C26.4857 20.0814 26.3299 20.0184 26.2703 19.8776C26.2107 19.7368 26.2698 19.5713 26.4025 19.508C26.535 19.4447 26.6909 19.5077 26.7505 19.6485Z" fill="white"/>
<path d="M26.7505 19.6485C26.8101 19.7894 26.7509 19.9548 26.6183 20.0181C26.4857 20.0814 26.3299 20.0184 26.2703 19.8776C26.2107 19.7368 26.2698 19.5713 26.4025 19.508C26.535 19.4447 26.6909 19.5077 26.7505 19.6485Z" fill="white"/>
<path d="M26.0668 20.2267C26.1265 20.3675 26.0674 20.5329 25.9347 20.5962C25.8021 20.6594 25.6462 20.5966 25.5867 20.4558C25.527 20.3149 25.5863 20.1494 25.7188 20.0862C25.8515 20.0229 26.0073 20.0857 26.0668 20.2267Z" fill="white"/>
<path d="M26.0668 20.2267C26.1265 20.3675 26.0674 20.5329 25.9347 20.5962C25.8021 20.6594 25.6462 20.5966 25.5867 20.4558C25.527 20.3149 25.5863 20.1494 25.7188 20.0862C25.8515 20.0229 26.0073 20.0857 26.0668 20.2267Z" fill="white"/>
<path d="M26.7505 20.8047C26.8101 20.9455 26.7509 21.1111 26.6183 21.1743C26.4857 21.2375 26.3299 21.1747 26.2703 21.0339C26.2107 20.893 26.2698 20.7276 26.4025 20.6643C26.535 20.601 26.6909 20.6638 26.7505 20.8047Z" fill="white"/>
<path d="M26.7505 20.8047C26.8101 20.9455 26.7509 21.1111 26.6183 21.1743C26.4857 21.2375 26.3299 21.1747 26.2703 21.0339C26.2107 20.893 26.2698 20.7276 26.4025 20.6643C26.535 20.601 26.6909 20.6638 26.7505 20.8047Z" fill="white"/>
<path d="M27.4291 20.2267C27.4887 20.3676 27.4295 20.533 27.297 20.5962C27.1643 20.6595 27.0085 20.5967 26.949 20.4558C26.8894 20.315 26.9486 20.1494 27.0811 20.0861C27.2137 20.0228 27.3696 20.0859 27.4291 20.2267Z" fill="white"/>
<path d="M27.4291 20.2267C27.4887 20.3676 27.4295 20.533 27.297 20.5962C27.1643 20.6595 27.0085 20.5967 26.949 20.4558C26.8894 20.315 26.9486 20.1494 27.0811 20.0861C27.2137 20.0228 27.3696 20.0859 27.4291 20.2267Z" fill="white"/>
<path d="M28.1127 22.1065C28.1723 22.2473 28.1132 22.4128 27.9805 22.4761C27.848 22.5394 27.6922 22.4765 27.6325 22.3356C27.573 22.1947 27.6322 22.0292 27.7647 21.966C27.8973 21.9028 28.0532 21.9656 28.1127 22.1065Z" fill="white"/>
<path d="M28.1127 22.1065C28.1723 22.2473 28.1132 22.4128 27.9805 22.4761C27.848 22.5394 27.6922 22.4765 27.6325 22.3356C27.573 22.1947 27.6322 22.0292 27.7647 21.966C27.8973 21.9028 28.0532 21.9656 28.1127 22.1065Z" fill="white"/>
<path d="M27.4291 21.5283C27.4887 21.6691 27.4295 21.8347 27.297 21.898C27.1643 21.9613 27.0085 21.8983 26.949 21.7575C26.8894 21.6166 26.9486 21.4512 27.0811 21.3879C27.2137 21.3246 27.3696 21.3875 27.4291 21.5283Z" fill="white"/>
<path d="M27.4291 21.5283C27.4887 21.6691 27.4295 21.8347 27.297 21.898C27.1643 21.9613 27.0085 21.8983 26.949 21.7575C26.8894 21.6166 26.9486 21.4512 27.0811 21.3879C27.2137 21.3246 27.3696 21.3875 27.4291 21.5283Z" fill="white"/>
<path d="M26.0668 21.3838C26.1265 21.5247 26.0674 21.6902 25.9347 21.7535C25.8021 21.8168 25.6462 21.7538 25.5867 21.613C25.527 21.4721 25.5863 21.3067 25.7188 21.2434C25.8515 21.1801 26.0073 21.2429 26.0668 21.3838Z" fill="white"/>
<path d="M26.0668 21.3838C26.1265 21.5247 26.0674 21.6902 25.9347 21.7535C25.8021 21.8168 25.6462 21.7538 25.5867 21.613C25.527 21.4721 25.5863 21.3067 25.7188 21.2434C25.8515 21.1801 26.0073 21.2429 26.0668 21.3838Z" fill="white"/>
<path d="M25.3862 20.8047C25.4459 20.9455 25.3867 21.1111 25.254 21.1743C25.1215 21.2375 24.9657 21.1747 24.906 21.0339C24.8464 20.893 24.9056 20.7276 25.0382 20.6643C25.1708 20.601 25.3267 20.6638 25.3862 20.8047Z" fill="white"/>
<path d="M25.3862 20.8047C25.4459 20.9455 25.3867 21.1111 25.254 21.1743C25.1215 21.2375 24.9657 21.1747 24.906 21.0339C24.8464 20.893 24.9056 20.7276 25.0382 20.6643C25.1708 20.601 25.3267 20.6638 25.3862 20.8047Z" fill="white"/>
<path d="M24.9789 21.3838C25.0385 21.5247 24.9794 21.6902 24.8468 21.7535C24.7141 21.8168 24.5583 21.7538 24.4988 21.613C24.4392 21.4721 24.4984 21.3067 24.631 21.2434C24.7635 21.1801 24.9194 21.2429 24.9789 21.3838Z" fill="white"/>
<path d="M24.9789 21.3838C25.0385 21.5247 24.9794 21.6902 24.8468 21.7535C24.7141 21.8168 24.5583 21.7538 24.4988 21.613C24.4392 21.4721 24.4984 21.3067 24.631 21.2434C24.7635 21.1801 24.9194 21.2429 24.9789 21.3838Z" fill="white"/>
<path d="M25.6597 21.9619C25.7192 22.1027 25.66 22.2682 25.5274 22.3315C25.3949 22.3948 25.239 22.3318 25.1795 22.191C25.1198 22.0502 25.179 21.8848 25.3117 21.8215C25.4442 21.7582 25.6 21.8211 25.6597 21.9619Z" fill="white"/>
<path d="M25.6597 21.9619C25.7192 22.1027 25.66 22.2682 25.5274 22.3315C25.3949 22.3948 25.239 22.3318 25.1795 22.191C25.1198 22.0502 25.179 21.8848 25.3117 21.8215C25.4442 21.7582 25.6 21.8211 25.6597 21.9619Z" fill="white"/>
<path d="M26.7494 22.1065C26.809 22.2473 26.7499 22.4128 26.6172 22.4761C26.4847 22.5394 26.3289 22.4765 26.2692 22.3356C26.2098 22.1947 26.2689 22.0292 26.4014 21.966C26.534 21.9028 26.6899 21.9656 26.7494 22.1065Z" fill="white"/>
<path d="M26.7494 22.1065C26.809 22.2473 26.7499 22.4128 26.6172 22.4761C26.4847 22.5394 26.3289 22.4765 26.2692 22.3356C26.2098 22.1947 26.2689 22.0292 26.4014 21.966C26.534 21.9028 26.6899 21.9656 26.7494 22.1065Z" fill="white"/>
<path d="M27.4291 22.8302C27.4887 22.971 27.4295 23.1364 27.297 23.1996C27.1643 23.2629 27.0085 23.2001 26.949 23.0593C26.8894 22.9184 26.9486 22.7528 27.0811 22.6896C27.2137 22.6264 27.3696 22.6893 27.4291 22.8302Z" fill="white"/>
<path d="M27.4291 22.8302C27.4887 22.971 27.4295 23.1364 27.297 23.1996C27.1643 23.2629 27.0085 23.2001 26.949 23.0593C26.8894 22.9184 26.9486 22.7528 27.0811 22.6896C27.2137 22.6264 27.3696 22.6893 27.4291 22.8302Z" fill="white"/>
<path d="M26.8843 23.5537C26.9439 23.6945 26.8847 23.8601 26.7521 23.9233C26.6195 23.9866 26.4638 23.9237 26.4041 23.7829C26.3444 23.6421 26.4037 23.4766 26.5363 23.4133C26.6689 23.35 26.8246 23.4129 26.8843 23.5537Z" fill="white"/>
<path d="M26.8843 23.5537C26.9439 23.6945 26.8847 23.8601 26.7521 23.9233C26.6195 23.9866 26.4638 23.9237 26.4041 23.7829C26.3444 23.6421 26.4037 23.4766 26.5363 23.4133C26.6689 23.35 26.8246 23.4129 26.8843 23.5537Z" fill="white"/>
<path d="M26.3403 22.8302C26.3999 22.971 26.3407 23.1364 26.2082 23.1996C26.0755 23.2629 25.9197 23.2001 25.8602 23.0593C25.8005 22.9184 25.8596 22.7528 25.9923 22.6896C26.1249 22.6264 26.2807 22.6893 26.3403 22.8302Z" fill="white"/>
<path d="M26.3403 22.8302C26.3999 22.971 26.3407 23.1364 26.2082 23.1996C26.0755 23.2629 25.9197 23.2001 25.8602 23.0593C25.8005 22.9184 25.8596 22.7528 25.9923 22.6896C26.1249 22.6264 26.2807 22.6893 26.3403 22.8302Z" fill="white"/>
<path d="M31.4017 18.3287C31.491 18.5399 31.4022 18.7882 31.2032 18.8831C31.0045 18.9779 30.7707 18.8836 30.6813 18.6723C30.5919 18.461 30.6806 18.2128 30.8796 18.118C31.0784 18.023 31.3122 18.1174 31.4017 18.3287Z" fill="white"/>
<path d="M31.4017 18.3287C31.491 18.5399 31.4022 18.7882 31.2032 18.8831C31.0045 18.9779 30.7707 18.8836 30.6813 18.6723C30.5919 18.461 30.6806 18.2128 30.8796 18.118C31.0784 18.023 31.3122 18.1174 31.4017 18.3287Z" fill="white"/>
<path d="M31.2658 19.9195C31.3552 20.1308 31.2664 20.379 31.0676 20.4739C30.8686 20.5688 30.6349 20.4745 30.5456 20.2632C30.4561 20.052 30.5449 19.8038 30.7438 19.7089C30.9428 19.6138 31.1764 19.7082 31.2658 19.9195Z" fill="white"/>
<path d="M31.2658 19.9195C31.3552 20.1308 31.2664 20.379 31.0676 20.4739C30.8686 20.5688 30.6349 20.4745 30.5456 20.2632C30.4561 20.052 30.5449 19.8038 30.7438 19.7089C30.9428 19.6138 31.1764 19.7082 31.2658 19.9195Z" fill="white"/>
<path d="M34.0116 18.3116C34.1308 18.5933 34.0124 18.9243 33.7472 19.0508C33.482 19.1774 33.1704 19.0516 33.0512 18.7699C32.9321 18.4881 33.0505 18.1572 33.3156 18.0307C33.5808 17.9042 33.8924 18.0298 34.0116 18.3116Z" fill="white"/>
<path d="M34.0116 18.3116C34.1308 18.5933 34.0124 18.9243 33.7472 19.0508C33.482 19.1774 33.1704 19.0516 33.0512 18.7699C32.9321 18.4881 33.0505 18.1572 33.3156 18.0307C33.5808 17.9042 33.8924 18.0298 34.0116 18.3116Z" fill="white"/>
<path d="M33.1943 16.8654C33.3134 17.1471 33.1951 17.4781 32.93 17.6046C32.6648 17.731 32.3531 17.6054 32.234 17.3237C32.1146 17.0419 32.233 16.7109 32.4982 16.5844C32.7635 16.4578 33.0751 16.5837 33.1943 16.8654Z" fill="white"/>
<path d="M33.1943 16.8654C33.3134 17.1471 33.1951 17.4781 32.93 17.6046C32.6648 17.731 32.3531 17.6054 32.234 17.3237C32.1146 17.0419 32.233 16.7109 32.4982 16.5844C32.7635 16.4578 33.0751 16.5837 33.1943 16.8654Z" fill="white"/>
<path d="M12.7602 30.6127C12.6411 30.331 12.7595 29.9999 13.0247 29.8734C13.2898 29.747 13.6014 29.8727 13.7206 30.1544C13.8398 30.4361 13.7215 30.7671 13.4562 30.8936C13.191 31.0202 12.8795 30.8944 12.7602 30.6127Z" fill="white"/>
<path d="M12.7602 30.6127C12.6411 30.331 12.7595 29.9999 13.0247 29.8734C13.2898 29.747 13.6014 29.8727 13.7206 30.1544C13.8398 30.4361 13.7215 30.7671 13.4562 30.8936C13.191 31.0202 12.8795 30.8944 12.7602 30.6127Z" fill="white"/>
<path d="M13.0328 28.1537C12.9135 27.8719 13.0318 27.5411 13.2971 27.4145C13.5623 27.2879 13.874 27.4138 13.9931 27.6954C14.1123 27.9771 13.9939 28.3081 13.7288 28.4346C13.4636 28.5612 13.1519 28.4354 13.0328 28.1537Z" fill="white"/>
<path d="M13.0328 28.1537C12.9135 27.8719 13.0318 27.5411 13.2971 27.4145C13.5623 27.2879 13.874 27.4138 13.9931 27.6954C14.1123 27.9771 13.9939 28.3081 13.7288 28.4346C13.4636 28.5612 13.1519 28.4354 13.0328 28.1537Z" fill="white"/>
<path d="M13.1695 29.4545C13.0502 29.1728 13.1686 28.8418 13.4339 28.7153C13.6991 28.5887 14.0107 28.7145 14.1299 28.9962C14.249 29.2779 14.1306 29.6088 13.8655 29.7354C13.6003 29.8619 13.2887 29.7362 13.1695 29.4545Z" fill="white"/>
<path d="M13.1695 29.4545C13.0502 29.1728 13.1686 28.8418 13.4339 28.7153C13.6991 28.5887 14.0107 28.7145 14.1299 28.9962C14.249 29.2779 14.1306 29.6088 13.8655 29.7354C13.6003 29.8619 13.2887 29.7362 13.1695 29.4545Z" fill="white"/>
<path d="M13.9849 31.0463C13.8657 30.7645 13.984 30.4336 14.2492 30.3071C14.5144 30.1804 14.826 30.3063 14.9452 30.588C15.0644 30.8697 14.946 31.2007 14.6809 31.3271C14.4157 31.4538 14.104 31.328 13.9849 31.0463Z" fill="white"/>
<path d="M13.9849 31.0463C13.8657 30.7645 13.984 30.4336 14.2492 30.3071C14.5144 30.1804 14.826 30.3063 14.9452 30.588C15.0644 30.8697 14.946 31.2007 14.6809 31.3271C14.4157 31.4538 14.104 31.328 13.9849 31.0463Z" fill="white"/>
<path d="M14.2583 28.5862C14.1391 28.3046 14.2575 27.9736 14.5227 27.847C14.7879 27.7206 15.0995 27.8463 15.2187 28.128C15.3378 28.4097 15.2194 28.7406 14.9543 28.8673C14.6891 28.9938 14.3775 28.8679 14.2583 28.5862Z" fill="white"/>
<path d="M14.2583 28.5862C14.1391 28.3046 14.2575 27.9736 14.5227 27.847C14.7879 27.7206 15.0995 27.8463 15.2187 28.128C15.3378 28.4097 15.2194 28.7406 14.9543 28.8673C14.6891 28.9938 14.3775 28.8679 14.2583 28.5862Z" fill="white"/>
<path d="M15.7535 28.8763C15.6342 28.5946 15.7526 28.2636 16.0178 28.1371C16.283 28.0106 16.5945 28.1363 16.7138 28.418C16.833 28.6997 16.7147 29.0306 16.4495 29.1573C16.1843 29.2838 15.8727 29.158 15.7535 28.8763Z" fill="white"/>
<path d="M15.7535 28.8763C15.6342 28.5946 15.7526 28.2636 16.0178 28.1371C16.283 28.0106 16.5945 28.1363 16.7138 28.418C16.833 28.6997 16.7147 29.0306 16.4495 29.1573C16.1843 29.2838 15.8727 29.158 15.7535 28.8763Z" fill="white"/>
<path d="M15.6206 30.1782C15.5014 29.8964 15.6198 29.5655 15.8851 29.4389C16.1503 29.3123 16.4618 29.4381 16.5811 29.7199C16.7002 30.0016 16.5818 30.3326 16.3166 30.459C16.0516 30.5855 15.7399 30.4599 15.6206 30.1782Z" fill="white"/>
<path d="M15.6206 30.1782C15.5014 29.8964 15.6198 29.5655 15.8851 29.4389C16.1503 29.3123 16.4618 29.4381 16.5811 29.7199C16.7002 30.0016 16.5818 30.3326 16.3166 30.459C16.0516 30.5855 15.7399 30.4599 15.6206 30.1782Z" fill="white"/>
<path d="M16.5727 31.1908C16.4536 30.909 16.572 30.5781 16.8372 30.4516C17.1023 30.3251 17.4139 30.4507 17.5332 30.7325C17.6523 31.0142 17.5339 31.3452 17.2687 31.4717C17.0036 31.5983 16.692 31.4725 16.5727 31.1908Z" fill="white"/>
<path d="M16.5727 31.1908C16.4536 30.909 16.572 30.5781 16.8372 30.4516C17.1023 30.3251 17.4139 30.4507 17.5332 30.7325C17.6523 31.0142 17.5339 31.3452 17.2687 31.4717C17.0036 31.5983 16.692 31.4725 16.5727 31.1908Z" fill="white"/>
<path d="M17.9557 30.8843C17.8663 30.673 17.9551 30.4248 18.154 30.3298C18.3529 30.235 18.5865 30.3294 18.676 30.5406C18.7654 30.7519 18.6766 31 18.4778 31.095C18.2789 31.1899 18.0451 31.0955 17.9557 30.8843Z" fill="white"/>
<path d="M17.9557 30.8843C17.8663 30.673 17.9551 30.4248 18.154 30.3298C18.3529 30.235 18.5865 30.3294 18.676 30.5406C18.7654 30.7519 18.6766 31 18.4778 31.095C18.2789 31.1899 18.0451 31.0955 17.9557 30.8843Z" fill="white"/>
<path d="M19.0456 30.3071C18.9561 30.0959 19.0449 29.8476 19.2439 29.7528C19.4428 29.6579 19.6764 29.7521 19.7658 29.9634C19.8552 30.1747 19.7666 30.4229 19.5676 30.5178C19.3687 30.6127 19.1349 30.5184 19.0456 30.3071Z" fill="white"/>
<path d="M19.0456 30.3071C18.9561 30.0959 19.0449 29.8476 19.2439 29.7528C19.4428 29.6579 19.6764 29.7521 19.7658 29.9634C19.8552 30.1747 19.7666 30.4229 19.5676 30.5178C19.3687 30.6127 19.1349 30.5184 19.0456 30.3071Z" fill="white"/>
<path d="M19.9997 29.5826C19.9102 29.3713 19.999 29.1231 20.1979 29.0282C20.3968 28.9332 20.6305 29.0275 20.72 29.2389C20.8093 29.4502 20.7205 29.6983 20.5216 29.7933C20.3227 29.8882 20.089 29.7939 19.9997 29.5826Z" fill="white"/>
<path d="M19.9997 29.5826C19.9102 29.3713 19.999 29.1231 20.1979 29.0282C20.3968 28.9332 20.6305 29.0275 20.72 29.2389C20.8093 29.4502 20.7205 29.6983 20.5216 29.7933C20.3227 29.8882 20.089 29.7939 19.9997 29.5826Z" fill="white"/>
<path d="M18.2301 27.7016C18.1407 27.4903 18.2295 27.2421 18.4283 27.1473C18.6273 27.0523 18.861 27.1467 18.9504 27.358C19.0398 27.5692 18.951 27.8175 18.7522 27.9124C18.5532 28.0073 18.3195 27.9129 18.2301 27.7016Z" fill="white"/>
<path d="M18.2301 27.7016C18.1407 27.4903 18.2295 27.2421 18.4283 27.1473C18.6273 27.0523 18.861 27.1467 18.9504 27.358C19.0398 27.5692 18.951 27.8175 18.7522 27.9124C18.5532 28.0073 18.3195 27.9129 18.2301 27.7016Z" fill="white"/>
<path d="M18.0944 29.2935C18.0049 29.0822 18.0937 28.834 18.2926 28.7391C18.4916 28.6441 18.7253 28.7386 18.8147 28.9499C18.9041 29.1612 18.8153 29.4093 18.6164 29.5042C18.4175 29.5992 18.1837 29.5048 18.0944 29.2935Z" fill="white"/>
<path d="M18.0944 29.2935C18.0049 29.0822 18.0937 28.834 18.2926 28.7391C18.4916 28.6441 18.7253 28.7386 18.8147 28.9499C18.9041 29.1612 18.8153 29.4093 18.6164 29.5042C18.4175 29.5992 18.1837 29.5048 18.0944 29.2935Z" fill="white"/>
<path d="M19.0456 28.7153C18.9561 28.504 19.0449 28.2559 19.2439 28.1609C19.4428 28.066 19.6764 28.1604 19.7658 28.3717C19.8552 28.5829 19.7666 28.8312 19.5676 28.926C19.3687 29.0209 19.1349 28.9267 19.0456 28.7153Z" fill="white"/>
<path d="M19.0456 28.7153C18.9561 28.504 19.0449 28.2559 19.2439 28.1609C19.4428 28.066 19.6764 28.1604 19.7658 28.3717C19.8552 28.5829 19.7666 28.8312 19.5676 28.926C19.3687 29.0209 19.1349 28.9267 19.0456 28.7153Z" fill="white"/>
<path d="M20.2947 27.2516C20.235 27.1107 20.2943 26.9453 20.4268 26.882C20.5595 26.8188 20.7154 26.8816 20.7749 27.0226C20.8345 27.1634 20.7754 27.3288 20.6427 27.3922C20.5101 27.4554 20.3544 27.3925 20.2947 27.2516Z" fill="white"/>
<path d="M20.2947 27.2516C20.235 27.1107 20.2943 26.9453 20.4268 26.882C20.5595 26.8188 20.7154 26.8816 20.7749 27.0226C20.8345 27.1634 20.7754 27.3288 20.6427 27.3922C20.5101 27.4554 20.3544 27.3925 20.2947 27.2516Z" fill="white"/>
<path d="M19.6139 26.6726C19.5545 26.5317 19.6136 26.3662 19.7463 26.3029C19.8788 26.2397 20.0346 26.3025 20.0943 26.4433C20.1538 26.5843 20.0946 26.7498 19.9621 26.8131C19.8295 26.8763 19.6736 26.8134 19.6139 26.6726Z" fill="white"/>
<path d="M19.6139 26.6726C19.5545 26.5317 19.6136 26.3662 19.7463 26.3029C19.8788 26.2397 20.0346 26.3025 20.0943 26.4433C20.1538 26.5843 20.0946 26.7498 19.9621 26.8131C19.8295 26.8763 19.6736 26.8134 19.6139 26.6726Z" fill="white"/>
<path d="M20.2947 28.5534C20.235 28.4126 20.2943 28.2471 20.4268 28.1838C20.5595 28.1205 20.7154 28.1834 20.7749 28.3242C20.8345 28.465 20.7754 28.6306 20.6427 28.6938C20.5101 28.7571 20.3544 28.6942 20.2947 28.5534Z" fill="white"/>
<path d="M20.2947 28.5534C20.235 28.4126 20.2943 28.2471 20.4268 28.1838C20.5595 28.1205 20.7154 28.1834 20.7749 28.3242C20.8345 28.465 20.7754 28.6306 20.6427 28.6938C20.5101 28.7571 20.3544 28.6942 20.2947 28.5534Z" fill="white"/>
<path d="M19.6139 27.8297C19.5545 27.6888 19.6136 27.5234 19.7463 27.4602C19.8788 27.3969 20.0346 27.4597 20.0943 27.6006C20.1538 27.7414 20.0946 27.9069 19.9621 27.9702C19.8295 28.0334 19.6736 27.9705 19.6139 27.8297Z" fill="white"/>
<path d="M19.6139 27.8297C19.5545 27.6888 19.6136 27.5234 19.7463 27.4602C19.8788 27.3969 20.0346 27.4597 20.0943 27.6006C20.1538 27.7414 20.0946 27.9069 19.9621 27.9702C19.8295 28.0334 19.6736 27.9705 19.6139 27.8297Z" fill="white"/>
<path d="M18.9324 27.1082C18.8727 26.9672 18.932 26.8017 19.0645 26.7385C19.1972 26.6752 19.353 26.7382 19.4126 26.8791C19.4722 27.0199 19.4131 27.1853 19.2804 27.2486C19.1478 27.3118 18.9921 27.249 18.9324 27.1082Z" fill="white"/>
<path d="M18.9324 27.1082C18.8727 26.9672 18.932 26.8017 19.0645 26.7385C19.1972 26.6752 19.353 26.7382 19.4126 26.8791C19.4722 27.0199 19.4131 27.1853 19.2804 27.2486C19.1478 27.3118 18.9921 27.249 18.9324 27.1082Z" fill="white"/>
<path d="M20.9763 29.1306C20.9167 28.9897 20.9759 28.8242 21.1085 28.761C21.2411 28.6977 21.3969 28.7605 21.4565 28.9014C21.5161 29.0422 21.4569 29.2078 21.3243 29.2711C21.1918 29.3343 21.0359 29.2714 20.9763 29.1306Z" fill="white"/>
<path d="M20.9763 29.1306C20.9167 28.9897 20.9759 28.8242 21.1085 28.761C21.2411 28.6977 21.3969 28.7605 21.4565 28.9014C21.5161 29.0422 21.4569 29.2078 21.3243 29.2711C21.1918 29.3343 21.0359 29.2714 20.9763 29.1306Z" fill="white"/>
<path d="M21.656 28.5534C21.5964 28.4126 21.6556 28.2471 21.7882 28.1838C21.9208 28.1205 22.0766 28.1834 22.1362 28.3242C22.1957 28.465 22.1366 28.6306 22.0041 28.6938C21.8714 28.7571 21.7156 28.6942 21.656 28.5534Z" fill="white"/>
<path d="M21.656 28.5534C21.5964 28.4126 21.6556 28.2471 21.7882 28.1838C21.9208 28.1205 22.0766 28.1834 22.1362 28.3242C22.1957 28.465 22.1366 28.6306 22.0041 28.6938C21.8714 28.7571 21.7156 28.6942 21.656 28.5534Z" fill="white"/>
<path d="M22.3376 27.9733C22.2781 27.8325 22.3372 27.667 22.4699 27.6037C22.6024 27.5405 22.7583 27.6033 22.8179 27.7442C22.8775 27.8851 22.8183 28.0506 22.6856 28.1138C22.5531 28.1771 22.3973 28.1143 22.3376 27.9733Z" fill="white"/>
<path d="M22.3376 27.9733C22.2781 27.8325 22.3372 27.667 22.4699 27.6037C22.6024 27.5405 22.7583 27.6033 22.8179 27.7442C22.8775 27.8851 22.8183 28.0506 22.6856 28.1138C22.5531 28.1771 22.3973 28.1143 22.3376 27.9733Z" fill="white"/>
<path d="M21.656 27.3961C21.5964 27.2552 21.6556 27.0899 21.7882 27.0266C21.9208 26.9633 22.0766 27.0261 22.1362 27.167C22.1957 27.3078 22.1366 27.4734 22.0041 27.5367C21.8714 27.6 21.7156 27.537 21.656 27.3961Z" fill="white"/>
<path d="M21.656 27.3961C21.5964 27.2552 21.6556 27.0899 21.7882 27.0266C21.9208 26.9633 22.0766 27.0261 22.1362 27.167C22.1957 27.3078 22.1366 27.4734 22.0041 27.5367C21.8714 27.6 21.7156 27.537 21.656 27.3961Z" fill="white"/>
<path d="M20.9763 27.9754C20.9167 27.8344 20.9759 27.6689 21.1085 27.6057C21.2411 27.5424 21.3969 27.6053 21.4565 27.7463C21.5161 27.8871 21.4569 28.0525 21.3243 28.1158C21.1918 28.179 21.0359 28.1162 20.9763 27.9754Z" fill="white"/>
<path d="M20.9763 27.9754C20.9167 27.8344 20.9759 27.6689 21.1085 27.6057C21.2411 27.5424 21.3969 27.6053 21.4565 27.7463C21.5161 27.8871 21.4569 28.0525 21.3243 28.1158C21.1918 28.179 21.0359 28.1162 20.9763 27.9754Z" fill="white"/>
<path d="M20.2947 26.0944C20.235 25.9536 20.2943 25.788 20.4268 25.7248C20.5595 25.6616 20.7154 25.7244 20.7749 25.8652C20.8345 26.0061 20.7754 26.1716 20.6427 26.2348C20.5101 26.2981 20.3544 26.2353 20.2947 26.0944Z" fill="white"/>
<path d="M20.2947 26.0944C20.235 25.9536 20.2943 25.788 20.4268 25.7248C20.5595 25.6616 20.7154 25.7244 20.7749 25.8652C20.8345 26.0061 20.7754 26.1716 20.6427 26.2348C20.5101 26.2981 20.3544 26.2353 20.2947 26.0944Z" fill="white"/>
<path d="M20.9763 26.6726C20.9167 26.5317 20.9759 26.3662 21.1085 26.3029C21.2411 26.2397 21.3969 26.3025 21.4565 26.4433C21.5161 26.5843 21.4569 26.7498 21.3243 26.8131C21.1918 26.8763 21.0359 26.8134 20.9763 26.6726Z" fill="white"/>
<path d="M20.9763 26.6726C20.9167 26.5317 20.9759 26.3662 21.1085 26.3029C21.2411 26.2397 21.3969 26.3025 21.4565 26.4433C21.5161 26.5843 21.4569 26.7498 21.3243 26.8131C21.1918 26.8763 21.0359 26.8134 20.9763 26.6726Z" fill="white"/>
<path d="M22.1824 26.82C22.1227 26.6792 22.182 26.5137 22.3146 26.4504C22.4472 26.3871 22.603 26.45 22.6626 26.5908C22.7222 26.7316 22.6631 26.8971 22.5304 26.9604C22.3979 27.0237 22.242 26.9608 22.1824 26.82Z" fill="white"/>
<path d="M22.1824 26.82C22.1227 26.6792 22.182 26.5137 22.3146 26.4504C22.4472 26.3871 22.603 26.45 22.6626 26.5908C22.7222 26.7316 22.6631 26.8971 22.5304 26.9604C22.3979 27.0237 22.242 26.9608 22.1824 26.82Z" fill="white"/>
<path d="M22.8639 27.3981C22.8045 27.2573 22.8636 27.0918 22.9963 27.0285C23.1288 26.9653 23.2846 27.0281 23.3443 27.1689C23.4038 27.3099 23.3446 27.4754 23.2121 27.5386C23.0794 27.6019 22.9236 27.539 22.8639 27.3981Z" fill="white"/>
<path d="M22.8639 27.3981C22.8045 27.2573 22.8636 27.0918 22.9963 27.0285C23.1288 26.9653 23.2846 27.0281 23.3443 27.1689C23.4038 27.3099 23.3446 27.4754 23.2121 27.5386C23.0794 27.6019 22.9236 27.539 22.8639 27.3981Z" fill="white"/>
<path d="M23.2731 26.82C23.2137 26.6792 23.2728 26.5137 23.4054 26.4504C23.5379 26.3871 23.6938 26.45 23.7535 26.5908C23.8129 26.7316 23.7538 26.8971 23.6211 26.9604C23.4886 27.0237 23.3328 26.9608 23.2731 26.82Z" fill="white"/>
<path d="M23.2731 26.82C23.2137 26.6792 23.2728 26.5137 23.4054 26.4504C23.5379 26.3871 23.6938 26.45 23.7535 26.5908C23.8129 26.7316 23.7538 26.8971 23.6211 26.9604C23.4886 27.0237 23.3328 26.9608 23.2731 26.82Z" fill="white"/>
<path d="M22.7293 26.242C22.6696 26.1011 22.7288 25.9355 22.8614 25.8723C22.9941 25.809 23.1499 25.8719 23.2094 26.0128C23.2691 26.1536 23.2099 26.3191 23.0773 26.3824C22.9447 26.4456 22.7888 26.3828 22.7293 26.242Z" fill="white"/>
<path d="M22.7293 26.242C22.6696 26.1011 22.7288 25.9355 22.8614 25.8723C22.9941 25.809 23.1499 25.8719 23.2094 26.0128C23.2691 26.1536 23.2099 26.3191 23.0773 26.3824C22.9447 26.4456 22.7888 26.3828 22.7293 26.242Z" fill="white"/>
<path d="M21.658 26.0944C21.5983 25.9536 21.6576 25.788 21.7901 25.7248C21.9228 25.6616 22.0787 25.7244 22.1382 25.8652C22.1978 26.0061 22.1387 26.1716 22.006 26.2348C21.8733 26.2981 21.7177 26.2353 21.658 26.0944Z" fill="white"/>
<path d="M21.658 26.0944C21.5983 25.9536 21.6576 25.788 21.7901 25.7248C21.9228 25.6616 22.0787 25.7244 22.1382 25.8652C22.1978 26.0061 22.1387 26.1716 22.006 26.2348C21.8733 26.2981 21.7177 26.2353 21.658 26.0944Z" fill="white"/>
<path d="M20.9763 25.3709C20.9167 25.2299 20.9759 25.0644 21.1085 25.0012C21.2411 24.9379 21.3969 25.0008 21.4565 25.1417C21.5161 25.2825 21.4569 25.448 21.3243 25.5113C21.1918 25.5746 21.0359 25.5117 20.9763 25.3709Z" fill="white"/>
<path d="M20.9763 25.3709C20.9167 25.2299 20.9759 25.0644 21.1085 25.0012C21.2411 24.9379 21.3969 25.0008 21.4565 25.1417C21.5161 25.2825 21.4569 25.448 21.3243 25.5113C21.1918 25.5746 21.0359 25.5117 20.9763 25.3709Z" fill="white"/>
<path d="M21.5037 24.7945C21.4441 24.6537 21.5032 24.4883 21.6358 24.425C21.7684 24.3617 21.9243 24.4246 21.9838 24.5654C22.0434 24.7063 21.9842 24.8719 21.8517 24.9351C21.719 24.9983 21.5632 24.9355 21.5037 24.7945Z" fill="white"/>
<path d="M21.5037 24.7945C21.4441 24.6537 21.5032 24.4883 21.6358 24.425C21.7684 24.3617 21.9243 24.4246 21.9838 24.5654C22.0434 24.7063 21.9842 24.8719 21.8517 24.9351C21.719 24.9983 21.5632 24.9355 21.5037 24.7945Z" fill="white"/>
<path d="M22.0476 25.5183C21.988 25.3774 22.0473 25.2119 22.1798 25.1487C22.3124 25.0854 22.4682 25.1482 22.5278 25.2891C22.5874 25.43 22.5282 25.5955 22.3956 25.6588C22.263 25.722 22.1073 25.6591 22.0476 25.5183Z" fill="white"/>
<path d="M22.0476 25.5183C21.988 25.3774 22.0473 25.2119 22.1798 25.1487C22.3124 25.0854 22.4682 25.1482 22.5278 25.2891C22.5874 25.43 22.5282 25.5955 22.3956 25.6588C22.263 25.722 22.1073 25.6591 22.0476 25.5183Z" fill="white"/>
<path d="M17.0036 29.8726C16.9141 29.6613 17.0029 29.4131 17.2018 29.3181C17.4008 29.2233 17.6345 29.3177 17.7239 29.5289C17.8133 29.7402 17.7245 29.9885 17.5256 30.0833C17.3267 30.1782 17.0929 30.0838 17.0036 29.8726Z" fill="white"/>
<path d="M17.0036 29.8726C16.9141 29.6613 17.0029 29.4131 17.2018 29.3181C17.4008 29.2233 17.6345 29.3177 17.7239 29.5289C17.8133 29.7402 17.7245 29.9885 17.5256 30.0833C17.3267 30.1782 17.0929 30.0838 17.0036 29.8726Z" fill="white"/>
<path d="M17.1393 28.2807C17.0499 28.0695 17.1387 27.8212 17.3375 27.7263C17.5365 27.6315 17.7701 27.7258 17.8596 27.9371C17.9489 28.1484 17.8601 28.3965 17.6614 28.4914C17.4624 28.5864 17.2287 28.492 17.1393 28.2807Z" fill="white"/>
<path d="M17.1393 28.2807C17.0499 28.0695 17.1387 27.8212 17.3375 27.7263C17.5365 27.6315 17.7701 27.7258 17.8596 27.9371C17.9489 28.1484 17.8601 28.3965 17.6614 28.4914C17.4624 28.5864 17.2287 28.492 17.1393 28.2807Z" fill="white"/>
<path d="M14.3951 29.889C14.2758 29.6074 14.3942 29.2764 14.6594 29.1498C14.9246 29.0233 15.2363 29.1491 15.3554 29.4307C15.4746 29.7124 15.3563 30.0434 15.0911 30.1699C14.8259 30.2965 14.5142 30.1707 14.3951 29.889Z" fill="white"/>
<path d="M14.3951 29.889C14.2758 29.6074 14.3942 29.2764 14.6594 29.1498C14.9246 29.0233 15.2363 29.1491 15.3554 29.4307C15.4746 29.7124 15.3563 30.0434 15.0911 30.1699C14.8259 30.2965 14.5142 30.1707 14.3951 29.889Z" fill="white"/>
<path d="M15.2134 31.3352C15.0942 31.0535 15.2126 30.7226 15.4778 30.5961C15.743 30.4696 16.0546 30.5954 16.1738 30.877C16.293 31.1588 16.1747 31.4897 15.9094 31.6162C15.6443 31.7428 15.3326 31.6169 15.2134 31.3352Z" fill="white"/>
<path d="M15.2134 31.3352C15.0942 31.0535 15.2126 30.7226 15.4778 30.5961C15.743 30.4696 16.0546 30.5954 16.1738 30.877C16.293 31.1588 16.1747 31.4897 15.9094 31.6162C15.6443 31.7428 15.3326 31.6169 15.2134 31.3352Z" fill="white"/>
<path d="M68.337 23.5399C66.3996 23.5399 64.9203 23.0424 63.8992 22.0475C62.8912 21.0395 62.3872 19.5733 62.3872 17.649V9.51953H65.3916V17.7864C65.3916 18.8861 65.6403 19.7239 66.1378 20.2999C66.6483 20.8759 67.3814 21.1639 68.337 21.1639C69.2927 21.1639 70.0257 20.8759 70.5363 20.2999C71.0468 19.7108 71.3021 18.873 71.3021 17.7864V9.51953H74.3065V17.649C74.3065 19.5603 73.7959 21.0199 72.7748 22.0279C71.7538 23.0359 70.2745 23.5399 68.337 23.5399ZM78.3457 23.3632V9.51953H81.409V20.8694H87.5944V23.3632H78.3457ZM91.5202 23.3632V12.0133H87.1805V9.51953H98.9231V12.0133H94.5834V23.3632H91.5202ZM110.698 23.3632L109.382 20.2999H102.942L101.626 23.3632H98.5435L104.906 9.51953H107.36L113.722 23.3632H110.698ZM103.944 17.9828H108.381L106.162 12.7988L103.944 17.9828ZM116.244 23.3632V9.51953H119.308V23.3632H116.244ZM132.569 9.51953H135.436V23.3632H133.158L126.265 14.5464V23.3632H123.418V9.51953H125.676L132.569 18.297V9.51953ZM139.547 23.3632V9.51953H148.894V11.9348H142.571V15.1159H148.501V17.5312H142.571V23.3632H139.547ZM152.148 23.3632V9.51953H155.212V23.3632H152.148ZM168.473 9.51953H171.34V23.3632H169.062L162.169 14.5464V23.3632H159.322V9.51953H161.58L168.473 18.297V9.51953ZM175.451 23.3632V9.51953H178.514V23.3632H175.451ZM185.826 23.3632V12.0133H181.486V9.51953H193.229V12.0133H188.889V23.3632H185.826ZM208.704 9.51953L202.97 17.0992V23.3632H199.907V17.0992L194.193 9.51953H197.669L201.419 14.6446L205.229 9.51953H208.704Z" fill="white"/>
<path opacity="0.5" d="M70.8391 36.3326V40.4726C70.4311 40.6726 69.9512 40.8286 69.3992 40.9406C68.8472 41.0527 68.2791 41.1086 67.6952 41.1086C66.7992 41.1086 66.0231 40.9366 65.3671 40.5926C64.7112 40.2406 64.2072 39.7406 63.8551 39.0926C63.5031 38.4367 63.3271 37.6606 63.3271 36.7646C63.3271 35.8846 63.4992 35.1206 63.8431 34.4726C64.1952 33.8167 64.6951 33.3127 65.3431 32.9606C65.9911 32.6086 66.7472 32.4326 67.6112 32.4326C68.2191 32.4326 68.7831 32.5166 69.3031 32.6846C69.8311 32.8526 70.2672 33.0847 70.6111 33.3806L70.0232 34.7126C69.6312 34.4326 69.2472 34.2326 68.8711 34.1126C68.5032 33.9847 68.1032 33.9206 67.6712 33.9206C66.0392 33.9206 65.2231 34.8686 65.2231 36.7646C65.2231 37.7407 65.4351 38.4686 65.8591 38.9486C66.2832 39.4286 66.9231 39.6686 67.7791 39.6686C68.2431 39.6686 68.7031 39.6086 69.1591 39.4886V37.6286H67.5031V36.3326H70.8391ZM76.7902 41.0006V32.5406H78.6622V39.4766H82.4422V41.0006H76.7902ZM91.323 41.1086C90.483 41.1086 89.751 40.9327 89.127 40.5806C88.511 40.2206 88.035 39.7166 87.699 39.0686C87.363 38.4127 87.195 37.6447 87.195 36.7646C87.195 35.8846 87.363 35.1206 87.699 34.4726C88.035 33.8167 88.511 33.3127 89.127 32.9606C89.751 32.6086 90.483 32.4326 91.323 32.4326C92.163 32.4326 92.891 32.6086 93.507 32.9606C94.131 33.3127 94.611 33.8167 94.947 34.4726C95.283 35.1206 95.451 35.8846 95.451 36.7646C95.451 37.6447 95.283 38.4127 94.947 39.0686C94.611 39.7166 94.131 40.2206 93.507 40.5806C92.891 40.9327 92.163 41.1086 91.323 41.1086ZM91.323 39.6566C92.027 39.6566 92.579 39.4087 92.979 38.9126C93.387 38.4166 93.591 37.7006 93.591 36.7646C93.591 35.8286 93.3911 35.1166 92.991 34.6286C92.591 34.1326 92.0351 33.8846 91.323 33.8846C90.611 33.8846 90.0551 34.1326 89.655 34.6286C89.2631 35.1166 89.067 35.8286 89.067 36.7646C89.067 37.7006 89.267 38.4166 89.667 38.9126C90.0671 39.4087 90.6191 39.6566 91.323 39.6566ZM106.68 36.6206C107.168 36.7646 107.544 37.0166 107.808 37.3766C108.08 37.7287 108.216 38.1646 108.216 38.6846C108.216 39.3967 107.952 39.9607 107.424 40.3766C106.904 40.7926 106.184 41.0006 105.264 41.0006H101.244V32.5406H105.144C106.024 32.5406 106.72 32.7367 107.232 33.1286C107.752 33.5206 108.012 34.0567 108.012 34.7366C108.012 35.1766 107.892 35.5646 107.652 35.9006C107.42 36.2287 107.096 36.4687 106.68 36.6206ZM103.068 35.9846H104.832C105.312 35.9846 105.664 35.9047 105.888 35.7446C106.12 35.5766 106.236 35.3246 106.236 34.9886C106.236 34.6366 106.12 34.3807 105.888 34.2206C105.664 34.0526 105.312 33.9686 104.832 33.9686H103.068V35.9846ZM105.048 39.5726C105.544 39.5726 105.904 39.4886 106.128 39.3206C106.352 39.1526 106.464 38.8807 106.464 38.5046C106.464 38.1286 106.352 37.8526 106.128 37.6766C105.904 37.5007 105.544 37.4126 105.048 37.4126H103.068V39.5726H105.048ZM120.337 41.0006L119.533 39.1286H115.597L114.793 41.0006H112.909L116.797 32.5406H118.297L122.185 41.0006H120.337ZM116.209 37.7126H118.921L117.565 34.5446L116.209 37.7126ZM127.257 41.0006V32.5406H129.129V39.4766H132.909V41.0006H127.257ZM153.369 36.3326V40.4726C152.961 40.6726 152.481 40.8286 151.929 40.9406C151.377 41.0527 150.809 41.1086 150.225 41.1086C149.329 41.1086 148.553 40.9366 147.897 40.5926C147.241 40.2406 146.737 39.7406 146.385 39.0926C146.033 38.4367 145.857 37.6606 145.857 36.7646C145.857 35.8846 146.029 35.1206 146.373 34.4726C146.725 33.8167 147.225 33.3127 147.873 32.9606C148.521 32.6086 149.277 32.4326 150.141 32.4326C150.749 32.4326 151.313 32.5166 151.833 32.6846C152.361 32.8526 152.797 33.0847 153.141 33.3806L152.553 34.7126C152.161 34.4326 151.777 34.2326 151.401 34.1126C151.033 33.9847 150.633 33.9206 150.201 33.9206C148.569 33.9206 147.753 34.8686 147.753 36.7646C147.753 37.7407 147.965 38.4686 148.389 38.9486C148.813 39.4286 149.453 39.6686 150.309 39.6686C150.773 39.6686 151.233 39.6086 151.689 39.4886V37.6286H150.033V36.3326H153.369ZM166.664 41.0006H164.624L163.16 38.3006C163.04 38.0926 162.896 37.9447 162.728 37.8566C162.56 37.7606 162.348 37.7126 162.092 37.7126H161.168V41.0006H159.32V32.5406H163.208C164.2 32.5406 164.948 32.7607 165.452 33.2006C165.964 33.6326 166.22 34.2607 166.22 35.0846C166.22 35.7247 166.04 36.2606 165.68 36.6926C165.328 37.1246 164.828 37.4086 164.18 37.5446C164.62 37.6567 164.992 37.9726 165.296 38.4926L166.664 41.0006ZM162.932 36.2966C163.468 36.2966 163.856 36.2047 164.096 36.0206C164.336 35.8286 164.456 35.5327 164.456 35.1326C164.456 34.7246 164.336 34.4287 164.096 34.2446C163.856 34.0606 163.468 33.9686 162.932 33.9686H161.144V36.2966H162.932ZM175.928 41.1086C175.088 41.1086 174.356 40.9327 173.732 40.5806C173.115 40.2206 172.64 39.7166 172.304 39.0686C171.968 38.4127 171.8 37.6447 171.8 36.7646C171.8 35.8846 171.968 35.1206 172.304 34.4726C172.64 33.8167 173.115 33.3127 173.732 32.9606C174.356 32.6086 175.088 32.4326 175.928 32.4326C176.768 32.4326 177.495 32.6086 178.112 32.9606C178.736 33.3127 179.216 33.8167 179.552 34.4726C179.888 35.1206 180.056 35.8846 180.056 36.7646C180.056 37.6447 179.888 38.4127 179.552 39.0686C179.216 39.7166 178.736 40.2206 178.112 40.5806C177.495 40.9327 176.768 41.1086 175.928 41.1086ZM175.928 39.6566C176.631 39.6566 177.183 39.4087 177.584 38.9126C177.992 38.4166 178.196 37.7006 178.196 36.7646C178.196 35.8286 177.995 35.1166 177.596 34.6286C177.195 34.1326 176.639 33.8846 175.928 33.8846C175.215 33.8846 174.659 34.1326 174.26 34.6286C173.867 35.1166 173.672 35.8286 173.672 36.7646C173.672 37.7006 173.871 38.4166 174.272 38.9126C174.671 39.4087 175.223 39.6566 175.928 39.6566ZM189.436 41.1086C188.252 41.1086 187.348 40.8046 186.724 40.1966C186.108 39.5806 185.8 38.6846 185.8 37.5086V32.5406H187.636V37.5926C187.636 38.2646 187.788 38.7766 188.092 39.1286C188.404 39.4807 188.852 39.6566 189.436 39.6566C190.02 39.6566 190.468 39.4807 190.78 39.1286C191.092 38.7686 191.248 38.2567 191.248 37.5926V32.5406H193.084V37.5086C193.084 38.6767 192.772 39.5686 192.148 40.1846C191.524 40.8007 190.62 41.1086 189.436 41.1086ZM199.083 32.5406H202.971C203.891 32.5406 204.606 32.7727 205.119 33.2366C205.631 33.7006 205.887 34.3486 205.887 35.1806C205.887 36.0127 205.631 36.6607 205.119 37.1246C204.606 37.5886 203.891 37.8206 202.971 37.8206H200.955V41.0006H199.083V32.5406ZM202.731 36.4046C203.667 36.4046 204.135 36.0007 204.135 35.1926C204.135 34.7767 204.018 34.4686 203.787 34.2686C203.555 34.0687 203.202 33.9686 202.731 33.9686H200.955V36.4046H202.731Z" fill="white" fill-opacity="0.5"/>
<defs>
<linearGradient id="paint0_linear_3888_17640" x1="1.09055" y1="42.5455" x2="52.3633" y2="13.0909" gradientUnits="userSpaceOnUse">
<stop stop-color="#4838FA"/>
<stop offset="1" stop-color="#8055FA"/>
</linearGradient>
</defs>
</svg>
