<svg width="257" height="61" viewBox="0 0 257 61" fill="none" xmlns="http://www.w3.org/2000/svg">
<path d="M0.259134 13.8167C0.285105 11.0783 2.76144 8.08993 5.78966 7.14207L26.5003 0.658466C29.5285 -0.289403 31.9607 1.16215 31.9347 3.9006V3.9006C31.8686 10.7471 27.3966 16.856 20.8625 18.9015L11.1891 21.9297C5.73644 23.6367 0.203987 19.5301 0.259134 13.8167V13.8167Z" fill="#8A6EE6"/>
<path d="M45.6209 6.54926H8.82985C3.95326 6.54926 0 10.5025 0 15.3791V52.1701C0 57.0467 3.95326 61 8.82985 61H45.6209C50.4975 61 54.4507 57.0467 54.4507 52.1701V15.3791C54.4507 10.5025 50.4975 6.54926 45.6209 6.54926Z" fill="url(#paint0_linear_1432_3010)"/>
<mask id="mask0_1432_3010" style="mask-type:alpha" maskUnits="userSpaceOnUse" x="0" y="6" width="55" height="55">
<path d="M45.6209 6.54926H8.82985C3.95326 6.54926 0 10.5025 0 15.3791V52.1701C0 57.0467 3.95326 61 8.82985 61H45.6209C50.4975 61 54.4507 57.0467 54.4507 52.1701V15.3791C54.4507 10.5025 50.4975 6.54926 45.6209 6.54926Z" fill="url(#paint1_linear_1432_3010)" fill-opacity="0.8"/>
<path d="M45.6209 6.54926H8.82985C3.95326 6.54926 0 10.5025 0 15.3791V52.1701C0 57.0467 3.95326 61 8.82985 61H45.6209C50.4975 61 54.4507 57.0467 54.4507 52.1701V15.3791C54.4507 10.5025 50.4975 6.54926 45.6209 6.54926Z" fill="url(#paint2_linear_1432_3010)"/>
</mask>
<g mask="url(#mask0_1432_3010)">
<g opacity="0.75" filter="url(#filter0_f_1432_3010)">
<path opacity="0.75" d="M18.2922 27.1629C32.506 27.1629 44.0287 21.6197 44.0287 14.7818C44.0287 7.94394 32.506 2.40076 18.2922 2.40076C4.07829 2.40076 -7.44434 7.94394 -7.44434 14.7818C-7.44434 21.6197 4.07829 27.1629 18.2922 27.1629Z" fill="#1C5AF6"/>
</g>
<g style="mix-blend-mode:soft-light">
<path d="M45.6209 6.54926H8.82985C3.95326 6.54926 0 10.5025 0 15.3791V52.1701C0 57.0467 3.95326 61 8.82985 61H45.6209C50.4975 61 54.4507 57.0467 54.4507 52.1701V15.3791C54.4507 10.5025 50.4975 6.54926 45.6209 6.54926Z" fill="white" fill-opacity="0.07"/>
</g>
<g filter="url(#filter1_dd_1432_3010)">
<path d="M29.4633 17.3684H30.2464C31.4494 17.4162 32.6538 17.6393 33.7691 18.0994C34.5252 18.4105 35.2706 18.805 35.8282 19.4156C36.1522 19.7699 36.4074 20.1887 36.5722 20.6402C36.7598 21.1641 36.83 21.7272 36.803 22.2818C36.7747 22.8008 36.6613 23.3199 36.4385 23.7911C36.263 24.1384 36.0888 24.4889 35.8606 24.8056C35.5743 25.208 35.2084 25.5618 34.7683 25.7905C34.2417 26.0621 33.6206 26.1688 33.0386 26.0389C32.2798 25.8826 31.629 25.3041 31.3711 24.5766C31.3239 24.3533 31.3549 24.1116 31.4522 23.9053C31.5116 23.7722 31.6668 23.7347 31.7978 23.7179C32.084 23.6847 32.3554 23.8032 32.6363 23.8292C32.8253 23.854 32.9806 23.7041 33.0697 23.5529C33.1696 23.4011 33.1885 23.2159 33.1899 23.039C33.1899 22.7395 33.1953 22.4366 33.1318 22.1419C33.0818 21.8922 32.9495 21.6694 32.8118 21.4587C32.5985 21.1393 32.2744 20.9178 31.9436 20.7342C31.417 20.4264 30.8054 20.3027 30.2032 20.2606C29.6874 20.2192 29.1662 20.2452 28.6586 20.3516C27.7161 20.559 26.8709 21.1042 26.2187 21.8063C25.6719 22.3799 25.2223 23.0709 25.0414 23.8497C24.8658 24.5999 24.9428 25.4108 25.2776 26.107C25.5612 26.7019 26.0054 27.2079 26.5212 27.6138C27.2759 28.2392 28.0942 28.7831 28.9462 29.2659C29.4579 29.563 30.0007 29.8003 30.534 30.0558C31.07 30.3153 31.5993 30.5878 32.1232 30.8713C32.4459 31.0514 32.7767 31.2208 33.0954 31.4101C33.5598 31.6887 34.0014 32.0074 34.4118 32.3622C34.7183 32.6212 34.9897 32.9182 35.2868 33.188C35.6851 33.5664 36.0483 33.9792 36.3845 34.4127C36.5965 34.6897 36.8044 34.9714 36.9853 35.2711C37.4511 36.0389 37.7657 36.8989 37.8994 37.7877C37.9467 38.0858 37.9656 38.3874 37.9831 38.6885V39.1746C37.9575 39.8443 37.8981 40.5151 37.7576 41.1715C37.547 42.1974 37.1649 43.1907 36.61 44.0804C36.1293 44.8538 35.5244 45.546 34.8385 46.1436C34.1809 46.7074 33.4653 47.2035 32.7159 47.6388C31.7681 48.1854 30.7554 48.6228 29.6996 48.9147C28.8435 49.1575 27.9592 49.2758 27.0775 49.3716C26.9681 49.5434 26.8668 49.7205 26.7642 49.8966C26.5171 50.3346 26.316 50.8083 25.9717 51.1828C25.6192 51.5828 25.1291 51.8887 24.5877 51.9287C24.1435 51.9662 23.6952 51.8047 23.3522 51.5231C22.9188 51.1569 22.665 50.603 22.6069 50.0432C22.5786 49.8731 22.6906 49.6838 22.8675 49.6555C23.3806 49.5539 23.8883 49.4016 24.3568 49.1672C24.4229 49.1329 24.4932 49.1059 24.5499 49.0579C24.5782 48.976 24.4797 48.9358 24.4176 48.9185C23.9936 48.8108 23.5629 48.7214 23.1429 48.595C22.5813 48.4324 22.0304 48.2364 21.4903 48.0123C21.0812 47.8405 20.6721 47.6615 20.2967 47.4228C19.6824 46.9667 19.095 46.4574 18.6454 45.8338C18.2039 45.2187 18.0594 44.4509 18 43.711V43.252C18.0189 43.0751 18.0432 42.8982 18.0864 42.7254C18.2646 41.9676 18.7183 41.2928 19.3057 40.7894C20.1009 40.1043 21.1622 39.7182 22.2154 39.7914C23.0673 39.8462 23.8842 40.1894 24.5647 40.6968C25.2668 41.2177 25.8407 41.8982 26.2903 42.6452C26.7831 43.4674 27.1409 44.3716 27.334 45.311C27.3529 45.3999 27.361 45.492 27.3948 45.5776C27.7985 45.4898 28.1873 45.3478 28.5708 45.1992C29.3998 44.8649 30.1843 44.4188 30.8797 43.856C31.44 43.401 31.945 42.872 32.3406 42.2668C32.7497 41.6401 33.0481 40.9331 33.1615 40.1908C33.1953 39.9472 33.2425 39.7022 33.225 39.4554C33.2007 39.1668 33.1426 38.8813 33.0535 38.6061C32.7956 37.8228 32.3014 37.1404 31.7303 36.5552C31.0012 35.7937 30.1654 35.1377 29.2635 34.5936C27.8971 33.8056 26.5266 33.0233 25.1507 32.2526C23.8059 31.5181 22.5705 30.5727 21.5565 29.4215C20.9637 28.768 20.4979 27.993 20.2427 27.1466C19.9443 26.1715 19.9538 25.1289 20.1131 24.13C20.3183 22.8657 20.8895 21.6626 21.7468 20.7102C22.3018 20.0861 22.962 19.563 23.6695 19.1218C24.454 18.6349 25.2898 18.2277 26.1701 17.9447C27.2327 17.5955 28.3467 17.4138 29.4633 17.3684ZM20.6464 42.9409C20.5208 43.1607 20.4938 43.4213 20.5019 43.67C20.5222 44.0459 20.7193 44.3959 20.9948 44.6465C21.3688 44.9918 21.84 45.2041 22.3126 45.3783C22.561 45.4649 22.8054 45.5654 23.0592 45.6351C23.4819 45.7555 23.9153 45.8263 24.346 45.903C24.4905 45.9267 24.6322 45.9626 24.7794 45.9613C24.5107 45.0156 24.0327 44.1288 23.39 43.3862C23.1821 43.1429 22.9512 42.9168 22.6839 42.7391C22.3841 42.5372 22.0371 42.3908 21.6726 42.3732C21.2608 42.3562 20.8584 42.5922 20.6464 42.9409Z" fill="white"/>
</g>
</g>
<path d="M76.3344 29.126V28.664C76.3344 25.619 74.7174 24.065 71.8404 24.065C69.2154 24.065 67.3674 25.493 67.3674 27.992C67.3674 29.63 68.1234 30.911 69.6354 31.898L72.1974 33.578C73.2684 34.271 73.7724 34.859 73.7724 35.846C73.7724 36.791 73.1634 37.547 72.0714 37.547C70.9794 37.547 69.9714 37.001 69.9714 34.88V34.292H67.2204V34.88C67.2204 37.988 68.8584 39.857 72.0714 39.857C75.0954 39.857 76.7334 38.261 76.7334 35.594C76.7334 33.326 75.7464 32.402 74.1504 31.331L71.2104 29.378C70.6014 28.979 70.2444 28.559 70.2444 27.656C70.2444 26.816 70.9584 26.375 71.7774 26.375C72.9114 26.375 73.5834 27.11 73.5834 28.958V29.126H76.3344ZM78.4855 24.338V35.426C78.4855 38.198 79.9555 39.773 83.2945 39.773C86.6545 39.773 88.0825 38.156 88.0825 35.426V24.338H85.2055V35.006C85.2055 36.707 84.7225 37.463 83.2945 37.463C81.9295 37.463 81.3625 36.665 81.3625 35.006V24.338H78.4855ZM90.175 24.338V39.5H92.863V25.787H92.884L95.761 39.5H97.819L100.696 25.766H100.717V39.5H103.405V24.338H98.806L96.79 34.187L94.774 24.338H90.175ZM108.392 33.074H110.492C111.815 33.074 112.214 34.124 112.214 35.279V37.022C112.214 37.988 112.34 39.038 112.907 39.5H115.784V39.038C115.112 39.038 115.091 37.883 115.091 36.497V34.565C115.091 33.473 114.671 32.192 113.012 31.856C114.356 31.667 115.301 30.512 115.301 28.265C115.301 26.081 113.831 24.338 111.5 24.338H105.515V39.5H108.392V33.074ZM108.392 26.585H110.261C111.542 26.585 112.361 27.026 112.361 28.685C112.361 30.407 111.353 30.911 110.324 30.911H108.392V26.585ZM116.341 39.5H119.428L120.331 35.552H123.586L124.3 39.5H127.408L124.048 24.338H120.184L116.341 39.5ZM120.688 33.305L122.074 26.249L123.229 33.305H120.688Z" fill="#323B4B"/>
<path opacity="0.75" d="M146.445 24.3806V39.5H144.763V27.0466C144.763 26.8245 144.774 26.4963 144.794 26.0623C144.815 25.6282 144.825 25.3188 144.825 25.1343H144.763C144.702 25.4009 144.616 25.7461 144.507 26.1699C144.398 26.5938 144.316 26.9219 144.261 27.1543L141.087 39.5H139.093L135.925 26.9851C135.702 26.0657 135.555 25.4487 135.484 25.1343H135.438C135.438 25.4111 135.448 25.7427 135.468 26.1289C135.492 26.5117 135.504 26.8313 135.504 27.0876V39.5H133.823V24.3806H136.786L139.744 36.1829C139.871 36.7195 139.977 37.4612 140.062 38.408H140.103C140.26 37.2595 140.385 36.511 140.477 36.1624L143.482 24.3806H146.445ZM148.188 39.5L152.495 24.3806H154.72L158.96 39.5H157.114L155.915 35.1523H151.152L150.039 39.5H148.188ZM155.54 33.6399L153.587 25.5957H153.546L151.546 33.6399H155.54ZM162.58 32.8452V39.5H160.898V24.3806H165.497C166.389 24.3806 167.165 24.5293 167.824 24.8267C168.484 25.1206 168.992 25.5752 169.347 26.1904C169.706 26.8057 169.885 27.5747 169.885 28.4976C169.885 29.3896 169.641 30.1638 169.152 30.8201C168.664 31.4729 167.997 31.8608 167.153 31.9839V32.0249C167.676 32.0864 168.132 32.2693 168.522 32.5735C168.911 32.8777 169.21 33.2776 169.419 33.7732C169.631 34.2654 169.737 34.8225 169.737 35.4446C169.737 36.1213 169.75 36.6956 169.778 37.1672C169.809 37.6389 169.848 37.9978 169.896 38.2439C169.947 38.49 170.003 38.6797 170.065 38.813C170.13 38.9429 170.19 39.0591 170.244 39.1616V39.5H168.542C168.371 39.001 168.248 38.49 168.173 37.967C168.098 37.4441 168.06 36.7861 168.06 35.9932C168.06 34.978 167.831 34.2004 167.373 33.6604C166.919 33.1169 166.23 32.8452 165.307 32.8452H162.58ZM162.58 25.8931V31.3328H165.497C166.218 31.3328 166.838 31.1226 167.358 30.7021C167.881 30.2783 168.142 29.564 168.142 28.5591C168.142 27.8721 168.023 27.3303 167.783 26.9338C167.548 26.5374 167.233 26.2656 166.84 26.1187C166.447 25.9683 165.979 25.8931 165.435 25.8931H162.58ZM174.756 39.5H173.074V24.3806H174.756V32.1479L180.257 24.3806H182.359L177.53 30.7021L182.503 39.5H180.55L176.52 32.0249L174.756 34.2295V39.5ZM191.793 39.5H184.19V24.3806H191.767V25.8931H185.866V30.8918H191.393V32.4043H185.866V37.9875H191.793V39.5ZM193.08 25.8931V24.3806H202.595V25.8931H198.689V39.5H197.007V25.8931H193.08ZM206.282 25.8931V31.584H207.917C208.772 31.584 209.46 31.5139 209.983 31.3738C210.506 31.2336 210.908 30.95 211.188 30.5227C211.472 30.092 211.614 29.4648 211.614 28.6411C211.614 27.6191 211.345 26.9065 210.809 26.5032C210.272 26.0964 209.469 25.8931 208.399 25.8931H206.282ZM206.282 39.5H204.6V24.3806H208.799C210.235 24.3806 211.352 24.731 212.152 25.4316C212.955 26.1323 213.357 27.2021 213.357 28.6411C213.357 29.4922 213.234 30.21 212.988 30.7944C212.745 31.3789 212.407 31.8386 211.973 32.1736C211.542 32.5051 211.036 32.7427 210.455 32.8862C209.874 33.0264 209.218 33.0964 208.486 33.0964H206.282V39.5ZM223.606 39.5H215.756V24.3806H217.433V37.9875H223.606V39.5ZM224.416 39.5L228.722 24.3806H230.948L235.188 39.5H233.342L232.142 35.1523H227.379L226.267 39.5H224.416ZM231.768 33.6399L229.814 25.5957H229.773L227.774 33.6399H231.768ZM245.544 28.918H243.867C243.867 26.7031 242.963 25.5957 241.155 25.5957C239.891 25.5957 239.084 26.1956 238.735 27.3953C238.39 28.595 238.218 30.0322 238.218 31.707C238.218 32.6641 238.245 33.5032 238.3 34.2244C238.354 34.9456 238.477 35.6223 238.669 36.2546C238.864 36.887 239.163 37.3945 239.566 37.7773C239.973 38.1567 240.502 38.3464 241.155 38.3464C241.849 38.3464 242.382 38.1704 242.755 37.8184C243.131 37.4663 243.394 36.9895 243.544 36.3879C243.695 35.783 243.802 35.0002 243.867 34.0398H245.544C245.476 35.301 245.308 36.3521 245.042 37.1929C244.778 38.0337 244.343 38.6882 243.734 39.1565C243.129 39.6248 242.312 39.8589 241.283 39.8589C240.227 39.8589 239.371 39.6196 238.715 39.1411C238.062 38.6626 237.575 38.0303 237.254 37.2441C236.932 36.458 236.722 35.6155 236.623 34.7166C236.524 33.8176 236.474 32.8298 236.474 31.7532C236.474 30.4099 236.596 29.1726 236.838 28.0413C237.081 26.9099 237.556 25.9683 238.264 25.2163C238.975 24.4644 239.968 24.0884 241.242 24.0884C242.162 24.0884 242.945 24.2986 243.591 24.719C244.24 25.136 244.727 25.7102 245.052 26.4417C245.38 27.1697 245.544 27.9951 245.544 28.918ZM255.716 39.5H248.113V24.3806H255.69V25.8931H249.789V30.8918H255.316V32.4043H249.789V37.9875H255.716V39.5Z" fill="#323B4B"/>
<defs>
<filter id="filter0_f_1432_3010" x="-81.4443" y="-71.5992" width="199.473" height="172.762" filterUnits="userSpaceOnUse" color-interpolation-filters="sRGB">
<feFlood flood-opacity="0" result="BackgroundImageFix"/>
<feBlend mode="normal" in="SourceGraphic" in2="BackgroundImageFix" result="shape"/>
<feGaussianBlur stdDeviation="37" result="effect1_foregroundBlur_1432_3010"/>
</filter>
<filter id="filter1_dd_1432_3010" x="-2" y="7.36841" width="59.9834" height="74.5657" filterUnits="userSpaceOnUse" color-interpolation-filters="sRGB">
<feFlood flood-opacity="0" result="BackgroundImageFix"/>
<feColorMatrix in="SourceAlpha" type="matrix" values="0 0 0 0 0 0 0 0 0 0 0 0 0 0 0 0 0 0 127 0" result="hardAlpha"/>
<feOffset dy="10"/>
<feGaussianBlur stdDeviation="10"/>
<feColorMatrix type="matrix" values="0 0 0 0 0.415502 0 0 0 0 0.3675 0 0 0 0 0.816667 0 0 0 0.1 0"/>
<feBlend mode="normal" in2="BackgroundImageFix" result="effect1_dropShadow_1432_3010"/>
<feColorMatrix in="SourceAlpha" type="matrix" values="0 0 0 0 0 0 0 0 0 0 0 0 0 0 0 0 0 0 127 0" result="hardAlpha"/>
<feOffset dy="10"/>
<feGaussianBlur stdDeviation="10"/>
<feColorMatrix type="matrix" values="0 0 0 0 0.415686 0 0 0 0 0.368627 0 0 0 0 0.815686 0 0 0 0.1 0"/>
<feBlend mode="normal" in2="effect1_dropShadow_1432_3010" result="effect2_dropShadow_1432_3010"/>
<feBlend mode="normal" in="SourceGraphic" in2="effect2_dropShadow_1432_3010" result="shape"/>
</filter>
<linearGradient id="paint0_linear_1432_3010" x1="2.26927" y1="-0.294316" x2="70.8507" y2="31.3115" gradientUnits="userSpaceOnUse">
<stop offset="0.146779" stop-color="#545BE9"/>
<stop offset="0.832983" stop-color="#B782F8"/>
</linearGradient>
<linearGradient id="paint1_linear_1432_3010" x1="51.4736" y1="7.45682" x2="28.2835" y2="68.6132" gradientUnits="userSpaceOnUse">
<stop stop-color="#55C0F7"/>
<stop offset="1" stop-color="#A8E8FA"/>
</linearGradient>
<linearGradient id="paint2_linear_1432_3010" x1="1.70122" y1="7.32716" x2="24.4086" y2="71.19" gradientUnits="userSpaceOnUse">
<stop stop-color="#1B5CF6"/>
<stop offset="0.503297" stop-color="#429EFF"/>
<stop offset="0.890632" stop-color="#D33BA7"/>
</linearGradient>
</defs>
</svg>
