<svg width="238" height="58" viewBox="0 0 238 58" fill="none" xmlns="http://www.w3.org/2000/svg">
<path fill-rule="evenodd" clip-rule="evenodd" d="M8.76193 0.0214233C4.06504 0.0214233 0.131836 3.85572 0.131836 8.40963V42.6077C0.131836 47.1616 4.06504 50.9959 8.76193 50.9959H16.3963L14.7366 55.19C14.2434 56.5264 15.2881 58.024 16.7282 57.771C21.1392 56.9965 26.2531 54.5504 29.6733 51.9638C30.1893 51.5743 30.8525 51.4028 31.333 50.9959H43.9462C48.6435 50.9959 52.5763 47.1616 52.5763 42.6077V8.40963C52.5763 3.85572 48.6435 0.0214233 43.9462 0.0214233H8.76193Z" fill="url(#paint0_linear_1432_3174)"/>
<path fill-rule="evenodd" clip-rule="evenodd" d="M8.76193 0.0214233C4.06504 0.0214233 0.131836 3.85572 0.131836 8.40963V42.6077C0.131836 47.1616 4.06504 50.9959 8.76193 50.9959H16.3963L14.7366 55.19C14.2434 56.5264 15.2881 58.024 16.7282 57.771C21.1392 56.9965 26.2531 54.5504 29.6733 51.9638C30.1893 51.5743 30.8525 51.4028 31.333 50.9959H43.9462C48.6435 50.9959 52.5763 47.1616 52.5763 42.6077V8.40963C52.5763 3.85572 48.6435 0.0214233 43.9462 0.0214233H8.76193Z" fill="url(#paint1_linear_1432_3174)" fill-opacity="0.5"/>
<mask id="mask0_1432_3174" style="mask-type:alpha" maskUnits="userSpaceOnUse" x="0" y="0" width="53" height="58">
<path fill-rule="evenodd" clip-rule="evenodd" d="M8.76193 0.0214233C4.06504 0.0214233 0.131836 3.85572 0.131836 8.40963V42.6077C0.131836 47.1616 4.06504 50.9959 8.76193 50.9959H16.3963L14.7366 55.19C14.2434 56.5264 15.2881 58.024 16.7282 57.771C21.1392 56.9965 26.2531 54.5504 29.6733 51.9638C30.1893 51.5743 30.8525 51.4028 31.333 50.9959H43.9462C48.6435 50.9959 52.5763 47.1616 52.5763 42.6077V8.40963C52.5763 3.85572 48.6435 0.0214233 43.9462 0.0214233H8.76193Z" fill="url(#paint2_linear_1432_3174)"/>
<path fill-rule="evenodd" clip-rule="evenodd" d="M8.76193 0.0214233C4.06504 0.0214233 0.131836 3.85572 0.131836 8.40963V42.6077C0.131836 47.1616 4.06504 50.9959 8.76193 50.9959H16.3963L14.7366 55.19C14.2434 56.5264 15.2881 58.024 16.7282 57.771C21.1392 56.9965 26.2531 54.5504 29.6733 51.9638C30.1893 51.5743 30.8525 51.4028 31.333 50.9959H43.9462C48.6435 50.9959 52.5763 47.1616 52.5763 42.6077V8.40963C52.5763 3.85572 48.6435 0.0214233 43.9462 0.0214233H8.76193Z" fill="url(#paint3_linear_1432_3174)"/>
<path fill-rule="evenodd" clip-rule="evenodd" d="M8.76193 0.0214233C4.06504 0.0214233 0.131836 3.85572 0.131836 8.40963V42.6077C0.131836 47.1616 4.06504 50.9959 8.76193 50.9959H16.3963L14.7366 55.19C14.2434 56.5264 15.2881 58.024 16.7282 57.771C21.1392 56.9965 26.2531 54.5504 29.6733 51.9638C30.1893 51.5743 30.8525 51.4028 31.333 50.9959H43.9462C48.6435 50.9959 52.5763 47.1616 52.5763 42.6077V8.40963C52.5763 3.85572 48.6435 0.0214233 43.9462 0.0214233H8.76193Z" fill="url(#paint4_linear_1432_3174)" fill-opacity="0.35"/>
</mask>
<g mask="url(#mask0_1432_3174)">
<g style="mix-blend-mode:soft-light">
<path d="M0.131836 8.29159C0.131836 3.72412 3.93944 0.0214233 8.63634 0.0214233H44.0718C48.7691 0.0214233 52.5763 3.72412 52.5763 8.29159V42.7506C52.5763 47.3181 48.7691 51.0208 44.0718 51.0208H8.63634C3.93944 51.0208 0.131836 47.3181 0.131836 42.7506V8.29159Z" fill="white" fill-opacity="0.05"/>
</g>
<g filter="url(#filter0_f_1432_3174)">
<path d="M23.8642 56.8309C30.7387 56.8309 36.3115 54.2296 36.3115 51.0208C36.3115 47.812 30.7387 45.2108 23.8642 45.2108C16.9898 45.2108 11.417 47.812 11.417 51.0208C11.417 54.2296 16.9898 56.8309 23.8642 56.8309Z" fill="#E97618"/>
</g>
<path d="M28.0388 9.41364H28.7929C29.9514 9.45841 31.1112 9.66733 32.1851 10.0983C32.9133 10.3897 33.631 10.7593 34.168 11.3312C34.48 11.663 34.7258 12.0553 34.8844 12.4782C35.0651 12.9689 35.1327 13.4963 35.1067 14.0158C35.0794 14.502 34.9702 14.9881 34.7557 15.4295C34.5866 15.7548 34.4189 16.0831 34.1992 16.3798C33.9235 16.7567 33.5712 17.088 33.1473 17.3023C32.6402 17.5567 32.0421 17.6566 31.4817 17.535C30.751 17.3885 30.1243 16.8467 29.876 16.1653C29.8305 15.9561 29.8604 15.7297 29.954 15.5365C30.0112 15.4118 30.1607 15.3766 30.2868 15.361C30.5625 15.3298 30.8238 15.4409 31.0943 15.4652C31.2763 15.4884 31.4258 15.3481 31.5116 15.2064C31.6078 15.0643 31.6261 14.8907 31.6274 14.7251C31.6274 14.4446 31.6325 14.1608 31.5714 13.8848C31.5233 13.6508 31.3959 13.4422 31.2633 13.2449C31.0579 12.9457 30.7458 12.7382 30.4273 12.5662C29.9202 12.2779 29.3312 12.1621 28.7513 12.1226C28.2546 12.0839 27.7527 12.1082 27.2638 12.2078C26.3563 12.4021 25.5424 12.9128 24.9144 13.5704C24.3878 14.1077 23.9548 14.7549 23.7806 15.4844C23.6116 16.1871 23.6857 16.9466 24.0081 17.5987C24.2812 18.1559 24.7089 18.6299 25.2056 19.0101C25.9324 19.5959 26.7204 20.1053 27.5408 20.5576C28.0336 20.8358 28.5563 21.0581 29.0698 21.2974C29.586 21.5405 30.0957 21.7957 30.6002 22.0613C30.9109 22.23 31.2295 22.3886 31.5363 22.5659C31.9836 22.8269 32.4088 23.1254 32.8041 23.4577C33.0992 23.7003 33.3605 23.9785 33.6466 24.2312C34.0301 24.5856 34.3799 24.9723 34.7037 25.3783C34.9078 25.6378 35.108 25.9016 35.2822 26.1824C35.7308 26.9015 36.0338 27.7071 36.1625 28.5395C36.208 28.8188 36.2262 29.1013 36.2431 29.3833V29.8386C36.2184 30.4659 36.1612 31.0942 36.026 31.7091C35.8231 32.67 35.4552 33.6003 34.9208 34.4337C34.4579 35.1581 33.8754 35.8064 33.2149 36.3662C32.5817 36.8943 31.8926 37.3589 31.171 37.7667C30.2582 38.2786 29.2831 38.6884 28.2663 38.9618C27.442 39.1892 26.5903 39.3 25.7413 39.3898C25.636 39.5506 25.5385 39.7166 25.4397 39.8815C25.2017 40.2917 25.008 40.7354 24.6764 41.0862C24.3371 41.4608 23.8651 41.7474 23.3437 41.7848C22.916 41.82 22.4843 41.6687 22.154 41.4049C21.7367 41.0619 21.4922 40.5432 21.4363 40.0188C21.409 39.8595 21.5169 39.6822 21.6873 39.6556C22.1813 39.5605 22.6702 39.4178 23.1214 39.1983C23.1851 39.1662 23.2527 39.1409 23.3073 39.0959C23.3346 39.0192 23.2397 38.9815 23.1799 38.9653C22.7716 38.8644 22.3569 38.7807 21.9525 38.6623C21.4116 38.5101 20.8811 38.3264 20.361 38.1165C19.9671 37.9556 19.5731 37.7879 19.2117 37.5643C18.6201 37.1371 18.0545 36.6601 17.6215 36.076C17.1963 35.4998 17.0572 34.7807 17 34.0877V33.6577C17.0182 33.492 17.0416 33.3263 17.0832 33.1645C17.2548 32.4547 17.6917 31.8226 18.2573 31.3512C19.0231 30.7095 20.0451 30.3478 21.0592 30.4163C21.8797 30.4676 22.6663 30.7891 23.3216 31.2644C23.9977 31.7523 24.5503 32.3897 24.9833 33.0893C25.4579 33.8595 25.8024 34.7064 25.9883 35.5863C26.0066 35.6696 26.0143 35.7558 26.0469 35.836C26.4356 35.7538 26.8101 35.6207 27.1793 35.4816C27.9777 35.1685 28.7331 34.7506 29.4027 34.2235C29.9423 33.7973 30.4286 33.3018 30.8095 32.735C31.2035 32.1479 31.4908 31.4857 31.6001 30.7904C31.6326 30.5622 31.6781 30.3328 31.6612 30.1016C31.6378 29.8313 31.5818 29.5639 31.496 29.3062C31.2477 28.5724 30.7718 27.9332 30.2218 27.3851C29.5197 26.6718 28.7149 26.0574 27.8464 25.5478C26.5305 24.8097 25.2108 24.0769 23.8859 23.355C22.5909 22.6671 21.4012 21.7815 20.4247 20.7032C19.854 20.0911 19.4054 19.3652 19.1596 18.5725C18.8723 17.6591 18.8814 16.6826 19.0348 15.7469C19.2325 14.5627 19.7824 13.4358 20.6081 12.5437C21.1425 11.9592 21.7783 11.4693 22.4596 11.056C23.215 10.5999 24.0198 10.2185 24.8676 9.9534C25.8908 9.62636 26.9635 9.45613 28.0388 9.41364ZM19.5484 33.3663C19.4275 33.5722 19.4015 33.8163 19.4093 34.0492C19.4288 34.4013 19.6186 34.7291 19.8839 34.9639C20.244 35.2874 20.6978 35.4862 21.1529 35.6493C21.3921 35.7305 21.6274 35.8246 21.8719 35.8899C22.2788 36.0027 22.6962 36.069 23.111 36.1408C23.2501 36.163 23.3866 36.1967 23.5283 36.1954C23.2696 35.3096 22.8093 34.479 22.1904 33.7834C21.9902 33.5555 21.7679 33.3438 21.5104 33.1774C21.2218 32.9882 20.8876 32.8511 20.5366 32.8346C20.14 32.8187 19.7525 33.0398 19.5484 33.3663Z" fill="white"/>
</g>
<path d="M76.3344 21.126V20.664C76.3344 17.619 74.7174 16.065 71.8404 16.065C69.2154 16.065 67.3674 17.493 67.3674 19.992C67.3674 21.63 68.1234 22.911 69.6354 23.898L72.1974 25.578C73.2684 26.271 73.7724 26.859 73.7724 27.846C73.7724 28.791 73.1634 29.547 72.0714 29.547C70.9794 29.547 69.9714 29.001 69.9714 26.88V26.292H67.2204V26.88C67.2204 29.988 68.8584 31.857 72.0714 31.857C75.0954 31.857 76.7334 30.261 76.7334 27.594C76.7334 25.326 75.7464 24.402 74.1504 23.331L71.2104 21.378C70.6014 20.979 70.2444 20.559 70.2444 19.656C70.2444 18.816 70.9584 18.375 71.7774 18.375C72.9114 18.375 73.5834 19.11 73.5834 20.958V21.126H76.3344ZM78.4855 16.338V27.426C78.4855 30.198 79.9555 31.773 83.2945 31.773C86.6545 31.773 88.0825 30.156 88.0825 27.426V16.338H85.2055V27.006C85.2055 28.707 84.7225 29.463 83.2945 29.463C81.9295 29.463 81.3625 28.665 81.3625 27.006V16.338H78.4855ZM90.175 16.338V31.5H92.863V17.787H92.884L95.761 31.5H97.819L100.696 17.766H100.717V31.5H103.405V16.338H98.806L96.79 26.187L94.774 16.338H90.175ZM108.392 25.074H110.492C111.815 25.074 112.214 26.124 112.214 27.279V29.022C112.214 29.988 112.34 31.038 112.907 31.5H115.784V31.038C115.112 31.038 115.091 29.883 115.091 28.497V26.565C115.091 25.473 114.671 24.192 113.012 23.856C114.356 23.667 115.301 22.512 115.301 20.265C115.301 18.081 113.831 16.338 111.5 16.338H105.515V31.5H108.392V25.074ZM108.392 18.585H110.261C111.542 18.585 112.361 19.026 112.361 20.685C112.361 22.407 111.353 22.911 110.324 22.911H108.392V18.585ZM116.341 31.5H119.428L120.331 27.552H123.586L124.3 31.5H127.408L124.048 16.338H120.184L116.341 31.5ZM120.688 25.305L122.074 18.249L123.229 25.305H120.688Z" fill="#323B4B"/>
<path opacity="0.75" d="M146.502 16.3806V31.5H144.82V19.0466C144.82 18.8245 144.83 18.4963 144.851 18.0623C144.871 17.6282 144.882 17.3188 144.882 17.1343H144.82C144.759 17.4009 144.673 17.7461 144.564 18.1699C144.454 18.5938 144.372 18.9219 144.318 19.1543L141.144 31.5H139.15L135.981 18.9851C135.759 18.0657 135.612 17.4487 135.54 17.1343H135.494C135.494 17.4111 135.504 17.7427 135.525 18.1289C135.549 18.5117 135.561 18.8313 135.561 19.0876V31.5H133.879V16.3806H136.843L139.801 28.1829C139.927 28.7195 140.033 29.4612 140.119 30.408H140.16C140.317 29.2595 140.442 28.511 140.534 28.1624L143.538 16.3806H146.502ZM157.109 31.5H149.506V16.3806H157.084V17.8931H151.183V22.8918H156.709V24.4043H151.183V29.9875H157.109V31.5ZM159.135 26.7114H160.811C160.811 27.4907 160.896 28.1487 161.067 28.6853C161.242 29.2185 161.537 29.6287 161.954 29.9158C162.375 30.2029 162.946 30.3464 163.667 30.3464C164.248 30.3464 164.754 30.2593 165.184 30.085C165.618 29.9072 165.953 29.6321 166.189 29.2595C166.428 28.8835 166.548 28.405 166.548 27.824C166.548 27.2019 166.454 26.7063 166.266 26.3372C166.082 25.9646 165.822 25.6741 165.487 25.4656C165.155 25.2537 164.689 25.0315 164.087 24.7991L161.862 23.9634C161.096 23.6694 160.498 23.2131 160.068 22.5945C159.64 21.9758 159.427 21.1077 159.427 19.99C159.427 19.2107 159.598 18.5254 159.939 17.9341C160.281 17.3394 160.763 16.8831 161.385 16.5652C162.007 16.2473 162.727 16.0884 163.544 16.0884C164.415 16.0884 165.166 16.2507 165.794 16.5754C166.427 16.9001 166.917 17.3821 167.266 18.0212C167.615 18.657 167.809 19.4329 167.85 20.3489H166.169C166.169 19.4944 165.957 18.8228 165.533 18.334C165.109 17.8418 164.487 17.5957 163.667 17.5957C162.792 17.5957 162.156 17.8213 161.76 18.2725C161.366 18.7202 161.17 19.2927 161.17 19.99C161.17 20.677 161.269 21.1965 161.467 21.5486C161.669 21.8972 162.011 22.1621 162.493 22.3433L164.907 23.2456C166.083 23.6865 166.941 24.2625 167.481 24.9734C168.021 25.6843 168.291 26.5508 168.291 27.5728C168.291 28.9741 167.881 30.0388 167.061 30.7668C166.244 31.4949 165.099 31.8589 163.626 31.8589C162.676 31.8589 161.862 31.6589 161.185 31.259C160.512 30.8557 160.001 30.2678 159.652 29.4954C159.307 28.7195 159.135 27.7915 159.135 26.7114ZM170.352 26.7114H172.029C172.029 27.4907 172.114 28.1487 172.285 28.6853C172.459 29.2185 172.755 29.6287 173.172 29.9158C173.593 30.2029 174.163 30.3464 174.885 30.3464C175.466 30.3464 175.971 30.2593 176.402 30.085C176.836 29.9072 177.171 29.6321 177.407 29.2595C177.646 28.8835 177.766 28.405 177.766 27.824C177.766 27.2019 177.672 26.7063 177.484 26.3372C177.299 25.9646 177.04 25.6741 176.705 25.4656C176.373 25.2537 175.906 25.0315 175.305 24.7991L173.08 23.9634C172.314 23.6694 171.716 23.2131 171.285 22.5945C170.858 21.9758 170.645 21.1077 170.645 19.99C170.645 19.2107 170.815 18.5254 171.157 17.9341C171.499 17.3394 171.981 16.8831 172.603 16.5652C173.225 16.2473 173.945 16.0884 174.761 16.0884C175.633 16.0884 176.383 16.2507 177.012 16.5754C177.645 16.9001 178.135 17.3821 178.484 18.0212C178.832 18.657 179.027 19.4329 179.068 20.3489H177.386C177.386 19.4944 177.175 18.8228 176.751 18.334C176.327 17.8418 175.705 17.5957 174.885 17.5957C174.01 17.5957 173.374 17.8213 172.977 18.2725C172.584 18.7202 172.388 19.2927 172.388 19.99C172.388 20.677 172.487 21.1965 172.685 21.5486C172.887 21.8972 173.229 22.1621 173.71 22.3433L176.125 23.2456C177.301 23.6865 178.159 24.2625 178.699 24.9734C179.239 25.6843 179.509 26.5508 179.509 27.5728C179.509 28.9741 179.099 30.0388 178.279 30.7668C177.462 31.4949 176.317 31.8589 174.844 31.8589C173.893 31.8589 173.08 31.6589 172.403 31.259C171.73 30.8557 171.219 30.2678 170.87 29.4954C170.525 28.7195 170.352 27.7915 170.352 26.7114ZM189.635 31.5H182.031V16.3806H189.609V17.8931H183.708V22.8918H189.235V24.4043H183.708V29.9875H189.635V31.5ZM201.401 16.3806V31.5H198.653L194.428 19.4055C194.189 18.7424 194.001 17.9854 193.865 17.1343H193.823C193.851 18.146 193.865 18.9167 193.865 19.4465V31.5H192.183V16.3806H194.916L199.197 28.7468C199.402 29.3176 199.578 29.8713 199.725 30.408H199.786C199.783 30.2952 199.776 30.1277 199.766 29.9055C199.755 29.6833 199.745 29.4612 199.735 29.239C199.728 29.0168 199.725 28.8459 199.725 28.7263V16.3806H201.401ZM208.625 25.24V23.7275H213.685V31.5H212.383V29.2544H212.342C212.198 29.8115 211.952 30.2866 211.604 30.6797C211.259 31.0728 210.842 31.3667 210.353 31.5615C209.864 31.7598 209.338 31.8589 208.774 31.8589C207.41 31.8589 206.379 31.5068 205.682 30.8027C204.985 30.0986 204.534 29.2048 204.329 28.1213C204.127 27.0378 204.026 25.7288 204.026 24.1941C204.026 23.1277 204.089 22.1365 204.216 21.2205C204.342 20.301 204.583 19.45 204.939 18.6672C205.298 17.8811 205.819 17.2556 206.502 16.7908C207.186 16.3225 208.054 16.0884 209.107 16.0884C210.519 16.0884 211.594 16.4968 212.332 17.3137C213.073 18.1306 213.475 19.2825 213.537 20.7693H211.84C211.84 19.7952 211.616 19.0227 211.168 18.4519C210.724 17.8811 210.037 17.5957 209.107 17.5957C208.17 17.5957 207.458 17.8862 206.969 18.4673C206.48 19.0483 206.157 19.8037 206 20.7334C205.846 21.6631 205.769 22.7808 205.769 24.0864C205.769 25.5049 205.838 26.6584 205.974 27.5471C206.115 28.4324 206.396 29.1211 206.82 29.6133C207.244 30.1021 207.866 30.3464 208.687 30.3464C209.64 30.3464 210.361 30.1021 210.85 29.6133C211.339 29.1245 211.653 28.5195 211.793 27.7983C211.934 27.0771 212.004 26.2244 212.004 25.24H208.625ZM224.354 31.5H216.751V16.3806H224.329V17.8931H218.428V22.8918H223.955V24.4043H218.428V29.9875H224.354V31.5ZM228.753 24.8452V31.5H227.072V16.3806H231.671C232.563 16.3806 233.339 16.5293 233.998 16.8267C234.658 17.1206 235.166 17.5752 235.521 18.1904C235.88 18.8057 236.059 19.5747 236.059 20.4976C236.059 21.3896 235.815 22.1638 235.326 22.8201C234.837 23.4729 234.171 23.8608 233.327 23.9839V24.0249C233.85 24.0864 234.306 24.2693 234.696 24.5735C235.085 24.8777 235.384 25.2776 235.593 25.7732C235.805 26.2654 235.911 26.8225 235.911 27.4446C235.911 28.1213 235.924 28.6956 235.952 29.1672C235.982 29.6389 236.022 29.9978 236.07 30.2439C236.121 30.49 236.177 30.6797 236.239 30.813C236.304 30.9429 236.364 31.0591 236.418 31.1616V31.5H234.716C234.545 31.001 234.422 30.49 234.347 29.967C234.272 29.4441 234.234 28.7861 234.234 27.9932C234.234 26.978 234.005 26.2004 233.547 25.6604C233.093 25.1169 232.404 24.8452 231.481 24.8452H228.753ZM228.753 17.8931V23.3328H231.671C232.392 23.3328 233.012 23.1226 233.532 22.7021C234.055 22.2783 234.316 21.564 234.316 20.5591C234.316 19.8721 234.197 19.3303 233.957 18.9338C233.721 18.5374 233.407 18.2656 233.014 18.1187C232.621 17.9683 232.153 17.8931 231.609 17.8931H228.753Z" fill="#323B4B"/>
<defs>
<filter id="filter0_f_1432_3174" x="-62.583" y="-28.7892" width="172.895" height="159.62" filterUnits="userSpaceOnUse" color-interpolation-filters="sRGB">
<feFlood flood-opacity="0" result="BackgroundImageFix"/>
<feBlend mode="normal" in="SourceGraphic" in2="BackgroundImageFix" result="shape"/>
<feGaussianBlur stdDeviation="37" result="effect1_foregroundBlur_1432_3174"/>
</filter>
<linearGradient id="paint0_linear_1432_3174" x1="0.131836" y1="0.0214233" x2="22.3982" y2="62.9518" gradientUnits="userSpaceOnUse">
<stop stop-color="#FCBF22"/>
<stop offset="1" stop-color="#DD7021"/>
</linearGradient>
<linearGradient id="paint1_linear_1432_3174" x1="26.4575" y1="0.0214233" x2="26.4575" y2="58.2916" gradientUnits="userSpaceOnUse">
<stop stop-color="#FD9D04"/>
<stop offset="1" stop-color="#FA7302"/>
</linearGradient>
<linearGradient id="paint2_linear_1432_3174" x1="0.131836" y1="0.0214233" x2="57.9329" y2="52.3403" gradientUnits="userSpaceOnUse">
<stop stop-color="#00B1FF"/>
<stop offset="1" stop-color="#006BFF"/>
</linearGradient>
<linearGradient id="paint3_linear_1432_3174" x1="0.131836" y1="0.0214233" x2="22.3982" y2="62.9518" gradientUnits="userSpaceOnUse">
<stop stop-color="#FCBF22"/>
<stop offset="1" stop-color="#DD7021"/>
</linearGradient>
<linearGradient id="paint4_linear_1432_3174" x1="26.4575" y1="0.0214233" x2="26.4575" y2="58.2916" gradientUnits="userSpaceOnUse">
<stop stop-color="#FD9D04"/>
<stop offset="1" stop-color="#FA7302"/>
</linearGradient>
</defs>
</svg>
