<svg width="240" height="100" viewBox="0 0 240 100" fill="none" xmlns="http://www.w3.org/2000/svg">
<path fill-rule="evenodd" clip-rule="evenodd" d="M45.7724 21.0238C40.5335 21.0238 36.1465 25.3005 36.1465 30.3799V68.5239C36.1465 73.6033 40.5335 77.88 45.7724 77.88H54.2876L52.4364 82.558C51.8863 84.0485 53.0515 85.719 54.6578 85.4368C59.5778 84.5729 65.2817 81.8446 69.0966 78.9595C69.6721 78.5251 70.4118 78.3338 70.9477 77.88H85.0163C90.2556 77.88 94.6422 73.6033 94.6422 68.5239V30.3799C94.6422 25.3005 90.2556 21.0238 85.0163 21.0238H45.7724Z" fill="url(#paint0_linear_1439_3225)"/>
<path fill-rule="evenodd" clip-rule="evenodd" d="M45.7724 21.0238C40.5335 21.0238 36.1465 25.3005 36.1465 30.3799V68.5239C36.1465 73.6033 40.5335 77.88 45.7724 77.88H54.2876L52.4364 82.558C51.8863 84.0485 53.0515 85.719 54.6578 85.4368C59.5778 84.5729 65.2817 81.8446 69.0966 78.9595C69.6721 78.5251 70.4118 78.3338 70.9477 77.88H85.0163C90.2556 77.88 94.6422 73.6033 94.6422 68.5239V30.3799C94.6422 25.3005 90.2556 21.0238 85.0163 21.0238H45.7724Z" fill="url(#paint1_linear_1439_3225)" fill-opacity="0.5"/>
<mask id="mask0_1439_3225" style="mask-type:alpha" maskUnits="userSpaceOnUse" x="36" y="21" width="59" height="65">
<path fill-rule="evenodd" clip-rule="evenodd" d="M45.7724 21.0238C40.5335 21.0238 36.1465 25.3005 36.1465 30.3799V68.5239C36.1465 73.6033 40.5335 77.88 45.7724 77.88H54.2876L52.4364 82.558C51.8863 84.0485 53.0515 85.719 54.6578 85.4368C59.5778 84.5729 65.2817 81.8446 69.0966 78.9595C69.6721 78.5251 70.4118 78.3338 70.9477 77.88H85.0163C90.2556 77.88 94.6422 73.6033 94.6422 68.5239V30.3799C94.6422 25.3005 90.2556 21.0238 85.0163 21.0238H45.7724Z" fill="url(#paint2_linear_1439_3225)"/>
<path fill-rule="evenodd" clip-rule="evenodd" d="M45.7724 21.0238C40.5335 21.0238 36.1465 25.3005 36.1465 30.3799V68.5239C36.1465 73.6033 40.5335 77.88 45.7724 77.88H54.2876L52.4364 82.558C51.8863 84.0485 53.0515 85.719 54.6578 85.4368C59.5778 84.5729 65.2817 81.8446 69.0966 78.9595C69.6721 78.5251 70.4118 78.3338 70.9477 77.88H85.0163C90.2556 77.88 94.6422 73.6033 94.6422 68.5239V30.3799C94.6422 25.3005 90.2556 21.0238 85.0163 21.0238H45.7724Z" fill="url(#paint3_linear_1439_3225)"/>
<path fill-rule="evenodd" clip-rule="evenodd" d="M45.7724 21.0238C40.5335 21.0238 36.1465 25.3005 36.1465 30.3799V68.5239C36.1465 73.6033 40.5335 77.88 45.7724 77.88H54.2876L52.4364 82.558C51.8863 84.0485 53.0515 85.719 54.6578 85.4368C59.5778 84.5729 65.2817 81.8446 69.0966 78.9595C69.6721 78.5251 70.4118 78.3338 70.9477 77.88H85.0163C90.2556 77.88 94.6422 73.6033 94.6422 68.5239V30.3799C94.6422 25.3005 90.2556 21.0238 85.0163 21.0238H45.7724Z" fill="url(#paint4_linear_1439_3225)" fill-opacity="0.35"/>
</mask>
<g mask="url(#mask0_1439_3225)">
<g style="mix-blend-mode:soft-light">
<path d="M36.1465 30.2482C36.1465 25.1537 40.3934 21.0238 45.6323 21.0238H85.1564C90.3957 21.0238 94.6422 25.1537 94.6422 30.2482V68.6833C94.6422 73.7778 90.3957 77.9077 85.1564 77.9077H45.6323C40.3934 77.9077 36.1465 73.7778 36.1465 68.6833V30.2482Z" fill="white" fill-opacity="0.05"/>
</g>
<g filter="url(#filter0_f_1439_3225)">
<path d="M62.6179 84.3881C70.2855 84.3881 76.5013 81.4867 76.5013 77.9077C76.5013 74.3286 70.2855 71.4272 62.6179 71.4272C54.9502 71.4272 48.7344 74.3286 48.7344 77.9077C48.7344 81.4867 54.9502 84.3881 62.6179 84.3881Z" fill="#E97618"/>
</g>
<path d="M67.2734 31.4998H68.1145C69.4067 31.5497 70.7003 31.7827 71.8982 32.2635C72.7103 32.5885 73.5109 33.0006 74.1098 33.6385C74.4579 34.0087 74.732 34.4462 74.9089 34.918C75.1105 35.4653 75.1859 36.0535 75.1569 36.633C75.1264 37.1752 75.0046 37.7175 74.7653 38.2098C74.5768 38.5726 74.3897 38.9388 74.1446 39.2697C73.8372 39.6901 73.4442 40.0596 72.9714 40.2986C72.4058 40.5824 71.7387 40.6939 71.1136 40.5581C70.2986 40.3948 69.5996 39.7905 69.3226 39.0305C69.2718 38.7971 69.3052 38.5446 69.4096 38.3291C69.4734 38.19 69.6402 38.1508 69.7809 38.1333C70.0883 38.0986 70.3798 38.2225 70.6815 38.2495C70.8845 38.2755 71.0513 38.1189 71.147 37.9609C71.2543 37.8024 71.2746 37.6088 71.2761 37.424C71.2761 37.1112 71.2819 36.7946 71.2137 36.4868C71.16 36.2259 71.0179 35.9931 70.87 35.7731C70.6409 35.4393 70.2928 35.208 69.9375 35.0161C69.3719 34.6945 68.715 34.5653 68.0681 34.5213C67.5142 34.4781 66.9544 34.5052 66.4091 34.6164C65.3968 34.833 64.489 35.4026 63.7885 36.1362C63.2012 36.7354 62.7182 37.4573 62.5239 38.271C62.3354 39.0547 62.418 39.9019 62.7777 40.6292C63.0822 41.2508 63.5594 41.7795 64.1134 42.2035C64.924 42.8569 65.8029 43.4251 66.718 43.9295C67.2676 44.2398 67.8506 44.4878 68.4234 44.7547C68.9992 45.0258 69.5677 45.3105 70.1304 45.6067C70.477 45.7949 70.8323 45.9718 71.1746 46.1696C71.6734 46.4607 72.1477 46.7936 72.5885 47.1643C72.9177 47.4349 73.2092 47.7452 73.5283 48.0271C73.9561 48.4223 74.3462 48.8537 74.7073 49.3065C74.935 49.5959 75.1583 49.8902 75.3527 50.2034C75.853 51.0054 76.1909 51.904 76.3345 52.8325C76.3852 53.1439 76.4055 53.4591 76.4244 53.7736V54.2814C76.3968 54.9811 76.333 55.6819 76.1822 56.3677C75.956 57.4395 75.5455 58.4772 74.9495 59.4068C74.4332 60.2148 73.7835 60.9378 73.0468 61.5622C72.3405 62.1512 71.5719 62.6695 70.767 63.1243C69.749 63.6953 68.6613 64.1523 67.5272 64.4573C66.6078 64.7109 65.6579 64.8345 64.7109 64.9347C64.5934 65.1141 64.4846 65.2992 64.3744 65.4831C64.109 65.9407 63.8929 66.4356 63.5231 66.8269C63.1446 67.2447 62.6182 67.5643 62.0366 67.6061C61.5595 67.6453 61.078 67.4766 60.7097 67.1823C60.2441 66.7998 59.9715 66.2211 59.9091 65.6363C59.8787 65.4586 59.9991 65.2608 60.189 65.2312C60.7401 65.1251 61.2854 64.966 61.7886 64.7211C61.8597 64.6853 61.9351 64.6571 61.996 64.6068C62.0265 64.5214 61.9206 64.4793 61.8539 64.4613C61.3985 64.3487 60.9359 64.2553 60.4849 64.1233C59.8816 63.9534 59.2899 63.7486 58.7098 63.5145C58.2704 63.335 57.831 63.148 57.4278 62.8986C56.7679 62.4221 56.1371 61.89 55.6542 61.2386C55.1799 60.5959 55.0247 59.7938 54.9609 59.0208V58.5412C54.9812 58.3564 55.0073 58.1716 55.0538 57.9911C55.2452 57.1994 55.7325 56.4944 56.3633 55.9685C57.2175 55.2528 58.3574 54.8494 59.4886 54.9258C60.4037 54.9831 61.2811 55.3417 62.012 55.8718C62.7661 56.416 63.3824 57.1269 63.8654 57.9073C64.3947 58.7663 64.779 59.7109 64.9864 60.6924C65.0067 60.7852 65.0154 60.8814 65.0517 60.9708C65.4853 60.8792 65.903 60.7308 66.3148 60.5756C67.2053 60.2263 68.0478 59.7603 68.7947 59.1723C69.3966 58.6969 69.9389 58.1443 70.3639 57.512C70.8033 56.8572 71.1238 56.1186 71.2456 55.3431C71.2819 55.0886 71.3326 54.8327 71.3138 54.5748C71.2877 54.2733 71.2253 53.9751 71.1296 53.6876C70.8526 52.8691 70.3218 52.1562 69.7084 51.5448C68.9252 50.7493 68.0275 50.064 67.0588 49.4955C65.5912 48.6723 64.1192 47.855 62.6414 47.0498C61.1969 46.2824 59.87 45.2947 58.7808 44.092C58.1442 43.4093 57.6439 42.5996 57.3698 41.7154C57.0493 40.6967 57.0594 39.6074 57.2306 38.5638C57.451 37.2429 58.0644 35.9861 58.9853 34.991C59.5814 34.339 60.2905 33.7926 61.0505 33.3316C61.8931 32.8229 62.7907 32.3975 63.7363 32.1018C64.8776 31.737 66.0741 31.5472 67.2734 31.4998ZM57.8034 58.2162C57.6685 58.4459 57.6395 58.7181 57.6482 58.9779C57.67 59.3706 57.8817 59.7363 58.1776 59.9981C58.5793 60.3589 59.0854 60.5807 59.593 60.7626C59.8598 60.8532 60.1223 60.9582 60.395 61.0309C60.8489 61.1568 61.3144 61.2307 61.777 61.3108C61.9322 61.3356 62.0845 61.3732 62.2426 61.3717C61.954 60.3837 61.4406 59.4573 60.7503 58.6814C60.5269 58.4272 60.2789 58.1911 59.9918 58.0055C59.6698 57.7944 59.2971 57.6415 58.9056 57.6232C58.4632 57.6054 58.0311 57.852 57.8034 58.2162Z" fill="white"/>
</g>
<path d="M121.232 42.54C121.232 43.9 120.718 45 119.692 45.84C118.665 46.68 117.312 47.1 115.632 47.1C114.178 47.1 112.812 46.9134 111.532 46.54V41.76H111.572L114.212 46.32C114.332 46.5334 114.478 46.6534 114.652 46.68C114.852 46.7067 115.132 46.72 115.492 46.72C116.318 46.72 116.978 46.52 117.472 46.12C117.965 45.72 118.212 45.1534 118.212 44.42C118.212 43.7934 118.005 43.2934 117.592 42.92C117.178 42.5334 116.465 42.1 115.452 41.62L114.832 41.32C114.298 41.0667 113.845 40.8267 113.472 40.6C113.098 40.36 112.712 40.0667 112.312 39.72C111.925 39.36 111.625 38.94 111.412 38.46C111.212 37.9667 111.112 37.42 111.112 36.82C111.112 35.5534 111.585 34.54 112.532 33.78C113.478 33.02 114.738 32.64 116.312 32.64C117.605 32.64 118.885 32.7934 120.152 33.1V37.66H120.112L117.412 33.34C117.305 33.18 117.172 33.0867 117.012 33.06C116.865 33.0334 116.672 33.02 116.432 33.02C115.712 33.02 115.132 33.2134 114.692 33.6C114.265 33.9867 114.052 34.5267 114.052 35.22C114.052 35.8067 114.245 36.28 114.632 36.64C115.032 37 115.685 37.4 116.592 37.84L117.332 38.2C117.852 38.4534 118.265 38.6667 118.572 38.84C118.878 39 119.218 39.22 119.592 39.5C119.978 39.7667 120.272 40.0334 120.472 40.3C120.685 40.5667 120.865 40.8934 121.012 41.28C121.158 41.6667 121.232 42.0867 121.232 42.54ZM134.523 47.1C132.616 47.1 131.23 46.72 130.363 45.96C129.51 45.1867 129.083 43.9067 129.083 42.12V34.64C129.083 34.44 129.016 34.28 128.883 34.16L127.683 32.88V32.84H134.143V32.88L132.903 34.16C132.77 34.28 132.703 34.44 132.703 34.64V41.9C132.703 43.4734 132.956 44.6067 133.463 45.3C133.983 45.9934 134.75 46.34 135.763 46.34C136.723 46.34 137.47 45.96 138.003 45.2C138.536 44.44 138.803 43.3134 138.803 41.82V36.2C138.803 35.96 138.716 35.74 138.543 35.54L136.583 32.88V32.84H141.443V32.88L139.483 35.54C139.31 35.74 139.223 35.96 139.223 36.2V41.78C139.223 43.5134 138.856 44.8334 138.123 45.74C137.39 46.6467 136.19 47.1 134.523 47.1ZM162.94 45.12C162.94 45.32 163.007 45.48 163.14 45.6L164.46 46.86V46.9H157.8V46.86L159.14 45.6C159.26 45.48 159.32 45.32 159.32 45.12V37.08C159.32 36.68 159.34 36.28 159.38 35.88L154.86 47.06H154.82L150.14 36.78C149.94 36.3667 149.813 36.0734 149.76 35.9V43.54C149.76 43.74 149.847 43.96 150.02 44.2L152.04 46.86V46.9H147.06V46.86L149.08 44.2C149.253 43.96 149.34 43.74 149.34 43.54V35.62C149.34 35.38 149.28 35.1867 149.16 35.04L147.52 32.88V32.84H152.3L156.48 41.96L160.16 32.84H164.46V32.88L163.14 34.34C163.007 34.4734 162.94 34.64 162.94 34.84V45.12ZM177.312 40.34H176.272V45.14C176.272 45.34 176.339 45.5 176.472 45.62L177.812 46.86V46.9H171.132V46.86L172.472 45.6C172.592 45.48 172.652 45.32 172.652 45.12V34.62C172.652 34.42 172.592 34.26 172.472 34.14L171.132 32.88V32.84H178.852C180.199 32.84 181.305 33.1334 182.172 33.72C183.052 34.3067 183.492 35.2134 183.492 36.44C183.492 37.5067 183.105 38.36 182.332 39C181.572 39.6267 180.499 39.9934 179.112 40.1V40.14L181.692 40.9L183.512 45.22C183.605 45.46 183.785 45.7134 184.052 45.98L184.912 46.86V46.9H180.232L177.752 40.58C177.672 40.42 177.525 40.34 177.312 40.34ZM176.272 33.62V39.94H177.312C178.859 39.94 179.632 38.8467 179.632 36.66C179.632 34.38 178.885 33.24 177.392 33.24H176.632C176.472 33.24 176.372 33.2667 176.332 33.32C176.292 33.36 176.272 33.46 176.272 33.62ZM193.463 42L192.943 43.6C192.89 43.76 192.87 43.8734 192.883 43.94C192.91 44.0067 192.983 44.1267 193.103 44.3L194.883 46.86V46.9H190.143V46.86L192.063 44.3C192.277 44.02 192.43 43.74 192.523 43.46L195.303 34.94C195.37 34.7534 195.397 34.6267 195.383 34.56C195.37 34.48 195.303 34.3734 195.183 34.24L194.003 32.88V32.84H198.703L202.443 44.7C202.51 44.9267 202.643 45.2 202.843 45.52L203.683 46.86V46.9H197.763V46.86L198.723 45.52C198.817 45.3867 198.83 45.2067 198.763 44.98L197.823 42H193.463ZM195.683 35.12L193.583 41.6H197.703L195.683 35.12Z" fill="#323B4B"/>
<path opacity="0.8" d="M120.859 66.6C120.785 66.6 120.723 66.5743 120.672 66.523C120.62 66.4716 120.595 66.4093 120.595 66.336V59.175C120.595 59.0943 120.617 59.0283 120.661 58.977C120.712 58.9256 120.778 58.9 120.859 58.9H121.75C121.889 58.9 121.999 58.9696 122.08 59.109L124.203 63.047L126.326 59.109C126.406 58.9696 126.516 58.9 126.656 58.9H127.536C127.616 58.9 127.682 58.9256 127.734 58.977C127.785 59.0283 127.811 59.0943 127.811 59.175V66.336C127.811 66.4166 127.785 66.4826 127.734 66.534C127.682 66.578 127.616 66.6 127.536 66.6H126.59C126.516 66.6 126.454 66.5743 126.403 66.523C126.351 66.4716 126.326 66.4093 126.326 66.336V61.606L124.797 64.51C124.716 64.6713 124.595 64.752 124.434 64.752H123.972C123.818 64.752 123.693 64.6713 123.598 64.51L122.069 61.606V66.336C122.069 66.4093 122.043 66.4716 121.992 66.523C121.948 66.5743 121.885 66.6 121.805 66.6H120.859ZM130.786 66.6C130.712 66.6 130.65 66.5743 130.599 66.523C130.547 66.4716 130.522 66.4093 130.522 66.336V59.175C130.522 59.0943 130.544 59.0283 130.588 58.977C130.639 58.9256 130.705 58.9 130.786 58.9H135.637C135.717 58.9 135.783 58.9256 135.835 58.977C135.886 59.0283 135.912 59.0943 135.912 59.175V59.912C135.912 59.9926 135.886 60.0586 135.835 60.11C135.783 60.154 135.717 60.176 135.637 60.176H132.029V62.101H135.395C135.475 62.101 135.541 62.1266 135.593 62.178C135.644 62.2293 135.67 62.2953 135.67 62.376V63.069C135.67 63.1496 135.644 63.2156 135.593 63.267C135.541 63.311 135.475 63.333 135.395 63.333H132.029V65.324H135.725C135.805 65.324 135.871 65.3496 135.923 65.401C135.974 65.445 136 65.5073 136 65.588V66.336C136 66.4166 135.974 66.4826 135.923 66.534C135.871 66.578 135.805 66.6 135.725 66.6H130.786ZM141.059 66.71C140.399 66.71 139.834 66.611 139.365 66.413C138.896 66.215 138.54 65.9546 138.298 65.632C138.056 65.3093 137.928 64.9573 137.913 64.576C137.913 64.5173 137.935 64.466 137.979 64.422C138.023 64.3706 138.078 64.345 138.144 64.345H139.145C139.226 64.345 139.292 64.3633 139.343 64.4C139.394 64.4366 139.442 64.488 139.486 64.554C139.559 64.8033 139.724 65.0123 139.981 65.181C140.245 65.3496 140.604 65.434 141.059 65.434C141.572 65.434 141.957 65.3496 142.214 65.181C142.478 65.005 142.61 64.7666 142.61 64.466C142.61 64.268 142.544 64.103 142.412 63.971C142.28 63.839 142.078 63.7253 141.807 63.63C141.543 63.5273 141.147 63.4063 140.619 63.267C139.754 63.0616 139.119 62.7903 138.716 62.453C138.313 62.1156 138.111 61.6316 138.111 61.001C138.111 60.5756 138.228 60.198 138.463 59.868C138.698 59.5306 139.031 59.2666 139.464 59.076C139.904 58.8853 140.414 58.79 140.993 58.79C141.602 58.79 142.126 58.8963 142.566 59.109C143.013 59.3216 143.351 59.5893 143.578 59.912C143.813 60.2273 143.937 60.5426 143.952 60.858C143.952 60.9166 143.93 60.9716 143.886 61.023C143.842 61.067 143.787 61.089 143.721 61.089H142.676C142.515 61.089 142.405 61.023 142.346 60.891C142.309 60.6563 142.166 60.462 141.917 60.308C141.668 60.1466 141.36 60.066 140.993 60.066C140.59 60.066 140.271 60.143 140.036 60.297C139.809 60.451 139.695 60.6746 139.695 60.968C139.695 61.166 139.754 61.331 139.871 61.463C139.988 61.595 140.172 61.7123 140.421 61.815C140.67 61.9103 141.033 62.0203 141.51 62.145C142.163 62.2916 142.68 62.4566 143.061 62.64C143.45 62.8233 143.736 63.0543 143.919 63.333C144.102 63.6116 144.194 63.9673 144.194 64.4C144.194 64.8766 144.062 65.291 143.798 65.643C143.541 65.9876 143.175 66.2516 142.698 66.435C142.229 66.6183 141.682 66.71 141.059 66.71ZM149.127 66.71C148.467 66.71 147.903 66.611 147.433 66.413C146.964 66.215 146.608 65.9546 146.366 65.632C146.124 65.3093 145.996 64.9573 145.981 64.576C145.981 64.5173 146.003 64.466 146.047 64.422C146.091 64.3706 146.146 64.345 146.212 64.345H147.213C147.294 64.345 147.36 64.3633 147.411 64.4C147.463 64.4366 147.51 64.488 147.554 64.554C147.628 64.8033 147.793 65.0123 148.049 65.181C148.313 65.3496 148.673 65.434 149.127 65.434C149.641 65.434 150.026 65.3496 150.282 65.181C150.546 65.005 150.678 64.7666 150.678 64.466C150.678 64.268 150.612 64.103 150.48 63.971C150.348 63.839 150.147 63.7253 149.875 63.63C149.611 63.5273 149.215 63.4063 148.687 63.267C147.822 63.0616 147.188 62.7903 146.784 62.453C146.381 62.1156 146.179 61.6316 146.179 61.001C146.179 60.5756 146.297 60.198 146.531 59.868C146.766 59.5306 147.1 59.2666 147.532 59.076C147.972 58.8853 148.482 58.79 149.061 58.79C149.67 58.79 150.194 58.8963 150.634 59.109C151.082 59.3216 151.419 59.5893 151.646 59.912C151.881 60.2273 152.006 60.5426 152.02 60.858C152.02 60.9166 151.998 60.9716 151.954 61.023C151.91 61.067 151.855 61.089 151.789 61.089H150.744C150.583 61.089 150.473 61.023 150.414 60.891C150.378 60.6563 150.235 60.462 149.985 60.308C149.736 60.1466 149.428 60.066 149.061 60.066C148.658 60.066 148.339 60.143 148.104 60.297C147.877 60.451 147.763 60.6746 147.763 60.968C147.763 61.166 147.822 61.331 147.939 61.463C148.057 61.595 148.24 61.7123 148.489 61.815C148.739 61.9103 149.102 62.0203 149.578 62.145C150.231 62.2916 150.748 62.4566 151.129 62.64C151.518 62.8233 151.804 63.0543 151.987 63.333C152.171 63.6116 152.262 63.9673 152.262 64.4C152.262 64.8766 152.13 65.291 151.866 65.643C151.61 65.9876 151.243 66.2516 150.766 66.435C150.297 66.6183 149.751 66.71 149.127 66.71ZM154.776 66.6C154.702 66.6 154.64 66.5743 154.589 66.523C154.537 66.4716 154.512 66.4093 154.512 66.336V59.175C154.512 59.0943 154.534 59.0283 154.578 58.977C154.629 58.9256 154.695 58.9 154.776 58.9H159.627C159.707 58.9 159.773 58.9256 159.825 58.977C159.876 59.0283 159.902 59.0943 159.902 59.175V59.912C159.902 59.9926 159.876 60.0586 159.825 60.11C159.773 60.154 159.707 60.176 159.627 60.176H156.019V62.101H159.385C159.465 62.101 159.531 62.1266 159.583 62.178C159.634 62.2293 159.66 62.2953 159.66 62.376V63.069C159.66 63.1496 159.634 63.2156 159.583 63.267C159.531 63.311 159.465 63.333 159.385 63.333H156.019V65.324H159.715C159.795 65.324 159.861 65.3496 159.913 65.401C159.964 65.445 159.99 65.5073 159.99 65.588V66.336C159.99 66.4166 159.964 66.4826 159.913 66.534C159.861 66.578 159.795 66.6 159.715 66.6H154.776ZM162.629 66.6C162.556 66.6 162.494 66.5743 162.442 66.523C162.391 66.4716 162.365 66.4093 162.365 66.336V59.175C162.365 59.0943 162.387 59.0283 162.431 58.977C162.483 58.9256 162.549 58.9 162.629 58.9H163.487C163.627 58.9 163.733 58.9623 163.806 59.087L166.952 63.971V59.175C166.952 59.0943 166.974 59.0283 167.018 58.977C167.07 58.9256 167.136 58.9 167.216 58.9H168.162C168.243 58.9 168.309 58.9256 168.36 58.977C168.412 59.0283 168.437 59.0943 168.437 59.175V66.325C168.437 66.4056 168.412 66.4716 168.36 66.523C168.309 66.5743 168.247 66.6 168.173 66.6H167.304C167.158 66.6 167.048 66.5376 166.974 66.413L163.839 61.639V66.336C163.839 66.4093 163.814 66.4716 163.762 66.523C163.718 66.5743 163.656 66.6 163.575 66.6H162.629ZM174.146 66.71C173.134 66.71 172.345 66.4496 171.781 65.929C171.223 65.4083 170.926 64.6823 170.89 63.751C170.882 63.5383 170.879 63.1973 170.879 62.728C170.879 62.2586 170.882 61.9176 170.89 61.705C170.919 60.7956 171.22 60.0843 171.792 59.571C172.364 59.0503 173.148 58.79 174.146 58.79C174.82 58.79 175.4 58.9073 175.884 59.142C176.375 59.3693 176.745 59.6553 176.995 60C177.244 60.3373 177.376 60.671 177.391 61.001C177.391 61.067 177.369 61.122 177.325 61.166C177.281 61.21 177.222 61.232 177.149 61.232H175.994C175.92 61.232 175.865 61.2173 175.829 61.188C175.792 61.1586 175.759 61.111 175.73 61.045C175.627 60.7736 175.447 60.5426 175.191 60.352C174.934 60.1613 174.586 60.066 174.146 60.066C173.632 60.066 173.229 60.2053 172.936 60.484C172.65 60.7553 172.499 61.1806 172.485 61.76C172.477 61.9726 172.474 62.2953 172.474 62.728C172.474 63.1533 172.477 63.476 172.485 63.696C172.499 64.29 172.653 64.73 172.947 65.016C173.24 65.2946 173.643 65.434 174.157 65.434C174.677 65.434 175.095 65.2946 175.411 65.016C175.726 64.7373 175.884 64.3193 175.884 63.762V63.421H174.542C174.468 63.421 174.406 63.3953 174.355 63.344C174.303 63.2926 174.278 63.2303 174.278 63.157V62.552C174.278 62.4786 174.303 62.4163 174.355 62.365C174.406 62.3136 174.468 62.288 174.542 62.288H177.182C177.262 62.288 177.328 62.3136 177.38 62.365C177.431 62.4163 177.457 62.4786 177.457 62.552V63.718C177.457 64.3266 177.321 64.8583 177.05 65.313C176.778 65.7603 176.393 66.105 175.895 66.347C175.396 66.589 174.813 66.71 174.146 66.71ZM180.12 66.6C180.046 66.6 179.984 66.5743 179.933 66.523C179.881 66.4716 179.856 66.4093 179.856 66.336V59.175C179.856 59.0943 179.878 59.0283 179.922 58.977C179.973 58.9256 180.039 58.9 180.12 58.9H184.971C185.051 58.9 185.117 58.9256 185.169 58.977C185.22 59.0283 185.246 59.0943 185.246 59.175V59.912C185.246 59.9926 185.22 60.0586 185.169 60.11C185.117 60.154 185.051 60.176 184.971 60.176H181.363V62.101H184.729C184.809 62.101 184.875 62.1266 184.927 62.178C184.978 62.2293 185.004 62.2953 185.004 62.376V63.069C185.004 63.1496 184.978 63.2156 184.927 63.267C184.875 63.311 184.809 63.333 184.729 63.333H181.363V65.324H185.059C185.139 65.324 185.205 65.3496 185.257 65.401C185.308 65.445 185.334 65.5073 185.334 65.588V66.336C185.334 66.4166 185.308 66.4826 185.257 66.534C185.205 66.578 185.139 66.6 185.059 66.6H180.12ZM187.973 66.6C187.9 66.6 187.837 66.5743 187.786 66.523C187.735 66.4716 187.709 66.4093 187.709 66.336V59.175C187.709 59.0943 187.731 59.0283 187.775 58.977C187.826 58.9256 187.892 58.9 187.973 58.9H190.822C191.724 58.9 192.428 59.109 192.934 59.527C193.447 59.945 193.704 60.539 193.704 61.309C193.704 61.8443 193.576 62.2953 193.319 62.662C193.062 63.0213 192.703 63.2816 192.241 63.443L193.836 66.248C193.858 66.292 193.869 66.3323 193.869 66.369C193.869 66.435 193.843 66.49 193.792 66.534C193.748 66.578 193.697 66.6 193.638 66.6H192.626C192.509 66.6 192.417 66.5743 192.351 66.523C192.285 66.4643 192.226 66.391 192.175 66.303L190.767 63.696H189.26V66.336C189.26 66.4093 189.234 66.4716 189.183 66.523C189.132 66.5743 189.066 66.6 188.985 66.6H187.973ZM190.789 62.442C191.229 62.442 191.559 62.3466 191.779 62.156C191.999 61.958 192.109 61.672 192.109 61.298C192.109 60.924 191.999 60.638 191.779 60.44C191.559 60.2346 191.229 60.132 190.789 60.132H189.26V62.442H190.789Z" fill="#323B4B"/>
<defs>
<filter id="filter0_f_1439_3225" x="-33.8041" y="-11.1112" width="192.844" height="178.038" filterUnits="userSpaceOnUse" color-interpolation-filters="sRGB">
<feFlood flood-opacity="0" result="BackgroundImageFix"/>
<feBlend mode="normal" in="SourceGraphic" in2="BackgroundImageFix" result="shape"/>
<feGaussianBlur stdDeviation="41.2692" result="effect1_foregroundBlur_1439_3225"/>
</filter>
<linearGradient id="paint0_linear_1439_3225" x1="36.1465" y1="21.0238" x2="60.982" y2="91.2154" gradientUnits="userSpaceOnUse">
<stop stop-color="#FCBF22"/>
<stop offset="1" stop-color="#DD7021"/>
</linearGradient>
<linearGradient id="paint1_linear_1439_3225" x1="65.5098" y1="21.0238" x2="65.5098" y2="86.0175" gradientUnits="userSpaceOnUse">
<stop stop-color="#FD9D04"/>
<stop offset="1" stop-color="#FA7302"/>
</linearGradient>
<linearGradient id="paint2_linear_1439_3225" x1="36.1465" y1="21.0238" x2="100.617" y2="79.3795" gradientUnits="userSpaceOnUse">
<stop stop-color="#00B1FF"/>
<stop offset="1" stop-color="#006BFF"/>
</linearGradient>
<linearGradient id="paint3_linear_1439_3225" x1="36.1465" y1="21.0238" x2="60.982" y2="91.2154" gradientUnits="userSpaceOnUse">
<stop stop-color="#FCBF22"/>
<stop offset="1" stop-color="#DD7021"/>
</linearGradient>
<linearGradient id="paint4_linear_1439_3225" x1="65.5098" y1="21.0238" x2="65.5098" y2="86.0175" gradientUnits="userSpaceOnUse">
<stop stop-color="#FD9D04"/>
<stop offset="1" stop-color="#FA7302"/>
</linearGradient>
</defs>
</svg>
