<svg width="240" height="100" viewBox="0 0 240 100" fill="none" xmlns="http://www.w3.org/2000/svg">
<path d="M37.2691 29.0692C37.2961 26.2294 39.8641 23.1303 43.0045 22.1473L64.4821 15.4236C67.6225 14.4406 70.1448 15.9459 70.1179 18.7858V18.7858C70.0493 25.8859 65.4117 32.221 58.6356 34.3423L48.604 37.4827C42.9493 39.2529 37.2119 34.9942 37.2691 29.0692V29.0692Z" fill="#8A6EE6"/>
<path d="M84.3105 21.5326H46.1569C41.0997 21.5326 37 25.6323 37 30.6895V68.8431C37 73.9003 41.0997 78 46.1569 78H84.3105C89.3677 78 93.4674 73.9003 93.4674 68.8431V30.6895C93.4674 25.6323 89.3677 21.5326 84.3105 21.5326Z" fill="url(#paint0_linear_1439_3207)"/>
<mask id="mask0_1439_3207" style="mask-type:alpha" maskUnits="userSpaceOnUse" x="37" y="21" width="57" height="57">
<path d="M84.3105 21.5326H46.1569C41.0997 21.5326 37 25.6323 37 30.6895V68.8431C37 73.9003 41.0997 78 46.1569 78H84.3105C89.3677 78 93.4674 73.9003 93.4674 68.8431V30.6895C93.4674 25.6323 89.3677 21.5326 84.3105 21.5326Z" fill="url(#paint1_linear_1439_3207)" fill-opacity="0.8"/>
<path d="M84.3105 21.5326H46.1569C41.0997 21.5326 37 25.6323 37 30.6895V68.8431C37 73.9003 41.0997 78 46.1569 78H84.3105C89.3677 78 93.4674 73.9003 93.4674 68.8431V30.6895C93.4674 25.6323 89.3677 21.5326 84.3105 21.5326Z" fill="url(#paint2_linear_1439_3207)"/>
</mask>
<g mask="url(#mask0_1439_3207)">
<g opacity="0.75" filter="url(#filter0_f_1439_3207)">
<path opacity="0.75" d="M55.97 42.9096C70.7103 42.9096 82.6597 37.1611 82.6597 30.07C82.6597 22.9788 70.7103 17.2303 55.97 17.2303C41.2297 17.2303 29.2803 22.9788 29.2803 30.07C29.2803 37.1611 41.2297 42.9096 55.97 42.9096Z" fill="#1C5AF6"/>
</g>
<g style="mix-blend-mode:soft-light">
<path d="M84.3105 21.5326H46.1569C41.0997 21.5326 37 25.6323 37 30.6895V68.8431C37 73.9003 41.0997 78 46.1569 78H84.3105C89.3677 78 93.4674 73.9003 93.4674 68.8431V30.6895C93.4674 25.6323 89.3677 21.5326 84.3105 21.5326Z" fill="white" fill-opacity="0.07"/>
</g>
<g filter="url(#filter1_dd_1439_3207)">
<path d="M67.5549 32.7524H68.367C69.6146 32.802 70.8636 33.0333 72.0202 33.5105C72.8043 33.8331 73.5772 34.2423 74.1555 34.8755C74.4915 35.2429 74.7562 35.6772 74.927 36.1455C75.1216 36.6887 75.1944 37.2726 75.1664 37.8478C75.137 38.3861 75.0194 38.9243 74.7884 39.413C74.6064 39.7731 74.4257 40.1366 74.1891 40.4651C73.8922 40.8824 73.5128 41.2493 73.0563 41.4864C72.5102 41.7682 71.8661 41.8788 71.2626 41.7441C70.4757 41.5819 69.8008 40.9821 69.5334 40.2276C69.4844 39.9961 69.5166 39.7454 69.6174 39.5315C69.679 39.3934 69.84 39.3545 69.9758 39.3371C70.2727 39.3027 70.5541 39.4256 70.8454 39.4525C71.0414 39.4783 71.2024 39.3228 71.2948 39.166C71.3984 39.0086 71.4181 38.8165 71.4195 38.6331C71.4195 38.3225 71.425 38.0083 71.3592 37.7028C71.3074 37.4437 71.1702 37.2127 71.0274 36.9943C70.8062 36.663 70.4701 36.4333 70.1271 36.2429C69.581 35.9237 68.9467 35.7954 68.3222 35.7517C67.7873 35.7089 67.2468 35.7357 66.7203 35.8461C65.743 36.0612 64.8664 36.6266 64.1901 37.3547C63.623 37.9495 63.1568 38.6661 62.9691 39.4738C62.7871 40.2517 62.8669 41.0927 63.2142 41.8147C63.5082 42.4316 63.9689 42.9564 64.5038 43.3773C65.2865 44.0259 66.135 44.5899 67.0186 45.0906C67.5492 45.3987 68.1121 45.6448 68.6652 45.9097C69.2211 46.1789 69.77 46.4614 70.3133 46.7555C70.6479 46.9423 70.991 47.1178 71.3214 47.3142C71.8031 47.6032 72.261 47.9336 72.6867 48.3016C73.0045 48.5702 73.286 48.8782 73.594 49.158C74.0071 49.5503 74.3837 49.9785 74.7324 50.428C74.9522 50.7153 75.1678 51.0074 75.3555 51.3182C75.8385 52.1144 76.1648 53.0063 76.3034 53.928C76.3524 54.2371 76.372 54.5499 76.3902 54.8622V55.3663C76.3636 56.0608 76.302 56.7564 76.1564 57.4372C75.938 58.5011 75.5417 59.5311 74.9662 60.4538C74.4677 61.2559 73.8404 61.9736 73.1291 62.5933C72.4472 63.1781 71.7051 63.6925 70.928 64.144C69.945 64.7108 68.8949 65.1644 67.7999 65.4672C66.9122 65.7189 65.995 65.8416 65.0807 65.941C64.9672 66.1191 64.8622 66.3028 64.7558 66.4854C64.4996 66.9396 64.2909 67.4308 63.9339 67.8192C63.5684 68.234 63.0602 68.5513 62.4987 68.5927C62.038 68.6317 61.5731 68.4642 61.2175 68.1721C60.768 67.7924 60.5047 67.218 60.4445 66.6375C60.4151 66.461 60.5314 66.2647 60.7148 66.2353C61.2469 66.13 61.7733 65.9721 62.2592 65.729C62.3278 65.6934 62.4006 65.6654 62.4595 65.6156C62.4889 65.5307 62.3866 65.489 62.3222 65.4711C61.8826 65.3593 61.4359 65.2666 61.0004 65.1356C60.4179 64.967 59.8466 64.7637 59.2866 64.5313C58.8623 64.3531 58.438 64.1675 58.0488 63.9199C57.4117 63.4469 56.8026 62.9188 56.3363 62.2721C55.8784 61.6342 55.7286 60.838 55.667 60.0707V59.5946C55.6866 59.4112 55.7118 59.2278 55.7566 59.0486C55.9414 58.2628 56.4119 57.5629 57.021 57.0409C57.8457 56.3305 58.9463 55.93 60.0385 56.0059C60.922 56.0627 61.7691 56.4187 62.4749 56.9449C63.203 57.4851 63.7981 58.1908 64.2643 58.9654C64.7754 59.8181 65.1465 60.7557 65.3467 61.73C65.3663 61.8221 65.3747 61.9176 65.4097 62.0064C65.8284 61.9154 66.2316 61.7681 66.6293 61.614C67.489 61.2673 68.3026 60.8047 69.0237 60.2211C69.6048 59.7492 70.1284 59.2006 70.5387 58.573C70.963 57.9231 71.2724 57.1899 71.3901 56.4201C71.4251 56.1675 71.4741 55.9135 71.4559 55.6575C71.4307 55.3581 71.3704 55.0621 71.278 54.7768C71.0106 53.9644 70.4981 53.2567 69.9058 52.6498C69.1497 51.8601 68.283 51.1799 67.3476 50.6156C65.9306 49.7984 64.5094 48.9871 63.0825 48.1879C61.6879 47.4262 60.4067 46.4457 59.3552 45.2519C58.7405 44.5742 58.2574 43.7705 57.9928 42.8928C57.6833 41.8816 57.6931 40.8003 57.8583 39.7645C58.0712 38.4533 58.6635 37.2057 59.5526 36.218C60.1281 35.5708 60.8128 35.0284 61.5465 34.5708C62.36 34.0658 63.2268 33.6435 64.1397 33.3501C65.2417 32.988 66.3969 32.7995 67.5549 32.7524ZM58.4114 59.272C58.2812 59.5 58.2532 59.7702 58.2616 60.0281C58.2826 60.418 58.487 60.7809 58.7727 61.0408C59.1605 61.399 59.6492 61.6191 60.1393 61.7997C60.3969 61.8896 60.6504 61.9938 60.9136 62.066C61.3519 62.1909 61.8014 62.2643 62.248 62.3438C62.3978 62.3685 62.5449 62.4057 62.6975 62.4043C62.4188 61.4236 61.9232 60.5039 61.2567 59.7338C61.041 59.4815 60.8016 59.2471 60.5243 59.0628C60.2135 58.8534 59.8536 58.7016 59.4756 58.6834C59.0485 58.6657 58.6313 58.9105 58.4114 59.272Z" fill="white"/>
</g>
</g>
<path d="M120.232 42.79C120.232 44.15 119.718 45.25 118.692 46.09C117.665 46.93 116.312 47.35 114.632 47.35C113.178 47.35 111.812 47.1634 110.532 46.79V42.01H110.572L113.212 46.57C113.332 46.7834 113.478 46.9034 113.652 46.93C113.852 46.9567 114.132 46.97 114.492 46.97C115.318 46.97 115.978 46.77 116.472 46.37C116.965 45.97 117.212 45.4034 117.212 44.67C117.212 44.0434 117.005 43.5434 116.592 43.17C116.178 42.7834 115.465 42.35 114.452 41.87L113.832 41.57C113.298 41.3167 112.845 41.0767 112.472 40.85C112.098 40.61 111.712 40.3167 111.312 39.97C110.925 39.61 110.625 39.19 110.412 38.71C110.212 38.2167 110.112 37.67 110.112 37.07C110.112 35.8034 110.585 34.79 111.532 34.03C112.478 33.27 113.738 32.89 115.312 32.89C116.605 32.89 117.885 33.0434 119.152 33.35V37.91H119.112L116.412 33.59C116.305 33.43 116.172 33.3367 116.012 33.31C115.865 33.2834 115.672 33.27 115.432 33.27C114.712 33.27 114.132 33.4634 113.692 33.85C113.265 34.2367 113.052 34.7767 113.052 35.47C113.052 36.0567 113.245 36.53 113.632 36.89C114.032 37.25 114.685 37.65 115.592 38.09L116.332 38.45C116.852 38.7034 117.265 38.9167 117.572 39.09C117.878 39.25 118.218 39.47 118.592 39.75C118.978 40.0167 119.272 40.2834 119.472 40.55C119.685 40.8167 119.865 41.1434 120.012 41.53C120.158 41.9167 120.232 42.3367 120.232 42.79ZM133.523 47.35C131.616 47.35 130.23 46.97 129.363 46.21C128.51 45.4367 128.083 44.1567 128.083 42.37V34.89C128.083 34.69 128.016 34.53 127.883 34.41L126.683 33.13V33.09H133.143V33.13L131.903 34.41C131.77 34.53 131.703 34.69 131.703 34.89V42.15C131.703 43.7234 131.956 44.8567 132.463 45.55C132.983 46.2434 133.75 46.59 134.763 46.59C135.723 46.59 136.47 46.21 137.003 45.45C137.536 44.69 137.803 43.5634 137.803 42.07V36.45C137.803 36.21 137.716 35.99 137.543 35.79L135.583 33.13V33.09H140.443V33.13L138.483 35.79C138.31 35.99 138.223 36.21 138.223 36.45V42.03C138.223 43.7634 137.856 45.0834 137.123 45.99C136.39 46.8967 135.19 47.35 133.523 47.35ZM161.94 45.37C161.94 45.57 162.007 45.73 162.14 45.85L163.46 47.11V47.15H156.8V47.11L158.14 45.85C158.26 45.73 158.32 45.57 158.32 45.37V37.33C158.32 36.93 158.34 36.53 158.38 36.13L153.86 47.31H153.82L149.14 37.03C148.94 36.6167 148.813 36.3234 148.76 36.15V43.79C148.76 43.99 148.847 44.21 149.02 44.45L151.04 47.11V47.15H146.06V47.11L148.08 44.45C148.253 44.21 148.34 43.99 148.34 43.79V35.87C148.34 35.63 148.28 35.4367 148.16 35.29L146.52 33.13V33.09H151.3L155.48 42.21L159.16 33.09H163.46V33.13L162.14 34.59C162.007 34.7234 161.94 34.89 161.94 35.09V45.37ZM176.312 40.59H175.272V45.39C175.272 45.59 175.339 45.75 175.472 45.87L176.812 47.11V47.15H170.132V47.11L171.472 45.85C171.592 45.73 171.652 45.57 171.652 45.37V34.87C171.652 34.67 171.592 34.51 171.472 34.39L170.132 33.13V33.09H177.852C179.199 33.09 180.305 33.3834 181.172 33.97C182.052 34.5567 182.492 35.4634 182.492 36.69C182.492 37.7567 182.105 38.61 181.332 39.25C180.572 39.8767 179.499 40.2434 178.112 40.35V40.39L180.692 41.15L182.512 45.47C182.605 45.71 182.785 45.9634 183.052 46.23L183.912 47.11V47.15H179.232L176.752 40.83C176.672 40.67 176.525 40.59 176.312 40.59ZM175.272 33.87V40.19H176.312C177.859 40.19 178.632 39.0967 178.632 36.91C178.632 34.63 177.885 33.49 176.392 33.49H175.632C175.472 33.49 175.372 33.5167 175.332 33.57C175.292 33.61 175.272 33.71 175.272 33.87ZM192.463 42.25L191.943 43.85C191.89 44.01 191.87 44.1234 191.883 44.19C191.91 44.2567 191.983 44.3767 192.103 44.55L193.883 47.11V47.15H189.143V47.11L191.063 44.55C191.277 44.27 191.43 43.99 191.523 43.71L194.303 35.19C194.37 35.0034 194.397 34.8767 194.383 34.81C194.37 34.73 194.303 34.6234 194.183 34.49L193.003 33.13V33.09H197.703L201.443 44.95C201.51 45.1767 201.643 45.45 201.843 45.77L202.683 47.11V47.15H196.763V47.11L197.723 45.77C197.817 45.6367 197.83 45.4567 197.763 45.23L196.823 42.25H192.463ZM194.683 35.37L192.583 41.85H196.703L194.683 35.37Z" fill="#323B4B"/>
<path opacity="0.8" d="M112.129 66.85C112.056 66.85 111.993 66.8243 111.942 66.773C111.891 66.7216 111.865 66.6593 111.865 66.586V59.425C111.865 59.3443 111.887 59.2783 111.931 59.227C111.982 59.1756 112.048 59.15 112.129 59.15H113.02C113.159 59.15 113.269 59.2196 113.35 59.359L115.473 63.297L117.596 59.359C117.677 59.2196 117.787 59.15 117.926 59.15H118.806C118.887 59.15 118.953 59.1756 119.004 59.227C119.055 59.2783 119.081 59.3443 119.081 59.425V66.586C119.081 66.6666 119.055 66.7326 119.004 66.784C118.953 66.828 118.887 66.85 118.806 66.85H117.86C117.787 66.85 117.724 66.8243 117.673 66.773C117.622 66.7216 117.596 66.6593 117.596 66.586V61.856L116.067 64.76C115.986 64.9213 115.865 65.002 115.704 65.002H115.242C115.088 65.002 114.963 64.9213 114.868 64.76L113.339 61.856V66.586C113.339 66.6593 113.313 66.7216 113.262 66.773C113.218 66.8243 113.156 66.85 113.075 66.85H112.129ZM121.319 66.85C121.253 66.85 121.198 66.828 121.154 66.784C121.11 66.74 121.088 66.685 121.088 66.619L121.11 66.52L123.75 59.425C123.823 59.2416 123.955 59.15 124.146 59.15H125.356C125.546 59.15 125.678 59.2416 125.752 59.425L128.392 66.52L128.414 66.619C128.414 66.685 128.388 66.74 128.337 66.784C128.293 66.828 128.241 66.85 128.183 66.85H127.204C127.05 66.85 126.943 66.7803 126.885 66.641L126.379 65.31H123.123L122.617 66.641C122.558 66.7803 122.452 66.85 122.298 66.85H121.319ZM123.508 64.034H125.994L124.751 60.646L123.508 64.034ZM130.693 66.85C130.62 66.85 130.558 66.8243 130.506 66.773C130.455 66.7216 130.429 66.6593 130.429 66.586V59.425C130.429 59.3443 130.451 59.2783 130.495 59.227C130.547 59.1756 130.613 59.15 130.693 59.15H133.542C134.444 59.15 135.148 59.359 135.654 59.777C136.168 60.195 136.424 60.789 136.424 61.559C136.424 62.0943 136.296 62.5453 136.039 62.912C135.783 63.2713 135.423 63.5316 134.961 63.693L136.556 66.498C136.578 66.542 136.589 66.5823 136.589 66.619C136.589 66.685 136.564 66.74 136.512 66.784C136.468 66.828 136.417 66.85 136.358 66.85H135.346C135.229 66.85 135.137 66.8243 135.071 66.773C135.005 66.7143 134.947 66.641 134.895 66.553L133.487 63.946H131.98V66.586C131.98 66.6593 131.955 66.7216 131.903 66.773C131.852 66.8243 131.786 66.85 131.705 66.85H130.693ZM133.509 62.692C133.949 62.692 134.279 62.5966 134.499 62.406C134.719 62.208 134.829 61.922 134.829 61.548C134.829 61.174 134.719 60.888 134.499 60.69C134.279 60.4846 133.949 60.382 133.509 60.382H131.98V62.692H133.509ZM139.105 66.85C139.032 66.85 138.97 66.8243 138.918 66.773C138.867 66.7216 138.841 66.6593 138.841 66.586V59.425C138.841 59.3443 138.863 59.2783 138.907 59.227C138.959 59.1756 139.025 59.15 139.105 59.15H140.095C140.176 59.15 140.242 59.1756 140.293 59.227C140.345 59.2783 140.37 59.3443 140.37 59.425V61.999L142.823 59.348C142.933 59.216 143.076 59.15 143.252 59.15H144.374C144.433 59.15 144.484 59.172 144.528 59.216C144.58 59.26 144.605 59.315 144.605 59.381C144.605 59.4323 144.587 59.4763 144.55 59.513L141.558 62.835L144.77 66.476C144.8 66.5273 144.814 66.575 144.814 66.619C144.814 66.685 144.792 66.74 144.748 66.784C144.704 66.828 144.653 66.85 144.594 66.85H143.439C143.285 66.85 143.175 66.8206 143.109 66.762C143.043 66.696 143.007 66.6593 142.999 66.652L140.37 63.748V66.586C140.37 66.6593 140.345 66.7216 140.293 66.773C140.242 66.8243 140.176 66.85 140.095 66.85H139.105ZM147.066 66.85C146.993 66.85 146.931 66.8243 146.879 66.773C146.828 66.7216 146.802 66.6593 146.802 66.586V59.425C146.802 59.3443 146.824 59.2783 146.868 59.227C146.92 59.1756 146.986 59.15 147.066 59.15H151.917C151.998 59.15 152.064 59.1756 152.115 59.227C152.167 59.2783 152.192 59.3443 152.192 59.425V60.162C152.192 60.2426 152.167 60.3086 152.115 60.36C152.064 60.404 151.998 60.426 151.917 60.426H148.309V62.351H151.675C151.756 62.351 151.822 62.3766 151.873 62.428C151.925 62.4793 151.95 62.5453 151.95 62.626V63.319C151.95 63.3996 151.925 63.4656 151.873 63.517C151.822 63.561 151.756 63.583 151.675 63.583H148.309V65.574H152.005C152.086 65.574 152.152 65.5996 152.203 65.651C152.255 65.695 152.28 65.7573 152.28 65.838V66.586C152.28 66.6666 152.255 66.7326 152.203 66.784C152.152 66.828 152.086 66.85 152.005 66.85H147.066ZM156.614 66.85C156.541 66.85 156.478 66.8243 156.427 66.773C156.376 66.7216 156.35 66.6593 156.35 66.586V60.525H154.315C154.242 60.525 154.179 60.4993 154.128 60.448C154.077 60.3966 154.051 60.3306 154.051 60.25V59.425C154.051 59.3443 154.073 59.2783 154.117 59.227C154.168 59.1756 154.234 59.15 154.315 59.15H159.936C160.017 59.15 160.083 59.1756 160.134 59.227C160.185 59.2783 160.211 59.3443 160.211 59.425V60.25C160.211 60.3306 160.185 60.3966 160.134 60.448C160.083 60.4993 160.017 60.525 159.936 60.525H157.912V66.586C157.912 66.6593 157.886 66.7216 157.835 66.773C157.791 66.8243 157.729 66.85 157.648 66.85H156.614ZM162.591 66.85C162.517 66.85 162.455 66.8243 162.404 66.773C162.352 66.7216 162.327 66.6593 162.327 66.586V59.425C162.327 59.3443 162.349 59.2783 162.393 59.227C162.444 59.1756 162.51 59.15 162.591 59.15H165.539C166.426 59.15 167.123 59.359 167.629 59.777C168.135 60.195 168.388 60.8036 168.388 61.603C168.388 62.395 168.135 62.9963 167.629 63.407C167.123 63.8103 166.426 64.012 165.539 64.012H163.922V66.586C163.922 66.6666 163.896 66.7326 163.845 66.784C163.793 66.828 163.727 66.85 163.647 66.85H162.591ZM165.484 62.78C165.909 62.78 166.232 62.681 166.452 62.483C166.679 62.2776 166.793 61.9806 166.793 61.592C166.793 61.2106 166.683 60.9136 166.463 60.701C166.25 60.4883 165.924 60.382 165.484 60.382H163.9V62.78H165.484ZM170.852 66.85C170.779 66.85 170.717 66.8243 170.665 66.773C170.614 66.7216 170.588 66.6593 170.588 66.586V59.414C170.588 59.3333 170.614 59.271 170.665 59.227C170.717 59.1756 170.779 59.15 170.852 59.15H171.886C171.967 59.15 172.029 59.1756 172.073 59.227C172.125 59.271 172.15 59.3333 172.15 59.414V65.53H175.637C175.718 65.53 175.784 65.5556 175.835 65.607C175.887 65.6583 175.912 65.7206 175.912 65.794V66.586C175.912 66.6593 175.887 66.7216 175.835 66.773C175.784 66.8243 175.718 66.85 175.637 66.85H170.852ZM177.507 66.85C177.441 66.85 177.386 66.828 177.342 66.784C177.298 66.74 177.276 66.685 177.276 66.619L177.298 66.52L179.938 59.425C180.011 59.2416 180.143 59.15 180.334 59.15H181.544C181.735 59.15 181.867 59.2416 181.94 59.425L184.58 66.52L184.602 66.619C184.602 66.685 184.576 66.74 184.525 66.784C184.481 66.828 184.43 66.85 184.371 66.85H183.392C183.238 66.85 183.132 66.7803 183.073 66.641L182.567 65.31H179.311L178.805 66.641C178.746 66.7803 178.64 66.85 178.486 66.85H177.507ZM179.696 64.034H182.182L180.939 60.646L179.696 64.034ZM189.437 66.96C188.425 66.96 187.641 66.7033 187.083 66.19C186.533 65.6693 186.24 64.9323 186.203 63.979C186.196 63.781 186.192 63.4583 186.192 63.011C186.192 62.5563 186.196 62.2263 186.203 62.021C186.24 61.0823 186.537 60.3526 187.094 59.832C187.652 59.304 188.433 59.04 189.437 59.04C190.09 59.04 190.658 59.1536 191.142 59.381C191.626 59.601 192 59.9053 192.264 60.294C192.536 60.6826 192.679 61.119 192.693 61.603V61.625C192.693 61.6836 192.668 61.735 192.616 61.779C192.572 61.8156 192.521 61.834 192.462 61.834H191.395C191.307 61.834 191.241 61.8156 191.197 61.779C191.153 61.735 191.117 61.6616 191.087 61.559C190.977 61.1043 190.787 60.7853 190.515 60.602C190.244 60.4113 189.885 60.316 189.437 60.316C188.389 60.316 187.842 60.9026 187.798 62.076C187.791 62.274 187.787 62.5783 187.787 62.989C187.787 63.3996 187.791 63.7113 187.798 63.924C187.842 65.0973 188.389 65.684 189.437 65.684C189.877 65.684 190.233 65.5923 190.504 65.409C190.783 65.2183 190.977 64.8956 191.087 64.441C191.117 64.3383 191.153 64.2686 191.197 64.232C191.241 64.188 191.307 64.166 191.395 64.166H192.462C192.528 64.166 192.583 64.188 192.627 64.232C192.679 64.276 192.701 64.331 192.693 64.397C192.679 64.881 192.536 65.3173 192.264 65.706C192 66.0946 191.626 66.4026 191.142 66.63C190.658 66.85 190.09 66.96 189.437 66.96ZM195.262 66.85C195.188 66.85 195.126 66.8243 195.075 66.773C195.023 66.7216 194.998 66.6593 194.998 66.586V59.425C194.998 59.3443 195.02 59.2783 195.064 59.227C195.115 59.1756 195.181 59.15 195.262 59.15H200.113C200.193 59.15 200.259 59.1756 200.311 59.227C200.362 59.2783 200.388 59.3443 200.388 59.425V60.162C200.388 60.2426 200.362 60.3086 200.311 60.36C200.259 60.404 200.193 60.426 200.113 60.426H196.505V62.351H199.871C199.951 62.351 200.017 62.3766 200.069 62.428C200.12 62.4793 200.146 62.5453 200.146 62.626V63.319C200.146 63.3996 200.12 63.4656 200.069 63.517C200.017 63.561 199.951 63.583 199.871 63.583H196.505V65.574H200.201C200.281 65.574 200.347 65.5996 200.399 65.651C200.45 65.695 200.476 65.7573 200.476 65.838V66.586C200.476 66.6666 200.45 66.7326 200.399 66.784C200.347 66.828 200.281 66.85 200.201 66.85H195.262Z" fill="#323B4B"/>
<defs>
<filter id="filter0_f_1439_3207" x="-50.2012" y="-62.2511" width="212.343" height="184.642" filterUnits="userSpaceOnUse" color-interpolation-filters="sRGB">
<feFlood flood-opacity="0" result="BackgroundImageFix"/>
<feBlend mode="normal" in="SourceGraphic" in2="BackgroundImageFix" result="shape"/>
<feGaussianBlur stdDeviation="39.7407" result="effect1_foregroundBlur_1439_3207"/>
</filter>
<filter id="filter1_dd_1439_3207" x="34.1855" y="22.0117" width="63.6866" height="78.8088" filterUnits="userSpaceOnUse" color-interpolation-filters="sRGB">
<feFlood flood-opacity="0" result="BackgroundImageFix"/>
<feColorMatrix in="SourceAlpha" type="matrix" values="0 0 0 0 0 0 0 0 0 0 0 0 0 0 0 0 0 0 127 0" result="hardAlpha"/>
<feOffset dy="10.7407"/>
<feGaussianBlur stdDeviation="10.7407"/>
<feColorMatrix type="matrix" values="0 0 0 0 0.415502 0 0 0 0 0.3675 0 0 0 0 0.816667 0 0 0 0.1 0"/>
<feBlend mode="normal" in2="BackgroundImageFix" result="effect1_dropShadow_1439_3207"/>
<feColorMatrix in="SourceAlpha" type="matrix" values="0 0 0 0 0 0 0 0 0 0 0 0 0 0 0 0 0 0 127 0" result="hardAlpha"/>
<feOffset dy="10.7407"/>
<feGaussianBlur stdDeviation="10.7407"/>
<feColorMatrix type="matrix" values="0 0 0 0 0.415686 0 0 0 0 0.368627 0 0 0 0 0.815686 0 0 0 0.1 0"/>
<feBlend mode="normal" in2="effect1_dropShadow_1439_3207" result="effect2_dropShadow_1439_3207"/>
<feBlend mode="normal" in="SourceGraphic" in2="effect2_dropShadow_1439_3207" result="shape"/>
</filter>
<linearGradient id="paint0_linear_1439_3207" x1="39.3533" y1="14.4356" x2="110.475" y2="47.212" gradientUnits="userSpaceOnUse">
<stop offset="0.146779" stop-color="#545BE9"/>
<stop offset="0.832983" stop-color="#B782F8"/>
</linearGradient>
<linearGradient id="paint1_linear_1439_3207" x1="90.38" y1="22.4738" x2="66.331" y2="85.8952" gradientUnits="userSpaceOnUse">
<stop stop-color="#55C0F7"/>
<stop offset="1" stop-color="#A8E8FA"/>
</linearGradient>
<linearGradient id="paint2_linear_1439_3207" x1="38.7642" y1="22.3393" x2="62.3127" y2="88.5675" gradientUnits="userSpaceOnUse">
<stop stop-color="#1B5CF6"/>
<stop offset="0.503297" stop-color="#429EFF"/>
<stop offset="0.890632" stop-color="#D33BA7"/>
</linearGradient>
</defs>
</svg>
