<svg width="240" height="100" viewBox="0 0 240 100" fill="none" xmlns="http://www.w3.org/2000/svg">
<path fill-rule="evenodd" clip-rule="evenodd" d="M44.1176 80.5826L62.8824 69.7584C65.9529 67.8685 68 64.604 68 60.8242V39.1758C68 35.5678 66.1235 32.1315 62.8824 30.2416L44.1176 19.4174C40.8765 17.5275 37.1235 17.5275 33.8824 19.4174L15.1176 30.2416C11.8765 32.1315 10 35.5678 10 39.1758V60.8242C10 64.4322 11.8765 67.8685 15.1176 69.7584L33.8824 80.5826C37.1235 82.4725 40.8765 82.4725 44.1176 80.5826ZM16.623 67.1634C16.625 67.1645 16.6269 67.1657 16.6288 67.1668L35.3935 77.9909C37.7008 79.3363 40.2992 79.3363 42.6065 77.991L42.6186 77.9839L61.3435 67.1827C63.593 65.7837 65 63.4525 65 60.8242V39.1758C65 36.6052 63.6655 34.1737 61.3769 32.8365C61.375 32.8354 61.3731 32.8343 61.3712 32.8332L42.6065 22.0091C40.2991 20.6637 37.7008 20.6637 35.3935 22.009L35.3814 22.0161L16.6232 32.8365C14.3346 34.1737 13 36.6052 13 39.1758V60.8242C13 63.3947 14.3345 65.8262 16.623 67.1634Z" fill="url(#paint0_linear_1451_3160)"/>
<path d="M52.8027 50.0012C52.8027 52.5621 50.8877 54.5429 48.6289 54.5429C48.1468 54.5429 47.355 54.3395 46.2465 53.6906C45.171 53.061 44.0547 52.1635 43.001 51.169C41.5605 49.8096 40.3055 48.2443 39 46.7429C36.5325 44.1739 32.8162 41 29.3711 41C24.745 41 21 45.0289 21 49.9988C21 52.9636 22.3327 55.635 24.3901 57.2833C24.5516 57.1984 24.9552 56.9086 25.278 56.4286C25.6816 55.8286 25.0359 54.8 25.278 54.1143C25.4717 53.5657 26.0583 53.2434 26.3274 53.1508C25.6399 52.3509 25.1973 51.2559 25.1973 49.9988C25.1973 47.4379 27.1123 45.4571 29.3711 45.4571C29.8532 45.4571 30.645 45.6605 31.7535 46.3094C32.829 46.939 33.9453 47.8365 34.999 48.831C36.4517 50.202 37.6144 51.8544 39 53.297C41.4675 55.866 45.1838 59 48.6289 59C53.255 59 57 54.9711 57 50.0012C57 47.0364 55.6673 44.365 53.6099 42.7167C53.4484 42.8016 53.0448 43.0914 52.722 43.5714C52.3184 44.1714 52.9641 45.2 52.722 45.8857C52.5283 46.4343 51.9417 46.7566 51.6726 46.8492C52.3601 47.6491 52.8027 48.7441 52.8027 50.0012Z" fill="url(#paint1_linear_1451_3160)"/>
<path d="M52.5804 42.2899C52.7216 42.6238 52.5814 43.016 52.2671 43.166C51.9527 43.3159 51.5834 43.1669 51.4421 42.833C51.3009 42.4991 51.4411 42.1069 51.7555 41.9569C52.0698 41.8069 52.4391 41.956 52.5804 42.2899Z" fill="url(#paint2_linear_1451_3160)"/>
<path d="M52.2581 45.2046C52.3994 45.5385 52.2591 45.9307 51.9448 46.0807C51.6305 46.2307 51.2611 46.0816 51.1199 45.7477C50.9786 45.4139 51.1189 45.0216 51.4332 44.8717C51.7475 44.7217 52.1168 44.8708 52.2581 45.2046Z" fill="url(#paint3_linear_1451_3160)"/>
<path d="M52.0969 43.6622C52.2382 43.9961 52.0979 44.3883 51.7836 44.5383C51.4693 44.6883 51.1 44.5392 50.9587 44.2053C50.8174 43.8715 50.9577 43.4792 51.272 43.3293C51.5863 43.1793 51.9557 43.3284 52.0969 43.6622Z" fill="url(#paint4_linear_1451_3160)"/>
<path d="M51.1279 41.7763C51.2692 42.1101 51.1289 42.5024 50.8146 42.6523C50.5003 42.8023 50.1309 42.6532 49.9897 42.3194C49.8484 41.9855 49.9887 41.5933 50.303 41.4433C50.6173 41.2933 50.9866 41.4424 51.1279 41.7763Z" fill="url(#paint5_linear_1451_3160)"/>
<path d="M50.8056 44.6902C50.9469 45.0241 50.8066 45.4164 50.4923 45.5663C50.178 45.7163 49.8087 45.5672 49.6674 45.2334C49.5261 44.8995 49.6664 44.5072 49.9807 44.3573C50.295 44.2073 50.6643 44.3564 50.8056 44.6902Z" fill="url(#paint6_linear_1451_3160)"/>
<path d="M49.0294 44.3474C49.1706 44.6813 49.0304 45.0736 48.7161 45.2235C48.4018 45.3735 48.0324 45.2244 47.8912 44.8906C47.7499 44.5567 47.8902 44.1644 48.2045 44.0145C48.5188 43.8645 48.8881 44.0136 49.0294 44.3474Z" fill="url(#paint7_linear_1451_3160)"/>
<path d="M49.1905 42.8047C49.3318 43.1385 49.1915 43.5308 48.8772 43.6807C48.5629 43.8307 48.1936 43.6816 48.0523 43.3478C47.911 43.0139 48.0513 42.6217 48.3656 42.4717C48.6799 42.3217 49.0492 42.4708 49.1905 42.8047Z" fill="url(#paint8_linear_1451_3160)"/>
<path d="M48.0618 41.6047C48.2031 41.9385 48.0628 42.3308 47.7485 42.4807C47.4342 42.6307 47.0648 42.4816 46.9236 42.1478C46.7823 41.8139 46.9226 41.4217 47.2369 41.2717C47.5512 41.1217 47.9205 41.2708 48.0618 41.6047Z" fill="url(#paint9_linear_1451_3160)"/>
<path d="M46.4205 41.968C46.5264 42.2184 46.4212 42.5126 46.1855 42.6251C45.9498 42.7376 45.6728 42.6258 45.5668 42.3753C45.4609 42.1249 45.5661 41.8308 45.8018 41.7183C46.0375 41.6058 46.3145 41.7176 46.4205 41.968Z" fill="url(#paint10_linear_1451_3160)"/>
<path d="M45.1291 42.654C45.2351 42.9044 45.1299 43.1986 44.8942 43.3111C44.6584 43.4235 44.3814 43.3117 44.2755 43.0613C44.1695 42.8109 44.2747 42.5167 44.5105 42.4043C44.7462 42.2918 45.0232 42.4036 45.1291 42.654Z" fill="url(#paint11_linear_1451_3160)"/>
<path d="M43.9997 43.5108C44.1056 43.7612 44.0004 44.0554 43.7647 44.1679C43.529 44.2803 43.252 44.1685 43.146 43.9181C43.0401 43.6677 43.1453 43.3736 43.381 43.2611C43.6167 43.1486 43.8937 43.2604 43.9997 43.5108Z" fill="url(#paint12_linear_1451_3160)"/>
<path d="M46.0975 45.7392C46.2034 45.9896 46.0982 46.2838 45.8625 46.3963C45.6268 46.5087 45.3498 46.3969 45.2438 46.1465C45.1379 45.8961 45.2431 45.6019 45.4788 45.4895C45.7145 45.377 45.9915 45.4888 46.0975 45.7392Z" fill="url(#paint13_linear_1451_3160)"/>
<path d="M46.2593 43.8536C46.3653 44.104 46.2601 44.3982 46.0244 44.5107C45.7886 44.6231 45.5116 44.5113 45.4057 44.2609C45.2997 44.0105 45.4049 43.7164 45.6407 43.6039C45.8764 43.4914 46.1534 43.6032 46.2593 43.8536Z" fill="url(#paint14_linear_1451_3160)"/>
<path d="M45.1291 44.5396C45.2351 44.79 45.1299 45.0842 44.8942 45.1966C44.6584 45.3091 44.3814 45.1973 44.2755 44.9469C44.1695 44.6965 44.2747 44.4023 44.5105 44.2899C44.7462 44.1774 45.0232 44.2892 45.1291 44.5396Z" fill="url(#paint15_linear_1451_3160)"/>
<path d="M43.6512 46.2741C43.7218 46.4411 43.6517 46.6372 43.4945 46.7122C43.3374 46.7872 43.1527 46.7126 43.0821 46.5457C43.0114 46.3788 43.0816 46.1826 43.2387 46.1077C43.3959 46.0327 43.5805 46.1072 43.6512 46.2741Z" fill="url(#paint16_linear_1451_3160)"/>
<path d="M44.4576 46.9594C44.5283 47.1263 44.4581 47.3224 44.301 47.3974C44.1438 47.4724 43.9592 47.3978 43.8885 47.2309C43.8179 47.064 43.888 46.8679 44.0452 46.7929C44.2023 46.7179 44.387 46.7924 44.4576 46.9594Z" fill="url(#paint17_linear_1451_3160)"/>
<path d="M43.6512 44.731C43.7218 44.8979 43.6517 45.094 43.4945 45.169C43.3374 45.244 43.1527 45.1695 43.0821 45.0025C43.0114 44.8356 43.0816 44.6395 43.2387 44.5645C43.3959 44.4895 43.5805 44.564 43.6512 44.731Z" fill="url(#paint18_linear_1451_3160)"/>
<path d="M44.4576 45.5882C44.5283 45.7551 44.4581 45.9512 44.301 46.0262C44.1438 46.1012 43.9592 46.0266 43.8885 45.8597C43.8179 45.6928 43.888 45.4967 44.0452 45.4217C44.2023 45.3467 44.387 45.4212 44.4576 45.5882Z" fill="url(#paint19_linear_1451_3160)"/>
<path d="M45.2648 46.4453C45.3354 46.6123 45.2653 46.8084 45.1082 46.8834C44.951 46.9584 44.7663 46.8838 44.6957 46.7169C44.6251 46.55 44.6952 46.3538 44.8524 46.2789C45.0095 46.2039 45.1942 46.2784 45.2648 46.4453Z" fill="url(#paint20_linear_1451_3160)"/>
<path d="M42.8433 44.0454C42.9139 44.2123 42.8438 44.4084 42.6866 44.4834C42.5295 44.5584 42.3448 44.4839 42.2742 44.3169C42.2035 44.15 42.2737 43.9539 42.4308 43.8789C42.588 43.8039 42.7726 43.8784 42.8433 44.0454Z" fill="url(#paint21_linear_1451_3160)"/>
<path d="M42.0368 44.731C42.1075 44.8979 42.0373 45.094 41.8802 45.169C41.723 45.244 41.5384 45.1695 41.4677 45.0025C41.3971 44.8356 41.4672 44.6395 41.6244 44.5645C41.7815 44.4895 41.9662 44.564 42.0368 44.731Z" fill="url(#paint22_linear_1451_3160)"/>
<path d="M41.2289 45.4173C41.2996 45.5843 41.2294 45.7804 41.0723 45.8554C40.9151 45.9304 40.7305 45.8558 40.6598 45.6889C40.5892 45.5219 40.6593 45.3258 40.8165 45.2508C40.9736 45.1759 41.1583 45.2504 41.2289 45.4173Z" fill="url(#paint23_linear_1451_3160)"/>
<path d="M42.0368 46.1022C42.1075 46.2691 42.0373 46.4652 41.8802 46.5402C41.723 46.6152 41.5384 46.5407 41.4677 46.3737C41.3971 46.2068 41.4672 46.0107 41.6244 45.9357C41.7815 45.8607 41.9662 45.9352 42.0368 46.1022Z" fill="url(#paint24_linear_1451_3160)"/>
<path d="M42.8433 45.4166C42.9139 45.5835 42.8438 45.7796 42.6866 45.8546C42.5295 45.9296 42.3448 45.8551 42.2742 45.6881C42.2035 45.5212 42.2737 45.3251 42.4308 45.2501C42.588 45.1751 42.7726 45.2496 42.8433 45.4166Z" fill="url(#paint25_linear_1451_3160)"/>
<path d="M43.6512 47.6453C43.7218 47.8123 43.6517 48.0084 43.4945 48.0834C43.3374 48.1584 43.1527 48.0838 43.0821 47.9169C43.0114 47.75 43.0816 47.5538 43.2387 47.4789C43.3959 47.4039 43.5805 47.4784 43.6512 47.6453Z" fill="url(#paint26_linear_1451_3160)"/>
<path d="M42.8433 46.9594C42.9139 47.1263 42.8438 47.3224 42.6866 47.3974C42.5295 47.4724 42.3448 47.3978 42.2742 47.2309C42.2035 47.064 42.2737 46.8679 42.4308 46.7929C42.588 46.7179 42.7726 46.7924 42.8433 46.9594Z" fill="url(#paint27_linear_1451_3160)"/>
<path d="M41.2289 46.7878C41.2996 46.9547 41.2294 47.1508 41.0723 47.2258C40.9151 47.3008 40.7305 47.2263 40.6598 47.0593C40.5892 46.8924 40.6593 46.6963 40.8165 46.6213C40.9736 46.5463 41.1583 46.6208 41.2289 46.7878Z" fill="url(#paint28_linear_1451_3160)"/>
<path d="M40.421 46.1022C40.4917 46.2691 40.4215 46.4652 40.2644 46.5402C40.1072 46.6152 39.9226 46.5407 39.8519 46.3737C39.7813 46.2068 39.8514 46.0107 40.0086 45.9357C40.1657 45.8607 40.3504 45.9352 40.421 46.1022Z" fill="url(#paint29_linear_1451_3160)"/>
<path d="M39.939 46.7878C40.0097 46.9547 39.9395 47.1508 39.7824 47.2258C39.6252 47.3008 39.4406 47.2263 39.3699 47.0593C39.2993 46.8924 39.3694 46.6963 39.5266 46.6213C39.6837 46.5463 39.8684 46.6208 39.939 46.7878Z" fill="url(#paint30_linear_1451_3160)"/>
<path d="M40.7448 47.4741C40.8154 47.6411 40.7453 47.8372 40.5881 47.9122C40.431 47.9872 40.2463 47.9126 40.1757 47.7457C40.105 47.5787 40.1752 47.3826 40.3323 47.3076C40.4895 47.2327 40.6741 47.3072 40.7448 47.4741Z" fill="url(#paint31_linear_1451_3160)"/>
<path d="M42.0361 47.6453C42.1067 47.8123 42.0366 48.0084 41.8794 48.0834C41.7223 48.1584 41.5376 48.0838 41.467 47.9169C41.3964 47.75 41.4665 47.5538 41.6236 47.4789C41.7808 47.4039 41.9655 47.4784 42.0361 47.6453Z" fill="url(#paint32_linear_1451_3160)"/>
<path d="M42.8433 48.5021C42.9139 48.6691 42.8438 48.8652 42.6866 48.9402C42.5295 49.0152 42.3448 48.9406 42.2742 48.7737C42.2035 48.6068 42.2737 48.4106 42.4308 48.3357C42.588 48.2607 42.7726 48.3352 42.8433 48.5021Z" fill="url(#paint33_linear_1451_3160)"/>
<path d="M42.1965 49.3593C42.2672 49.5263 42.197 49.7224 42.0399 49.7974C41.8827 49.8724 41.698 49.7978 41.6274 49.6309C41.5568 49.464 41.6269 49.2678 41.7841 49.1929C41.9412 49.1179 42.1259 49.1924 42.1965 49.3593Z" fill="url(#paint34_linear_1451_3160)"/>
<path d="M41.5527 48.5021C41.6233 48.6691 41.5532 48.8652 41.396 48.9402C41.2389 49.0152 41.0542 48.9406 40.9836 48.7737C40.9129 48.6068 40.9831 48.4106 41.1402 48.3357C41.2974 48.2607 41.482 48.3352 41.5527 48.5021Z" fill="url(#paint35_linear_1451_3160)"/>
<path d="M47.55 43.1676C47.6559 43.418 47.5507 43.7122 47.315 43.8247C47.0792 43.9372 46.8022 43.8254 46.6963 43.575C46.5903 43.3246 46.6955 43.0304 46.9313 42.9179C47.167 42.8054 47.444 42.9172 47.55 43.1676Z" fill="url(#paint36_linear_1451_3160)"/>
<path d="M47.3895 45.0532C47.4955 45.3036 47.3903 45.5978 47.1545 45.7103C46.9188 45.8228 46.6418 45.711 46.5359 45.4605C46.4299 45.2101 46.5351 44.916 46.7709 44.8035C47.0066 44.691 47.2836 44.8028 47.3895 45.0532Z" fill="url(#paint37_linear_1451_3160)"/>
<path d="M50.6445 43.1478C50.7857 43.4817 50.6455 43.8739 50.3311 44.0239C50.0168 44.1739 49.6475 44.0248 49.5062 43.6909C49.365 43.3571 49.5052 42.9648 49.8195 42.8149C50.1339 42.6649 50.5032 42.814 50.6445 43.1478Z" fill="url(#paint38_linear_1451_3160)"/>
<path d="M49.6747 41.4327C49.816 41.7666 49.6757 42.1588 49.3614 42.3088C49.0471 42.4588 48.6777 42.3097 48.5365 41.9758C48.3952 41.6419 48.5355 41.2497 48.8498 41.0997C49.1641 40.9498 49.5334 41.0988 49.6747 41.4327Z" fill="url(#paint39_linear_1451_3160)"/>
<path d="M25.4573 57.7254C25.316 57.3915 25.4563 56.9993 25.7706 56.8493C26.0849 56.6993 26.4542 56.8484 26.5955 57.1823C26.7368 57.5161 26.5965 57.9084 26.2822 58.0583C25.9679 58.2083 25.5986 58.0592 25.4573 57.7254Z" fill="url(#paint40_linear_1451_3160)"/>
<path d="M25.7796 54.8114C25.6383 54.4775 25.7786 54.0853 26.0929 53.9353C26.4072 53.7853 26.7765 53.9344 26.9178 54.2683C27.0591 54.6021 26.9188 54.9944 26.6045 55.1443C26.2902 55.2943 25.9208 55.1452 25.7796 54.8114Z" fill="url(#paint41_linear_1451_3160)"/>
<path d="M25.9414 56.3542C25.8002 56.0203 25.9404 55.6281 26.2548 55.4781C26.5691 55.3281 26.9384 55.4772 27.0797 55.8111C27.2209 56.1449 27.0807 56.5372 26.7664 56.6871C26.452 56.8371 26.0827 56.688 25.9414 56.3542Z" fill="url(#paint42_linear_1451_3160)"/>
<path d="M26.909 58.2401C26.7678 57.9063 26.908 57.514 27.2223 57.364C27.5367 57.2141 27.906 57.3631 28.0473 57.697C28.1885 58.0309 28.0483 58.4231 27.7339 58.5731C27.4196 58.7231 27.0503 58.574 26.909 58.2401Z" fill="url(#paint43_linear_1451_3160)"/>
<path d="M27.2335 55.3254C27.0922 54.9915 27.2325 54.5993 27.5468 54.4493C27.8611 54.2993 28.2305 54.4484 28.3717 54.7823C28.513 55.1161 28.3727 55.5084 28.0584 55.6584C27.7441 55.8083 27.3748 55.6592 27.2335 55.3254Z" fill="url(#paint44_linear_1451_3160)"/>
<path d="M29.0068 55.6686C28.8655 55.3347 29.0058 54.9425 29.3201 54.7925C29.6344 54.6425 30.0038 54.7916 30.145 55.1255C30.2863 55.4593 30.146 55.8516 29.8317 56.0015C29.5174 56.1515 29.1481 56.0024 29.0068 55.6686Z" fill="url(#paint45_linear_1451_3160)"/>
<path d="M28.8471 57.2113C28.7059 56.8775 28.8461 56.4852 29.1604 56.3353C29.4747 56.1853 29.8441 56.3344 29.9853 56.6682C30.1266 57.0021 29.9863 57.3943 29.672 57.5443C29.3577 57.6943 28.9884 57.5452 28.8471 57.2113Z" fill="url(#paint46_linear_1451_3160)"/>
<path d="M29.9759 58.4117C29.8346 58.0778 29.9749 57.6856 30.2892 57.5356C30.6035 57.3857 30.9728 57.5347 31.1141 57.8686C31.2554 58.2025 31.1151 58.5947 30.8008 58.7447C30.4865 58.8947 30.1171 58.7456 29.9759 58.4117Z" fill="url(#paint47_linear_1451_3160)"/>
<path d="M31.6164 58.0484C31.5105 57.798 31.6157 57.5038 31.8514 57.3913C32.0871 57.2788 32.3641 57.3906 32.4701 57.641C32.5761 57.8914 32.4709 58.1856 32.2351 58.2981C31.9994 58.4106 31.7224 58.2988 31.6164 58.0484Z" fill="url(#paint48_linear_1451_3160)"/>
<path d="M32.9078 57.3628C32.8018 57.1124 32.907 56.8182 33.1428 56.7057C33.3785 56.5932 33.6555 56.705 33.7614 56.9554C33.8674 57.2058 33.7622 57.5 33.5265 57.6125C33.2907 57.725 33.0137 57.6132 32.9078 57.3628Z" fill="url(#paint49_linear_1451_3160)"/>
<path d="M34.0387 56.5056C33.9327 56.2552 34.0379 55.961 34.2737 55.8485C34.5094 55.736 34.7864 55.8478 34.8924 56.0982C34.9983 56.3486 34.8931 56.6428 34.6574 56.7553C34.4216 56.8678 34.1446 56.756 34.0387 56.5056Z" fill="url(#paint50_linear_1451_3160)"/>
<path d="M31.9402 54.2772C31.8342 54.0268 31.9394 53.7326 32.1752 53.6201C32.4109 53.5076 32.6879 53.6195 32.7938 53.8699C32.8998 54.1203 32.7946 54.4144 32.5589 54.5269C32.3231 54.6394 32.0461 54.5276 31.9402 54.2772Z" fill="url(#paint51_linear_1451_3160)"/>
<path d="M31.7783 56.1624C31.6724 55.912 31.7776 55.6178 32.0133 55.5053C32.249 55.3929 32.526 55.5047 32.632 55.7551C32.7379 56.0055 32.6327 56.2996 32.397 56.4121C32.1613 56.5246 31.8843 56.4128 31.7783 56.1624Z" fill="url(#paint52_linear_1451_3160)"/>
<path d="M32.9078 55.4768C32.8018 55.2264 32.907 54.9322 33.1428 54.8197C33.3785 54.7073 33.6555 54.8191 33.7614 55.0695C33.8674 55.3199 33.7622 55.614 33.5265 55.7265C33.2907 55.839 33.0137 55.7272 32.9078 55.4768Z" fill="url(#paint53_linear_1451_3160)"/>
<path d="M34.3872 53.7426C34.3166 53.5757 34.3867 53.3796 34.5438 53.3046C34.701 53.2296 34.8857 53.3041 34.9563 53.4711C35.0269 53.638 34.9568 53.8341 34.7996 53.9091C34.6425 53.9841 34.4578 53.9096 34.3872 53.7426Z" fill="url(#paint54_linear_1451_3160)"/>
<path d="M33.58 53.0574C33.5094 52.8905 33.5795 52.6943 33.7367 52.6194C33.8938 52.5444 34.0785 52.6189 34.1491 52.7858C34.2198 52.9528 34.1496 53.1489 33.9925 53.2239C33.8353 53.2989 33.6507 53.2243 33.58 53.0574Z" fill="url(#paint55_linear_1451_3160)"/>
<path d="M34.3872 55.2854C34.3166 55.1185 34.3867 54.9224 34.5438 54.8474C34.701 54.7724 34.8857 54.8469 34.9563 55.0139C35.0269 55.1808 34.9568 55.3769 34.7996 55.4519C34.6425 55.5269 34.4578 55.4523 34.3872 55.2854Z" fill="url(#paint56_linear_1451_3160)"/>
<path d="M33.58 54.4286C33.5094 54.2617 33.5795 54.0655 33.7367 53.9906C33.8938 53.9156 34.0785 53.9901 34.1491 54.157C34.2198 54.324 34.1496 54.5201 33.9925 54.5951C33.8353 54.6701 33.6507 54.5955 33.58 54.4286Z" fill="url(#paint57_linear_1451_3160)"/>
<path d="M32.7721 53.571C32.7015 53.4041 32.7716 53.208 32.9288 53.133C33.0859 53.058 33.2706 53.1325 33.3412 53.2995C33.4119 53.4664 33.3417 53.6625 33.1846 53.7375C33.0274 53.8125 32.8428 53.738 32.7721 53.571Z" fill="url(#paint58_linear_1451_3160)"/>
<path d="M35.1936 55.9706C35.123 55.8037 35.1931 55.6076 35.3503 55.5326C35.5075 55.4576 35.6921 55.5321 35.7628 55.6991C35.8334 55.866 35.7633 56.0621 35.6061 56.1371C35.4489 56.2121 35.2643 56.1376 35.1936 55.9706Z" fill="url(#paint59_linear_1451_3160)"/>
<path d="M36.0015 55.2854C35.9309 55.1185 36.001 54.9224 36.1582 54.8474C36.3154 54.7724 36.5 54.8469 36.5707 55.0139C36.6413 55.1808 36.5712 55.3769 36.414 55.4519C36.2568 55.5269 36.0722 55.4523 36.0015 55.2854Z" fill="url(#paint60_linear_1451_3160)"/>
<path d="M36.8087 54.5991C36.7381 54.4321 36.8082 54.236 36.9654 54.161C37.1225 54.086 37.3072 54.1606 37.3778 54.3275C37.4485 54.4944 37.3783 54.6906 37.2212 54.7655C37.064 54.8405 36.8794 54.766 36.8087 54.5991Z" fill="url(#paint61_linear_1451_3160)"/>
<path d="M36.0015 53.9138C35.9309 53.7469 36.001 53.5508 36.1582 53.4758C36.3154 53.4008 36.5 53.4753 36.5707 53.6423C36.6413 53.8092 36.5712 54.0053 36.414 54.0803C36.2568 54.1553 36.0722 54.0808 36.0015 53.9138Z" fill="url(#paint62_linear_1451_3160)"/>
<path d="M35.1936 54.5994C35.123 54.4325 35.1931 54.2364 35.3503 54.1614C35.5075 54.0864 35.6921 54.1609 35.7628 54.3279C35.8334 54.4948 35.7633 54.6909 35.6061 54.7659C35.4489 54.8409 35.2643 54.7664 35.1936 54.5994Z" fill="url(#paint63_linear_1451_3160)"/>
<path d="M34.3872 52.3714C34.3166 52.2045 34.3867 52.0084 34.5438 51.9334C34.701 51.8584 34.8857 51.9329 34.9563 52.0999C35.0269 52.2668 34.9568 52.4629 34.7996 52.5379C34.6425 52.6129 34.4578 52.5384 34.3872 52.3714Z" fill="url(#paint64_linear_1451_3160)"/>
<path d="M35.1936 53.0574C35.123 52.8905 35.1931 52.6943 35.3503 52.6194C35.5075 52.5444 35.6921 52.6189 35.7628 52.7858C35.8334 52.9528 35.7633 53.1489 35.6061 53.2239C35.4489 53.2989 35.2643 53.2243 35.1936 53.0574Z" fill="url(#paint65_linear_1451_3160)"/>
<path d="M36.6265 53.2309C36.5559 53.0639 36.626 52.8678 36.7832 52.7928C36.9403 52.7179 37.125 52.7924 37.1956 52.9593C37.2663 53.1263 37.1961 53.3224 37.039 53.3974C36.8818 53.4724 36.6972 53.3978 36.6265 53.2309Z" fill="url(#paint66_linear_1451_3160)"/>
<path d="M37.433 53.9165C37.3623 53.7495 37.4325 53.5534 37.5896 53.4784C37.7468 53.4035 37.9314 53.478 38.0021 53.6449C38.0727 53.8119 38.0026 54.008 37.8454 54.083C37.6883 54.158 37.5036 54.0834 37.433 53.9165Z" fill="url(#paint67_linear_1451_3160)"/>
<path d="M37.9171 53.2309C37.8465 53.0639 37.9166 52.8678 38.0738 52.7928C38.2309 52.7179 38.4156 52.7924 38.4862 52.9593C38.5569 53.1263 38.4867 53.3224 38.3296 53.3974C38.1724 53.4724 37.9878 53.3978 37.9171 53.2309Z" fill="url(#paint68_linear_1451_3160)"/>
<path d="M37.2726 52.5453C37.2019 52.3783 37.2721 52.1822 37.4292 52.1072C37.5864 52.0323 37.771 52.1068 37.8417 52.2737C37.9123 52.4407 37.8422 52.6368 37.685 52.7118C37.5279 52.7868 37.3432 52.7122 37.2726 52.5453Z" fill="url(#paint69_linear_1451_3160)"/>
<path d="M36.0023 52.3714C35.9316 52.2045 36.0018 52.0084 36.1589 51.9334C36.3161 51.8584 36.5007 51.9329 36.5714 52.0999C36.642 52.2668 36.5719 52.4629 36.4147 52.5379C36.2576 52.6129 36.0729 52.5384 36.0023 52.3714Z" fill="url(#paint70_linear_1451_3160)"/>
<path d="M35.1936 51.5142C35.123 51.3473 35.1931 51.1512 35.3503 51.0762C35.5075 51.0012 35.6921 51.0757 35.7628 51.2427C35.8334 51.4096 35.7633 51.6057 35.6061 51.6807C35.4489 51.7557 35.2643 51.6812 35.1936 51.5142Z" fill="url(#paint71_linear_1451_3160)"/>
<path d="M35.8194 50.8309C35.7487 50.664 35.8189 50.4678 35.976 50.3929C36.1332 50.3179 36.3178 50.3924 36.3885 50.5593C36.4591 50.7263 36.389 50.9224 36.2318 50.9974C36.0747 51.0724 35.89 50.9978 35.8194 50.8309Z" fill="url(#paint72_linear_1451_3160)"/>
<path d="M36.4639 51.6881C36.3933 51.5212 36.4634 51.325 36.6206 51.2501C36.7777 51.1751 36.9624 51.2496 37.033 51.4165C37.1037 51.5835 37.0335 51.7796 36.8764 51.8546C36.7192 51.9296 36.5346 51.855 36.4639 51.6881Z" fill="url(#paint73_linear_1451_3160)"/>
<path d="M30.487 56.8484C30.381 56.598 30.4862 56.3038 30.722 56.1913C30.9577 56.0788 31.2347 56.1906 31.3406 56.441C31.4466 56.6914 31.3414 56.9856 31.1057 57.0981C30.8699 57.2106 30.5929 57.0988 30.487 56.8484Z" fill="url(#paint74_linear_1451_3160)"/>
<path d="M30.6474 54.9624C30.5414 54.712 30.6466 54.4178 30.8824 54.3053C31.1181 54.1929 31.3951 54.3047 31.5011 54.5551C31.607 54.8055 31.5018 55.0997 31.2661 55.2121C31.0303 55.3246 30.7533 55.2128 30.6474 54.9624Z" fill="url(#paint75_linear_1451_3160)"/>
<path d="M27.3939 56.8685C27.2526 56.5347 27.3929 56.1424 27.7072 55.9925C28.0215 55.8425 28.3909 55.9916 28.5321 56.3254C28.6734 56.6593 28.5331 57.0515 28.2188 57.2015C27.9045 57.3515 27.5352 57.2024 27.3939 56.8685Z" fill="url(#paint76_linear_1451_3160)"/>
<path d="M28.3637 58.5825C28.2224 58.2487 28.3627 57.8564 28.677 57.7065C28.9913 57.5565 29.3606 57.7056 29.5019 58.0394C29.6432 58.3733 29.5029 58.7655 29.1886 58.9155C28.8743 59.0655 28.505 58.9164 28.3637 58.5825Z" fill="url(#paint77_linear_1451_3160)"/>
<path d="M89.1428 45.19C87.4202 45.19 86.0838 44.753 85.1338 43.879C84.1838 43.005 83.7088 41.6813 83.7088 39.908V32.175C83.7088 32.0357 83.7468 31.9217 83.8228 31.833C83.9115 31.7443 84.0255 31.7 84.1648 31.7H85.9128C86.0522 31.7 86.1662 31.7443 86.2548 31.833C86.3435 31.9217 86.3878 32.0357 86.3878 32.175V39.908C86.3878 40.9087 86.6222 41.6623 87.0908 42.169C87.5722 42.6757 88.2498 42.929 89.1238 42.929C89.9978 42.929 90.6692 42.6757 91.1378 42.169C91.6192 41.6623 91.8598 40.9087 91.8598 39.908V32.175C91.8598 32.0357 91.9042 31.9217 91.9928 31.833C92.0815 31.7443 92.1955 31.7 92.3348 31.7H94.0828C94.2222 31.7 94.3298 31.7443 94.4058 31.833C94.4945 31.9217 94.5388 32.0357 94.5388 32.175V39.908C94.5388 41.6813 94.0638 43.005 93.1138 43.879C92.1765 44.753 90.8528 45.19 89.1428 45.19ZM99.8423 45C99.7156 45 99.608 44.9557 99.5193 44.867C99.4306 44.7783 99.3863 44.6707 99.3863 44.544V32.156C99.3863 32.0167 99.4306 31.909 99.5193 31.833C99.608 31.7443 99.7156 31.7 99.8423 31.7H101.628C101.768 31.7 101.875 31.7443 101.951 31.833C102.04 31.909 102.084 32.0167 102.084 32.156V42.72H108.107C108.247 42.72 108.361 42.7643 108.449 42.853C108.538 42.9417 108.582 43.0493 108.582 43.176V44.544C108.582 44.6707 108.538 44.7783 108.449 44.867C108.361 44.9557 108.247 45 108.107 45H99.8423ZM113.656 45C113.529 45 113.422 44.9557 113.333 44.867C113.244 44.7783 113.2 44.6707 113.2 44.544V34.075H109.685C109.558 34.075 109.451 34.0307 109.362 33.942C109.273 33.8533 109.229 33.7393 109.229 33.6V32.175C109.229 32.0357 109.267 31.9217 109.343 31.833C109.432 31.7443 109.546 31.7 109.685 31.7H119.394C119.533 31.7 119.647 31.7443 119.736 31.833C119.825 31.9217 119.869 32.0357 119.869 32.175V33.6C119.869 33.7393 119.825 33.8533 119.736 33.942C119.647 34.0307 119.533 34.075 119.394 34.075H115.898V44.544C115.898 44.6707 115.854 44.7783 115.765 44.867C115.689 44.9557 115.581 45 115.442 45H113.656ZM121.588 45C121.474 45 121.379 44.962 121.303 44.886C121.227 44.81 121.189 44.715 121.189 44.601L121.227 44.43L125.787 32.175C125.914 31.8583 126.142 31.7 126.471 31.7H128.561C128.89 31.7 129.118 31.8583 129.245 32.175L133.805 44.43L133.843 44.601C133.843 44.715 133.799 44.81 133.71 44.886C133.634 44.962 133.545 45 133.444 45H131.753C131.487 45 131.303 44.8797 131.202 44.639L130.328 42.34H124.704L123.83 44.639C123.729 44.8797 123.545 45 123.279 45H121.588ZM125.369 40.136H129.663L127.516 34.284L125.369 40.136ZM138.053 45C137.927 45 137.819 44.9557 137.73 44.867C137.642 44.7783 137.597 44.6707 137.597 44.544V32.156C137.597 32.0167 137.642 31.909 137.73 31.833C137.819 31.7443 137.927 31.7 138.053 31.7H139.877C140.017 31.7 140.124 31.7443 140.2 31.833C140.289 31.909 140.333 32.0167 140.333 32.156V44.544C140.333 44.6707 140.289 44.7783 140.2 44.867C140.124 44.9557 140.017 45 139.877 45H138.053ZM145.75 45C145.623 45 145.515 44.9557 145.427 44.867C145.338 44.7783 145.294 44.6707 145.294 44.544V32.175C145.294 32.0357 145.332 31.9217 145.408 31.833C145.496 31.7443 145.61 31.7 145.75 31.7H147.232C147.472 31.7 147.656 31.8077 147.783 32.023L153.217 40.459V32.175C153.217 32.0357 153.255 31.9217 153.331 31.833C153.419 31.7443 153.533 31.7 153.673 31.7H155.307C155.446 31.7 155.56 31.7443 155.649 31.833C155.737 31.9217 155.782 32.0357 155.782 32.175V44.525C155.782 44.6643 155.737 44.7783 155.649 44.867C155.56 44.9557 155.452 45 155.326 45H153.825C153.571 45 153.381 44.8923 153.255 44.677L147.84 36.431V44.544C147.84 44.6707 147.795 44.7783 147.707 44.867C147.631 44.9557 147.523 45 147.384 45H145.75ZM161.183 45C161.056 45 160.949 44.9557 160.86 44.867C160.771 44.7783 160.727 44.6707 160.727 44.544V32.175C160.727 32.0357 160.765 31.9217 160.841 31.833C160.93 31.7443 161.044 31.7 161.183 31.7H169.448C169.587 31.7 169.701 31.7443 169.79 31.833C169.879 31.9217 169.923 32.0357 169.923 32.175V33.543C169.923 33.6697 169.879 33.7773 169.79 33.866C169.701 33.9547 169.587 33.999 169.448 33.999H163.368V37.571H169.068C169.207 37.571 169.321 37.6153 169.41 37.704C169.499 37.7927 169.543 37.9003 169.543 38.027V39.395C169.543 39.5217 169.499 39.6293 169.41 39.718C169.321 39.8067 169.207 39.851 169.068 39.851H163.368V44.544C163.368 44.6707 163.324 44.7783 163.235 44.867C163.146 44.9557 163.032 45 162.893 45H161.183ZM174.613 45C174.486 45 174.378 44.9557 174.29 44.867C174.201 44.7783 174.157 44.6707 174.157 44.544V32.156C174.157 32.0167 174.201 31.909 174.29 31.833C174.378 31.7443 174.486 31.7 174.613 31.7H176.437C176.576 31.7 176.684 31.7443 176.76 31.833C176.848 31.909 176.893 32.0167 176.893 32.156V44.544C176.893 44.6707 176.848 44.7783 176.76 44.867C176.684 44.9557 176.576 45 176.437 45H174.613ZM182.309 45C182.182 45 182.075 44.9557 181.986 44.867C181.897 44.7783 181.853 44.6707 181.853 44.544V32.175C181.853 32.0357 181.891 31.9217 181.967 31.833C182.056 31.7443 182.17 31.7 182.309 31.7H183.791C184.032 31.7 184.215 31.8077 184.342 32.023L189.776 40.459V32.175C189.776 32.0357 189.814 31.9217 189.89 31.833C189.979 31.7443 190.093 31.7 190.232 31.7H191.866C192.005 31.7 192.119 31.7443 192.208 31.833C192.297 31.9217 192.341 32.0357 192.341 32.175V44.525C192.341 44.6643 192.297 44.7783 192.208 44.867C192.119 44.9557 192.012 45 191.885 45H190.384C190.131 45 189.941 44.8923 189.814 44.677L184.399 36.431V44.544C184.399 44.6707 184.355 44.7783 184.266 44.867C184.19 44.9557 184.082 45 183.943 45H182.309ZM197.743 45C197.616 45 197.508 44.9557 197.42 44.867C197.331 44.7783 197.287 44.6707 197.287 44.544V32.156C197.287 32.0167 197.331 31.909 197.42 31.833C197.508 31.7443 197.616 31.7 197.743 31.7H199.567C199.706 31.7 199.814 31.7443 199.89 31.833C199.978 31.909 200.023 32.0167 200.023 32.156V44.544C200.023 44.6707 199.978 44.7783 199.89 44.867C199.814 44.9557 199.706 45 199.567 45H197.743ZM208.365 45C208.238 45 208.131 44.9557 208.042 44.867C207.953 44.7783 207.909 44.6707 207.909 44.544V34.075H204.394C204.267 34.075 204.16 34.0307 204.071 33.942C203.982 33.8533 203.938 33.7393 203.938 33.6V32.175C203.938 32.0357 203.976 31.9217 204.052 31.833C204.141 31.7443 204.255 31.7 204.394 31.7H214.103C214.242 31.7 214.356 31.7443 214.445 31.833C214.534 31.9217 214.578 32.0357 214.578 32.175V33.6C214.578 33.7393 214.534 33.8533 214.445 33.942C214.356 34.0307 214.242 34.075 214.103 34.075H210.607V44.544C210.607 44.6707 210.563 44.7783 210.474 44.867C210.398 44.9557 210.29 45 210.151 45H208.365ZM222.457 45C222.331 45 222.223 44.9557 222.134 44.867C222.046 44.7783 222.001 44.6707 222.001 44.544V40.269L217.498 32.308C217.46 32.194 217.441 32.1243 217.441 32.099C217.441 31.985 217.479 31.89 217.555 31.814C217.644 31.738 217.739 31.7 217.84 31.7H219.55C219.791 31.7 219.987 31.8203 220.139 32.061L223.331 37.571L226.542 32.061C226.593 31.9723 226.663 31.89 226.751 31.814C226.853 31.738 226.973 31.7 227.112 31.7H228.822C228.936 31.7 229.031 31.738 229.107 31.814C229.183 31.89 229.221 31.985 229.221 32.099C229.221 32.175 229.202 32.2447 229.164 32.308L224.68 40.269V44.544C224.68 44.6833 224.636 44.7973 224.547 44.886C224.459 44.962 224.345 45 224.205 45H222.457Z" fill="#323B4B"/>
<path opacity="0.8" d="M112.639 66C112.546 66 112.466 65.9673 112.401 65.902C112.336 65.8367 112.303 65.7573 112.303 65.664V56.55C112.303 56.4473 112.331 56.3633 112.387 56.298C112.452 56.2327 112.536 56.2 112.639 56.2H118.813C118.916 56.2 119 56.2327 119.065 56.298C119.13 56.3633 119.163 56.4473 119.163 56.55V57.488C119.163 57.5907 119.13 57.6747 119.065 57.74C119 57.796 118.916 57.824 118.813 57.824H114.221V60.274H118.505C118.608 60.274 118.692 60.3067 118.757 60.372C118.822 60.4373 118.855 60.5213 118.855 60.624V61.506C118.855 61.6087 118.822 61.6927 118.757 61.758C118.692 61.814 118.608 61.842 118.505 61.842H114.221V64.376H118.925C119.028 64.376 119.112 64.4087 119.177 64.474C119.242 64.53 119.275 64.6093 119.275 64.712V65.664C119.275 65.7667 119.242 65.8507 119.177 65.916C119.112 65.972 119.028 66 118.925 66H112.639ZM122.466 66C122.391 66 122.321 65.972 122.256 65.916C122.2 65.86 122.172 65.79 122.172 65.706C122.172 65.6687 122.19 65.6127 122.228 65.538L125.35 61.002L122.424 56.662C122.386 56.606 122.368 56.55 122.368 56.494C122.368 56.41 122.396 56.34 122.452 56.284C122.517 56.228 122.587 56.2 122.662 56.2H124.132C124.3 56.2 124.444 56.2887 124.566 56.466L126.61 59.462L128.668 56.466C128.77 56.2887 128.915 56.2 129.102 56.2H130.488C130.562 56.2 130.628 56.228 130.684 56.284C130.749 56.34 130.782 56.41 130.782 56.494C130.782 56.5313 130.763 56.5873 130.726 56.662L127.8 61.002L130.936 65.538C130.964 65.594 130.978 65.65 130.978 65.706C130.978 65.79 130.95 65.86 130.894 65.916C130.838 65.972 130.768 66 130.684 66H129.186C129.018 66 128.873 65.916 128.752 65.748L126.54 62.598L124.356 65.748C124.234 65.916 124.09 66 123.922 66H122.466ZM137.692 66.14C136.404 66.14 135.406 65.8133 134.696 65.16C133.996 64.4973 133.623 63.5593 133.576 62.346C133.567 62.094 133.562 61.6833 133.562 61.114C133.562 60.5353 133.567 60.1153 133.576 59.854C133.623 58.6593 134.001 57.7307 134.71 57.068C135.42 56.396 136.414 56.06 137.692 56.06C138.523 56.06 139.246 56.2047 139.862 56.494C140.478 56.774 140.954 57.1613 141.29 57.656C141.636 58.1507 141.818 58.706 141.836 59.322V59.35C141.836 59.4247 141.804 59.49 141.738 59.546C141.682 59.5927 141.617 59.616 141.542 59.616H140.184C140.072 59.616 139.988 59.5927 139.932 59.546C139.876 59.49 139.83 59.3967 139.792 59.266C139.652 58.6873 139.41 58.2813 139.064 58.048C138.719 57.8053 138.262 57.684 137.692 57.684C136.358 57.684 135.662 58.4307 135.606 59.924C135.597 60.176 135.592 60.5633 135.592 61.086C135.592 61.6087 135.597 62.0053 135.606 62.276C135.662 63.7693 136.358 64.516 137.692 64.516C138.252 64.516 138.705 64.3993 139.05 64.166C139.405 63.9233 139.652 63.5127 139.792 62.934C139.83 62.8033 139.876 62.7147 139.932 62.668C139.988 62.612 140.072 62.584 140.184 62.584H141.542C141.626 62.584 141.696 62.612 141.752 62.668C141.818 62.724 141.846 62.794 141.836 62.878C141.818 63.494 141.636 64.0493 141.29 64.544C140.954 65.0387 140.478 65.4307 139.862 65.72C139.246 66 138.523 66.14 137.692 66.14ZM145.832 66C145.739 66 145.66 65.9673 145.594 65.902C145.529 65.8367 145.496 65.7573 145.496 65.664V56.55C145.496 56.4473 145.524 56.3633 145.58 56.298C145.646 56.2327 145.73 56.2 145.832 56.2H147.12C147.223 56.2 147.307 56.2327 147.372 56.298C147.438 56.3633 147.47 56.4473 147.47 56.55V60.148H151.558V56.55C151.558 56.4473 151.591 56.3633 151.656 56.298C151.722 56.2327 151.801 56.2 151.894 56.2H153.196C153.299 56.2 153.378 56.2327 153.434 56.298C153.5 56.3633 153.532 56.4473 153.532 56.55V65.664C153.532 65.7573 153.5 65.8367 153.434 65.902C153.378 65.9673 153.299 66 153.196 66H151.894C151.801 66 151.722 65.9673 151.656 65.902C151.591 65.8367 151.558 65.7573 151.558 65.664V61.926H147.47V65.664C147.47 65.7573 147.438 65.8367 147.372 65.902C147.307 65.9673 147.223 66 147.12 66H145.832ZM157.121 66C157.037 66 156.967 65.972 156.911 65.916C156.855 65.86 156.827 65.79 156.827 65.706L156.855 65.58L160.215 56.55C160.308 56.3167 160.476 56.2 160.719 56.2H162.259C162.502 56.2 162.67 56.3167 162.763 56.55L166.123 65.58L166.151 65.706C166.151 65.79 166.118 65.86 166.053 65.916C165.997 65.972 165.932 66 165.857 66H164.611C164.415 66 164.28 65.9113 164.205 65.734L163.561 64.04H159.417L158.773 65.734C158.698 65.9113 158.563 66 158.367 66H157.121ZM159.907 62.416H163.071L161.489 58.104L159.907 62.416ZM169.78 66C169.686 66 169.607 65.9673 169.542 65.902C169.476 65.8367 169.444 65.7573 169.444 65.664V56.55C169.444 56.4473 169.472 56.3633 169.528 56.298C169.593 56.2327 169.677 56.2 169.78 56.2H170.872C171.049 56.2 171.184 56.2793 171.278 56.438L175.282 62.654V56.55C175.282 56.4473 175.31 56.3633 175.366 56.298C175.431 56.2327 175.515 56.2 175.618 56.2H176.822C176.924 56.2 177.008 56.2327 177.074 56.298C177.139 56.3633 177.172 56.4473 177.172 56.55V65.65C177.172 65.7527 177.139 65.8367 177.074 65.902C177.008 65.9673 176.929 66 176.836 66H175.73C175.543 66 175.403 65.9207 175.31 65.762L171.32 59.686V65.664C171.32 65.7573 171.287 65.8367 171.222 65.902C171.166 65.9673 171.086 66 170.984 66H169.78ZM185.164 66.14C183.876 66.14 182.873 65.8087 182.154 65.146C181.445 64.4833 181.067 63.5593 181.02 62.374C181.011 62.1033 181.006 61.6693 181.006 61.072C181.006 60.4747 181.011 60.0407 181.02 59.77C181.057 58.6127 181.44 57.7073 182.168 57.054C182.896 56.3913 183.895 56.06 185.164 56.06C186.023 56.06 186.76 56.2093 187.376 56.508C188.001 56.7973 188.473 57.1613 188.79 57.6C189.107 58.0293 189.275 58.454 189.294 58.874C189.294 58.958 189.266 59.028 189.21 59.084C189.154 59.14 189.079 59.168 188.986 59.168H187.516C187.423 59.168 187.353 59.1493 187.306 59.112C187.259 59.0747 187.217 59.014 187.18 58.93C187.049 58.5847 186.821 58.2907 186.494 58.048C186.167 57.8053 185.724 57.684 185.164 57.684C184.511 57.684 183.997 57.8613 183.624 58.216C183.26 58.5613 183.069 59.1027 183.05 59.84C183.041 60.1107 183.036 60.5213 183.036 61.072C183.036 61.6133 183.041 62.024 183.05 62.304C183.069 63.06 183.265 63.62 183.638 63.984C184.011 64.3387 184.525 64.516 185.178 64.516C185.841 64.516 186.373 64.3387 186.774 63.984C187.175 63.6293 187.376 63.0973 187.376 62.388V61.954H185.668C185.575 61.954 185.495 61.9213 185.43 61.856C185.365 61.7907 185.332 61.7113 185.332 61.618V60.848C185.332 60.7547 185.365 60.6753 185.43 60.61C185.495 60.5447 185.575 60.512 185.668 60.512H189.028C189.131 60.512 189.215 60.5447 189.28 60.61C189.345 60.6753 189.378 60.7547 189.378 60.848V62.332C189.378 63.1067 189.205 63.7833 188.86 64.362C188.515 64.9313 188.025 65.37 187.39 65.678C186.755 65.986 186.013 66.14 185.164 66.14ZM193.494 66C193.401 66 193.322 65.9673 193.256 65.902C193.191 65.8367 193.158 65.7573 193.158 65.664V56.55C193.158 56.4473 193.186 56.3633 193.242 56.298C193.308 56.2327 193.392 56.2 193.494 56.2H199.668C199.771 56.2 199.855 56.2327 199.92 56.298C199.986 56.3633 200.018 56.4473 200.018 56.55V57.488C200.018 57.5907 199.986 57.6747 199.92 57.74C199.855 57.796 199.771 57.824 199.668 57.824H195.076V60.274H199.36C199.463 60.274 199.547 60.3067 199.612 60.372C199.678 60.4373 199.71 60.5213 199.71 60.624V61.506C199.71 61.6087 199.678 61.6927 199.612 61.758C199.547 61.814 199.463 61.842 199.36 61.842H195.076V64.376H199.78C199.883 64.376 199.967 64.4087 200.032 64.474C200.098 64.53 200.13 64.6093 200.13 64.712V65.664C200.13 65.7667 200.098 65.8507 200.032 65.916C199.967 65.972 199.883 66 199.78 66H193.494Z" fill="#323B4B"/>
<defs>
<linearGradient id="paint0_linear_1451_3160" x1="126" y1="64.2975" x2="66.6589" y2="137.68" gradientUnits="userSpaceOnUse">
<stop offset="0.157256" stop-color="#A049D1"/>
<stop offset="0.344755" stop-color="#8948DA"/>
<stop offset="0.669352" stop-color="#667ED9"/>
<stop offset="0.868455" stop-color="#61A3CF"/>
</linearGradient>
<linearGradient id="paint1_linear_1451_3160" x1="92.9998" y1="54.0212" x2="81.9727" y2="84.1156" gradientUnits="userSpaceOnUse">
<stop offset="0.157256" stop-color="#A049D1"/>
<stop offset="0.344755" stop-color="#8948DA"/>
<stop offset="0.669352" stop-color="#667ED9"/>
<stop offset="0.868455" stop-color="#61A3CF"/>
</linearGradient>
<linearGradient id="paint2_linear_1451_3160" x1="92.9998" y1="54.0212" x2="81.9727" y2="84.1156" gradientUnits="userSpaceOnUse">
<stop offset="0.157256" stop-color="#A049D1"/>
<stop offset="0.344755" stop-color="#8948DA"/>
<stop offset="0.669352" stop-color="#667ED9"/>
<stop offset="0.868455" stop-color="#61A3CF"/>
</linearGradient>
<linearGradient id="paint3_linear_1451_3160" x1="92.9998" y1="54.0212" x2="81.9727" y2="84.1156" gradientUnits="userSpaceOnUse">
<stop offset="0.157256" stop-color="#A049D1"/>
<stop offset="0.344755" stop-color="#8948DA"/>
<stop offset="0.669352" stop-color="#667ED9"/>
<stop offset="0.868455" stop-color="#61A3CF"/>
</linearGradient>
<linearGradient id="paint4_linear_1451_3160" x1="92.9998" y1="54.0212" x2="81.9727" y2="84.1156" gradientUnits="userSpaceOnUse">
<stop offset="0.157256" stop-color="#A049D1"/>
<stop offset="0.344755" stop-color="#8948DA"/>
<stop offset="0.669352" stop-color="#667ED9"/>
<stop offset="0.868455" stop-color="#61A3CF"/>
</linearGradient>
<linearGradient id="paint5_linear_1451_3160" x1="92.9998" y1="54.0212" x2="81.9727" y2="84.1156" gradientUnits="userSpaceOnUse">
<stop offset="0.157256" stop-color="#A049D1"/>
<stop offset="0.344755" stop-color="#8948DA"/>
<stop offset="0.669352" stop-color="#667ED9"/>
<stop offset="0.868455" stop-color="#61A3CF"/>
</linearGradient>
<linearGradient id="paint6_linear_1451_3160" x1="92.9998" y1="54.0212" x2="81.9727" y2="84.1156" gradientUnits="userSpaceOnUse">
<stop offset="0.157256" stop-color="#A049D1"/>
<stop offset="0.344755" stop-color="#8948DA"/>
<stop offset="0.669352" stop-color="#667ED9"/>
<stop offset="0.868455" stop-color="#61A3CF"/>
</linearGradient>
<linearGradient id="paint7_linear_1451_3160" x1="92.9998" y1="54.0212" x2="81.9727" y2="84.1156" gradientUnits="userSpaceOnUse">
<stop offset="0.157256" stop-color="#A049D1"/>
<stop offset="0.344755" stop-color="#8948DA"/>
<stop offset="0.669352" stop-color="#667ED9"/>
<stop offset="0.868455" stop-color="#61A3CF"/>
</linearGradient>
<linearGradient id="paint8_linear_1451_3160" x1="92.9998" y1="54.0212" x2="81.9727" y2="84.1156" gradientUnits="userSpaceOnUse">
<stop offset="0.157256" stop-color="#A049D1"/>
<stop offset="0.344755" stop-color="#8948DA"/>
<stop offset="0.669352" stop-color="#667ED9"/>
<stop offset="0.868455" stop-color="#61A3CF"/>
</linearGradient>
<linearGradient id="paint9_linear_1451_3160" x1="92.9998" y1="54.0212" x2="81.9727" y2="84.1156" gradientUnits="userSpaceOnUse">
<stop offset="0.157256" stop-color="#A049D1"/>
<stop offset="0.344755" stop-color="#8948DA"/>
<stop offset="0.669352" stop-color="#667ED9"/>
<stop offset="0.868455" stop-color="#61A3CF"/>
</linearGradient>
<linearGradient id="paint10_linear_1451_3160" x1="92.9998" y1="54.0212" x2="81.9727" y2="84.1156" gradientUnits="userSpaceOnUse">
<stop offset="0.157256" stop-color="#A049D1"/>
<stop offset="0.344755" stop-color="#8948DA"/>
<stop offset="0.669352" stop-color="#667ED9"/>
<stop offset="0.868455" stop-color="#61A3CF"/>
</linearGradient>
<linearGradient id="paint11_linear_1451_3160" x1="92.9998" y1="54.0212" x2="81.9727" y2="84.1156" gradientUnits="userSpaceOnUse">
<stop offset="0.157256" stop-color="#A049D1"/>
<stop offset="0.344755" stop-color="#8948DA"/>
<stop offset="0.669352" stop-color="#667ED9"/>
<stop offset="0.868455" stop-color="#61A3CF"/>
</linearGradient>
<linearGradient id="paint12_linear_1451_3160" x1="92.9998" y1="54.0212" x2="81.9727" y2="84.1156" gradientUnits="userSpaceOnUse">
<stop offset="0.157256" stop-color="#A049D1"/>
<stop offset="0.344755" stop-color="#8948DA"/>
<stop offset="0.669352" stop-color="#667ED9"/>
<stop offset="0.868455" stop-color="#61A3CF"/>
</linearGradient>
<linearGradient id="paint13_linear_1451_3160" x1="92.9998" y1="54.0212" x2="81.9727" y2="84.1156" gradientUnits="userSpaceOnUse">
<stop offset="0.157256" stop-color="#A049D1"/>
<stop offset="0.344755" stop-color="#8948DA"/>
<stop offset="0.669352" stop-color="#667ED9"/>
<stop offset="0.868455" stop-color="#61A3CF"/>
</linearGradient>
<linearGradient id="paint14_linear_1451_3160" x1="92.9998" y1="54.0212" x2="81.9727" y2="84.1156" gradientUnits="userSpaceOnUse">
<stop offset="0.157256" stop-color="#A049D1"/>
<stop offset="0.344755" stop-color="#8948DA"/>
<stop offset="0.669352" stop-color="#667ED9"/>
<stop offset="0.868455" stop-color="#61A3CF"/>
</linearGradient>
<linearGradient id="paint15_linear_1451_3160" x1="92.9998" y1="54.0212" x2="81.9727" y2="84.1156" gradientUnits="userSpaceOnUse">
<stop offset="0.157256" stop-color="#A049D1"/>
<stop offset="0.344755" stop-color="#8948DA"/>
<stop offset="0.669352" stop-color="#667ED9"/>
<stop offset="0.868455" stop-color="#61A3CF"/>
</linearGradient>
<linearGradient id="paint16_linear_1451_3160" x1="92.9998" y1="54.0212" x2="81.9727" y2="84.1156" gradientUnits="userSpaceOnUse">
<stop offset="0.157256" stop-color="#A049D1"/>
<stop offset="0.344755" stop-color="#8948DA"/>
<stop offset="0.669352" stop-color="#667ED9"/>
<stop offset="0.868455" stop-color="#61A3CF"/>
</linearGradient>
<linearGradient id="paint17_linear_1451_3160" x1="92.9998" y1="54.0212" x2="81.9727" y2="84.1156" gradientUnits="userSpaceOnUse">
<stop offset="0.157256" stop-color="#A049D1"/>
<stop offset="0.344755" stop-color="#8948DA"/>
<stop offset="0.669352" stop-color="#667ED9"/>
<stop offset="0.868455" stop-color="#61A3CF"/>
</linearGradient>
<linearGradient id="paint18_linear_1451_3160" x1="92.9998" y1="54.0212" x2="81.9727" y2="84.1156" gradientUnits="userSpaceOnUse">
<stop offset="0.157256" stop-color="#A049D1"/>
<stop offset="0.344755" stop-color="#8948DA"/>
<stop offset="0.669352" stop-color="#667ED9"/>
<stop offset="0.868455" stop-color="#61A3CF"/>
</linearGradient>
<linearGradient id="paint19_linear_1451_3160" x1="92.9998" y1="54.0212" x2="81.9727" y2="84.1156" gradientUnits="userSpaceOnUse">
<stop offset="0.157256" stop-color="#A049D1"/>
<stop offset="0.344755" stop-color="#8948DA"/>
<stop offset="0.669352" stop-color="#667ED9"/>
<stop offset="0.868455" stop-color="#61A3CF"/>
</linearGradient>
<linearGradient id="paint20_linear_1451_3160" x1="92.9998" y1="54.0212" x2="81.9727" y2="84.1156" gradientUnits="userSpaceOnUse">
<stop offset="0.157256" stop-color="#A049D1"/>
<stop offset="0.344755" stop-color="#8948DA"/>
<stop offset="0.669352" stop-color="#667ED9"/>
<stop offset="0.868455" stop-color="#61A3CF"/>
</linearGradient>
<linearGradient id="paint21_linear_1451_3160" x1="92.9998" y1="54.0212" x2="81.9727" y2="84.1156" gradientUnits="userSpaceOnUse">
<stop offset="0.157256" stop-color="#A049D1"/>
<stop offset="0.344755" stop-color="#8948DA"/>
<stop offset="0.669352" stop-color="#667ED9"/>
<stop offset="0.868455" stop-color="#61A3CF"/>
</linearGradient>
<linearGradient id="paint22_linear_1451_3160" x1="92.9998" y1="54.0212" x2="81.9727" y2="84.1156" gradientUnits="userSpaceOnUse">
<stop offset="0.157256" stop-color="#A049D1"/>
<stop offset="0.344755" stop-color="#8948DA"/>
<stop offset="0.669352" stop-color="#667ED9"/>
<stop offset="0.868455" stop-color="#61A3CF"/>
</linearGradient>
<linearGradient id="paint23_linear_1451_3160" x1="92.9998" y1="54.0212" x2="81.9727" y2="84.1156" gradientUnits="userSpaceOnUse">
<stop offset="0.157256" stop-color="#A049D1"/>
<stop offset="0.344755" stop-color="#8948DA"/>
<stop offset="0.669352" stop-color="#667ED9"/>
<stop offset="0.868455" stop-color="#61A3CF"/>
</linearGradient>
<linearGradient id="paint24_linear_1451_3160" x1="92.9998" y1="54.0212" x2="81.9727" y2="84.1156" gradientUnits="userSpaceOnUse">
<stop offset="0.157256" stop-color="#A049D1"/>
<stop offset="0.344755" stop-color="#8948DA"/>
<stop offset="0.669352" stop-color="#667ED9"/>
<stop offset="0.868455" stop-color="#61A3CF"/>
</linearGradient>
<linearGradient id="paint25_linear_1451_3160" x1="92.9998" y1="54.0212" x2="81.9727" y2="84.1156" gradientUnits="userSpaceOnUse">
<stop offset="0.157256" stop-color="#A049D1"/>
<stop offset="0.344755" stop-color="#8948DA"/>
<stop offset="0.669352" stop-color="#667ED9"/>
<stop offset="0.868455" stop-color="#61A3CF"/>
</linearGradient>
<linearGradient id="paint26_linear_1451_3160" x1="92.9998" y1="54.0212" x2="81.9727" y2="84.1156" gradientUnits="userSpaceOnUse">
<stop offset="0.157256" stop-color="#A049D1"/>
<stop offset="0.344755" stop-color="#8948DA"/>
<stop offset="0.669352" stop-color="#667ED9"/>
<stop offset="0.868455" stop-color="#61A3CF"/>
</linearGradient>
<linearGradient id="paint27_linear_1451_3160" x1="92.9998" y1="54.0212" x2="81.9727" y2="84.1156" gradientUnits="userSpaceOnUse">
<stop offset="0.157256" stop-color="#A049D1"/>
<stop offset="0.344755" stop-color="#8948DA"/>
<stop offset="0.669352" stop-color="#667ED9"/>
<stop offset="0.868455" stop-color="#61A3CF"/>
</linearGradient>
<linearGradient id="paint28_linear_1451_3160" x1="92.9998" y1="54.0212" x2="81.9727" y2="84.1156" gradientUnits="userSpaceOnUse">
<stop offset="0.157256" stop-color="#A049D1"/>
<stop offset="0.344755" stop-color="#8948DA"/>
<stop offset="0.669352" stop-color="#667ED9"/>
<stop offset="0.868455" stop-color="#61A3CF"/>
</linearGradient>
<linearGradient id="paint29_linear_1451_3160" x1="92.9998" y1="54.0212" x2="81.9727" y2="84.1156" gradientUnits="userSpaceOnUse">
<stop offset="0.157256" stop-color="#A049D1"/>
<stop offset="0.344755" stop-color="#8948DA"/>
<stop offset="0.669352" stop-color="#667ED9"/>
<stop offset="0.868455" stop-color="#61A3CF"/>
</linearGradient>
<linearGradient id="paint30_linear_1451_3160" x1="92.9998" y1="54.0212" x2="81.9727" y2="84.1156" gradientUnits="userSpaceOnUse">
<stop offset="0.157256" stop-color="#A049D1"/>
<stop offset="0.344755" stop-color="#8948DA"/>
<stop offset="0.669352" stop-color="#667ED9"/>
<stop offset="0.868455" stop-color="#61A3CF"/>
</linearGradient>
<linearGradient id="paint31_linear_1451_3160" x1="92.9998" y1="54.0212" x2="81.9727" y2="84.1156" gradientUnits="userSpaceOnUse">
<stop offset="0.157256" stop-color="#A049D1"/>
<stop offset="0.344755" stop-color="#8948DA"/>
<stop offset="0.669352" stop-color="#667ED9"/>
<stop offset="0.868455" stop-color="#61A3CF"/>
</linearGradient>
<linearGradient id="paint32_linear_1451_3160" x1="92.9998" y1="54.0212" x2="81.9727" y2="84.1156" gradientUnits="userSpaceOnUse">
<stop offset="0.157256" stop-color="#A049D1"/>
<stop offset="0.344755" stop-color="#8948DA"/>
<stop offset="0.669352" stop-color="#667ED9"/>
<stop offset="0.868455" stop-color="#61A3CF"/>
</linearGradient>
<linearGradient id="paint33_linear_1451_3160" x1="92.9998" y1="54.0212" x2="81.9727" y2="84.1156" gradientUnits="userSpaceOnUse">
<stop offset="0.157256" stop-color="#A049D1"/>
<stop offset="0.344755" stop-color="#8948DA"/>
<stop offset="0.669352" stop-color="#667ED9"/>
<stop offset="0.868455" stop-color="#61A3CF"/>
</linearGradient>
<linearGradient id="paint34_linear_1451_3160" x1="92.9998" y1="54.0212" x2="81.9727" y2="84.1156" gradientUnits="userSpaceOnUse">
<stop offset="0.157256" stop-color="#A049D1"/>
<stop offset="0.344755" stop-color="#8948DA"/>
<stop offset="0.669352" stop-color="#667ED9"/>
<stop offset="0.868455" stop-color="#61A3CF"/>
</linearGradient>
<linearGradient id="paint35_linear_1451_3160" x1="92.9998" y1="54.0212" x2="81.9727" y2="84.1156" gradientUnits="userSpaceOnUse">
<stop offset="0.157256" stop-color="#A049D1"/>
<stop offset="0.344755" stop-color="#8948DA"/>
<stop offset="0.669352" stop-color="#667ED9"/>
<stop offset="0.868455" stop-color="#61A3CF"/>
</linearGradient>
<linearGradient id="paint36_linear_1451_3160" x1="92.9998" y1="54.0212" x2="81.9727" y2="84.1156" gradientUnits="userSpaceOnUse">
<stop offset="0.157256" stop-color="#A049D1"/>
<stop offset="0.344755" stop-color="#8948DA"/>
<stop offset="0.669352" stop-color="#667ED9"/>
<stop offset="0.868455" stop-color="#61A3CF"/>
</linearGradient>
<linearGradient id="paint37_linear_1451_3160" x1="92.9998" y1="54.0212" x2="81.9727" y2="84.1156" gradientUnits="userSpaceOnUse">
<stop offset="0.157256" stop-color="#A049D1"/>
<stop offset="0.344755" stop-color="#8948DA"/>
<stop offset="0.669352" stop-color="#667ED9"/>
<stop offset="0.868455" stop-color="#61A3CF"/>
</linearGradient>
<linearGradient id="paint38_linear_1451_3160" x1="92.9998" y1="54.0212" x2="81.9727" y2="84.1156" gradientUnits="userSpaceOnUse">
<stop offset="0.157256" stop-color="#A049D1"/>
<stop offset="0.344755" stop-color="#8948DA"/>
<stop offset="0.669352" stop-color="#667ED9"/>
<stop offset="0.868455" stop-color="#61A3CF"/>
</linearGradient>
<linearGradient id="paint39_linear_1451_3160" x1="92.9998" y1="54.0212" x2="81.9727" y2="84.1156" gradientUnits="userSpaceOnUse">
<stop offset="0.157256" stop-color="#A049D1"/>
<stop offset="0.344755" stop-color="#8948DA"/>
<stop offset="0.669352" stop-color="#667ED9"/>
<stop offset="0.868455" stop-color="#61A3CF"/>
</linearGradient>
<linearGradient id="paint40_linear_1451_3160" x1="92.9998" y1="54.0212" x2="81.9727" y2="84.1156" gradientUnits="userSpaceOnUse">
<stop offset="0.157256" stop-color="#A049D1"/>
<stop offset="0.344755" stop-color="#8948DA"/>
<stop offset="0.669352" stop-color="#667ED9"/>
<stop offset="0.868455" stop-color="#61A3CF"/>
</linearGradient>
<linearGradient id="paint41_linear_1451_3160" x1="92.9998" y1="54.0212" x2="81.9727" y2="84.1156" gradientUnits="userSpaceOnUse">
<stop offset="0.157256" stop-color="#A049D1"/>
<stop offset="0.344755" stop-color="#8948DA"/>
<stop offset="0.669352" stop-color="#667ED9"/>
<stop offset="0.868455" stop-color="#61A3CF"/>
</linearGradient>
<linearGradient id="paint42_linear_1451_3160" x1="92.9998" y1="54.0212" x2="81.9727" y2="84.1156" gradientUnits="userSpaceOnUse">
<stop offset="0.157256" stop-color="#A049D1"/>
<stop offset="0.344755" stop-color="#8948DA"/>
<stop offset="0.669352" stop-color="#667ED9"/>
<stop offset="0.868455" stop-color="#61A3CF"/>
</linearGradient>
<linearGradient id="paint43_linear_1451_3160" x1="92.9998" y1="54.0212" x2="81.9727" y2="84.1156" gradientUnits="userSpaceOnUse">
<stop offset="0.157256" stop-color="#A049D1"/>
<stop offset="0.344755" stop-color="#8948DA"/>
<stop offset="0.669352" stop-color="#667ED9"/>
<stop offset="0.868455" stop-color="#61A3CF"/>
</linearGradient>
<linearGradient id="paint44_linear_1451_3160" x1="92.9998" y1="54.0212" x2="81.9727" y2="84.1156" gradientUnits="userSpaceOnUse">
<stop offset="0.157256" stop-color="#A049D1"/>
<stop offset="0.344755" stop-color="#8948DA"/>
<stop offset="0.669352" stop-color="#667ED9"/>
<stop offset="0.868455" stop-color="#61A3CF"/>
</linearGradient>
<linearGradient id="paint45_linear_1451_3160" x1="92.9998" y1="54.0212" x2="81.9727" y2="84.1156" gradientUnits="userSpaceOnUse">
<stop offset="0.157256" stop-color="#A049D1"/>
<stop offset="0.344755" stop-color="#8948DA"/>
<stop offset="0.669352" stop-color="#667ED9"/>
<stop offset="0.868455" stop-color="#61A3CF"/>
</linearGradient>
<linearGradient id="paint46_linear_1451_3160" x1="92.9998" y1="54.0212" x2="81.9727" y2="84.1156" gradientUnits="userSpaceOnUse">
<stop offset="0.157256" stop-color="#A049D1"/>
<stop offset="0.344755" stop-color="#8948DA"/>
<stop offset="0.669352" stop-color="#667ED9"/>
<stop offset="0.868455" stop-color="#61A3CF"/>
</linearGradient>
<linearGradient id="paint47_linear_1451_3160" x1="92.9998" y1="54.0212" x2="81.9727" y2="84.1156" gradientUnits="userSpaceOnUse">
<stop offset="0.157256" stop-color="#A049D1"/>
<stop offset="0.344755" stop-color="#8948DA"/>
<stop offset="0.669352" stop-color="#667ED9"/>
<stop offset="0.868455" stop-color="#61A3CF"/>
</linearGradient>
<linearGradient id="paint48_linear_1451_3160" x1="92.9998" y1="54.0212" x2="81.9727" y2="84.1156" gradientUnits="userSpaceOnUse">
<stop offset="0.157256" stop-color="#A049D1"/>
<stop offset="0.344755" stop-color="#8948DA"/>
<stop offset="0.669352" stop-color="#667ED9"/>
<stop offset="0.868455" stop-color="#61A3CF"/>
</linearGradient>
<linearGradient id="paint49_linear_1451_3160" x1="92.9998" y1="54.0212" x2="81.9727" y2="84.1156" gradientUnits="userSpaceOnUse">
<stop offset="0.157256" stop-color="#A049D1"/>
<stop offset="0.344755" stop-color="#8948DA"/>
<stop offset="0.669352" stop-color="#667ED9"/>
<stop offset="0.868455" stop-color="#61A3CF"/>
</linearGradient>
<linearGradient id="paint50_linear_1451_3160" x1="92.9998" y1="54.0212" x2="81.9727" y2="84.1156" gradientUnits="userSpaceOnUse">
<stop offset="0.157256" stop-color="#A049D1"/>
<stop offset="0.344755" stop-color="#8948DA"/>
<stop offset="0.669352" stop-color="#667ED9"/>
<stop offset="0.868455" stop-color="#61A3CF"/>
</linearGradient>
<linearGradient id="paint51_linear_1451_3160" x1="92.9998" y1="54.0212" x2="81.9727" y2="84.1156" gradientUnits="userSpaceOnUse">
<stop offset="0.157256" stop-color="#A049D1"/>
<stop offset="0.344755" stop-color="#8948DA"/>
<stop offset="0.669352" stop-color="#667ED9"/>
<stop offset="0.868455" stop-color="#61A3CF"/>
</linearGradient>
<linearGradient id="paint52_linear_1451_3160" x1="92.9998" y1="54.0212" x2="81.9727" y2="84.1156" gradientUnits="userSpaceOnUse">
<stop offset="0.157256" stop-color="#A049D1"/>
<stop offset="0.344755" stop-color="#8948DA"/>
<stop offset="0.669352" stop-color="#667ED9"/>
<stop offset="0.868455" stop-color="#61A3CF"/>
</linearGradient>
<linearGradient id="paint53_linear_1451_3160" x1="92.9998" y1="54.0212" x2="81.9727" y2="84.1156" gradientUnits="userSpaceOnUse">
<stop offset="0.157256" stop-color="#A049D1"/>
<stop offset="0.344755" stop-color="#8948DA"/>
<stop offset="0.669352" stop-color="#667ED9"/>
<stop offset="0.868455" stop-color="#61A3CF"/>
</linearGradient>
<linearGradient id="paint54_linear_1451_3160" x1="92.9998" y1="54.0212" x2="81.9727" y2="84.1156" gradientUnits="userSpaceOnUse">
<stop offset="0.157256" stop-color="#A049D1"/>
<stop offset="0.344755" stop-color="#8948DA"/>
<stop offset="0.669352" stop-color="#667ED9"/>
<stop offset="0.868455" stop-color="#61A3CF"/>
</linearGradient>
<linearGradient id="paint55_linear_1451_3160" x1="92.9998" y1="54.0212" x2="81.9727" y2="84.1156" gradientUnits="userSpaceOnUse">
<stop offset="0.157256" stop-color="#A049D1"/>
<stop offset="0.344755" stop-color="#8948DA"/>
<stop offset="0.669352" stop-color="#667ED9"/>
<stop offset="0.868455" stop-color="#61A3CF"/>
</linearGradient>
<linearGradient id="paint56_linear_1451_3160" x1="92.9998" y1="54.0212" x2="81.9727" y2="84.1156" gradientUnits="userSpaceOnUse">
<stop offset="0.157256" stop-color="#A049D1"/>
<stop offset="0.344755" stop-color="#8948DA"/>
<stop offset="0.669352" stop-color="#667ED9"/>
<stop offset="0.868455" stop-color="#61A3CF"/>
</linearGradient>
<linearGradient id="paint57_linear_1451_3160" x1="92.9998" y1="54.0212" x2="81.9727" y2="84.1156" gradientUnits="userSpaceOnUse">
<stop offset="0.157256" stop-color="#A049D1"/>
<stop offset="0.344755" stop-color="#8948DA"/>
<stop offset="0.669352" stop-color="#667ED9"/>
<stop offset="0.868455" stop-color="#61A3CF"/>
</linearGradient>
<linearGradient id="paint58_linear_1451_3160" x1="92.9998" y1="54.0212" x2="81.9727" y2="84.1156" gradientUnits="userSpaceOnUse">
<stop offset="0.157256" stop-color="#A049D1"/>
<stop offset="0.344755" stop-color="#8948DA"/>
<stop offset="0.669352" stop-color="#667ED9"/>
<stop offset="0.868455" stop-color="#61A3CF"/>
</linearGradient>
<linearGradient id="paint59_linear_1451_3160" x1="92.9998" y1="54.0212" x2="81.9727" y2="84.1156" gradientUnits="userSpaceOnUse">
<stop offset="0.157256" stop-color="#A049D1"/>
<stop offset="0.344755" stop-color="#8948DA"/>
<stop offset="0.669352" stop-color="#667ED9"/>
<stop offset="0.868455" stop-color="#61A3CF"/>
</linearGradient>
<linearGradient id="paint60_linear_1451_3160" x1="92.9998" y1="54.0212" x2="81.9727" y2="84.1156" gradientUnits="userSpaceOnUse">
<stop offset="0.157256" stop-color="#A049D1"/>
<stop offset="0.344755" stop-color="#8948DA"/>
<stop offset="0.669352" stop-color="#667ED9"/>
<stop offset="0.868455" stop-color="#61A3CF"/>
</linearGradient>
<linearGradient id="paint61_linear_1451_3160" x1="92.9998" y1="54.0212" x2="81.9727" y2="84.1156" gradientUnits="userSpaceOnUse">
<stop offset="0.157256" stop-color="#A049D1"/>
<stop offset="0.344755" stop-color="#8948DA"/>
<stop offset="0.669352" stop-color="#667ED9"/>
<stop offset="0.868455" stop-color="#61A3CF"/>
</linearGradient>
<linearGradient id="paint62_linear_1451_3160" x1="92.9998" y1="54.0212" x2="81.9727" y2="84.1156" gradientUnits="userSpaceOnUse">
<stop offset="0.157256" stop-color="#A049D1"/>
<stop offset="0.344755" stop-color="#8948DA"/>
<stop offset="0.669352" stop-color="#667ED9"/>
<stop offset="0.868455" stop-color="#61A3CF"/>
</linearGradient>
<linearGradient id="paint63_linear_1451_3160" x1="92.9998" y1="54.0212" x2="81.9727" y2="84.1156" gradientUnits="userSpaceOnUse">
<stop offset="0.157256" stop-color="#A049D1"/>
<stop offset="0.344755" stop-color="#8948DA"/>
<stop offset="0.669352" stop-color="#667ED9"/>
<stop offset="0.868455" stop-color="#61A3CF"/>
</linearGradient>
<linearGradient id="paint64_linear_1451_3160" x1="92.9998" y1="54.0212" x2="81.9727" y2="84.1156" gradientUnits="userSpaceOnUse">
<stop offset="0.157256" stop-color="#A049D1"/>
<stop offset="0.344755" stop-color="#8948DA"/>
<stop offset="0.669352" stop-color="#667ED9"/>
<stop offset="0.868455" stop-color="#61A3CF"/>
</linearGradient>
<linearGradient id="paint65_linear_1451_3160" x1="92.9998" y1="54.0212" x2="81.9727" y2="84.1156" gradientUnits="userSpaceOnUse">
<stop offset="0.157256" stop-color="#A049D1"/>
<stop offset="0.344755" stop-color="#8948DA"/>
<stop offset="0.669352" stop-color="#667ED9"/>
<stop offset="0.868455" stop-color="#61A3CF"/>
</linearGradient>
<linearGradient id="paint66_linear_1451_3160" x1="92.9998" y1="54.0212" x2="81.9727" y2="84.1156" gradientUnits="userSpaceOnUse">
<stop offset="0.157256" stop-color="#A049D1"/>
<stop offset="0.344755" stop-color="#8948DA"/>
<stop offset="0.669352" stop-color="#667ED9"/>
<stop offset="0.868455" stop-color="#61A3CF"/>
</linearGradient>
<linearGradient id="paint67_linear_1451_3160" x1="92.9998" y1="54.0212" x2="81.9727" y2="84.1156" gradientUnits="userSpaceOnUse">
<stop offset="0.157256" stop-color="#A049D1"/>
<stop offset="0.344755" stop-color="#8948DA"/>
<stop offset="0.669352" stop-color="#667ED9"/>
<stop offset="0.868455" stop-color="#61A3CF"/>
</linearGradient>
<linearGradient id="paint68_linear_1451_3160" x1="92.9998" y1="54.0212" x2="81.9727" y2="84.1156" gradientUnits="userSpaceOnUse">
<stop offset="0.157256" stop-color="#A049D1"/>
<stop offset="0.344755" stop-color="#8948DA"/>
<stop offset="0.669352" stop-color="#667ED9"/>
<stop offset="0.868455" stop-color="#61A3CF"/>
</linearGradient>
<linearGradient id="paint69_linear_1451_3160" x1="92.9998" y1="54.0212" x2="81.9727" y2="84.1156" gradientUnits="userSpaceOnUse">
<stop offset="0.157256" stop-color="#A049D1"/>
<stop offset="0.344755" stop-color="#8948DA"/>
<stop offset="0.669352" stop-color="#667ED9"/>
<stop offset="0.868455" stop-color="#61A3CF"/>
</linearGradient>
<linearGradient id="paint70_linear_1451_3160" x1="92.9998" y1="54.0212" x2="81.9727" y2="84.1156" gradientUnits="userSpaceOnUse">
<stop offset="0.157256" stop-color="#A049D1"/>
<stop offset="0.344755" stop-color="#8948DA"/>
<stop offset="0.669352" stop-color="#667ED9"/>
<stop offset="0.868455" stop-color="#61A3CF"/>
</linearGradient>
<linearGradient id="paint71_linear_1451_3160" x1="92.9998" y1="54.0212" x2="81.9727" y2="84.1156" gradientUnits="userSpaceOnUse">
<stop offset="0.157256" stop-color="#A049D1"/>
<stop offset="0.344755" stop-color="#8948DA"/>
<stop offset="0.669352" stop-color="#667ED9"/>
<stop offset="0.868455" stop-color="#61A3CF"/>
</linearGradient>
<linearGradient id="paint72_linear_1451_3160" x1="92.9998" y1="54.0212" x2="81.9727" y2="84.1156" gradientUnits="userSpaceOnUse">
<stop offset="0.157256" stop-color="#A049D1"/>
<stop offset="0.344755" stop-color="#8948DA"/>
<stop offset="0.669352" stop-color="#667ED9"/>
<stop offset="0.868455" stop-color="#61A3CF"/>
</linearGradient>
<linearGradient id="paint73_linear_1451_3160" x1="92.9998" y1="54.0212" x2="81.9727" y2="84.1156" gradientUnits="userSpaceOnUse">
<stop offset="0.157256" stop-color="#A049D1"/>
<stop offset="0.344755" stop-color="#8948DA"/>
<stop offset="0.669352" stop-color="#667ED9"/>
<stop offset="0.868455" stop-color="#61A3CF"/>
</linearGradient>
<linearGradient id="paint74_linear_1451_3160" x1="92.9998" y1="54.0212" x2="81.9727" y2="84.1156" gradientUnits="userSpaceOnUse">
<stop offset="0.157256" stop-color="#A049D1"/>
<stop offset="0.344755" stop-color="#8948DA"/>
<stop offset="0.669352" stop-color="#667ED9"/>
<stop offset="0.868455" stop-color="#61A3CF"/>
</linearGradient>
<linearGradient id="paint75_linear_1451_3160" x1="92.9998" y1="54.0212" x2="81.9727" y2="84.1156" gradientUnits="userSpaceOnUse">
<stop offset="0.157256" stop-color="#A049D1"/>
<stop offset="0.344755" stop-color="#8948DA"/>
<stop offset="0.669352" stop-color="#667ED9"/>
<stop offset="0.868455" stop-color="#61A3CF"/>
</linearGradient>
<linearGradient id="paint76_linear_1451_3160" x1="92.9998" y1="54.0212" x2="81.9727" y2="84.1156" gradientUnits="userSpaceOnUse">
<stop offset="0.157256" stop-color="#A049D1"/>
<stop offset="0.344755" stop-color="#8948DA"/>
<stop offset="0.669352" stop-color="#667ED9"/>
<stop offset="0.868455" stop-color="#61A3CF"/>
</linearGradient>
<linearGradient id="paint77_linear_1451_3160" x1="92.9998" y1="54.0212" x2="81.9727" y2="84.1156" gradientUnits="userSpaceOnUse">
<stop offset="0.157256" stop-color="#A049D1"/>
<stop offset="0.344755" stop-color="#8948DA"/>
<stop offset="0.669352" stop-color="#667ED9"/>
<stop offset="0.868455" stop-color="#61A3CF"/>
</linearGradient>
</defs>
</svg>
