<svg width="240" height="100" viewBox="0 0 240 100" fill="none" xmlns="http://www.w3.org/2000/svg">
<mask id="mask0_1439_2991" style="mask-type:alpha" maskUnits="userSpaceOnUse" x="10" y="18" width="58" height="64">
<path d="M68 60.8242V39.1758C68 35.5678 66.1235 32.1315 62.8824 30.2416L44.1176 19.4174C40.8765 17.5275 37.1235 17.5275 33.8824 19.4174L15.1176 30.2416C11.8765 32.1315 10 35.5678 10 39.1758V60.8242C10 64.4322 11.8765 67.8685 15.1176 69.7584L33.8824 80.5825C37.1235 82.4725 40.8765 82.4725 44.1176 80.5825L62.8824 69.7584C65.9529 67.8685 68 64.604 68 60.8242V60.8242Z" fill="#FFDFDF"/>
</mask>
<g mask="url(#mask0_1439_2991)">
<g clip-path="url(#clip0_1439_2991)">
<rect width="102.4" height="64" transform="translate(-12.2002 18)" fill="black"/>
<g filter="url(#filter0_f_1439_2991)">
<ellipse cx="49.2854" cy="49.7596" rx="48.7569" ry="26.9089" transform="rotate(-6.48121 49.2854 49.7596)" fill="#8349FF"/>
</g>
<g filter="url(#filter1_f_1439_2991)">
<path d="M83.5731 32.9873C88.0079 26.704 88.2613 21.9081 90.4743 14.5426C94.7461 0.324694 91.5999 -9.0124 96.6772 -22.963C107.037 -51.4282 124.952 38.1749 99.4706 54.554C83.4521 64.8505 36.5798 67.3189 50.7101 54.554C56.3533 49.4562 61.7544 49.9944 68.1275 45.8452C74.7048 41.563 79.0474 39.3994 83.5731 32.9873Z" fill="url(#paint0_linear_1439_2991)"/>
</g>
<g filter="url(#filter2_f_1439_2991)">
<path d="M-5.58051 37.5112C-17.2498 38.2789 -24.8659 42.5864 -32.2739 52.6082C-47.281 72.9105 40.3998 79.3599 28.1887 57.0555C20.4894 42.9922 9.32486 36.5305 -5.58051 37.5112Z" fill="#0013FF"/>
</g>
<g filter="url(#filter3_f_1439_2991)">
<path d="M-5.09059 43.1406C-14.7933 43.779 -21.1259 47.3605 -27.2855 55.6934C-39.7636 72.5744 33.141 77.9369 22.9877 59.3913C16.586 47.698 7.30287 42.3253 -5.09059 43.1406Z" fill="#00FFFF"/>
</g>
</g>
<path d="M52.8026 50.5012C52.8026 53.0621 50.8877 55.0428 48.6289 55.0428C48.1468 55.0428 47.355 54.8394 46.2464 54.1906C45.171 53.561 44.0548 52.6635 43.001 51.669C41.5606 50.3096 40.3055 48.7443 39 47.2428C36.5324 44.6739 32.8162 41.5 29.3711 41.5C24.745 41.5 21 45.5289 21 50.4988C21 53.4635 22.3327 56.1351 24.3901 57.7833C24.5515 57.6983 24.9552 57.4085 25.278 56.9285C25.6816 56.3285 25.0358 55.3 25.278 54.6143C25.4718 54.0657 26.0582 53.7434 26.3274 53.6508C25.6399 52.8509 25.1974 51.7559 25.1974 50.4988C25.1974 47.9379 27.1123 45.9572 29.3711 45.9572C29.8532 45.9572 30.645 46.1606 31.7536 46.8094C32.829 47.439 33.9452 48.3365 34.999 49.331C36.4517 50.702 37.6144 52.3544 39 53.797C41.4676 56.366 45.1838 59.5 48.6289 59.5C53.255 59.5 57 55.4711 57 50.5012C57 47.5365 55.6673 44.8649 53.6099 43.2167C53.4485 43.3017 53.0448 43.5915 52.722 44.0715C52.3184 44.6715 52.9642 45.7 52.722 46.3857C52.5282 46.9343 51.9418 47.2566 51.6726 47.3492C52.3601 48.1491 52.8026 49.2441 52.8026 50.5012Z" fill="white"/>
<path d="M52.5797 42.7899C52.7209 43.1237 52.5806 43.516 52.2663 43.666C51.9521 43.816 51.5827 43.6669 51.4415 43.333C51.3001 42.9992 51.4404 42.6069 51.7547 42.4569C52.0691 42.307 52.4383 42.4561 52.5797 42.7899Z" fill="white"/>
<path d="M52.5797 42.7899C52.7209 43.1237 52.5806 43.516 52.2663 43.666C51.9521 43.816 51.5827 43.6669 51.4415 43.333C51.3001 42.9992 51.4404 42.6069 51.7547 42.4569C52.0691 42.307 52.4383 42.4561 52.5797 42.7899Z" fill="white"/>
<path d="M52.2575 45.7047C52.3988 46.0385 52.2585 46.4308 51.9442 46.5807C51.6299 46.7307 51.2606 46.5816 51.1193 46.2478C50.9781 45.9138 51.1183 45.5217 51.4327 45.3717C51.7469 45.2217 52.1163 45.3707 52.2575 45.7047Z" fill="white"/>
<path d="M52.2575 45.7047C52.3988 46.0385 52.2585 46.4308 51.9442 46.5807C51.6299 46.7307 51.2606 46.5816 51.1193 46.2478C50.9781 45.9138 51.1183 45.5217 51.4327 45.3717C51.7469 45.2217 52.1163 45.3707 52.2575 45.7047Z" fill="white"/>
<path d="M52.0964 44.1622C52.2377 44.4961 52.0974 44.8883 51.7831 45.0383C51.4688 45.1883 51.0995 45.0392 50.9582 44.7053C50.817 44.3715 50.9573 43.9792 51.2716 43.8292C51.5858 43.6793 51.9552 43.8284 52.0964 44.1622Z" fill="white"/>
<path d="M52.0964 44.1622C52.2377 44.4961 52.0974 44.8883 51.7831 45.0383C51.4688 45.1883 51.0995 45.0392 50.9582 44.7053C50.817 44.3715 50.9573 43.9792 51.2716 43.8292C51.5858 43.6793 51.9552 43.8284 52.0964 44.1622Z" fill="white"/>
<path d="M51.1276 42.2763C51.2688 42.6101 51.1286 43.0024 50.8143 43.1523C50.5 43.3023 50.1306 43.1533 49.9894 42.8194C49.848 42.4855 49.9883 42.0933 50.3026 41.9433C50.617 41.7933 50.9862 41.9425 51.1276 42.2763Z" fill="white"/>
<path d="M51.1276 42.2763C51.2688 42.6101 51.1286 43.0024 50.8143 43.1523C50.5 43.3023 50.1306 43.1533 49.9894 42.8194C49.848 42.4855 49.9883 42.0933 50.3026 41.9433C50.617 41.7933 50.9862 41.9425 51.1276 42.2763Z" fill="white"/>
<path d="M50.8053 45.1903C50.9466 45.5241 50.8063 45.9164 50.492 46.0664C50.1777 46.2164 49.8084 46.0672 49.6671 45.7334C49.5259 45.3996 49.666 45.0073 49.9804 44.8573C50.2947 44.7074 50.6641 44.8564 50.8053 45.1903Z" fill="white"/>
<path d="M50.8053 45.1903C50.9466 45.5241 50.8063 45.9164 50.492 46.0664C50.1777 46.2164 49.8084 46.0672 49.6671 45.7334C49.5259 45.3996 49.666 45.0073 49.9804 44.8573C50.2947 44.7074 50.6641 44.8564 50.8053 45.1903Z" fill="white"/>
<path d="M49.0291 44.8474C49.1704 45.1814 49.0301 45.5735 48.7158 45.7235C48.4015 45.8735 48.0322 45.7245 47.8909 45.3905C47.7497 45.0567 47.89 44.6644 48.2043 44.5145C48.5185 44.3645 48.8879 44.5136 49.0291 44.8474Z" fill="white"/>
<path d="M49.0291 44.8474C49.1704 45.1814 49.0301 45.5735 48.7158 45.7235C48.4015 45.8735 48.0322 45.7245 47.8909 45.3905C47.7497 45.0567 47.89 44.6644 48.2043 44.5145C48.5185 44.3645 48.8879 44.5136 49.0291 44.8474Z" fill="white"/>
<path d="M49.1902 43.3047C49.3315 43.6385 49.1912 44.0308 48.8769 44.1807C48.5626 44.3307 48.1933 44.1817 48.052 43.8478C47.9108 43.5139 48.051 43.1217 48.3654 42.9717C48.6796 42.8217 49.049 42.9709 49.1902 43.3047Z" fill="white"/>
<path d="M49.1902 43.3047C49.3315 43.6385 49.1912 44.0308 48.8769 44.1807C48.5626 44.3307 48.1933 44.1817 48.052 43.8478C47.9108 43.5139 48.051 43.1217 48.3654 42.9717C48.6796 42.8217 49.049 42.9709 49.1902 43.3047Z" fill="white"/>
<path d="M48.0622 42.1047C48.2035 42.4385 48.0632 42.8308 47.7489 42.9808C47.4346 43.1307 47.0653 42.9816 46.924 42.6478C46.7827 42.3139 46.923 41.9217 47.2374 41.7717C47.5516 41.6217 47.921 41.7708 48.0622 42.1047Z" fill="white"/>
<path d="M48.0622 42.1047C48.2035 42.4385 48.0632 42.8308 47.7489 42.9808C47.4346 43.1307 47.0653 42.9816 46.924 42.6478C46.7827 42.3139 46.923 41.9217 47.2374 41.7717C47.5516 41.6217 47.921 41.7708 48.0622 42.1047Z" fill="white"/>
<path d="M46.42 42.468C46.526 42.7185 46.4209 43.0126 46.1851 43.125C45.9494 43.2376 45.6723 43.1258 45.5665 42.8753C45.4605 42.625 45.5656 42.3308 45.8014 42.2183C46.0371 42.1058 46.3141 42.2176 46.42 42.468Z" fill="white"/>
<path d="M46.42 42.468C46.526 42.7185 46.4209 43.0126 46.1851 43.125C45.9494 43.2376 45.6723 43.1258 45.5665 42.8753C45.4605 42.625 45.5656 42.3308 45.8014 42.2183C46.0371 42.1058 46.3141 42.2176 46.42 42.468Z" fill="white"/>
<path d="M45.129 43.154C45.2349 43.4044 45.1297 43.6985 44.894 43.8111C44.6583 43.9235 44.3813 43.8117 44.2753 43.5614C44.1693 43.3109 44.2746 43.0168 44.5104 42.9043C44.7461 42.7918 45.023 42.9037 45.129 43.154Z" fill="white"/>
<path d="M45.129 43.154C45.2349 43.4044 45.1297 43.6985 44.894 43.8111C44.6583 43.9235 44.3813 43.8117 44.2753 43.5614C44.1693 43.3109 44.2746 43.0168 44.5104 42.9043C44.7461 42.7918 45.023 42.9037 45.129 43.154Z" fill="white"/>
<path d="M43.9996 44.0108C44.1056 44.2612 44.0003 44.5555 43.7646 44.6679C43.5288 44.7804 43.2519 44.6685 43.1459 44.4182C43.04 44.1678 43.1452 43.8736 43.3809 43.7611C43.6167 43.6486 43.8936 43.7605 43.9996 44.0108Z" fill="white"/>
<path d="M43.9996 44.0108C44.1056 44.2612 44.0003 44.5555 43.7646 44.6679C43.5288 44.7804 43.2519 44.6685 43.1459 44.4182C43.04 44.1678 43.1452 43.8736 43.3809 43.7611C43.6167 43.6486 43.8936 43.7605 43.9996 44.0108Z" fill="white"/>
<path d="M46.0967 46.2392C46.2027 46.4896 46.0975 46.7837 45.8617 46.8963C45.626 47.0087 45.349 46.8969 45.243 46.6466C45.1371 46.3961 45.2422 46.102 45.478 45.9894C45.7137 45.877 45.9908 45.9888 46.0967 46.2392Z" fill="white"/>
<path d="M46.0967 46.2392C46.2027 46.4896 46.0975 46.7837 45.8617 46.8963C45.626 47.0087 45.349 46.8969 45.243 46.6466C45.1371 46.3961 45.2422 46.102 45.478 45.9894C45.7137 45.877 45.9908 45.9888 46.0967 46.2392Z" fill="white"/>
<path d="M46.2591 44.3536C46.365 44.6041 46.2598 44.8982 46.024 45.0107C45.7883 45.1232 45.5114 45.0113 45.4054 44.7609C45.2994 44.5106 45.4046 44.2163 45.6404 44.1039C45.876 43.9915 46.1531 44.1032 46.2591 44.3536Z" fill="white"/>
<path d="M46.2591 44.3536C46.365 44.6041 46.2598 44.8982 46.024 45.0107C45.7883 45.1232 45.5114 45.0113 45.4054 44.7609C45.2994 44.5106 45.4046 44.2163 45.6404 44.1039C45.876 43.9915 46.1531 44.1032 46.2591 44.3536Z" fill="white"/>
<path d="M45.129 45.0397C45.2349 45.29 45.1297 45.5842 44.894 45.6967C44.6583 45.8091 44.3813 45.6974 44.2753 45.4469C44.1693 45.1965 44.2746 44.9024 44.5104 44.7898C44.7461 44.6774 45.023 44.7892 45.129 45.0397Z" fill="white"/>
<path d="M45.129 45.0397C45.2349 45.29 45.1297 45.5842 44.894 45.6967C44.6583 45.8091 44.3813 45.6974 44.2753 45.4469C44.1693 45.1965 44.2746 44.9024 44.5104 44.7898C44.7461 44.6774 45.023 44.7892 45.129 45.0397Z" fill="white"/>
<path d="M43.6513 46.7741C43.7218 46.941 43.6517 47.1372 43.4945 47.2121C43.3375 47.2871 43.1528 47.2126 43.0821 47.0457C43.0115 46.8787 43.0816 46.6827 43.2388 46.6077C43.3959 46.5327 43.5806 46.6072 43.6513 46.7741Z" fill="white"/>
<path d="M43.6513 46.7741C43.7218 46.941 43.6517 47.1372 43.4945 47.2121C43.3375 47.2871 43.1528 47.2126 43.0821 47.0457C43.0115 46.8787 43.0816 46.6827 43.2388 46.6077C43.3959 46.5327 43.5806 46.6072 43.6513 46.7741Z" fill="white"/>
<path d="M44.4572 47.4594C44.5279 47.6263 44.4577 47.8225 44.3006 47.8975C44.1434 47.9725 43.9587 47.8978 43.8881 47.7309C43.8175 47.564 43.8875 47.3679 44.0447 47.2929C44.2019 47.2179 44.3866 47.2924 44.4572 47.4594Z" fill="white"/>
<path d="M44.4572 47.4594C44.5279 47.6263 44.4577 47.8225 44.3006 47.8975C44.1434 47.9725 43.9587 47.8978 43.8881 47.7309C43.8175 47.564 43.8875 47.3679 44.0447 47.2929C44.2019 47.2179 44.3866 47.2924 44.4572 47.4594Z" fill="white"/>
<path d="M43.6513 45.2309C43.7218 45.398 43.6517 45.5941 43.4945 45.6691C43.3375 45.7441 43.1528 45.6694 43.0821 45.5025C43.0115 45.3356 43.0816 45.1395 43.2388 45.0645C43.3959 44.9895 43.5806 45.064 43.6513 45.2309Z" fill="white"/>
<path d="M43.6513 45.2309C43.7218 45.398 43.6517 45.5941 43.4945 45.6691C43.3375 45.7441 43.1528 45.6694 43.0821 45.5025C43.0115 45.3356 43.0816 45.1395 43.2388 45.0645C43.3959 44.9895 43.5806 45.064 43.6513 45.2309Z" fill="white"/>
<path d="M44.4572 46.0882C44.5278 46.2551 44.4576 46.4512 44.3006 46.5262C44.1434 46.6012 43.9587 46.5267 43.8881 46.3598C43.8174 46.1927 43.8876 45.9966 44.0447 45.9216C44.2019 45.8466 44.3866 45.9213 44.4572 46.0882Z" fill="white"/>
<path d="M44.4572 46.0882C44.5278 46.2551 44.4576 46.4512 44.3006 46.5262C44.1434 46.6012 43.9587 46.5267 43.8881 46.3598C43.8174 46.1927 43.8876 45.9966 44.0447 45.9216C44.2019 45.8466 44.3866 45.9213 44.4572 46.0882Z" fill="white"/>
<path d="M45.2645 46.9454C45.3351 47.1123 45.265 47.3084 45.1078 47.3834C44.9507 47.4584 44.766 47.3838 44.6954 47.2169C44.6247 47.05 44.6949 46.8538 44.8521 46.7789C45.0092 46.7039 45.1938 46.7784 45.2645 46.9454Z" fill="white"/>
<path d="M45.2645 46.9454C45.3351 47.1123 45.265 47.3084 45.1078 47.3834C44.9507 47.4584 44.766 47.3838 44.6954 47.2169C44.6247 47.05 44.6949 46.8538 44.8521 46.7789C45.0092 46.7039 45.1938 46.7784 45.2645 46.9454Z" fill="white"/>
<path d="M42.842 44.5454C42.9127 44.7123 42.8425 44.9085 42.6854 44.9834C42.5282 45.0584 42.3435 44.9839 42.273 44.817C42.2023 44.65 42.2725 44.454 42.4296 44.379C42.5868 44.304 42.7714 44.3785 42.842 44.5454Z" fill="white"/>
<path d="M42.842 44.5454C42.9127 44.7123 42.8425 44.9085 42.6854 44.9834C42.5282 45.0584 42.3435 44.9839 42.273 44.817C42.2023 44.65 42.2725 44.454 42.4296 44.379C42.5868 44.304 42.7714 44.3785 42.842 44.5454Z" fill="white"/>
<path d="M42.0368 45.2309C42.1075 45.398 42.0373 45.5941 41.8801 45.6691C41.723 45.7441 41.5383 45.6694 41.4676 45.5025C41.397 45.3356 41.4671 45.1395 41.6243 45.0645C41.7814 44.9895 41.9661 45.064 42.0368 45.2309Z" fill="white"/>
<path d="M42.0368 45.2309C42.1075 45.398 42.0373 45.5941 41.8801 45.6691C41.723 45.7441 41.5383 45.6694 41.4676 45.5025C41.397 45.3356 41.4671 45.1395 41.6243 45.0645C41.7814 44.9895 41.9661 45.064 42.0368 45.2309Z" fill="white"/>
<path d="M41.2282 45.9173C41.2989 46.0842 41.2288 46.2803 41.0716 46.3553C40.9144 46.4303 40.7297 46.3558 40.6592 46.1889C40.5885 46.0219 40.6587 45.8259 40.8158 45.7509C40.973 45.6759 41.1576 45.7504 41.2282 45.9173Z" fill="white"/>
<path d="M41.2282 45.9173C41.2989 46.0842 41.2288 46.2803 41.0716 46.3553C40.9144 46.4303 40.7297 46.3558 40.6592 46.1889C40.5885 46.0219 40.6587 45.8259 40.8158 45.7509C40.973 45.6759 41.1576 45.7504 41.2282 45.9173Z" fill="white"/>
<path d="M42.0368 46.6022C42.1075 46.7691 42.0373 46.9653 41.8801 47.0402C41.723 47.1152 41.5383 47.0406 41.4676 46.8737C41.397 46.7068 41.4671 46.5107 41.6243 46.4357C41.7814 46.3607 41.9661 46.4352 42.0368 46.6022Z" fill="white"/>
<path d="M42.0368 46.6022C42.1075 46.7691 42.0373 46.9653 41.8801 47.0402C41.723 47.1152 41.5383 47.0406 41.4676 46.8737C41.397 46.7068 41.4671 46.5107 41.6243 46.4357C41.7814 46.3607 41.9661 46.4352 42.0368 46.6022Z" fill="white"/>
<path d="M42.842 45.9166C42.9127 46.0836 42.8425 46.2796 42.6854 46.3546C42.5282 46.4296 42.3435 46.3551 42.273 46.1882C42.2023 46.0213 42.2725 45.8251 42.4296 45.7501C42.5868 45.6751 42.7714 45.7497 42.842 45.9166Z" fill="white"/>
<path d="M42.842 45.9166C42.9127 46.0836 42.8425 46.2796 42.6854 46.3546C42.5282 46.4296 42.3435 46.3551 42.273 46.1882C42.2023 46.0213 42.2725 45.8251 42.4296 45.7501C42.5868 45.6751 42.7714 45.7497 42.842 45.9166Z" fill="white"/>
<path d="M43.6513 48.1454C43.7218 48.3123 43.6517 48.5084 43.4945 48.5834C43.3375 48.6584 43.1528 48.5838 43.0821 48.4169C43.0115 48.25 43.0816 48.0538 43.2388 47.9788C43.3959 47.9039 43.5806 47.9784 43.6513 48.1454Z" fill="white"/>
<path d="M43.6513 48.1454C43.7218 48.3123 43.6517 48.5084 43.4945 48.5834C43.3375 48.6584 43.1528 48.5838 43.0821 48.4169C43.0115 48.25 43.0816 48.0538 43.2388 47.9788C43.3959 47.9039 43.5806 47.9784 43.6513 48.1454Z" fill="white"/>
<path d="M42.842 47.4594C42.9127 47.6263 42.8425 47.8225 42.6854 47.8975C42.5282 47.9725 42.3435 47.8978 42.273 47.7309C42.2023 47.564 42.2725 47.3679 42.4296 47.2929C42.5868 47.2179 42.7714 47.2924 42.842 47.4594Z" fill="white"/>
<path d="M42.842 47.4594C42.9127 47.6263 42.8425 47.8225 42.6854 47.8975C42.5282 47.9725 42.3435 47.8978 42.273 47.7309C42.2023 47.564 42.2725 47.3679 42.4296 47.2929C42.5868 47.2179 42.7714 47.2924 42.842 47.4594Z" fill="white"/>
<path d="M41.2282 47.2877C41.2989 47.4548 41.2288 47.6508 41.0716 47.7258C40.9144 47.8008 40.7297 47.7262 40.6592 47.5593C40.5885 47.3924 40.6587 47.1963 40.8158 47.1213C40.973 47.0463 41.1576 47.1208 41.2282 47.2877Z" fill="white"/>
<path d="M41.2282 47.2877C41.2989 47.4548 41.2288 47.6508 41.0716 47.7258C40.9144 47.8008 40.7297 47.7262 40.6592 47.5593C40.5885 47.3924 40.6587 47.1963 40.8158 47.1213C40.973 47.0463 41.1576 47.1208 41.2282 47.2877Z" fill="white"/>
<path d="M40.4209 46.6022C40.4916 46.7691 40.4214 46.9653 40.2642 47.0402C40.1071 47.1152 39.9225 47.0406 39.8518 46.8737C39.7812 46.7068 39.8513 46.5107 40.0085 46.4357C40.1656 46.3607 40.3503 46.4352 40.4209 46.6022Z" fill="white"/>
<path d="M40.4209 46.6022C40.4916 46.7691 40.4214 46.9653 40.2642 47.0402C40.1071 47.1152 39.9225 47.0406 39.8518 46.8737C39.7812 46.7068 39.8513 46.5107 40.0085 46.4357C40.1656 46.3607 40.3503 46.4352 40.4209 46.6022Z" fill="white"/>
<path d="M39.9383 47.2877C40.009 47.4548 39.9389 47.6508 39.7817 47.7258C39.6245 47.8008 39.4398 47.7262 39.3693 47.5593C39.2986 47.3924 39.3688 47.1963 39.5259 47.1213C39.6831 47.0463 39.8678 47.1208 39.9383 47.2877Z" fill="white"/>
<path d="M39.9383 47.2877C40.009 47.4548 39.9389 47.6508 39.7817 47.7258C39.6245 47.8008 39.4398 47.7262 39.3693 47.5593C39.2986 47.3924 39.3688 47.1963 39.5259 47.1213C39.6831 47.0463 39.8678 47.1208 39.9383 47.2877Z" fill="white"/>
<path d="M40.7445 47.9741C40.8151 48.1411 40.745 48.3371 40.5878 48.4121C40.4307 48.4871 40.246 48.4126 40.1753 48.2457C40.1047 48.0788 40.1749 47.8827 40.3321 47.8077C40.4891 47.7327 40.6738 47.8072 40.7445 47.9741Z" fill="white"/>
<path d="M40.7445 47.9741C40.8151 48.1411 40.745 48.3371 40.5878 48.4121C40.4307 48.4871 40.246 48.4126 40.1753 48.2457C40.1047 48.0788 40.1749 47.8827 40.3321 47.8077C40.4891 47.7327 40.6738 47.8072 40.7445 47.9741Z" fill="white"/>
<path d="M42.0355 48.1454C42.1061 48.3123 42.036 48.5084 41.8788 48.5834C41.7217 48.6584 41.537 48.5838 41.4663 48.4169C41.3958 48.25 41.4659 48.0538 41.6231 47.9788C41.7801 47.9039 41.9648 47.9784 42.0355 48.1454Z" fill="white"/>
<path d="M42.0355 48.1454C42.1061 48.3123 42.036 48.5084 41.8788 48.5834C41.7217 48.6584 41.537 48.5838 41.4663 48.4169C41.3958 48.25 41.4659 48.0538 41.6231 47.9788C41.7801 47.9039 41.9648 47.9784 42.0355 48.1454Z" fill="white"/>
<path d="M42.842 49.0022C42.9127 49.1691 42.8425 49.3652 42.6854 49.4402C42.5282 49.5152 42.3435 49.4406 42.273 49.2737C42.2023 49.1068 42.2725 48.9106 42.4296 48.8357C42.5868 48.7607 42.7714 48.8353 42.842 49.0022Z" fill="white"/>
<path d="M42.842 49.0022C42.9127 49.1691 42.8425 49.3652 42.6854 49.4402C42.5282 49.5152 42.3435 49.4406 42.273 49.2737C42.2023 49.1068 42.2725 48.9106 42.4296 48.8357C42.5868 48.7607 42.7714 48.8353 42.842 49.0022Z" fill="white"/>
<path d="M42.196 49.8594C42.2665 50.0263 42.1964 50.2225 42.0392 50.2974C41.8822 50.3724 41.6975 50.2978 41.6268 50.1309C41.5561 49.964 41.6263 49.7679 41.7835 49.6929C41.9406 49.6179 42.1253 49.6924 42.196 49.8594Z" fill="white"/>
<path d="M42.196 49.8594C42.2665 50.0263 42.1964 50.2225 42.0392 50.2974C41.8822 50.3724 41.6975 50.2978 41.6268 50.1309C41.5561 49.964 41.6263 49.7679 41.7835 49.6929C41.9406 49.6179 42.1253 49.6924 42.196 49.8594Z" fill="white"/>
<path d="M41.5522 49.0022C41.6229 49.1691 41.5527 49.3652 41.3956 49.4402C41.2384 49.5152 41.0537 49.4406 40.9832 49.2737C40.9125 49.1068 40.9826 48.9106 41.1398 48.8357C41.297 48.7607 41.4817 48.8353 41.5522 49.0022Z" fill="white"/>
<path d="M41.5522 49.0022C41.6229 49.1691 41.5527 49.3652 41.3956 49.4402C41.2384 49.5152 41.0537 49.4406 40.9832 49.2737C40.9125 49.1068 40.9826 48.9106 41.1398 48.8357C41.297 48.7607 41.4817 48.8353 41.5522 49.0022Z" fill="white"/>
<path d="M47.5501 43.6677C47.6561 43.918 47.5509 44.2123 47.3151 44.3247C47.0794 44.4372 46.8024 44.3254 46.6965 44.075C46.5905 43.8245 46.6956 43.5304 46.9314 43.418C47.1671 43.3054 47.4442 43.4173 47.5501 43.6677Z" fill="white"/>
<path d="M47.5501 43.6677C47.6561 43.918 47.5509 44.2123 47.3151 44.3247C47.0794 44.4372 46.8024 44.3254 46.6965 44.075C46.5905 43.8245 46.6956 43.5304 46.9314 43.418C47.1671 43.3054 47.4442 43.4173 47.5501 43.6677Z" fill="white"/>
<path d="M47.3885 45.5532C47.4944 45.8037 47.3892 46.0978 47.1535 46.2102C46.9177 46.3228 46.6407 46.2109 46.5348 45.9605C46.4288 45.7102 46.5341 45.4159 46.7697 45.3035C47.0055 45.1909 47.2825 45.3028 47.3885 45.5532Z" fill="white"/>
<path d="M47.3885 45.5532C47.4944 45.8037 47.3892 46.0978 47.1535 46.2102C46.9177 46.3228 46.6407 46.2109 46.5348 45.9605C46.4288 45.7102 46.5341 45.4159 46.7697 45.3035C47.0055 45.1909 47.2825 45.3028 47.3885 45.5532Z" fill="white"/>
<path d="M50.6443 43.6479C50.7855 43.9818 50.6453 44.374 50.331 44.5239C50.0167 44.6739 49.6473 44.5249 49.5061 44.191C49.3649 43.8571 49.5051 43.4649 49.8194 43.3149C50.1337 43.1649 50.5031 43.314 50.6443 43.6479Z" fill="white"/>
<path d="M50.6443 43.6479C50.7855 43.9818 50.6453 44.374 50.331 44.5239C50.0167 44.6739 49.6473 44.5249 49.5061 44.191C49.3649 43.8571 49.5051 43.4649 49.8194 43.3149C50.1337 43.1649 50.5031 43.314 50.6443 43.6479Z" fill="white"/>
<path d="M49.6748 41.9327C49.816 42.2666 49.6758 42.6588 49.3615 42.8088C49.0472 42.9587 48.6778 42.8097 48.5366 42.4758C48.3952 42.1419 48.5355 41.7497 48.8498 41.5997C49.1642 41.4497 49.5334 41.5989 49.6748 41.9327Z" fill="white"/>
<path d="M49.6748 41.9327C49.816 42.2666 49.6758 42.6588 49.3615 42.8088C49.0472 42.9587 48.6778 42.8097 48.5366 42.4758C48.3952 42.1419 48.5355 41.7497 48.8498 41.5997C49.1642 41.4497 49.5334 41.5989 49.6748 41.9327Z" fill="white"/>
<path d="M25.4573 58.2254C25.316 57.8915 25.4563 57.4993 25.7706 57.3492C26.0849 57.1994 26.4542 57.3484 26.5955 57.6823C26.7367 58.0161 26.5966 58.4084 26.2822 58.5584C25.9679 58.7084 25.5985 58.5592 25.4573 58.2254Z" fill="white"/>
<path d="M25.4573 58.2254C25.316 57.8915 25.4563 57.4993 25.7706 57.3492C26.0849 57.1994 26.4542 57.3484 26.5955 57.6823C26.7367 58.0161 26.5966 58.4084 26.2822 58.5584C25.9679 58.7084 25.5985 58.5592 25.4573 58.2254Z" fill="white"/>
<path d="M25.7795 55.3114C25.6381 54.9775 25.7784 54.5853 26.0928 54.4353C26.4071 54.2853 26.7765 54.4345 26.9177 54.7683C27.0589 55.1021 26.9187 55.4944 26.6044 55.6444C26.2901 55.7943 25.9207 55.6453 25.7795 55.3114Z" fill="white"/>
<path d="M25.7795 55.3114C25.6381 54.9775 25.7784 54.5853 26.0928 54.4353C26.4071 54.2853 26.7765 54.4345 26.9177 54.7683C27.0589 55.1021 26.9187 55.4944 26.6044 55.6444C26.2901 55.7943 25.9207 55.6453 25.7795 55.3114Z" fill="white"/>
<path d="M25.9419 56.8541C25.8005 56.5203 25.9408 56.128 26.2552 55.9781C26.5695 55.8281 26.9388 55.9771 27.0801 56.311C27.2213 56.6449 27.081 57.0371 26.7667 57.1871C26.4525 57.3371 26.0831 57.1881 25.9419 56.8541Z" fill="white"/>
<path d="M25.9419 56.8541C25.8005 56.5203 25.9408 56.128 26.2552 55.9781C26.5695 55.8281 26.9388 55.9771 27.0801 56.311C27.2213 56.6449 27.081 57.0371 26.7667 57.1871C26.4525 57.3371 26.0831 57.1881 25.9419 56.8541Z" fill="white"/>
<path d="M26.9087 58.7402C26.7675 58.4062 26.9078 58.0141 27.2221 57.8641C27.5363 57.7141 27.9057 57.8632 28.0469 58.1971C28.1882 58.5309 28.0479 58.9232 27.7336 59.0731C27.4193 59.2231 27.05 59.074 26.9087 58.7402Z" fill="white"/>
<path d="M26.9087 58.7402C26.7675 58.4062 26.9078 58.0141 27.2221 57.8641C27.5363 57.7141 27.9057 57.8632 28.0469 58.1971C28.1882 58.5309 28.0479 58.9232 27.7336 59.0731C27.4193 59.2231 27.05 59.074 26.9087 58.7402Z" fill="white"/>
<path d="M27.2335 55.8254C27.0923 55.4916 27.2326 55.0993 27.5468 54.9493C27.8611 54.7994 28.2305 54.9484 28.3717 55.2823C28.513 55.6162 28.3727 56.0084 28.0584 56.1584C27.7441 56.3084 27.3748 56.1592 27.2335 55.8254Z" fill="white"/>
<path d="M27.2335 55.8254C27.0923 55.4916 27.2326 55.0993 27.5468 54.9493C27.8611 54.7994 28.2305 54.9484 28.3717 55.2823C28.513 55.6162 28.3727 56.0084 28.0584 56.1584C27.7441 56.3084 27.3748 56.1592 27.2335 55.8254Z" fill="white"/>
<path d="M29.0059 56.1686C28.8646 55.8347 29.0049 55.4424 29.3191 55.2924C29.6335 55.1426 30.0028 55.2916 30.1441 55.6254C30.2854 55.9593 30.1451 56.3516 29.8308 56.5016C29.5165 56.6516 29.1472 56.5024 29.0059 56.1686Z" fill="white"/>
<path d="M29.0059 56.1686C28.8646 55.8347 29.0049 55.4424 29.3191 55.2924C29.6335 55.1426 30.0028 55.2916 30.1441 55.6254C30.2854 55.9593 30.1451 56.3516 29.8308 56.5016C29.5165 56.6516 29.1472 56.5024 29.0059 56.1686Z" fill="white"/>
<path d="M28.8474 57.7114C28.706 57.3774 28.8463 56.9853 29.1607 56.8353C29.475 56.6853 29.8444 56.8343 29.9856 57.1683C30.1268 57.5021 29.9866 57.8944 29.6723 58.0443C29.358 58.1943 28.9886 58.0452 28.8474 57.7114Z" fill="white"/>
<path d="M28.8474 57.7114C28.706 57.3774 28.8463 56.9853 29.1607 56.8353C29.475 56.6853 29.8444 56.8343 29.9856 57.1683C30.1268 57.5021 29.9866 57.8944 29.6723 58.0443C29.358 58.1943 28.9886 58.0452 28.8474 57.7114Z" fill="white"/>
<path d="M29.976 58.9118C29.8348 58.5778 29.9751 58.1857 30.2894 58.0357C30.6036 57.8857 30.973 58.0347 31.1142 58.3687C31.2555 58.7025 31.1152 59.0948 30.8009 59.2447C30.4866 59.3947 30.1173 59.2456 29.976 58.9118Z" fill="white"/>
<path d="M29.976 58.9118C29.8348 58.5778 29.9751 58.1857 30.2894 58.0357C30.6036 57.8857 30.973 58.0347 31.1142 58.3687C31.2555 58.7025 31.1152 59.0948 30.8009 59.2447C30.4866 59.3947 30.1173 59.2456 29.976 58.9118Z" fill="white"/>
<path d="M31.6156 58.5484C31.5096 58.298 31.6149 58.0039 31.8506 57.8913C32.0864 57.7789 32.3633 57.8907 32.4693 58.141C32.5752 58.3915 32.47 58.6856 32.2343 58.7982C31.9986 58.9106 31.7216 58.7988 31.6156 58.5484Z" fill="white"/>
<path d="M31.6156 58.5484C31.5096 58.298 31.6149 58.0039 31.8506 57.8913C32.0864 57.7789 32.3633 57.8907 32.4693 58.141C32.5752 58.3915 32.47 58.6856 32.2343 58.7982C31.9986 58.9106 31.7216 58.7988 31.6156 58.5484Z" fill="white"/>
<path d="M32.9073 57.8627C32.8014 57.6124 32.9066 57.3182 33.1424 57.2057C33.3781 57.0933 33.655 57.205 33.761 57.4555C33.867 57.7059 33.7618 58 33.526 58.1125C33.2904 58.225 33.0133 58.1132 32.9073 57.8627Z" fill="white"/>
<path d="M32.9073 57.8627C32.8014 57.6124 32.9066 57.3182 33.1424 57.2057C33.3781 57.0933 33.655 57.205 33.761 57.4555C33.867 57.7059 33.7618 58 33.526 58.1125C33.2904 58.225 33.0133 58.1132 32.9073 57.8627Z" fill="white"/>
<path d="M34.0379 57.0056C33.9319 56.7551 34.0372 56.461 34.2729 56.3486C34.5085 56.236 34.7856 56.3478 34.8916 56.5983C34.9975 56.8486 34.8923 57.1428 34.6565 57.2553C34.4208 57.3678 34.1439 57.256 34.0379 57.0056Z" fill="white"/>
<path d="M34.0379 57.0056C33.9319 56.7551 34.0372 56.461 34.2729 56.3486C34.5085 56.236 34.7856 56.3478 34.8916 56.5983C34.9975 56.8486 34.8923 57.1428 34.6565 57.2553C34.4208 57.3678 34.1439 57.256 34.0379 57.0056Z" fill="white"/>
<path d="M31.9396 54.7772C31.8336 54.5268 31.9389 54.2326 32.1746 54.1202C32.4104 54.0076 32.6873 54.1195 32.7933 54.3699C32.8992 54.6202 32.794 54.9145 32.5583 55.0269C32.3225 55.1395 32.0456 55.0276 31.9396 54.7772Z" fill="white"/>
<path d="M31.9396 54.7772C31.8336 54.5268 31.9389 54.2326 32.1746 54.1202C32.4104 54.0076 32.6873 54.1195 32.7933 54.3699C32.8992 54.6202 32.794 54.9145 32.5583 55.0269C32.3225 55.1395 32.0456 55.0276 31.9396 54.7772Z" fill="white"/>
<path d="M31.7785 56.6623C31.6726 56.412 31.7778 56.1178 32.0135 56.0053C32.2493 55.8928 32.5262 56.0046 32.6322 56.255C32.7382 56.5055 32.6329 56.7996 32.3972 56.912C32.1614 57.0246 31.8845 56.9128 31.7785 56.6623Z" fill="white"/>
<path d="M31.7785 56.6623C31.6726 56.412 31.7778 56.1178 32.0135 56.0053C32.2493 55.8928 32.5262 56.0046 32.6322 56.255C32.7382 56.5055 32.6329 56.7996 32.3972 56.912C32.1614 57.0246 31.8845 56.9128 31.7785 56.6623Z" fill="white"/>
<path d="M32.9073 55.9768C32.8014 55.7263 32.9066 55.4322 33.1424 55.3197C33.3781 55.2072 33.655 55.3191 33.761 55.5695C33.867 55.8198 33.7618 56.1141 33.526 56.2265C33.2904 56.3389 33.0133 56.2272 32.9073 55.9768Z" fill="white"/>
<path d="M32.9073 55.9768C32.8014 55.7263 32.9066 55.4322 33.1424 55.3197C33.3781 55.2072 33.655 55.3191 33.761 55.5695C33.867 55.8198 33.7618 56.1141 33.526 56.2265C33.2904 56.3389 33.0133 56.2272 32.9073 55.9768Z" fill="white"/>
<path d="M34.3869 54.2427C34.3162 54.0757 34.3864 53.8796 34.5435 53.8046C34.7007 53.7296 34.8854 53.8041 34.9561 53.9712C35.0266 54.1381 34.9565 54.3342 34.7993 54.4092C34.6421 54.4842 34.4576 54.4096 34.3869 54.2427Z" fill="white"/>
<path d="M34.3869 54.2427C34.3162 54.0757 34.3864 53.8796 34.5435 53.8046C34.7007 53.7296 34.8854 53.8041 34.9561 53.9712C35.0266 54.1381 34.9565 54.3342 34.7993 54.4092C34.6421 54.4842 34.4576 54.4096 34.3869 54.2427Z" fill="white"/>
<path d="M33.5796 53.5573C33.509 53.3904 33.5791 53.1943 33.7363 53.1193C33.8935 53.0443 34.0781 53.1189 34.1488 53.2858C34.2194 53.4528 34.1492 53.6489 33.9922 53.7239C33.835 53.7989 33.6503 53.7243 33.5796 53.5573Z" fill="white"/>
<path d="M33.5796 53.5573C33.509 53.3904 33.5791 53.1943 33.7363 53.1193C33.8935 53.0443 34.0781 53.1189 34.1488 53.2858C34.2194 53.4528 34.1492 53.6489 33.9922 53.7239C33.835 53.7989 33.6503 53.7243 33.5796 53.5573Z" fill="white"/>
<path d="M34.3869 55.7854C34.3162 55.6185 34.3864 55.4224 34.5435 55.3474C34.7007 55.2724 34.8854 55.3469 34.9561 55.5139C35.0266 55.6808 34.9565 55.877 34.7993 55.9519C34.6421 56.0269 34.4576 55.9523 34.3869 55.7854Z" fill="white"/>
<path d="M34.3869 55.7854C34.3162 55.6185 34.3864 55.4224 34.5435 55.3474C34.7007 55.2724 34.8854 55.3469 34.9561 55.5139C35.0266 55.6808 34.9565 55.877 34.7993 55.9519C34.6421 56.0269 34.4576 55.9523 34.3869 55.7854Z" fill="white"/>
<path d="M33.5796 54.9286C33.509 54.7617 33.5791 54.5656 33.7363 54.4906C33.8935 54.4156 34.0781 54.4901 34.1488 54.657C34.2194 54.824 34.1492 55.0202 33.9922 55.095C33.835 55.17 33.6503 55.0955 33.5796 54.9286Z" fill="white"/>
<path d="M33.5796 54.9286C33.509 54.7617 33.5791 54.5656 33.7363 54.4906C33.8935 54.4156 34.0781 54.4901 34.1488 54.657C34.2194 54.824 34.1492 55.0202 33.9922 55.095C33.835 55.17 33.6503 55.0955 33.5796 54.9286Z" fill="white"/>
<path d="M32.7718 54.0711C32.7011 53.9041 32.7713 53.708 32.9284 53.633C33.0856 53.558 33.2703 53.6326 33.341 53.7995C33.4115 53.9665 33.3415 54.1625 33.1843 54.2375C33.0271 54.3125 32.8425 54.238 32.7718 54.0711Z" fill="white"/>
<path d="M32.7718 54.0711C32.7011 53.9041 32.7713 53.708 32.9284 53.633C33.0856 53.558 33.2703 53.6326 33.341 53.7995C33.4115 53.9665 33.3415 54.1625 33.1843 54.2375C33.0271 54.3125 32.8425 54.238 32.7718 54.0711Z" fill="white"/>
<path d="M35.1935 56.4706C35.1229 56.3037 35.193 56.1076 35.3502 56.0326C35.5073 55.9576 35.692 56.0321 35.7627 56.1991C35.8333 56.366 35.7631 56.5622 35.6059 56.6372C35.4489 56.7122 35.2642 56.6375 35.1935 56.4706Z" fill="white"/>
<path d="M35.1935 56.4706C35.1229 56.3037 35.193 56.1076 35.3502 56.0326C35.5073 55.9576 35.692 56.0321 35.7627 56.1991C35.8333 56.366 35.7631 56.5622 35.6059 56.6372C35.4489 56.7122 35.2642 56.6375 35.1935 56.4706Z" fill="white"/>
<path d="M36.0008 55.7854C35.9301 55.6185 36.0003 55.4224 36.1574 55.3474C36.3146 55.2724 36.4993 55.3469 36.5698 55.5139C36.6405 55.6808 36.5704 55.877 36.4132 55.9519C36.256 56.0269 36.0715 55.9523 36.0008 55.7854Z" fill="white"/>
<path d="M36.0008 55.7854C35.9301 55.6185 36.0003 55.4224 36.1574 55.3474C36.3146 55.2724 36.4993 55.3469 36.5698 55.5139C36.6405 55.6808 36.5704 55.877 36.4132 55.9519C36.256 56.0269 36.0715 55.9523 36.0008 55.7854Z" fill="white"/>
<path d="M36.808 55.099C36.7374 54.9321 36.8075 54.736 36.9647 54.661C37.1218 54.586 37.3065 54.6605 37.3771 54.8276C37.4478 54.9945 37.3776 55.1906 37.2204 55.2656C37.0633 55.3406 36.8787 55.2661 36.808 55.099Z" fill="white"/>
<path d="M36.808 55.099C36.7374 54.9321 36.8075 54.736 36.9647 54.661C37.1218 54.586 37.3065 54.6605 37.3771 54.8276C37.4478 54.9945 37.3776 55.1906 37.2204 55.2656C37.0633 55.3406 36.8787 55.2661 36.808 55.099Z" fill="white"/>
<path d="M36.0008 54.4138C35.9301 54.2469 36.0003 54.0508 36.1574 53.9758C36.3146 53.9008 36.4993 53.9753 36.5698 54.1422C36.6405 54.3091 36.5704 54.5053 36.4132 54.5803C36.256 54.6553 36.0715 54.5807 36.0008 54.4138Z" fill="white"/>
<path d="M36.0008 54.4138C35.9301 54.2469 36.0003 54.0508 36.1574 53.9758C36.3146 53.9008 36.4993 53.9753 36.5698 54.1422C36.6405 54.3091 36.5704 54.5053 36.4132 54.5803C36.256 54.6553 36.0715 54.5807 36.0008 54.4138Z" fill="white"/>
<path d="M35.1935 55.0995C35.1229 54.9324 35.193 54.7363 35.3502 54.6613C35.5073 54.5863 35.692 54.661 35.7627 54.8279C35.8333 54.9948 35.7631 55.1909 35.6059 55.2659C35.4489 55.3409 35.2642 55.2664 35.1935 55.0995Z" fill="white"/>
<path d="M35.1935 55.0995C35.1229 54.9324 35.193 54.7363 35.3502 54.6613C35.5073 54.5863 35.692 54.661 35.7627 54.8279C35.8333 54.9948 35.7631 55.1909 35.6059 55.2659C35.4489 55.3409 35.2642 55.2664 35.1935 55.0995Z" fill="white"/>
<path d="M34.3869 52.8715C34.3162 52.7045 34.3864 52.5083 34.5435 52.4335C34.7007 52.3585 34.8854 52.433 34.9561 52.5999C35.0266 52.7668 34.9565 52.9629 34.7993 53.0379C34.6421 53.1129 34.4576 53.0384 34.3869 52.8715Z" fill="white"/>
<path d="M34.3869 52.8715C34.3162 52.7045 34.3864 52.5083 34.5435 52.4335C34.7007 52.3585 34.8854 52.433 34.9561 52.5999C35.0266 52.7668 34.9565 52.9629 34.7993 53.0379C34.6421 53.1129 34.4576 53.0384 34.3869 52.8715Z" fill="white"/>
<path d="M35.1935 53.5573C35.1229 53.3904 35.193 53.1943 35.3502 53.1193C35.5073 53.0443 35.692 53.1189 35.7627 53.2858C35.8333 53.4528 35.7631 53.6489 35.6059 53.7239C35.4489 53.7989 35.2642 53.7243 35.1935 53.5573Z" fill="white"/>
<path d="M35.1935 53.5573C35.1229 53.3904 35.193 53.1943 35.3502 53.1193C35.5073 53.0443 35.692 53.1189 35.7627 53.2858C35.8333 53.4528 35.7631 53.6489 35.6059 53.7239C35.4489 53.7989 35.2642 53.7243 35.1935 53.5573Z" fill="white"/>
<path d="M36.6255 53.7309C36.5548 53.564 36.625 53.3679 36.7822 53.2929C36.9393 53.2179 37.124 53.2924 37.1946 53.4593C37.2652 53.6262 37.1951 53.8223 37.0379 53.8973C36.8808 53.9723 36.6962 53.8978 36.6255 53.7309Z" fill="white"/>
<path d="M36.6255 53.7309C36.5548 53.564 36.625 53.3679 36.7822 53.2929C36.9393 53.2179 37.124 53.2924 37.1946 53.4593C37.2652 53.6262 37.1951 53.8223 37.0379 53.8973C36.8808 53.9723 36.6962 53.8978 36.6255 53.7309Z" fill="white"/>
<path d="M37.4333 54.4164C37.3627 54.2495 37.4328 54.0534 37.59 53.9784C37.7472 53.9034 37.9317 53.978 38.0024 54.1449C38.0731 54.3119 38.0029 54.508 37.8458 54.583C37.6886 54.658 37.5039 54.5834 37.4333 54.4164Z" fill="white"/>
<path d="M37.4333 54.4164C37.3627 54.2495 37.4328 54.0534 37.59 53.9784C37.7472 53.9034 37.9317 53.978 38.0024 54.1449C38.0731 54.3119 38.0029 54.508 37.8458 54.583C37.6886 54.658 37.5039 54.5834 37.4333 54.4164Z" fill="white"/>
<path d="M37.9171 53.7309C37.8465 53.564 37.9166 53.3679 38.0738 53.2929C38.2309 53.2179 38.4156 53.2924 38.4862 53.4593C38.5568 53.6262 38.4867 53.8223 38.3295 53.8973C38.1724 53.9723 37.9878 53.8978 37.9171 53.7309Z" fill="white"/>
<path d="M37.9171 53.7309C37.8465 53.564 37.9166 53.3679 38.0738 53.2929C38.2309 53.2179 38.4156 53.2924 38.4862 53.4593C38.5568 53.6262 38.4867 53.8223 38.3295 53.8973C38.1724 53.9723 37.9878 53.8978 37.9171 53.7309Z" fill="white"/>
<path d="M37.2729 53.0454C37.2022 52.8784 37.2723 52.6822 37.4295 52.6072C37.5867 52.5322 37.7713 52.6069 37.8419 52.7738C37.9126 52.9407 37.8424 53.1368 37.6853 53.2118C37.5281 53.2868 37.3434 53.2123 37.2729 53.0454Z" fill="white"/>
<path d="M37.2729 53.0454C37.2022 52.8784 37.2723 52.6822 37.4295 52.6072C37.5867 52.5322 37.7713 52.6069 37.8419 52.7738C37.9126 52.9407 37.8424 53.1368 37.6853 53.2118C37.5281 53.2868 37.3434 53.2123 37.2729 53.0454Z" fill="white"/>
<path d="M36.0021 52.8715C35.9314 52.7045 36.0016 52.5083 36.1587 52.4335C36.3159 52.3585 36.5005 52.433 36.5712 52.5999C36.6418 52.7668 36.5717 52.9629 36.4145 53.0379C36.2573 53.1129 36.0727 53.0384 36.0021 52.8715Z" fill="white"/>
<path d="M36.0021 52.8715C35.9314 52.7045 36.0016 52.5083 36.1587 52.4335C36.3159 52.3585 36.5005 52.433 36.5712 52.5999C36.6418 52.7668 36.5717 52.9629 36.4145 53.0379C36.2573 53.1129 36.0727 53.0384 36.0021 52.8715Z" fill="white"/>
<path d="M35.1935 52.0143C35.1229 51.8472 35.193 51.6512 35.3502 51.5762C35.5073 51.5012 35.692 51.5758 35.7627 51.7427C35.8333 51.9096 35.7631 52.1057 35.6059 52.1807C35.4489 52.2557 35.2642 52.1812 35.1935 52.0143Z" fill="white"/>
<path d="M35.1935 52.0143C35.1229 51.8472 35.193 51.6512 35.3502 51.5762C35.5073 51.5012 35.692 51.5758 35.7627 51.7427C35.8333 51.9096 35.7631 52.1057 35.6059 52.1807C35.4489 52.2557 35.2642 52.1812 35.1935 52.0143Z" fill="white"/>
<path d="M35.8194 51.3309C35.7488 51.164 35.8188 50.9679 35.976 50.8929C36.1332 50.8179 36.3179 50.8924 36.3885 51.0593C36.4592 51.2262 36.389 51.4224 36.2319 51.4974C36.0747 51.5723 35.89 51.4978 35.8194 51.3309Z" fill="white"/>
<path d="M35.8194 51.3309C35.7488 51.164 35.8188 50.9679 35.976 50.8929C36.1332 50.8179 36.3179 50.8924 36.3885 51.0593C36.4592 51.2262 36.389 51.4224 36.2319 51.4974C36.0747 51.5723 35.89 51.4978 35.8194 51.3309Z" fill="white"/>
<path d="M36.4636 52.1881C36.393 52.0211 36.4632 51.8251 36.6204 51.7501C36.7774 51.6751 36.9621 51.7496 37.0328 51.9165C37.1034 52.0835 37.0333 52.2796 36.8761 52.3546C36.719 52.4296 36.5343 52.3551 36.4636 52.1881Z" fill="white"/>
<path d="M36.4636 52.1881C36.393 52.0211 36.4632 51.8251 36.6204 51.7501C36.7774 51.6751 36.9621 51.7496 37.0328 51.9165C37.1034 52.0835 37.0333 52.2796 36.8761 52.3546C36.719 52.4296 36.5343 52.3551 36.4636 52.1881Z" fill="white"/>
<path d="M30.4862 57.3484C30.3802 57.0979 30.4855 56.8038 30.7212 56.6913C30.957 56.5788 31.2339 56.6907 31.3399 56.941C31.4458 57.1914 31.3406 57.4857 31.1049 57.5981C30.8691 57.7105 30.5922 57.5987 30.4862 57.3484Z" fill="white"/>
<path d="M30.4862 57.3484C30.3802 57.0979 30.4855 56.8038 30.7212 56.6913C30.957 56.5788 31.2339 56.6907 31.3399 56.941C31.4458 57.1914 31.3406 57.4857 31.1049 57.5981C30.8691 57.7105 30.5922 57.5987 30.4862 57.3484Z" fill="white"/>
<path d="M30.6466 55.4624C30.5406 55.212 30.6459 54.9178 30.8816 54.8054C31.1174 54.6929 31.3943 54.8046 31.5003 55.0551C31.6062 55.3055 31.501 55.5996 31.2653 55.7121C31.0295 55.8246 30.7526 55.7128 30.6466 55.4624Z" fill="white"/>
<path d="M30.6466 55.4624C30.5406 55.212 30.6459 54.9178 30.8816 54.8054C31.1174 54.6929 31.3943 54.8046 31.5003 55.0551C31.6062 55.3055 31.501 55.5996 31.2653 55.7121C31.0295 55.8246 30.7526 55.7128 30.6466 55.4624Z" fill="white"/>
<path d="M27.3933 57.3686C27.252 57.0347 27.3922 56.6425 27.7066 56.4925C28.0209 56.3425 28.3903 56.4916 28.5315 56.8255C28.6728 57.1593 28.5325 57.5516 28.2182 57.7016C27.9039 57.8515 27.5346 57.7024 27.3933 57.3686Z" fill="white"/>
<path d="M27.3933 57.3686C27.252 57.0347 27.3922 56.6425 27.7066 56.4925C28.0209 56.3425 28.3903 56.4916 28.5315 56.8255C28.6728 57.1593 28.5325 57.5516 28.2182 57.7016C27.9039 57.8515 27.5346 57.7024 27.3933 57.3686Z" fill="white"/>
<path d="M28.3642 59.0825C28.2229 58.7487 28.3632 58.3564 28.6775 58.2065C28.9918 58.0565 29.3611 58.2056 29.5024 58.5394C29.6437 58.8734 29.5035 59.2655 29.1891 59.4155C28.8748 59.5655 28.5054 59.4164 28.3642 59.0825Z" fill="white"/>
<path d="M28.3642 59.0825C28.2229 58.7487 28.3632 58.3564 28.6775 58.2065C28.9918 58.0565 29.3611 58.2056 29.5024 58.5394C29.6437 58.8734 29.5035 59.2655 29.1891 59.4155C28.8748 59.5655 28.5054 59.4164 28.3642 59.0825Z" fill="white"/>
</g>
<path d="M89.1428 45.19C87.4202 45.19 86.0838 44.753 85.1338 43.879C84.1838 43.005 83.7088 41.6813 83.7088 39.908V32.175C83.7088 32.0357 83.7468 31.9217 83.8228 31.833C83.9115 31.7443 84.0255 31.7 84.1648 31.7H85.9128C86.0522 31.7 86.1662 31.7443 86.2548 31.833C86.3435 31.9217 86.3878 32.0357 86.3878 32.175V39.908C86.3878 40.9087 86.6222 41.6623 87.0908 42.169C87.5722 42.6757 88.2498 42.929 89.1238 42.929C89.9978 42.929 90.6692 42.6757 91.1378 42.169C91.6192 41.6623 91.8598 40.9087 91.8598 39.908V32.175C91.8598 32.0357 91.9042 31.9217 91.9928 31.833C92.0815 31.7443 92.1955 31.7 92.3348 31.7H94.0828C94.2222 31.7 94.3298 31.7443 94.4058 31.833C94.4945 31.9217 94.5388 32.0357 94.5388 32.175V39.908C94.5388 41.6813 94.0638 43.005 93.1138 43.879C92.1765 44.753 90.8528 45.19 89.1428 45.19ZM99.8423 45C99.7156 45 99.608 44.9557 99.5193 44.867C99.4306 44.7783 99.3863 44.6707 99.3863 44.544V32.156C99.3863 32.0167 99.4306 31.909 99.5193 31.833C99.608 31.7443 99.7156 31.7 99.8423 31.7H101.628C101.768 31.7 101.875 31.7443 101.951 31.833C102.04 31.909 102.084 32.0167 102.084 32.156V42.72H108.107C108.247 42.72 108.361 42.7643 108.449 42.853C108.538 42.9417 108.582 43.0493 108.582 43.176V44.544C108.582 44.6707 108.538 44.7783 108.449 44.867C108.361 44.9557 108.247 45 108.107 45H99.8423ZM113.656 45C113.529 45 113.422 44.9557 113.333 44.867C113.244 44.7783 113.2 44.6707 113.2 44.544V34.075H109.685C109.558 34.075 109.451 34.0307 109.362 33.942C109.273 33.8533 109.229 33.7393 109.229 33.6V32.175C109.229 32.0357 109.267 31.9217 109.343 31.833C109.432 31.7443 109.546 31.7 109.685 31.7H119.394C119.533 31.7 119.647 31.7443 119.736 31.833C119.825 31.9217 119.869 32.0357 119.869 32.175V33.6C119.869 33.7393 119.825 33.8533 119.736 33.942C119.647 34.0307 119.533 34.075 119.394 34.075H115.898V44.544C115.898 44.6707 115.854 44.7783 115.765 44.867C115.689 44.9557 115.581 45 115.442 45H113.656ZM121.588 45C121.474 45 121.379 44.962 121.303 44.886C121.227 44.81 121.189 44.715 121.189 44.601L121.227 44.43L125.787 32.175C125.914 31.8583 126.142 31.7 126.471 31.7H128.561C128.89 31.7 129.118 31.8583 129.245 32.175L133.805 44.43L133.843 44.601C133.843 44.715 133.799 44.81 133.71 44.886C133.634 44.962 133.545 45 133.444 45H131.753C131.487 45 131.303 44.8797 131.202 44.639L130.328 42.34H124.704L123.83 44.639C123.729 44.8797 123.545 45 123.279 45H121.588ZM125.369 40.136H129.663L127.516 34.284L125.369 40.136ZM138.053 45C137.927 45 137.819 44.9557 137.73 44.867C137.642 44.7783 137.597 44.6707 137.597 44.544V32.156C137.597 32.0167 137.642 31.909 137.73 31.833C137.819 31.7443 137.927 31.7 138.053 31.7H139.877C140.017 31.7 140.124 31.7443 140.2 31.833C140.289 31.909 140.333 32.0167 140.333 32.156V44.544C140.333 44.6707 140.289 44.7783 140.2 44.867C140.124 44.9557 140.017 45 139.877 45H138.053ZM145.75 45C145.623 45 145.515 44.9557 145.427 44.867C145.338 44.7783 145.294 44.6707 145.294 44.544V32.175C145.294 32.0357 145.332 31.9217 145.408 31.833C145.496 31.7443 145.61 31.7 145.75 31.7H147.232C147.472 31.7 147.656 31.8077 147.783 32.023L153.217 40.459V32.175C153.217 32.0357 153.255 31.9217 153.331 31.833C153.419 31.7443 153.533 31.7 153.673 31.7H155.307C155.446 31.7 155.56 31.7443 155.649 31.833C155.737 31.9217 155.782 32.0357 155.782 32.175V44.525C155.782 44.6643 155.737 44.7783 155.649 44.867C155.56 44.9557 155.452 45 155.326 45H153.825C153.571 45 153.381 44.8923 153.255 44.677L147.84 36.431V44.544C147.84 44.6707 147.795 44.7783 147.707 44.867C147.631 44.9557 147.523 45 147.384 45H145.75ZM161.183 45C161.056 45 160.949 44.9557 160.86 44.867C160.771 44.7783 160.727 44.6707 160.727 44.544V32.175C160.727 32.0357 160.765 31.9217 160.841 31.833C160.93 31.7443 161.044 31.7 161.183 31.7H169.448C169.587 31.7 169.701 31.7443 169.79 31.833C169.879 31.9217 169.923 32.0357 169.923 32.175V33.543C169.923 33.6697 169.879 33.7773 169.79 33.866C169.701 33.9547 169.587 33.999 169.448 33.999H163.368V37.571H169.068C169.207 37.571 169.321 37.6153 169.41 37.704C169.499 37.7927 169.543 37.9003 169.543 38.027V39.395C169.543 39.5217 169.499 39.6293 169.41 39.718C169.321 39.8067 169.207 39.851 169.068 39.851H163.368V44.544C163.368 44.6707 163.324 44.7783 163.235 44.867C163.146 44.9557 163.032 45 162.893 45H161.183ZM174.613 45C174.486 45 174.378 44.9557 174.29 44.867C174.201 44.7783 174.157 44.6707 174.157 44.544V32.156C174.157 32.0167 174.201 31.909 174.29 31.833C174.378 31.7443 174.486 31.7 174.613 31.7H176.437C176.576 31.7 176.684 31.7443 176.76 31.833C176.848 31.909 176.893 32.0167 176.893 32.156V44.544C176.893 44.6707 176.848 44.7783 176.76 44.867C176.684 44.9557 176.576 45 176.437 45H174.613ZM182.309 45C182.182 45 182.075 44.9557 181.986 44.867C181.897 44.7783 181.853 44.6707 181.853 44.544V32.175C181.853 32.0357 181.891 31.9217 181.967 31.833C182.056 31.7443 182.17 31.7 182.309 31.7H183.791C184.032 31.7 184.215 31.8077 184.342 32.023L189.776 40.459V32.175C189.776 32.0357 189.814 31.9217 189.89 31.833C189.979 31.7443 190.093 31.7 190.232 31.7H191.866C192.005 31.7 192.119 31.7443 192.208 31.833C192.297 31.9217 192.341 32.0357 192.341 32.175V44.525C192.341 44.6643 192.297 44.7783 192.208 44.867C192.119 44.9557 192.012 45 191.885 45H190.384C190.131 45 189.941 44.8923 189.814 44.677L184.399 36.431V44.544C184.399 44.6707 184.355 44.7783 184.266 44.867C184.19 44.9557 184.082 45 183.943 45H182.309ZM197.743 45C197.616 45 197.508 44.9557 197.42 44.867C197.331 44.7783 197.287 44.6707 197.287 44.544V32.156C197.287 32.0167 197.331 31.909 197.42 31.833C197.508 31.7443 197.616 31.7 197.743 31.7H199.567C199.706 31.7 199.814 31.7443 199.89 31.833C199.978 31.909 200.023 32.0167 200.023 32.156V44.544C200.023 44.6707 199.978 44.7783 199.89 44.867C199.814 44.9557 199.706 45 199.567 45H197.743ZM208.365 45C208.238 45 208.131 44.9557 208.042 44.867C207.953 44.7783 207.909 44.6707 207.909 44.544V34.075H204.394C204.267 34.075 204.16 34.0307 204.071 33.942C203.982 33.8533 203.938 33.7393 203.938 33.6V32.175C203.938 32.0357 203.976 31.9217 204.052 31.833C204.141 31.7443 204.255 31.7 204.394 31.7H214.103C214.242 31.7 214.356 31.7443 214.445 31.833C214.534 31.9217 214.578 32.0357 214.578 32.175V33.6C214.578 33.7393 214.534 33.8533 214.445 33.942C214.356 34.0307 214.242 34.075 214.103 34.075H210.607V44.544C210.607 44.6707 210.563 44.7783 210.474 44.867C210.398 44.9557 210.29 45 210.151 45H208.365ZM222.457 45C222.331 45 222.223 44.9557 222.134 44.867C222.046 44.7783 222.001 44.6707 222.001 44.544V40.269L217.498 32.308C217.46 32.194 217.441 32.1243 217.441 32.099C217.441 31.985 217.479 31.89 217.555 31.814C217.644 31.738 217.739 31.7 217.84 31.7H219.55C219.791 31.7 219.987 31.8203 220.139 32.061L223.331 37.571L226.542 32.061C226.593 31.9723 226.663 31.89 226.751 31.814C226.853 31.738 226.973 31.7 227.112 31.7H228.822C228.936 31.7 229.031 31.738 229.107 31.814C229.183 31.89 229.221 31.985 229.221 32.099C229.221 32.175 229.202 32.2447 229.164 32.308L224.68 40.269V44.544C224.68 44.6833 224.636 44.7973 224.547 44.886C224.459 44.962 224.345 45 224.205 45H222.457Z" fill="#323B4B"/>
<path opacity="0.8" d="M121.856 67C121.566 67 121.386 66.85 121.316 66.55L119.546 56.935L119.531 56.815C119.531 56.725 119.561 56.65 119.621 56.59C119.681 56.53 119.756 56.5 119.846 56.5H121.196C121.326 56.5 121.421 56.525 121.481 56.575C121.541 56.615 121.581 56.69 121.601 56.8L122.846 63.55L124.181 59.2C124.281 58.95 124.446 58.825 124.676 58.825H125.501C125.631 58.825 125.736 58.865 125.816 58.945C125.896 59.015 125.951 59.1 125.981 59.2L127.331 63.55L128.561 56.8C128.591 56.6 128.731 56.5 128.981 56.5H130.331C130.411 56.5 130.481 56.53 130.541 56.59C130.601 56.65 130.631 56.725 130.631 56.815C130.631 56.865 130.626 56.905 130.616 56.935L128.846 66.55C128.826 66.69 128.766 66.8 128.666 66.88C128.576 66.96 128.456 67 128.306 67H127.286C127.146 67 127.031 66.965 126.941 66.895C126.851 66.815 126.791 66.725 126.761 66.625L125.081 61.645L123.401 66.625C123.321 66.875 123.146 67 122.876 67H121.856ZM135.738 67C135.638 67 135.553 66.965 135.483 66.895C135.413 66.825 135.378 66.74 135.378 66.64V56.875C135.378 56.765 135.408 56.675 135.468 56.605C135.538 56.535 135.628 56.5 135.738 56.5H142.353C142.463 56.5 142.553 56.535 142.623 56.605C142.693 56.675 142.728 56.765 142.728 56.875V57.88C142.728 57.99 142.693 58.08 142.623 58.15C142.553 58.21 142.463 58.24 142.353 58.24H137.433V60.865H142.023C142.133 60.865 142.223 60.9 142.293 60.97C142.363 61.04 142.398 61.13 142.398 61.24V62.185C142.398 62.295 142.363 62.385 142.293 62.455C142.223 62.515 142.133 62.545 142.023 62.545H137.433V65.26H142.473C142.583 65.26 142.673 65.295 142.743 65.365C142.813 65.425 142.848 65.51 142.848 65.62V66.64C142.848 66.75 142.813 66.84 142.743 66.91C142.673 66.97 142.583 67 142.473 67H135.738ZM147.078 67C146.988 67 146.913 66.97 146.853 66.91C146.793 66.85 146.763 66.775 146.763 66.685L146.793 66.55L150.393 56.875C150.493 56.625 150.673 56.5 150.933 56.5H152.583C152.843 56.5 153.023 56.625 153.123 56.875L156.723 66.55L156.753 66.685C156.753 66.775 156.718 66.85 156.648 66.91C156.588 66.97 156.518 67 156.438 67H155.103C154.893 67 154.748 66.905 154.668 66.715L153.978 64.9H149.538L148.848 66.715C148.768 66.905 148.623 67 148.413 67H147.078ZM150.063 63.16H153.453L151.758 58.54L150.063 63.16ZM161.498 67C161.398 67 161.313 66.965 161.243 66.895C161.173 66.825 161.138 66.74 161.138 66.64V56.86C161.138 56.75 161.173 56.665 161.243 56.605C161.313 56.535 161.398 56.5 161.498 56.5H162.908C163.018 56.5 163.103 56.535 163.163 56.605C163.233 56.665 163.268 56.75 163.268 56.86V65.2H168.023C168.133 65.2 168.223 65.235 168.293 65.305C168.363 65.375 168.398 65.46 168.398 65.56V66.64C168.398 66.74 168.363 66.825 168.293 66.895C168.223 66.965 168.133 67 168.023 67H161.498ZM173.825 67C173.725 67 173.64 66.965 173.57 66.895C173.5 66.825 173.465 66.74 173.465 66.64V58.375H170.69C170.59 58.375 170.505 58.34 170.435 58.27C170.365 58.2 170.33 58.11 170.33 58V56.875C170.33 56.765 170.36 56.675 170.42 56.605C170.49 56.535 170.58 56.5 170.69 56.5H178.355C178.465 56.5 178.555 56.535 178.625 56.605C178.695 56.675 178.73 56.765 178.73 56.875V58C178.73 58.11 178.695 58.2 178.625 58.27C178.555 58.34 178.465 58.375 178.355 58.375H175.595V66.64C175.595 66.74 175.56 66.825 175.49 66.895C175.43 66.965 175.345 67 175.235 67H173.825ZM183.612 67C183.512 67 183.427 66.965 183.357 66.895C183.287 66.825 183.252 66.74 183.252 66.64V56.875C183.252 56.765 183.282 56.675 183.342 56.605C183.412 56.535 183.502 56.5 183.612 56.5H184.992C185.102 56.5 185.192 56.535 185.262 56.605C185.332 56.675 185.367 56.765 185.367 56.875V60.73H189.747V56.875C189.747 56.765 189.782 56.675 189.852 56.605C189.922 56.535 190.007 56.5 190.107 56.5H191.502C191.612 56.5 191.697 56.535 191.757 56.605C191.827 56.675 191.862 56.765 191.862 56.875V66.64C191.862 66.74 191.827 66.825 191.757 66.895C191.697 66.965 191.612 67 191.502 67H190.107C190.007 67 189.922 66.965 189.852 66.895C189.782 66.825 189.747 66.74 189.747 66.64V62.635H185.367V66.64C185.367 66.74 185.332 66.825 185.262 66.895C185.192 66.965 185.102 67 184.992 67H183.612Z" fill="#323B4B"/>
<defs>
<filter id="filter0_f_1439_2991" x="-25.9235" y="-4.20994" width="150.417" height="107.939" filterUnits="userSpaceOnUse" color-interpolation-filters="sRGB">
<feFlood flood-opacity="0" result="BackgroundImageFix"/>
<feBlend mode="normal" in="SourceGraphic" in2="BackgroundImageFix" result="shape"/>
<feGaussianBlur stdDeviation="13.3333" result="effect1_foregroundBlur_1439_2991"/>
</filter>
<filter id="filter1_f_1439_2991" x="25.8676" y="-50.7289" width="108.871" height="136.178" filterUnits="userSpaceOnUse" color-interpolation-filters="sRGB">
<feFlood flood-opacity="0" result="BackgroundImageFix"/>
<feBlend mode="normal" in="SourceGraphic" in2="BackgroundImageFix" result="shape"/>
<feGaussianBlur stdDeviation="11.1111" result="effect1_foregroundBlur_1439_2991"/>
</filter>
<filter id="filter2_f_1439_2991" x="-60.6745" y="10.7477" width="116.701" height="86.9859" filterUnits="userSpaceOnUse" color-interpolation-filters="sRGB">
<feFlood flood-opacity="0" result="BackgroundImageFix"/>
<feBlend mode="normal" in="SourceGraphic" in2="BackgroundImageFix" result="shape"/>
<feGaussianBlur stdDeviation="13.3333" result="effect1_foregroundBlur_1439_2991"/>
</filter>
<filter id="filter3_f_1439_2991" x="-46.5053" y="25.2823" width="88.244" height="63.5369" filterUnits="userSpaceOnUse" color-interpolation-filters="sRGB">
<feFlood flood-opacity="0" result="BackgroundImageFix"/>
<feBlend mode="normal" in="SourceGraphic" in2="BackgroundImageFix" result="shape"/>
<feGaussianBlur stdDeviation="8.88889" result="effect1_foregroundBlur_1439_2991"/>
</filter>
<linearGradient id="paint0_linear_1439_2991" x1="92.3229" y1="3.12251" x2="76.1373" y2="50.0351" gradientUnits="userSpaceOnUse">
<stop stop-color="#FF0095"/>
<stop offset="1" stop-color="#FFCDFF"/>
</linearGradient>
<clipPath id="clip0_1439_2991">
<rect width="102.4" height="64" fill="white" transform="translate(-12.2002 18)"/>
</clipPath>
</defs>
</svg>
