<svg width="46" height="39" viewBox="0 0 46 39" fill="none" xmlns="http://www.w3.org/2000/svg">
<g clip-path="url(#clip0_2065_27881)">
<path d="M39.353 9.12415C39.5135 9.12415 39.6675 9.06007 39.781 8.94602C39.8945 8.83196 39.9583 8.67727 39.9583 8.51597V6.49076C39.9576 5.96254 39.7485 5.45615 39.3768 5.08265C39.0051 4.70914 38.5011 4.49902 37.9754 4.49838H34.7227L33.9807 2.29801C33.9302 2.14837 33.8238 2.02433 33.684 1.95213C33.5441 1.87994 33.3818 1.86526 33.2314 1.91121L15.6146 7.29233C15.4688 7.34578 15.3489 7.45337 15.2797 7.59296C15.2104 7.73254 15.1971 7.89348 15.2424 8.04265C15.2877 8.19182 15.3882 8.31786 15.5232 8.39482C15.6582 8.47179 15.8174 8.49382 15.9681 8.45637L33.0232 3.24554L34.6489 8.06836C34.7004 8.22111 34.8102 8.34703 34.9542 8.41843C35.0981 8.48983 35.2643 8.50085 35.4164 8.44907C35.5684 8.3973 35.6937 8.28696 35.7648 8.14234C35.8358 7.99772 35.8468 7.83066 35.7953 7.67791L35.1331 5.71351H37.9766C38.4027 5.71351 38.7489 6.06139 38.7489 6.48954V8.51597C38.7477 8.85168 39.0189 9.12415 39.353 9.12415Z" fill="#666DFF"/>
<path d="M44.1842 18.2467C44.0237 18.2467 43.8697 18.3108 43.7562 18.4249C43.6427 18.5389 43.5789 18.6936 43.5789 18.8549C43.5789 19.0162 43.6427 19.1709 43.7562 19.285C43.8697 19.399 44.0237 19.4631 44.1842 19.4631C44.6091 19.4631 44.7895 19.6443 44.7895 20.0713V27.3693C44.7895 27.7963 44.6091 27.9775 44.1842 27.9775H34.5C34.0751 27.9775 33.8947 27.7963 33.8947 27.3693V21.2876C33.8947 20.8607 34.0751 20.6794 34.5 20.6794H41.7632C41.9237 20.6794 42.0776 20.6154 42.1911 20.5013C42.3047 20.3872 42.3684 20.2326 42.3684 20.0713V12.7732C42.3684 11.6651 41.6554 10.9487 40.5526 10.9487H3.63158C2.139 10.9487 1.21053 10.0157 1.21053 8.51597C1.21053 7.01622 2.139 6.08328 3.63158 6.08328H9.77621L6.11316 7.29719C6.03493 7.31986 5.96207 7.35815 5.89891 7.40977C5.83576 7.46139 5.78362 7.52529 5.74561 7.59763C5.7076 7.66997 5.68451 7.74927 5.67772 7.83079C5.67092 7.9123 5.68056 7.99436 5.70606 8.07205C5.73156 8.14973 5.7724 8.22145 5.82612 8.28291C5.87985 8.34437 5.94536 8.39431 6.01874 8.42973C6.09213 8.46516 6.17186 8.48535 6.25319 8.48909C6.33452 8.49283 6.41576 8.48005 6.49205 8.4515L28.4256 1.18627C28.5011 1.16119 28.5709 1.12142 28.6312 1.06921C28.6914 1.01701 28.7408 0.953397 28.7765 0.882014C28.8122 0.810631 28.8336 0.732872 28.8395 0.653177C28.8453 0.573483 28.8355 0.493413 28.8105 0.41754C28.7856 0.341667 28.746 0.271476 28.694 0.210975C28.6421 0.150475 28.5788 0.100849 28.5077 0.0649315C28.4367 0.029014 28.3593 0.00750819 28.28 0.00164192C28.2007 -0.00422435 28.121 0.00566383 28.0455 0.0307419L13.3981 4.88396C13.3703 4.8791 13.3448 4.86693 13.3158 4.86693H3.63158C1.45989 4.86693 0 6.33385 0 8.51597V35.2756C0 37.4577 1.45989 38.9246 3.63158 38.9246H40.5526C41.6554 38.9246 42.3684 38.2082 42.3684 37.1001V31.0184C42.3684 30.8571 42.3047 30.7024 42.1911 30.5883C42.0776 30.4743 41.9237 30.4102 41.7632 30.4102C41.6026 30.4102 41.4487 30.4743 41.3352 30.5883C41.2217 30.7024 41.1579 30.8571 41.1579 31.0184V37.1001C41.1579 37.527 40.9775 37.7083 40.5526 37.7083H3.63158C2.139 37.7083 1.21053 36.7753 1.21053 35.2756V11.3282C1.83153 11.8548 2.65347 12.165 3.63158 12.165H40.5526C40.9775 12.165 41.1579 12.3462 41.1579 12.7732V19.4631H34.5C33.3972 19.4631 32.6842 20.1795 32.6842 21.2876V27.3693C32.6842 28.4774 33.3972 29.1939 34.5 29.1939H44.1842C45.287 29.1939 46 28.4774 46 27.3693V20.0713C46 18.9632 45.287 18.2467 44.1842 18.2467Z" fill="#666DFF"/>
<path d="M38.7368 25.5448C39.4054 25.5448 39.9474 25.0002 39.9474 24.3285C39.9474 23.6567 39.4054 23.1121 38.7368 23.1121C38.0683 23.1121 37.5263 23.6567 37.5263 24.3285C37.5263 25.0002 38.0683 25.5448 38.7368 25.5448Z" fill="#666DFF"/>
<path fill-rule="evenodd" clip-rule="evenodd" d="M27.8882 -0.443883C28.0262 -0.489661 28.1719 -0.507721 28.3169 -0.496996C28.462 -0.486262 28.6035 -0.446916 28.7333 -0.381281C28.8631 -0.315649 28.9787 -0.22505 29.0734 -0.114771C29.1681 -0.00448675 29.2401 0.123321 29.2855 0.261303C29.3309 0.399282 29.3488 0.544844 29.3381 0.689708C29.3275 0.834557 29.2886 0.975973 29.2236 1.10589C29.1585 1.23582 29.0685 1.35175 28.9587 1.44699C28.8488 1.54224 28.7213 1.61493 28.5832 1.66079L6.65696 8.9236C6.52042 8.97314 6.37541 8.99524 6.23022 8.98856C6.08137 8.98171 5.9355 8.94477 5.80136 8.88001C5.66723 8.81525 5.54765 8.72405 5.44968 8.61199C5.35173 8.49993 5.27739 8.36931 5.231 8.22798C5.18461 8.08666 5.16709 7.93745 5.17945 7.78925C5.1918 7.64105 5.23379 7.49678 5.30298 7.36508C5.37218 7.23337 5.4672 7.11687 5.58247 7.02265C5.69494 6.93072 5.82441 6.86185 5.96353 6.82004L6.67796 6.58328H3.63158C2.99083 6.58328 2.52284 6.78135 2.21574 7.08992C1.90837 7.39877 1.71053 7.87025 1.71053 8.51597C1.71053 9.16169 1.90837 9.63317 2.21574 9.94202C2.52283 10.2506 2.99083 10.4487 3.63158 10.4487H40.5526C41.2145 10.4487 41.8037 10.6659 42.2285 11.0927C42.653 11.5192 42.8684 12.1101 42.8684 12.7732V20.0713C42.8684 20.3644 42.7526 20.646 42.5455 20.854C42.3385 21.0621 42.0571 21.1794 41.7632 21.1794H34.5C34.4548 21.1794 34.4229 21.1825 34.4016 21.186C34.398 21.2078 34.3947 21.2407 34.3947 21.2876V27.3693C34.3947 27.4163 34.398 27.4491 34.4016 27.4709C34.4229 27.4744 34.4548 27.4775 34.5 27.4775H44.1842C44.2295 27.4775 44.2613 27.4744 44.2826 27.4709C44.2862 27.4491 44.2895 27.4163 44.2895 27.3693V20.0713C44.2895 20.0243 44.2862 19.9915 44.2826 19.9696C44.2613 19.9662 44.2295 19.9631 44.1842 19.9631C43.8903 19.9631 43.6089 19.8458 43.4018 19.6377C43.1948 19.4297 43.0789 19.148 43.0789 18.8549C43.0789 18.5618 43.1948 18.2802 43.4018 18.0722C43.6089 17.8641 43.8903 17.7467 44.1842 17.7467C44.8461 17.7467 45.4353 17.964 45.8601 18.3908C46.2846 18.8173 46.5 19.4082 46.5 20.0713V27.3693C46.5 28.0324 46.2846 28.6233 45.8601 29.0498C45.4353 29.4766 44.8461 29.6939 44.1842 29.6939H34.5C33.8381 29.6939 33.2489 29.4766 32.8242 29.0498C32.3997 28.6233 32.1842 28.0324 32.1842 27.3693V21.2876C32.1842 20.6245 32.3997 20.0336 32.8242 19.6071C33.2489 19.1803 33.8381 18.9631 34.5 18.9631H40.6579V12.7732C40.6579 12.7263 40.6546 12.6934 40.651 12.6716C40.6297 12.6681 40.5979 12.665 40.5526 12.665H3.63158C2.92084 12.665 2.27382 12.517 1.71053 12.2447V35.2756C1.71053 35.9213 1.90837 36.3928 2.21574 36.7016C2.52284 37.0102 2.99083 37.2083 3.63158 37.2083H40.5526C40.5979 37.2083 40.6297 37.2052 40.651 37.2017C40.6546 37.1799 40.6579 37.147 40.6579 37.1001V31.0184C40.6579 30.7252 40.7738 30.4436 40.9808 30.2356C41.1879 30.0275 41.4692 29.9102 41.7632 29.9102C42.0571 29.9102 42.3385 30.0275 42.5455 30.2356C42.7526 30.4436 42.8684 30.7252 42.8684 31.0184V37.1001C42.8684 37.7632 42.653 38.3541 42.2285 38.7806C41.8037 39.2074 41.2145 39.4246 40.5526 39.4246H3.63158C2.43034 39.4246 1.38902 39.0167 0.647008 38.2711C-0.094799 37.5257 -0.5 36.4806 -0.5 35.2756V8.51597C-0.5 7.31096 -0.094799 6.26582 0.647008 5.52045C1.38902 4.77487 2.43034 4.36693 3.63158 4.36693H13.3158C13.3323 4.36693 13.3482 4.36764 13.3632 4.36881L27.8882 -0.443883C27.8883 -0.44392 27.8881 -0.443846 27.8882 -0.443883ZM28.2431 0.50028C28.2296 0.499281 28.216 0.500959 28.2031 0.505257L13.436 5.39815L13.312 5.3765C13.2976 5.37397 13.2847 5.37123 13.274 5.36872C13.2714 5.36812 13.2689 5.36752 13.2665 5.36693H3.63158C2.66114 5.36693 1.88667 5.69245 1.35581 6.22586C0.824746 6.75948 0.5 7.53886 0.5 8.51597V35.2756C0.5 36.2527 0.824746 37.0321 1.35581 37.5657C1.88666 38.0991 2.66114 38.4246 3.63158 38.4246H40.5526C40.9936 38.4246 41.3122 38.2836 41.5197 38.0752C41.7274 37.8665 41.8684 37.5451 41.8684 37.1001V31.0184C41.8684 30.9889 41.8568 30.9611 41.8367 30.941C41.8168 30.921 41.7903 30.9102 41.7632 30.9102C41.736 30.9102 41.7095 30.921 41.6896 30.941C41.6696 30.9611 41.6579 30.9889 41.6579 31.0184V37.1001C41.6579 37.3696 41.6031 37.6818 41.369 37.917C41.1344 38.1528 40.8222 38.2083 40.5526 38.2083H3.63158C2.77975 38.2083 2.03722 37.9399 1.50694 37.407C0.976922 36.8745 0.710526 36.1296 0.710526 35.2756V10.2485L1.53393 10.9468C2.05833 11.3916 2.76346 11.665 3.63158 11.665H40.5526C40.8222 11.665 41.1344 11.7205 41.369 11.9563C41.6031 12.1915 41.6579 12.5036 41.6579 12.7732V19.9631H34.5C34.0591 19.9631 33.7404 20.1041 33.533 20.3125C33.3253 20.5212 33.1842 20.8426 33.1842 21.2876V27.3693C33.1842 27.8143 33.3253 28.1357 33.533 28.3444C33.7404 28.5529 34.0591 28.6939 34.5 28.6939H44.1842C44.6251 28.6939 44.9438 28.5529 45.1512 28.3444C45.3589 28.1357 45.5 27.8143 45.5 27.3693V20.0713C45.5 19.6263 45.3589 19.3049 45.1512 19.0962C44.9438 18.8877 44.6251 18.7467 44.1842 18.7467C44.1571 18.7467 44.1306 18.7576 44.1106 18.7776C44.0906 18.7977 44.0789 18.8255 44.0789 18.8549C44.0789 18.8844 44.0906 18.9121 44.1106 18.9323C44.1306 18.9523 44.1571 18.9631 44.1842 18.9631C44.4538 18.9631 44.7659 19.0186 45.0006 19.2544C45.2347 19.4896 45.2895 19.8017 45.2895 20.0713V27.3693C45.2895 27.6389 45.2347 27.951 45.0006 28.1862C44.7659 28.422 44.4538 28.4775 44.1842 28.4775H34.5C34.2304 28.4775 33.9183 28.422 33.6836 28.1862C33.4495 27.951 33.3947 27.6389 33.3947 27.3693V21.2876C33.3947 21.0181 33.4495 20.7059 33.6836 20.4707C33.9183 20.2349 34.2304 20.1794 34.5 20.1794H41.7632C41.7903 20.1794 41.8168 20.1686 41.8367 20.1486C41.8568 20.1285 41.8684 20.1007 41.8684 20.0713V12.7732C41.8684 12.3282 41.7274 12.0068 41.5197 11.7981C41.3122 11.5896 40.9936 11.4487 40.5526 11.4487H3.63158C2.77975 11.4487 2.03722 11.1803 1.50694 10.6474C0.976922 10.1149 0.710526 9.37 0.710526 8.51597C0.710526 7.66194 0.976922 6.91707 1.50694 6.38451C2.03722 5.85168 2.77975 5.58328 3.63158 5.58328H9.77621L9.9335 6.5579L6.26143 7.7748L6.25232 7.77744C6.23896 7.78131 6.22638 7.78788 6.21535 7.7969C6.20432 7.80592 6.19506 7.8172 6.18824 7.83018C6.18142 7.84316 6.17723 7.85749 6.17599 7.87232C6.17475 7.88716 6.17651 7.90206 6.18112 7.91611C6.18574 7.93016 6.19307 7.94297 6.20257 7.95383C6.21206 7.96469 6.2235 7.97336 6.23613 7.97946C6.24875 7.98555 6.26236 7.98898 6.27616 7.98962C6.28997 7.99025 6.3038 7.98809 6.31686 7.9832L6.32579 7.97986L28.268 0.711756C28.2681 0.711732 28.2679 0.71178 28.268 0.711756C28.2808 0.707454 28.2931 0.700544 28.3036 0.691433C28.3142 0.682265 28.323 0.670974 28.3294 0.658136C28.3359 0.645288 28.3398 0.631187 28.3408 0.616647C28.3419 0.602122 28.3401 0.587544 28.3356 0.573777C28.331 0.560013 28.3239 0.547439 28.3147 0.536722C28.3055 0.526 28.2944 0.517347 28.2821 0.511144C28.2699 0.504944 28.2566 0.501279 28.2431 0.50028ZM33.0853 1.43302C33.3606 1.34894 33.6576 1.37584 33.9133 1.50784C34.1689 1.63977 34.3627 1.86608 34.4545 2.13823C34.4545 2.13826 34.4545 2.13821 34.4545 2.13823L35.0818 3.99838H37.9754C38.6343 3.99919 39.266 4.26256 39.7312 4.72994C40.1963 5.19725 40.4575 5.83031 40.4583 6.49015V8.51597C40.4583 8.80911 40.3424 9.09072 40.1354 9.29872C39.9283 9.50681 39.6469 9.62415 39.353 9.62415C38.7412 9.62415 38.2474 9.12619 38.2489 8.51542L38.7489 8.51597L38.2489 8.51417M35.8293 6.21351L35.6069 5.5538L35.1331 5.71351V6.21351H35.8293ZM33.0853 1.43302L33.2301 1.90705ZM33.4546 2.39643C33.4306 2.38404 33.403 2.38159 33.3774 2.3894L15.7792 7.76485C15.7573 7.77485 15.7389 7.79238 15.7276 7.81515C15.715 7.84053 15.7125 7.87003 15.7208 7.89737C15.7291 7.92465 15.7473 7.94704 15.7708 7.96046C15.792 7.97253 15.8163 7.97673 15.8399 7.97272L33.3418 2.62539L35.1227 7.90854C35.1227 7.90857 35.1226 7.9085 35.1227 7.90854M15.4685 6.81414L33.0853 1.43302L33.2301 1.90705M33.4546 2.39643C33.4787 2.40886 33.4977 2.43062 33.5069 2.45771ZM33.5069 2.45771L34.2489 4.65816ZM32.7046 3.8657L16.1015 8.93842L16.0886 8.94161C15.8131 9.01008 15.522 8.96974 15.2755 8.82919C15.0291 8.68869 14.8462 8.45898 14.7639 8.18793C14.6816 7.91693 14.7058 7.62454 14.8317 7.37076C14.9577 7.11691 15.176 6.92056 15.4425 6.82288L15.4554 6.81815L15.4685 6.81414M32.7046 3.8657L34.1751 8.22807C34.2688 8.50592 34.4689 8.73583 34.732 8.86635C34.9951 8.9969 35.2994 9.01711 35.5776 8.92237C35.8557 8.82766 36.0842 8.62609 36.2135 8.36283C36.3428 8.09968 36.3627 7.79595 36.2691 7.5182C36.2691 7.51824 36.2691 7.51816 36.2691 7.5182M37.9748 4.99838L34.3637 4.99838L34.2489 4.65816M37.9748 4.99838C37.9747 4.99838 37.9749 4.99838 37.9748 4.99838ZM37.9748 4.99838C38.3672 4.99896 38.7442 5.15581 39.0224 5.43535C39.3008 5.71505 39.4578 6.09478 39.4583 6.49136M38.7368 23.6121C38.3467 23.6121 38.0263 23.9306 38.0263 24.3285C38.0263 24.7264 38.3467 25.0448 38.7368 25.0448C39.127 25.0448 39.4474 24.7264 39.4474 24.3285C39.4474 23.9306 39.127 23.6121 38.7368 23.6121ZM37.0263 24.3285C37.0263 23.3828 37.7899 22.6121 38.7368 22.6121C39.6838 22.6121 40.4474 23.3828 40.4474 24.3285C40.4474 25.2741 39.6838 26.0448 38.7368 26.0448C37.7899 26.0448 37.0263 25.2741 37.0263 24.3285Z" fill="#666DFF"/>
</g>
<defs>
<clipPath id="clip0_2065_27881">
<rect width="46" height="38.9231" fill="white"/>
</clipPath>
</defs>
</svg>
