<svg width="226" height="64" viewBox="0 0 226 64" fill="none" xmlns="http://www.w3.org/2000/svg">
<mask id="mask0_1430_4648" style="mask-type:alpha" maskUnits="userSpaceOnUse" x="0" y="0" width="58" height="64">
<path d="M58 42.8242V21.1758C58 17.5678 56.1235 14.1315 52.8824 12.2416L34.1176 1.41745C30.8765 -0.472483 27.1235 -0.472483 23.8824 1.41745L5.11765 12.2416C1.87647 14.1315 0 17.5678 0 21.1758V42.8242C0 46.4322 1.87647 49.8685 5.11765 51.7584L23.8824 62.5825C27.1235 64.4725 30.8765 64.4725 34.1176 62.5825L52.8824 51.7584C55.9529 49.8685 58 46.604 58 42.8242V42.8242Z" fill="#FFDFDF"/>
</mask>
<g mask="url(#mask0_1430_4648)">
<g clip-path="url(#clip0_1430_4648)">
<rect width="102.4" height="64" transform="translate(-22.2002)" fill="black"/>
<g filter="url(#filter0_f_1430_4648)">
<ellipse cx="39.2854" cy="31.7596" rx="48.7569" ry="26.9089" transform="rotate(-6.48121 39.2854 31.7596)" fill="#8349FF"/>
</g>
<g filter="url(#filter1_f_1430_4648)">
<path d="M73.5731 14.9873C78.0079 8.70396 78.2613 3.90813 80.4743 -3.45739C84.7461 -17.6753 81.5999 -27.0124 86.6772 -40.963C97.0371 -69.4282 114.952 20.1749 89.4706 36.554C73.4521 46.8505 26.5798 49.3189 40.7101 36.554C46.3533 31.4562 51.7544 31.9944 58.1275 27.8452C64.7048 23.563 69.0474 21.3994 73.5731 14.9873Z" fill="url(#paint0_linear_1430_4648)"/>
</g>
<g filter="url(#filter2_f_1430_4648)">
<path d="M-15.5805 19.5112C-27.2498 20.2789 -34.8659 24.5864 -42.2739 34.6082C-57.281 54.9105 30.3998 61.3599 18.1887 39.0555C10.4894 24.9922 -0.675143 18.5305 -15.5805 19.5112Z" fill="#0013FF"/>
</g>
<g filter="url(#filter3_f_1430_4648)">
<path d="M-15.0906 25.1406C-24.7933 25.779 -31.1259 29.3605 -37.2855 37.6934C-49.7636 54.5744 23.141 59.9369 12.9877 41.3913C6.58595 29.698 -2.69713 24.3253 -15.0906 25.1406Z" fill="#00FFFF"/>
</g>
</g>
<path d="M42.8026 32.5012C42.8026 35.0621 40.8877 37.0428 38.6289 37.0428C38.1468 37.0428 37.355 36.8394 36.2464 36.1906C35.171 35.561 34.0548 34.6635 33.001 33.669C31.5606 32.3096 30.3055 30.7443 29 29.2428C26.5324 26.6739 22.8162 23.5 19.3711 23.5C14.745 23.5 11 27.5289 11 32.4988C11 35.4635 12.3327 38.1351 14.3901 39.7833C14.5515 39.6983 14.9552 39.4085 15.278 38.9285C15.6816 38.3285 15.0358 37.3 15.278 36.6143C15.4718 36.0657 16.0582 35.7434 16.3274 35.6508C15.6399 34.8509 15.1974 33.7559 15.1974 32.4988C15.1974 29.9379 17.1123 27.9572 19.3711 27.9572C19.8532 27.9572 20.645 28.1606 21.7536 28.8094C22.829 29.439 23.9452 30.3365 24.999 31.331C26.4517 32.702 27.6144 34.3544 29 35.797C31.4676 38.366 35.1838 41.5 38.6289 41.5C43.255 41.5 47 37.4711 47 32.5012C47 29.5365 45.6673 26.8649 43.6099 25.2167C43.4485 25.3017 43.0448 25.5915 42.722 26.0715C42.3184 26.6715 42.9642 27.7 42.722 28.3857C42.5282 28.9343 41.9418 29.2566 41.6726 29.3492C42.3601 30.1491 42.8026 31.2441 42.8026 32.5012Z" fill="white"/>
<path d="M42.5797 24.7899C42.7209 25.1237 42.5806 25.516 42.2663 25.666C41.9521 25.816 41.5827 25.6669 41.4415 25.333C41.3001 24.9992 41.4404 24.6069 41.7547 24.4569C42.0691 24.307 42.4383 24.4561 42.5797 24.7899Z" fill="white"/>
<path d="M42.5797 24.7899C42.7209 25.1237 42.5806 25.516 42.2663 25.666C41.9521 25.816 41.5827 25.6669 41.4415 25.333C41.3001 24.9992 41.4404 24.6069 41.7547 24.4569C42.0691 24.307 42.4383 24.4561 42.5797 24.7899Z" fill="white"/>
<path d="M42.2575 27.7047C42.3988 28.0385 42.2585 28.4308 41.9442 28.5807C41.6299 28.7307 41.2606 28.5816 41.1193 28.2478C40.9781 27.9138 41.1183 27.5217 41.4327 27.3717C41.7469 27.2217 42.1163 27.3707 42.2575 27.7047Z" fill="white"/>
<path d="M42.2575 27.7047C42.3988 28.0385 42.2585 28.4308 41.9442 28.5807C41.6299 28.7307 41.2606 28.5816 41.1193 28.2478C40.9781 27.9138 41.1183 27.5217 41.4327 27.3717C41.7469 27.2217 42.1163 27.3707 42.2575 27.7047Z" fill="white"/>
<path d="M42.0964 26.1622C42.2377 26.4961 42.0974 26.8883 41.7831 27.0383C41.4688 27.1883 41.0995 27.0392 40.9582 26.7053C40.817 26.3715 40.9573 25.9792 41.2716 25.8292C41.5858 25.6793 41.9552 25.8284 42.0964 26.1622Z" fill="white"/>
<path d="M42.0964 26.1622C42.2377 26.4961 42.0974 26.8883 41.7831 27.0383C41.4688 27.1883 41.0995 27.0392 40.9582 26.7053C40.817 26.3715 40.9573 25.9792 41.2716 25.8292C41.5858 25.6793 41.9552 25.8284 42.0964 26.1622Z" fill="white"/>
<path d="M41.1276 24.2763C41.2688 24.6101 41.1286 25.0024 40.8143 25.1523C40.5 25.3023 40.1306 25.1533 39.9894 24.8194C39.848 24.4855 39.9883 24.0933 40.3026 23.9433C40.617 23.7933 40.9862 23.9425 41.1276 24.2763Z" fill="white"/>
<path d="M41.1276 24.2763C41.2688 24.6101 41.1286 25.0024 40.8143 25.1523C40.5 25.3023 40.1306 25.1533 39.9894 24.8194C39.848 24.4855 39.9883 24.0933 40.3026 23.9433C40.617 23.7933 40.9862 23.9425 41.1276 24.2763Z" fill="white"/>
<path d="M40.8053 27.1903C40.9466 27.5241 40.8063 27.9164 40.492 28.0664C40.1777 28.2164 39.8084 28.0672 39.6671 27.7334C39.5259 27.3996 39.666 27.0073 39.9804 26.8573C40.2947 26.7074 40.6641 26.8564 40.8053 27.1903Z" fill="white"/>
<path d="M40.8053 27.1903C40.9466 27.5241 40.8063 27.9164 40.492 28.0664C40.1777 28.2164 39.8084 28.0672 39.6671 27.7334C39.5259 27.3996 39.666 27.0073 39.9804 26.8573C40.2947 26.7074 40.6641 26.8564 40.8053 27.1903Z" fill="white"/>
<path d="M39.0291 26.8474C39.1704 27.1814 39.0301 27.5735 38.7158 27.7235C38.4015 27.8735 38.0322 27.7245 37.8909 27.3905C37.7497 27.0567 37.89 26.6644 38.2043 26.5145C38.5185 26.3645 38.8879 26.5136 39.0291 26.8474Z" fill="white"/>
<path d="M39.0291 26.8474C39.1704 27.1814 39.0301 27.5735 38.7158 27.7235C38.4015 27.8735 38.0322 27.7245 37.8909 27.3905C37.7497 27.0567 37.89 26.6644 38.2043 26.5145C38.5185 26.3645 38.8879 26.5136 39.0291 26.8474Z" fill="white"/>
<path d="M39.1902 25.3047C39.3315 25.6385 39.1912 26.0308 38.8769 26.1807C38.5626 26.3307 38.1933 26.1817 38.052 25.8478C37.9108 25.5139 38.051 25.1217 38.3654 24.9717C38.6796 24.8217 39.049 24.9709 39.1902 25.3047Z" fill="white"/>
<path d="M39.1902 25.3047C39.3315 25.6385 39.1912 26.0308 38.8769 26.1807C38.5626 26.3307 38.1933 26.1817 38.052 25.8478C37.9108 25.5139 38.051 25.1217 38.3654 24.9717C38.6796 24.8217 39.049 24.9709 39.1902 25.3047Z" fill="white"/>
<path d="M38.0622 24.1047C38.2035 24.4385 38.0632 24.8308 37.7489 24.9808C37.4346 25.1307 37.0653 24.9816 36.924 24.6478C36.7827 24.3139 36.923 23.9217 37.2374 23.7717C37.5516 23.6217 37.921 23.7708 38.0622 24.1047Z" fill="white"/>
<path d="M38.0622 24.1047C38.2035 24.4385 38.0632 24.8308 37.7489 24.9808C37.4346 25.1307 37.0653 24.9816 36.924 24.6478C36.7827 24.3139 36.923 23.9217 37.2374 23.7717C37.5516 23.6217 37.921 23.7708 38.0622 24.1047Z" fill="white"/>
<path d="M36.42 24.468C36.526 24.7185 36.4209 25.0126 36.1851 25.125C35.9494 25.2376 35.6723 25.1258 35.5665 24.8753C35.4605 24.625 35.5656 24.3308 35.8014 24.2183C36.0371 24.1058 36.3141 24.2176 36.42 24.468Z" fill="white"/>
<path d="M36.42 24.468C36.526 24.7185 36.4209 25.0126 36.1851 25.125C35.9494 25.2376 35.6723 25.1258 35.5665 24.8753C35.4605 24.625 35.5656 24.3308 35.8014 24.2183C36.0371 24.1058 36.3141 24.2176 36.42 24.468Z" fill="white"/>
<path d="M35.129 25.154C35.2349 25.4044 35.1297 25.6985 34.894 25.8111C34.6583 25.9235 34.3813 25.8117 34.2753 25.5614C34.1693 25.3109 34.2746 25.0168 34.5104 24.9043C34.7461 24.7918 35.023 24.9037 35.129 25.154Z" fill="white"/>
<path d="M35.129 25.154C35.2349 25.4044 35.1297 25.6985 34.894 25.8111C34.6583 25.9235 34.3813 25.8117 34.2753 25.5614C34.1693 25.3109 34.2746 25.0168 34.5104 24.9043C34.7461 24.7918 35.023 24.9037 35.129 25.154Z" fill="white"/>
<path d="M33.9996 26.0108C34.1056 26.2612 34.0003 26.5555 33.7646 26.6679C33.5288 26.7804 33.2519 26.6685 33.1459 26.4182C33.04 26.1678 33.1452 25.8736 33.3809 25.7611C33.6167 25.6486 33.8936 25.7605 33.9996 26.0108Z" fill="white"/>
<path d="M33.9996 26.0108C34.1056 26.2612 34.0003 26.5555 33.7646 26.6679C33.5288 26.7804 33.2519 26.6685 33.1459 26.4182C33.04 26.1678 33.1452 25.8736 33.3809 25.7611C33.6167 25.6486 33.8936 25.7605 33.9996 26.0108Z" fill="white"/>
<path d="M36.0967 28.2392C36.2027 28.4896 36.0975 28.7837 35.8617 28.8963C35.626 29.0087 35.349 28.8969 35.243 28.6466C35.1371 28.3961 35.2422 28.102 35.478 27.9894C35.7137 27.877 35.9908 27.9888 36.0967 28.2392Z" fill="white"/>
<path d="M36.0967 28.2392C36.2027 28.4896 36.0975 28.7837 35.8617 28.8963C35.626 29.0087 35.349 28.8969 35.243 28.6466C35.1371 28.3961 35.2422 28.102 35.478 27.9894C35.7137 27.877 35.9908 27.9888 36.0967 28.2392Z" fill="white"/>
<path d="M36.2591 26.3536C36.365 26.6041 36.2598 26.8982 36.024 27.0107C35.7883 27.1232 35.5114 27.0113 35.4054 26.7609C35.2994 26.5106 35.4046 26.2163 35.6404 26.1039C35.876 25.9915 36.1531 26.1032 36.2591 26.3536Z" fill="white"/>
<path d="M36.2591 26.3536C36.365 26.6041 36.2598 26.8982 36.024 27.0107C35.7883 27.1232 35.5114 27.0113 35.4054 26.7609C35.2994 26.5106 35.4046 26.2163 35.6404 26.1039C35.876 25.9915 36.1531 26.1032 36.2591 26.3536Z" fill="white"/>
<path d="M35.129 27.0397C35.2349 27.29 35.1297 27.5842 34.894 27.6967C34.6583 27.8091 34.3813 27.6974 34.2753 27.4469C34.1693 27.1965 34.2746 26.9024 34.5104 26.7898C34.7461 26.6774 35.023 26.7892 35.129 27.0397Z" fill="white"/>
<path d="M35.129 27.0397C35.2349 27.29 35.1297 27.5842 34.894 27.6967C34.6583 27.8091 34.3813 27.6974 34.2753 27.4469C34.1693 27.1965 34.2746 26.9024 34.5104 26.7898C34.7461 26.6774 35.023 26.7892 35.129 27.0397Z" fill="white"/>
<path d="M33.6513 28.7741C33.7218 28.941 33.6517 29.1372 33.4945 29.2121C33.3375 29.2871 33.1528 29.2126 33.0821 29.0457C33.0115 28.8787 33.0816 28.6827 33.2388 28.6077C33.3959 28.5327 33.5806 28.6072 33.6513 28.7741Z" fill="white"/>
<path d="M33.6513 28.7741C33.7218 28.941 33.6517 29.1372 33.4945 29.2121C33.3375 29.2871 33.1528 29.2126 33.0821 29.0457C33.0115 28.8787 33.0816 28.6827 33.2388 28.6077C33.3959 28.5327 33.5806 28.6072 33.6513 28.7741Z" fill="white"/>
<path d="M34.4572 29.4594C34.5279 29.6263 34.4577 29.8225 34.3006 29.8975C34.1434 29.9725 33.9587 29.8978 33.8881 29.7309C33.8175 29.564 33.8875 29.3679 34.0447 29.2929C34.2019 29.2179 34.3866 29.2924 34.4572 29.4594Z" fill="white"/>
<path d="M34.4572 29.4594C34.5279 29.6263 34.4577 29.8225 34.3006 29.8975C34.1434 29.9725 33.9587 29.8978 33.8881 29.7309C33.8175 29.564 33.8875 29.3679 34.0447 29.2929C34.2019 29.2179 34.3866 29.2924 34.4572 29.4594Z" fill="white"/>
<path d="M33.6513 27.2309C33.7218 27.398 33.6517 27.5941 33.4945 27.6691C33.3375 27.7441 33.1528 27.6694 33.0821 27.5025C33.0115 27.3356 33.0816 27.1395 33.2388 27.0645C33.3959 26.9895 33.5806 27.064 33.6513 27.2309Z" fill="white"/>
<path d="M33.6513 27.2309C33.7218 27.398 33.6517 27.5941 33.4945 27.6691C33.3375 27.7441 33.1528 27.6694 33.0821 27.5025C33.0115 27.3356 33.0816 27.1395 33.2388 27.0645C33.3959 26.9895 33.5806 27.064 33.6513 27.2309Z" fill="white"/>
<path d="M34.4572 28.0882C34.5278 28.2551 34.4576 28.4512 34.3006 28.5262C34.1434 28.6012 33.9587 28.5267 33.8881 28.3598C33.8174 28.1927 33.8876 27.9966 34.0447 27.9216C34.2019 27.8466 34.3866 27.9213 34.4572 28.0882Z" fill="white"/>
<path d="M34.4572 28.0882C34.5278 28.2551 34.4576 28.4512 34.3006 28.5262C34.1434 28.6012 33.9587 28.5267 33.8881 28.3598C33.8174 28.1927 33.8876 27.9966 34.0447 27.9216C34.2019 27.8466 34.3866 27.9213 34.4572 28.0882Z" fill="white"/>
<path d="M35.2645 28.9454C35.3351 29.1123 35.265 29.3084 35.1078 29.3834C34.9507 29.4584 34.766 29.3838 34.6954 29.2169C34.6247 29.05 34.6949 28.8538 34.8521 28.7789C35.0092 28.7039 35.1938 28.7784 35.2645 28.9454Z" fill="white"/>
<path d="M35.2645 28.9454C35.3351 29.1123 35.265 29.3084 35.1078 29.3834C34.9507 29.4584 34.766 29.3838 34.6954 29.2169C34.6247 29.05 34.6949 28.8538 34.8521 28.7789C35.0092 28.7039 35.1938 28.7784 35.2645 28.9454Z" fill="white"/>
<path d="M32.842 26.5454C32.9127 26.7123 32.8425 26.9085 32.6854 26.9834C32.5282 27.0584 32.3435 26.9839 32.273 26.817C32.2023 26.65 32.2725 26.454 32.4296 26.379C32.5868 26.304 32.7714 26.3785 32.842 26.5454Z" fill="white"/>
<path d="M32.842 26.5454C32.9127 26.7123 32.8425 26.9085 32.6854 26.9834C32.5282 27.0584 32.3435 26.9839 32.273 26.817C32.2023 26.65 32.2725 26.454 32.4296 26.379C32.5868 26.304 32.7714 26.3785 32.842 26.5454Z" fill="white"/>
<path d="M32.0368 27.2309C32.1075 27.398 32.0373 27.5941 31.8801 27.6691C31.723 27.7441 31.5383 27.6694 31.4676 27.5025C31.397 27.3356 31.4671 27.1395 31.6243 27.0645C31.7814 26.9895 31.9661 27.064 32.0368 27.2309Z" fill="white"/>
<path d="M32.0368 27.2309C32.1075 27.398 32.0373 27.5941 31.8801 27.6691C31.723 27.7441 31.5383 27.6694 31.4676 27.5025C31.397 27.3356 31.4671 27.1395 31.6243 27.0645C31.7814 26.9895 31.9661 27.064 32.0368 27.2309Z" fill="white"/>
<path d="M31.2282 27.9173C31.2989 28.0842 31.2288 28.2803 31.0716 28.3553C30.9144 28.4303 30.7297 28.3558 30.6592 28.1889C30.5885 28.0219 30.6587 27.8259 30.8158 27.7509C30.973 27.6759 31.1576 27.7504 31.2282 27.9173Z" fill="white"/>
<path d="M31.2282 27.9173C31.2989 28.0842 31.2288 28.2803 31.0716 28.3553C30.9144 28.4303 30.7297 28.3558 30.6592 28.1889C30.5885 28.0219 30.6587 27.8259 30.8158 27.7509C30.973 27.6759 31.1576 27.7504 31.2282 27.9173Z" fill="white"/>
<path d="M32.0368 28.6022C32.1075 28.7691 32.0373 28.9653 31.8801 29.0402C31.723 29.1152 31.5383 29.0406 31.4676 28.8737C31.397 28.7068 31.4671 28.5107 31.6243 28.4357C31.7814 28.3607 31.9661 28.4352 32.0368 28.6022Z" fill="white"/>
<path d="M32.0368 28.6022C32.1075 28.7691 32.0373 28.9653 31.8801 29.0402C31.723 29.1152 31.5383 29.0406 31.4676 28.8737C31.397 28.7068 31.4671 28.5107 31.6243 28.4357C31.7814 28.3607 31.9661 28.4352 32.0368 28.6022Z" fill="white"/>
<path d="M32.842 27.9166C32.9127 28.0836 32.8425 28.2796 32.6854 28.3546C32.5282 28.4296 32.3435 28.3551 32.273 28.1882C32.2023 28.0213 32.2725 27.8251 32.4296 27.7501C32.5868 27.6751 32.7714 27.7497 32.842 27.9166Z" fill="white"/>
<path d="M32.842 27.9166C32.9127 28.0836 32.8425 28.2796 32.6854 28.3546C32.5282 28.4296 32.3435 28.3551 32.273 28.1882C32.2023 28.0213 32.2725 27.8251 32.4296 27.7501C32.5868 27.6751 32.7714 27.7497 32.842 27.9166Z" fill="white"/>
<path d="M33.6513 30.1454C33.7218 30.3123 33.6517 30.5084 33.4945 30.5834C33.3375 30.6584 33.1528 30.5838 33.0821 30.4169C33.0115 30.25 33.0816 30.0538 33.2388 29.9788C33.3959 29.9039 33.5806 29.9784 33.6513 30.1454Z" fill="white"/>
<path d="M33.6513 30.1454C33.7218 30.3123 33.6517 30.5084 33.4945 30.5834C33.3375 30.6584 33.1528 30.5838 33.0821 30.4169C33.0115 30.25 33.0816 30.0538 33.2388 29.9788C33.3959 29.9039 33.5806 29.9784 33.6513 30.1454Z" fill="white"/>
<path d="M32.842 29.4594C32.9127 29.6263 32.8425 29.8225 32.6854 29.8975C32.5282 29.9725 32.3435 29.8978 32.273 29.7309C32.2023 29.564 32.2725 29.3679 32.4296 29.2929C32.5868 29.2179 32.7714 29.2924 32.842 29.4594Z" fill="white"/>
<path d="M32.842 29.4594C32.9127 29.6263 32.8425 29.8225 32.6854 29.8975C32.5282 29.9725 32.3435 29.8978 32.273 29.7309C32.2023 29.564 32.2725 29.3679 32.4296 29.2929C32.5868 29.2179 32.7714 29.2924 32.842 29.4594Z" fill="white"/>
<path d="M31.2282 29.2877C31.2989 29.4548 31.2288 29.6508 31.0716 29.7258C30.9144 29.8008 30.7297 29.7262 30.6592 29.5593C30.5885 29.3924 30.6587 29.1963 30.8158 29.1213C30.973 29.0463 31.1576 29.1208 31.2282 29.2877Z" fill="white"/>
<path d="M31.2282 29.2877C31.2989 29.4548 31.2288 29.6508 31.0716 29.7258C30.9144 29.8008 30.7297 29.7262 30.6592 29.5593C30.5885 29.3924 30.6587 29.1963 30.8158 29.1213C30.973 29.0463 31.1576 29.1208 31.2282 29.2877Z" fill="white"/>
<path d="M30.4209 28.6022C30.4916 28.7691 30.4214 28.9653 30.2642 29.0402C30.1071 29.1152 29.9225 29.0406 29.8518 28.8737C29.7812 28.7068 29.8513 28.5107 30.0085 28.4357C30.1656 28.3607 30.3503 28.4352 30.4209 28.6022Z" fill="white"/>
<path d="M30.4209 28.6022C30.4916 28.7691 30.4214 28.9653 30.2642 29.0402C30.1071 29.1152 29.9225 29.0406 29.8518 28.8737C29.7812 28.7068 29.8513 28.5107 30.0085 28.4357C30.1656 28.3607 30.3503 28.4352 30.4209 28.6022Z" fill="white"/>
<path d="M29.9383 29.2877C30.009 29.4548 29.9389 29.6508 29.7817 29.7258C29.6245 29.8008 29.4398 29.7262 29.3693 29.5593C29.2986 29.3924 29.3688 29.1963 29.5259 29.1213C29.6831 29.0463 29.8678 29.1208 29.9383 29.2877Z" fill="white"/>
<path d="M29.9383 29.2877C30.009 29.4548 29.9389 29.6508 29.7817 29.7258C29.6245 29.8008 29.4398 29.7262 29.3693 29.5593C29.2986 29.3924 29.3688 29.1963 29.5259 29.1213C29.6831 29.0463 29.8678 29.1208 29.9383 29.2877Z" fill="white"/>
<path d="M30.7445 29.9741C30.8151 30.1411 30.745 30.3371 30.5878 30.4121C30.4307 30.4871 30.246 30.4126 30.1753 30.2457C30.1047 30.0788 30.1749 29.8827 30.3321 29.8077C30.4891 29.7327 30.6738 29.8072 30.7445 29.9741Z" fill="white"/>
<path d="M30.7445 29.9741C30.8151 30.1411 30.745 30.3371 30.5878 30.4121C30.4307 30.4871 30.246 30.4126 30.1753 30.2457C30.1047 30.0788 30.1749 29.8827 30.3321 29.8077C30.4891 29.7327 30.6738 29.8072 30.7445 29.9741Z" fill="white"/>
<path d="M32.0355 30.1454C32.1061 30.3123 32.036 30.5084 31.8788 30.5834C31.7217 30.6584 31.537 30.5838 31.4663 30.4169C31.3958 30.25 31.4659 30.0538 31.6231 29.9788C31.7801 29.9039 31.9648 29.9784 32.0355 30.1454Z" fill="white"/>
<path d="M32.0355 30.1454C32.1061 30.3123 32.036 30.5084 31.8788 30.5834C31.7217 30.6584 31.537 30.5838 31.4663 30.4169C31.3958 30.25 31.4659 30.0538 31.6231 29.9788C31.7801 29.9039 31.9648 29.9784 32.0355 30.1454Z" fill="white"/>
<path d="M32.842 31.0022C32.9127 31.1691 32.8425 31.3652 32.6854 31.4402C32.5282 31.5152 32.3435 31.4406 32.273 31.2737C32.2023 31.1068 32.2725 30.9106 32.4296 30.8357C32.5868 30.7607 32.7714 30.8353 32.842 31.0022Z" fill="white"/>
<path d="M32.842 31.0022C32.9127 31.1691 32.8425 31.3652 32.6854 31.4402C32.5282 31.5152 32.3435 31.4406 32.273 31.2737C32.2023 31.1068 32.2725 30.9106 32.4296 30.8357C32.5868 30.7607 32.7714 30.8353 32.842 31.0022Z" fill="white"/>
<path d="M32.196 31.8594C32.2665 32.0263 32.1964 32.2225 32.0392 32.2974C31.8822 32.3724 31.6975 32.2978 31.6268 32.1309C31.5561 31.964 31.6263 31.7679 31.7835 31.6929C31.9406 31.6179 32.1253 31.6924 32.196 31.8594Z" fill="white"/>
<path d="M32.196 31.8594C32.2665 32.0263 32.1964 32.2225 32.0392 32.2974C31.8822 32.3724 31.6975 32.2978 31.6268 32.1309C31.5561 31.964 31.6263 31.7679 31.7835 31.6929C31.9406 31.6179 32.1253 31.6924 32.196 31.8594Z" fill="white"/>
<path d="M31.5522 31.0022C31.6229 31.1691 31.5527 31.3652 31.3956 31.4402C31.2384 31.5152 31.0537 31.4406 30.9832 31.2737C30.9125 31.1068 30.9826 30.9106 31.1398 30.8357C31.297 30.7607 31.4817 30.8353 31.5522 31.0022Z" fill="white"/>
<path d="M31.5522 31.0022C31.6229 31.1691 31.5527 31.3652 31.3956 31.4402C31.2384 31.5152 31.0537 31.4406 30.9832 31.2737C30.9125 31.1068 30.9826 30.9106 31.1398 30.8357C31.297 30.7607 31.4817 30.8353 31.5522 31.0022Z" fill="white"/>
<path d="M37.5501 25.6677C37.6561 25.918 37.5509 26.2123 37.3151 26.3247C37.0794 26.4372 36.8024 26.3254 36.6965 26.075C36.5905 25.8245 36.6956 25.5304 36.9314 25.418C37.1671 25.3054 37.4442 25.4173 37.5501 25.6677Z" fill="white"/>
<path d="M37.5501 25.6677C37.6561 25.918 37.5509 26.2123 37.3151 26.3247C37.0794 26.4372 36.8024 26.3254 36.6965 26.075C36.5905 25.8245 36.6956 25.5304 36.9314 25.418C37.1671 25.3054 37.4442 25.4173 37.5501 25.6677Z" fill="white"/>
<path d="M37.3885 27.5532C37.4944 27.8037 37.3892 28.0978 37.1535 28.2102C36.9177 28.3228 36.6407 28.2109 36.5348 27.9605C36.4288 27.7102 36.5341 27.4159 36.7697 27.3035C37.0055 27.1909 37.2825 27.3028 37.3885 27.5532Z" fill="white"/>
<path d="M37.3885 27.5532C37.4944 27.8037 37.3892 28.0978 37.1535 28.2102C36.9177 28.3228 36.6407 28.2109 36.5348 27.9605C36.4288 27.7102 36.5341 27.4159 36.7697 27.3035C37.0055 27.1909 37.2825 27.3028 37.3885 27.5532Z" fill="white"/>
<path d="M40.6443 25.6479C40.7855 25.9818 40.6453 26.374 40.331 26.5239C40.0167 26.6739 39.6473 26.5249 39.5061 26.191C39.3649 25.8571 39.5051 25.4649 39.8194 25.3149C40.1337 25.1649 40.5031 25.314 40.6443 25.6479Z" fill="white"/>
<path d="M40.6443 25.6479C40.7855 25.9818 40.6453 26.374 40.331 26.5239C40.0167 26.6739 39.6473 26.5249 39.5061 26.191C39.3649 25.8571 39.5051 25.4649 39.8194 25.3149C40.1337 25.1649 40.5031 25.314 40.6443 25.6479Z" fill="white"/>
<path d="M39.6748 23.9327C39.816 24.2666 39.6758 24.6588 39.3615 24.8088C39.0472 24.9587 38.6778 24.8097 38.5366 24.4758C38.3952 24.1419 38.5355 23.7497 38.8498 23.5997C39.1642 23.4497 39.5334 23.5989 39.6748 23.9327Z" fill="white"/>
<path d="M39.6748 23.9327C39.816 24.2666 39.6758 24.6588 39.3615 24.8088C39.0472 24.9587 38.6778 24.8097 38.5366 24.4758C38.3952 24.1419 38.5355 23.7497 38.8498 23.5997C39.1642 23.4497 39.5334 23.5989 39.6748 23.9327Z" fill="white"/>
<path d="M15.4573 40.2254C15.316 39.8915 15.4563 39.4993 15.7706 39.3492C16.0849 39.1994 16.4542 39.3484 16.5955 39.6823C16.7367 40.0161 16.5966 40.4084 16.2822 40.5584C15.9679 40.7084 15.5985 40.5592 15.4573 40.2254Z" fill="white"/>
<path d="M15.4573 40.2254C15.316 39.8915 15.4563 39.4993 15.7706 39.3492C16.0849 39.1994 16.4542 39.3484 16.5955 39.6823C16.7367 40.0161 16.5966 40.4084 16.2822 40.5584C15.9679 40.7084 15.5985 40.5592 15.4573 40.2254Z" fill="white"/>
<path d="M15.7795 37.3114C15.6381 36.9775 15.7784 36.5853 16.0928 36.4353C16.4071 36.2853 16.7765 36.4345 16.9177 36.7683C17.0589 37.1021 16.9187 37.4944 16.6044 37.6444C16.2901 37.7943 15.9207 37.6453 15.7795 37.3114Z" fill="white"/>
<path d="M15.7795 37.3114C15.6381 36.9775 15.7784 36.5853 16.0928 36.4353C16.4071 36.2853 16.7765 36.4345 16.9177 36.7683C17.0589 37.1021 16.9187 37.4944 16.6044 37.6444C16.2901 37.7943 15.9207 37.6453 15.7795 37.3114Z" fill="white"/>
<path d="M15.9419 38.8541C15.8005 38.5203 15.9408 38.128 16.2552 37.9781C16.5695 37.8281 16.9388 37.9771 17.0801 38.311C17.2213 38.6449 17.081 39.0371 16.7667 39.1871C16.4525 39.3371 16.0831 39.1881 15.9419 38.8541Z" fill="white"/>
<path d="M15.9419 38.8541C15.8005 38.5203 15.9408 38.128 16.2552 37.9781C16.5695 37.8281 16.9388 37.9771 17.0801 38.311C17.2213 38.6449 17.081 39.0371 16.7667 39.1871C16.4525 39.3371 16.0831 39.1881 15.9419 38.8541Z" fill="white"/>
<path d="M16.9087 40.7402C16.7675 40.4062 16.9078 40.0141 17.2221 39.8641C17.5363 39.7141 17.9057 39.8632 18.0469 40.1971C18.1882 40.5309 18.0479 40.9232 17.7336 41.0731C17.4193 41.2231 17.05 41.074 16.9087 40.7402Z" fill="white"/>
<path d="M16.9087 40.7402C16.7675 40.4062 16.9078 40.0141 17.2221 39.8641C17.5363 39.7141 17.9057 39.8632 18.0469 40.1971C18.1882 40.5309 18.0479 40.9232 17.7336 41.0731C17.4193 41.2231 17.05 41.074 16.9087 40.7402Z" fill="white"/>
<path d="M17.2335 37.8254C17.0923 37.4916 17.2326 37.0993 17.5468 36.9493C17.8611 36.7994 18.2305 36.9484 18.3717 37.2823C18.513 37.6162 18.3727 38.0084 18.0584 38.1584C17.7441 38.3084 17.3748 38.1592 17.2335 37.8254Z" fill="white"/>
<path d="M17.2335 37.8254C17.0923 37.4916 17.2326 37.0993 17.5468 36.9493C17.8611 36.7994 18.2305 36.9484 18.3717 37.2823C18.513 37.6162 18.3727 38.0084 18.0584 38.1584C17.7441 38.3084 17.3748 38.1592 17.2335 37.8254Z" fill="white"/>
<path d="M19.0059 38.1686C18.8646 37.8347 19.0049 37.4424 19.3191 37.2924C19.6335 37.1426 20.0028 37.2916 20.1441 37.6254C20.2854 37.9593 20.1451 38.3516 19.8308 38.5016C19.5165 38.6516 19.1472 38.5024 19.0059 38.1686Z" fill="white"/>
<path d="M19.0059 38.1686C18.8646 37.8347 19.0049 37.4424 19.3191 37.2924C19.6335 37.1426 20.0028 37.2916 20.1441 37.6254C20.2854 37.9593 20.1451 38.3516 19.8308 38.5016C19.5165 38.6516 19.1472 38.5024 19.0059 38.1686Z" fill="white"/>
<path d="M18.8474 39.7114C18.706 39.3774 18.8463 38.9853 19.1607 38.8353C19.475 38.6853 19.8444 38.8343 19.9856 39.1683C20.1268 39.5021 19.9866 39.8944 19.6723 40.0443C19.358 40.1943 18.9886 40.0452 18.8474 39.7114Z" fill="white"/>
<path d="M18.8474 39.7114C18.706 39.3774 18.8463 38.9853 19.1607 38.8353C19.475 38.6853 19.8444 38.8343 19.9856 39.1683C20.1268 39.5021 19.9866 39.8944 19.6723 40.0443C19.358 40.1943 18.9886 40.0452 18.8474 39.7114Z" fill="white"/>
<path d="M19.976 40.9118C19.8348 40.5778 19.9751 40.1857 20.2894 40.0357C20.6036 39.8857 20.973 40.0347 21.1142 40.3687C21.2555 40.7025 21.1152 41.0948 20.8009 41.2447C20.4866 41.3947 20.1173 41.2456 19.976 40.9118Z" fill="white"/>
<path d="M19.976 40.9118C19.8348 40.5778 19.9751 40.1857 20.2894 40.0357C20.6036 39.8857 20.973 40.0347 21.1142 40.3687C21.2555 40.7025 21.1152 41.0948 20.8009 41.2447C20.4866 41.3947 20.1173 41.2456 19.976 40.9118Z" fill="white"/>
<path d="M21.6156 40.5484C21.5096 40.298 21.6149 40.0039 21.8506 39.8913C22.0864 39.7789 22.3633 39.8907 22.4693 40.141C22.5752 40.3915 22.47 40.6856 22.2343 40.7982C21.9986 40.9106 21.7216 40.7988 21.6156 40.5484Z" fill="white"/>
<path d="M21.6156 40.5484C21.5096 40.298 21.6149 40.0039 21.8506 39.8913C22.0864 39.7789 22.3633 39.8907 22.4693 40.141C22.5752 40.3915 22.47 40.6856 22.2343 40.7982C21.9986 40.9106 21.7216 40.7988 21.6156 40.5484Z" fill="white"/>
<path d="M22.9073 39.8627C22.8014 39.6124 22.9066 39.3182 23.1424 39.2057C23.3781 39.0933 23.655 39.205 23.761 39.4555C23.867 39.7059 23.7618 40 23.526 40.1125C23.2904 40.225 23.0133 40.1132 22.9073 39.8627Z" fill="white"/>
<path d="M22.9073 39.8627C22.8014 39.6124 22.9066 39.3182 23.1424 39.2057C23.3781 39.0933 23.655 39.205 23.761 39.4555C23.867 39.7059 23.7618 40 23.526 40.1125C23.2904 40.225 23.0133 40.1132 22.9073 39.8627Z" fill="white"/>
<path d="M24.0379 39.0056C23.9319 38.7551 24.0372 38.461 24.2729 38.3486C24.5085 38.236 24.7856 38.3478 24.8916 38.5983C24.9975 38.8486 24.8923 39.1428 24.6565 39.2553C24.4208 39.3678 24.1439 39.256 24.0379 39.0056Z" fill="white"/>
<path d="M24.0379 39.0056C23.9319 38.7551 24.0372 38.461 24.2729 38.3486C24.5085 38.236 24.7856 38.3478 24.8916 38.5983C24.9975 38.8486 24.8923 39.1428 24.6565 39.2553C24.4208 39.3678 24.1439 39.256 24.0379 39.0056Z" fill="white"/>
<path d="M21.9396 36.7772C21.8336 36.5268 21.9389 36.2326 22.1746 36.1202C22.4104 36.0076 22.6873 36.1195 22.7933 36.3699C22.8992 36.6202 22.794 36.9145 22.5583 37.0269C22.3225 37.1395 22.0456 37.0276 21.9396 36.7772Z" fill="white"/>
<path d="M21.9396 36.7772C21.8336 36.5268 21.9389 36.2326 22.1746 36.1202C22.4104 36.0076 22.6873 36.1195 22.7933 36.3699C22.8992 36.6202 22.794 36.9145 22.5583 37.0269C22.3225 37.1395 22.0456 37.0276 21.9396 36.7772Z" fill="white"/>
<path d="M21.7785 38.6623C21.6726 38.412 21.7778 38.1178 22.0135 38.0053C22.2493 37.8928 22.5262 38.0046 22.6322 38.255C22.7382 38.5055 22.6329 38.7996 22.3972 38.912C22.1614 39.0246 21.8845 38.9128 21.7785 38.6623Z" fill="white"/>
<path d="M21.7785 38.6623C21.6726 38.412 21.7778 38.1178 22.0135 38.0053C22.2493 37.8928 22.5262 38.0046 22.6322 38.255C22.7382 38.5055 22.6329 38.7996 22.3972 38.912C22.1614 39.0246 21.8845 38.9128 21.7785 38.6623Z" fill="white"/>
<path d="M22.9073 37.9768C22.8014 37.7263 22.9066 37.4322 23.1424 37.3197C23.3781 37.2072 23.655 37.3191 23.761 37.5695C23.867 37.8198 23.7618 38.1141 23.526 38.2265C23.2904 38.3389 23.0133 38.2272 22.9073 37.9768Z" fill="white"/>
<path d="M22.9073 37.9768C22.8014 37.7263 22.9066 37.4322 23.1424 37.3197C23.3781 37.2072 23.655 37.3191 23.761 37.5695C23.867 37.8198 23.7618 38.1141 23.526 38.2265C23.2904 38.3389 23.0133 38.2272 22.9073 37.9768Z" fill="white"/>
<path d="M24.3869 36.2427C24.3162 36.0757 24.3864 35.8796 24.5435 35.8046C24.7007 35.7296 24.8854 35.8041 24.9561 35.9712C25.0266 36.1381 24.9565 36.3342 24.7993 36.4092C24.6421 36.4842 24.4576 36.4096 24.3869 36.2427Z" fill="white"/>
<path d="M24.3869 36.2427C24.3162 36.0757 24.3864 35.8796 24.5435 35.8046C24.7007 35.7296 24.8854 35.8041 24.9561 35.9712C25.0266 36.1381 24.9565 36.3342 24.7993 36.4092C24.6421 36.4842 24.4576 36.4096 24.3869 36.2427Z" fill="white"/>
<path d="M23.5796 35.5573C23.509 35.3904 23.5791 35.1943 23.7363 35.1193C23.8935 35.0443 24.0781 35.1189 24.1488 35.2858C24.2194 35.4528 24.1492 35.6489 23.9922 35.7239C23.835 35.7989 23.6503 35.7243 23.5796 35.5573Z" fill="white"/>
<path d="M23.5796 35.5573C23.509 35.3904 23.5791 35.1943 23.7363 35.1193C23.8935 35.0443 24.0781 35.1189 24.1488 35.2858C24.2194 35.4528 24.1492 35.6489 23.9922 35.7239C23.835 35.7989 23.6503 35.7243 23.5796 35.5573Z" fill="white"/>
<path d="M24.3869 37.7854C24.3162 37.6185 24.3864 37.4224 24.5435 37.3474C24.7007 37.2724 24.8854 37.3469 24.9561 37.5139C25.0266 37.6808 24.9565 37.877 24.7993 37.9519C24.6421 38.0269 24.4576 37.9523 24.3869 37.7854Z" fill="white"/>
<path d="M24.3869 37.7854C24.3162 37.6185 24.3864 37.4224 24.5435 37.3474C24.7007 37.2724 24.8854 37.3469 24.9561 37.5139C25.0266 37.6808 24.9565 37.877 24.7993 37.9519C24.6421 38.0269 24.4576 37.9523 24.3869 37.7854Z" fill="white"/>
<path d="M23.5796 36.9286C23.509 36.7617 23.5791 36.5656 23.7363 36.4906C23.8935 36.4156 24.0781 36.4901 24.1488 36.657C24.2194 36.824 24.1492 37.0202 23.9922 37.095C23.835 37.17 23.6503 37.0955 23.5796 36.9286Z" fill="white"/>
<path d="M23.5796 36.9286C23.509 36.7617 23.5791 36.5656 23.7363 36.4906C23.8935 36.4156 24.0781 36.4901 24.1488 36.657C24.2194 36.824 24.1492 37.0202 23.9922 37.095C23.835 37.17 23.6503 37.0955 23.5796 36.9286Z" fill="white"/>
<path d="M22.7718 36.0711C22.7011 35.9041 22.7713 35.708 22.9284 35.633C23.0856 35.558 23.2703 35.6326 23.341 35.7995C23.4115 35.9665 23.3415 36.1625 23.1843 36.2375C23.0271 36.3125 22.8425 36.238 22.7718 36.0711Z" fill="white"/>
<path d="M22.7718 36.0711C22.7011 35.9041 22.7713 35.708 22.9284 35.633C23.0856 35.558 23.2703 35.6326 23.341 35.7995C23.4115 35.9665 23.3415 36.1625 23.1843 36.2375C23.0271 36.3125 22.8425 36.238 22.7718 36.0711Z" fill="white"/>
<path d="M25.1935 38.4706C25.1229 38.3037 25.193 38.1076 25.3502 38.0326C25.5073 37.9576 25.692 38.0321 25.7627 38.1991C25.8333 38.366 25.7631 38.5622 25.6059 38.6372C25.4489 38.7122 25.2642 38.6375 25.1935 38.4706Z" fill="white"/>
<path d="M25.1935 38.4706C25.1229 38.3037 25.193 38.1076 25.3502 38.0326C25.5073 37.9576 25.692 38.0321 25.7627 38.1991C25.8333 38.366 25.7631 38.5622 25.6059 38.6372C25.4489 38.7122 25.2642 38.6375 25.1935 38.4706Z" fill="white"/>
<path d="M26.0008 37.7854C25.9301 37.6185 26.0003 37.4224 26.1574 37.3474C26.3146 37.2724 26.4993 37.3469 26.5698 37.5139C26.6405 37.6808 26.5704 37.877 26.4132 37.9519C26.256 38.0269 26.0715 37.9523 26.0008 37.7854Z" fill="white"/>
<path d="M26.0008 37.7854C25.9301 37.6185 26.0003 37.4224 26.1574 37.3474C26.3146 37.2724 26.4993 37.3469 26.5698 37.5139C26.6405 37.6808 26.5704 37.877 26.4132 37.9519C26.256 38.0269 26.0715 37.9523 26.0008 37.7854Z" fill="white"/>
<path d="M26.808 37.099C26.7374 36.9321 26.8075 36.736 26.9647 36.661C27.1218 36.586 27.3065 36.6605 27.3771 36.8276C27.4478 36.9945 27.3776 37.1906 27.2204 37.2656C27.0633 37.3406 26.8787 37.2661 26.808 37.099Z" fill="white"/>
<path d="M26.808 37.099C26.7374 36.9321 26.8075 36.736 26.9647 36.661C27.1218 36.586 27.3065 36.6605 27.3771 36.8276C27.4478 36.9945 27.3776 37.1906 27.2204 37.2656C27.0633 37.3406 26.8787 37.2661 26.808 37.099Z" fill="white"/>
<path d="M26.0008 36.4138C25.9301 36.2469 26.0003 36.0508 26.1574 35.9758C26.3146 35.9008 26.4993 35.9753 26.5698 36.1422C26.6405 36.3091 26.5704 36.5053 26.4132 36.5803C26.256 36.6553 26.0715 36.5807 26.0008 36.4138Z" fill="white"/>
<path d="M26.0008 36.4138C25.9301 36.2469 26.0003 36.0508 26.1574 35.9758C26.3146 35.9008 26.4993 35.9753 26.5698 36.1422C26.6405 36.3091 26.5704 36.5053 26.4132 36.5803C26.256 36.6553 26.0715 36.5807 26.0008 36.4138Z" fill="white"/>
<path d="M25.1935 37.0995C25.1229 36.9324 25.193 36.7363 25.3502 36.6613C25.5073 36.5863 25.692 36.661 25.7627 36.8279C25.8333 36.9948 25.7631 37.1909 25.6059 37.2659C25.4489 37.3409 25.2642 37.2664 25.1935 37.0995Z" fill="white"/>
<path d="M25.1935 37.0995C25.1229 36.9324 25.193 36.7363 25.3502 36.6613C25.5073 36.5863 25.692 36.661 25.7627 36.8279C25.8333 36.9948 25.7631 37.1909 25.6059 37.2659C25.4489 37.3409 25.2642 37.2664 25.1935 37.0995Z" fill="white"/>
<path d="M24.3869 34.8715C24.3162 34.7045 24.3864 34.5083 24.5435 34.4335C24.7007 34.3585 24.8854 34.433 24.9561 34.5999C25.0266 34.7668 24.9565 34.9629 24.7993 35.0379C24.6421 35.1129 24.4576 35.0384 24.3869 34.8715Z" fill="white"/>
<path d="M24.3869 34.8715C24.3162 34.7045 24.3864 34.5083 24.5435 34.4335C24.7007 34.3585 24.8854 34.433 24.9561 34.5999C25.0266 34.7668 24.9565 34.9629 24.7993 35.0379C24.6421 35.1129 24.4576 35.0384 24.3869 34.8715Z" fill="white"/>
<path d="M25.1935 35.5573C25.1229 35.3904 25.193 35.1943 25.3502 35.1193C25.5073 35.0443 25.692 35.1189 25.7627 35.2858C25.8333 35.4528 25.7631 35.6489 25.6059 35.7239C25.4489 35.7989 25.2642 35.7243 25.1935 35.5573Z" fill="white"/>
<path d="M25.1935 35.5573C25.1229 35.3904 25.193 35.1943 25.3502 35.1193C25.5073 35.0443 25.692 35.1189 25.7627 35.2858C25.8333 35.4528 25.7631 35.6489 25.6059 35.7239C25.4489 35.7989 25.2642 35.7243 25.1935 35.5573Z" fill="white"/>
<path d="M26.6255 35.7309C26.5548 35.564 26.625 35.3679 26.7822 35.2929C26.9393 35.2179 27.124 35.2924 27.1946 35.4593C27.2652 35.6262 27.1951 35.8223 27.0379 35.8973C26.8808 35.9723 26.6962 35.8978 26.6255 35.7309Z" fill="white"/>
<path d="M26.6255 35.7309C26.5548 35.564 26.625 35.3679 26.7822 35.2929C26.9393 35.2179 27.124 35.2924 27.1946 35.4593C27.2652 35.6262 27.1951 35.8223 27.0379 35.8973C26.8808 35.9723 26.6962 35.8978 26.6255 35.7309Z" fill="white"/>
<path d="M27.4333 36.4164C27.3627 36.2495 27.4328 36.0534 27.59 35.9784C27.7472 35.9034 27.9317 35.978 28.0024 36.1449C28.0731 36.3119 28.0029 36.508 27.8458 36.583C27.6886 36.658 27.5039 36.5834 27.4333 36.4164Z" fill="white"/>
<path d="M27.4333 36.4164C27.3627 36.2495 27.4328 36.0534 27.59 35.9784C27.7472 35.9034 27.9317 35.978 28.0024 36.1449C28.0731 36.3119 28.0029 36.508 27.8458 36.583C27.6886 36.658 27.5039 36.5834 27.4333 36.4164Z" fill="white"/>
<path d="M27.9171 35.7309C27.8465 35.564 27.9166 35.3679 28.0738 35.2929C28.2309 35.2179 28.4156 35.2924 28.4862 35.4593C28.5568 35.6262 28.4867 35.8223 28.3295 35.8973C28.1724 35.9723 27.9878 35.8978 27.9171 35.7309Z" fill="white"/>
<path d="M27.9171 35.7309C27.8465 35.564 27.9166 35.3679 28.0738 35.2929C28.2309 35.2179 28.4156 35.2924 28.4862 35.4593C28.5568 35.6262 28.4867 35.8223 28.3295 35.8973C28.1724 35.9723 27.9878 35.8978 27.9171 35.7309Z" fill="white"/>
<path d="M27.2729 35.0454C27.2022 34.8784 27.2723 34.6822 27.4295 34.6072C27.5867 34.5322 27.7713 34.6069 27.8419 34.7738C27.9126 34.9407 27.8424 35.1368 27.6853 35.2118C27.5281 35.2868 27.3434 35.2123 27.2729 35.0454Z" fill="white"/>
<path d="M27.2729 35.0454C27.2022 34.8784 27.2723 34.6822 27.4295 34.6072C27.5867 34.5322 27.7713 34.6069 27.8419 34.7738C27.9126 34.9407 27.8424 35.1368 27.6853 35.2118C27.5281 35.2868 27.3434 35.2123 27.2729 35.0454Z" fill="white"/>
<path d="M26.0021 34.8715C25.9314 34.7045 26.0016 34.5083 26.1587 34.4335C26.3159 34.3585 26.5005 34.433 26.5712 34.5999C26.6418 34.7668 26.5717 34.9629 26.4145 35.0379C26.2573 35.1129 26.0727 35.0384 26.0021 34.8715Z" fill="white"/>
<path d="M26.0021 34.8715C25.9314 34.7045 26.0016 34.5083 26.1587 34.4335C26.3159 34.3585 26.5005 34.433 26.5712 34.5999C26.6418 34.7668 26.5717 34.9629 26.4145 35.0379C26.2573 35.1129 26.0727 35.0384 26.0021 34.8715Z" fill="white"/>
<path d="M25.1935 34.0143C25.1229 33.8472 25.193 33.6512 25.3502 33.5762C25.5073 33.5012 25.692 33.5758 25.7627 33.7427C25.8333 33.9096 25.7631 34.1057 25.6059 34.1807C25.4489 34.2557 25.2642 34.1812 25.1935 34.0143Z" fill="white"/>
<path d="M25.1935 34.0143C25.1229 33.8472 25.193 33.6512 25.3502 33.5762C25.5073 33.5012 25.692 33.5758 25.7627 33.7427C25.8333 33.9096 25.7631 34.1057 25.6059 34.1807C25.4489 34.2557 25.2642 34.1812 25.1935 34.0143Z" fill="white"/>
<path d="M25.8194 33.3309C25.7488 33.164 25.8188 32.9679 25.976 32.8929C26.1332 32.8179 26.3179 32.8924 26.3885 33.0593C26.4592 33.2262 26.389 33.4224 26.2319 33.4974C26.0747 33.5723 25.89 33.4978 25.8194 33.3309Z" fill="white"/>
<path d="M25.8194 33.3309C25.7488 33.164 25.8188 32.9679 25.976 32.8929C26.1332 32.8179 26.3179 32.8924 26.3885 33.0593C26.4592 33.2262 26.389 33.4224 26.2319 33.4974C26.0747 33.5723 25.89 33.4978 25.8194 33.3309Z" fill="white"/>
<path d="M26.4636 34.1881C26.393 34.0211 26.4632 33.8251 26.6204 33.7501C26.7774 33.6751 26.9621 33.7496 27.0328 33.9165C27.1034 34.0835 27.0333 34.2796 26.8761 34.3546C26.719 34.4296 26.5343 34.3551 26.4636 34.1881Z" fill="white"/>
<path d="M26.4636 34.1881C26.393 34.0211 26.4632 33.8251 26.6204 33.7501C26.7774 33.6751 26.9621 33.7496 27.0328 33.9165C27.1034 34.0835 27.0333 34.2796 26.8761 34.3546C26.719 34.4296 26.5343 34.3551 26.4636 34.1881Z" fill="white"/>
<path d="M20.4862 39.3484C20.3802 39.0979 20.4855 38.8038 20.7212 38.6913C20.957 38.5788 21.2339 38.6907 21.3399 38.941C21.4458 39.1914 21.3406 39.4857 21.1049 39.5981C20.8691 39.7105 20.5922 39.5987 20.4862 39.3484Z" fill="white"/>
<path d="M20.4862 39.3484C20.3802 39.0979 20.4855 38.8038 20.7212 38.6913C20.957 38.5788 21.2339 38.6907 21.3399 38.941C21.4458 39.1914 21.3406 39.4857 21.1049 39.5981C20.8691 39.7105 20.5922 39.5987 20.4862 39.3484Z" fill="white"/>
<path d="M20.6466 37.4624C20.5406 37.212 20.6459 36.9178 20.8816 36.8054C21.1174 36.6929 21.3943 36.8046 21.5003 37.0551C21.6062 37.3055 21.501 37.5996 21.2653 37.7121C21.0295 37.8246 20.7526 37.7128 20.6466 37.4624Z" fill="white"/>
<path d="M20.6466 37.4624C20.5406 37.212 20.6459 36.9178 20.8816 36.8054C21.1174 36.6929 21.3943 36.8046 21.5003 37.0551C21.6062 37.3055 21.501 37.5996 21.2653 37.7121C21.0295 37.8246 20.7526 37.7128 20.6466 37.4624Z" fill="white"/>
<path d="M17.3933 39.3686C17.252 39.0347 17.3922 38.6425 17.7066 38.4925C18.0209 38.3425 18.3903 38.4916 18.5315 38.8255C18.6728 39.1593 18.5325 39.5516 18.2182 39.7016C17.9039 39.8515 17.5346 39.7024 17.3933 39.3686Z" fill="white"/>
<path d="M17.3933 39.3686C17.252 39.0347 17.3922 38.6425 17.7066 38.4925C18.0209 38.3425 18.3903 38.4916 18.5315 38.8255C18.6728 39.1593 18.5325 39.5516 18.2182 39.7016C17.9039 39.8515 17.5346 39.7024 17.3933 39.3686Z" fill="white"/>
<path d="M18.3642 41.0825C18.2229 40.7487 18.3632 40.3564 18.6775 40.2065C18.9918 40.0565 19.3611 40.2056 19.5024 40.5394C19.6437 40.8734 19.5035 41.2655 19.1891 41.4155C18.8748 41.5655 18.5054 41.4164 18.3642 41.0825Z" fill="white"/>
<path d="M18.3642 41.0825C18.2229 40.7487 18.3632 40.3564 18.6775 40.2065C18.9918 40.0565 19.3611 40.2056 19.5024 40.5394C19.6437 40.8734 19.5035 41.2655 19.1891 41.4155C18.8748 41.5655 18.5054 41.4164 18.3642 41.0825Z" fill="white"/>
</g>
<path d="M75.7655 23.74V13.2H78.2055V23.92C78.2055 24.4933 78.4989 24.78 79.0855 24.78H83.1455C83.7322 24.78 84.0255 24.4933 84.0255 23.92V13.2H86.4655V23.74C86.4655 25.9133 85.3789 27 83.2055 27H79.0255C76.8522 27 75.7655 25.9133 75.7655 23.74ZM91.7527 27V13.2H94.1927V24.78H100.433V27H91.7527ZM101.595 15.42V13.2H112.735V15.42H108.395V27H105.935V15.42H101.595ZM114.609 26.52L118.869 13.2H122.669L126.909 26.52L126.609 27H124.549L123.609 23.96H117.909L116.949 27H114.929L114.609 26.52ZM118.589 21.74H122.949L120.949 15.42H120.569L118.589 21.74ZM130.995 27V13.2H133.435V27H130.995ZM138.835 27V13.2H141.495L147.615 23.04V13.2H150.055V27H147.415L141.275 17.16V27H138.835ZM155.464 27V13.2H164.744V15.42H157.904V19.34H164.144V21.56H157.904V27H155.464ZM169.046 27V13.2H171.486V27H169.046ZM176.886 27V13.2H179.546L185.666 23.04V13.2H188.106V27H185.466L179.326 17.16V27H176.886ZM193.514 27V13.2H195.954V27H193.514ZM200.134 15.42V13.2H211.274V15.42H206.934V27H204.474V15.42H200.134ZM214.144 13.68L214.444 13.2H216.524L219.784 19.46L223.064 13.2H225.164L225.444 13.68L221.024 22.04V27H218.564V22.04L214.144 13.68Z" fill="#323B4B"/>
<path opacity="0.75" d="M74.7484 38.303L74.9434 38.03H76.0094L77.7644 45.804H77.9204L79.7664 38.979H81.0794L82.9124 45.804H83.0814L84.8234 38.03H85.8894L86.0844 38.303L84.1084 47H81.9634L80.4164 41.215L78.8824 47H76.7374L74.7484 38.303ZM88.9513 47V38.03H94.8793V39.226H90.2643V41.722H94.4893V42.918H90.2643V45.804H94.8793V47H88.9513ZM97.1231 46.727L99.9961 38.03H102.089L104.949 46.727L104.78 47H103.675L102.999 44.868H99.0861L98.3971 47H97.3051L97.1231 46.727ZM99.4631 43.672H102.622L101.179 39.226H100.906L99.4631 43.672ZM107.686 47V38.03H108.999V45.804H113.224V47H107.686ZM114.031 39.226V38.03H121.181V39.226H118.269V47H116.943V39.226H114.031ZM123.982 47V38.03H125.295V41.722H129.507V38.03H130.82V47H129.507V42.918H125.295V47H123.982ZM138.933 47V38.03H140.246V45.804H144.471V47H138.933ZM146.381 46.727L149.254 38.03H151.347L154.207 46.727L154.038 47H152.933L152.257 44.868H148.344L147.655 47H146.563L146.381 46.727ZM148.721 43.672H151.88L150.437 39.226H150.164L148.721 43.672ZM156.866 44.946V38.03H158.179V45.076C158.179 45.5613 158.426 45.804 158.92 45.804H161.65C162.144 45.804 162.391 45.5613 162.391 45.076V38.03H163.704V44.946C163.704 46.3153 163.023 47 161.663 47H158.907C157.546 47 156.866 46.3153 156.866 44.946ZM167.269 47V38.03H168.712L173.093 44.907V38.03H174.406V47H172.963L168.582 40.123V47H167.269ZM177.909 44.946V40.084C177.909 38.7147 178.59 38.03 179.95 38.03H183.564L184.227 38.55V39.226H179.963C179.469 39.226 179.222 39.4687 179.222 39.954V45.076C179.222 45.5613 179.469 45.804 179.963 45.804H184.227V46.48L183.564 47H179.95C178.59 47 177.909 46.3153 177.909 44.946ZM187.375 47V38.03H188.688V41.722H192.9V38.03H194.213V47H192.9V42.918H188.688V47H187.375ZM197.852 47V38.03H202.129C203.49 38.03 204.17 38.7147 204.17 40.084V41.787C204.17 43.1477 203.49 43.828 202.129 43.828H199.165V47H197.852ZM199.165 42.632H202.116C202.61 42.632 202.857 42.385 202.857 41.891V39.954C202.857 39.4687 202.61 39.226 202.116 39.226H199.165V42.632ZM205.999 46.727L208.872 38.03H210.965L213.825 46.727L213.656 47H212.551L211.875 44.868H207.962L207.273 47H206.181L205.999 46.727ZM208.339 43.672H211.498L210.055 39.226H209.782L208.339 43.672ZM216.561 47V38.03H220.045C222.281 38.03 223.399 39.1567 223.399 41.41V43.62C223.399 45.8733 222.281 47 220.045 47H216.561ZM217.874 45.804H220.11C221.428 45.804 222.086 45.1453 222.086 43.828V41.202C222.086 39.8847 221.428 39.226 220.11 39.226H217.874V45.804Z" fill="#323B4B"/>
<defs>
<filter id="filter0_f_1430_4648" x="-35.9235" y="-22.2099" width="150.417" height="107.939" filterUnits="userSpaceOnUse" color-interpolation-filters="sRGB">
<feFlood flood-opacity="0" result="BackgroundImageFix"/>
<feBlend mode="normal" in="SourceGraphic" in2="BackgroundImageFix" result="shape"/>
<feGaussianBlur stdDeviation="13.3333" result="effect1_foregroundBlur_1430_4648"/>
</filter>
<filter id="filter1_f_1430_4648" x="15.8676" y="-68.7289" width="108.871" height="136.178" filterUnits="userSpaceOnUse" color-interpolation-filters="sRGB">
<feFlood flood-opacity="0" result="BackgroundImageFix"/>
<feBlend mode="normal" in="SourceGraphic" in2="BackgroundImageFix" result="shape"/>
<feGaussianBlur stdDeviation="11.1111" result="effect1_foregroundBlur_1430_4648"/>
</filter>
<filter id="filter2_f_1430_4648" x="-70.6745" y="-7.25233" width="116.701" height="86.9859" filterUnits="userSpaceOnUse" color-interpolation-filters="sRGB">
<feFlood flood-opacity="0" result="BackgroundImageFix"/>
<feBlend mode="normal" in="SourceGraphic" in2="BackgroundImageFix" result="shape"/>
<feGaussianBlur stdDeviation="13.3333" result="effect1_foregroundBlur_1430_4648"/>
</filter>
<filter id="filter3_f_1430_4648" x="-56.5053" y="7.28231" width="88.244" height="63.5369" filterUnits="userSpaceOnUse" color-interpolation-filters="sRGB">
<feFlood flood-opacity="0" result="BackgroundImageFix"/>
<feBlend mode="normal" in="SourceGraphic" in2="BackgroundImageFix" result="shape"/>
<feGaussianBlur stdDeviation="8.88889" result="effect1_foregroundBlur_1430_4648"/>
</filter>
<linearGradient id="paint0_linear_1430_4648" x1="82.3229" y1="-14.8775" x2="66.1373" y2="32.0351" gradientUnits="userSpaceOnUse">
<stop stop-color="#FF0095"/>
<stop offset="1" stop-color="#FFCDFF"/>
</linearGradient>
<clipPath id="clip0_1430_4648">
<rect width="102.4" height="64" fill="white" transform="translate(-22.2002)"/>
</clipPath>
</defs>
</svg>
